<svg xmlns="http://www.w3.org/2000/svg" width="31.238" height="31.238" viewBox="0 0 31.238 31.238">
  <path id="ig" d="M15.619,0C11.376,0,10.846.02,9.18.094A11.517,11.517,0,0,0,5.389.82a7.649,7.649,0,0,0-2.767,1.8A7.621,7.621,0,0,0,.82,5.389,11.484,11.484,0,0,0,.094,9.18C.016,10.846,0,11.376,0,15.619s.02,4.773.094,6.439A11.524,11.524,0,0,0,.82,25.85a7.66,7.66,0,0,0,1.8,2.767,7.638,7.638,0,0,0,2.767,1.8,11.531,11.531,0,0,0,3.792.726c1.666.078,2.2.094,6.439.094s4.773-.02,6.439-.094a11.558,11.558,0,0,0,3.792-.726,7.982,7.982,0,0,0,4.569-4.569,11.524,11.524,0,0,0,.726-3.792c.078-1.666.094-2.2.094-6.439s-.02-4.773-.094-6.439a11.551,11.551,0,0,0-.726-3.792,7.666,7.666,0,0,0-1.8-2.767A7.61,7.61,0,0,0,25.85.82,11.491,11.491,0,0,0,22.058.094C20.392.016,19.862,0,15.619,0Zm0,2.811c4.169,0,4.666.021,6.313.092a8.605,8.605,0,0,1,2.9.54A5.14,5.14,0,0,1,27.8,6.408a8.624,8.624,0,0,1,.538,2.9c.074,1.648.091,2.142.091,6.313s-.02,4.666-.1,6.313a8.79,8.79,0,0,1-.548,2.9,4.959,4.959,0,0,1-1.17,1.8,4.873,4.873,0,0,1-1.8,1.166,8.687,8.687,0,0,1-2.909.538c-1.658.074-2.146.091-6.324.091s-4.668-.02-6.324-.1a8.856,8.856,0,0,1-2.91-.548A4.837,4.837,0,0,1,4.55,26.61a4.743,4.743,0,0,1-1.171-1.8A8.864,8.864,0,0,1,2.832,21.9c-.059-1.64-.079-2.146-.079-6.3s.021-4.668.079-6.327a8.854,8.854,0,0,1,.547-2.908,4.63,4.63,0,0,1,1.171-1.8A4.62,4.62,0,0,1,6.345,3.4,8.645,8.645,0,0,1,9.236,2.85c1.66-.059,2.148-.078,6.324-.078l.059.039Zm0,4.787a8.02,8.02,0,1,0,8.02,8.02A8.02,8.02,0,0,0,15.619,7.6Zm0,13.227a5.206,5.206,0,1,1,5.206-5.206A5.2,5.2,0,0,1,15.619,20.826ZM25.831,7.282a1.874,1.874,0,1,1-1.874-1.873A1.876,1.876,0,0,1,25.831,7.282Z" fill="#fff"/>
</svg>
