<svg xmlns="http://www.w3.org/2000/svg" width="30.977" height="30.977" viewBox="0 0 30.977 30.977">
  <path id="li" d="M28.764,2.25H2.206A2.222,2.222,0,0,0,0,4.483v26.51a2.222,2.222,0,0,0,2.206,2.233H28.764a2.228,2.228,0,0,0,2.213-2.233V4.483A2.228,2.228,0,0,0,28.764,2.25ZM9.362,28.8H4.771V14.018h4.6V28.8ZM7.067,12A2.662,2.662,0,1,1,9.729,9.337,2.663,2.663,0,0,1,7.067,12ZM26.572,28.8H21.981V21.61c0-1.715-.035-3.92-2.385-3.92-2.392,0-2.759,1.867-2.759,3.8V28.8H12.245V14.018h4.4v2.019h.062a4.836,4.836,0,0,1,4.349-2.385c4.646,0,5.511,3.063,5.511,7.046Z" transform="translate(0 -2.25)" fill="#fff"/>
</svg>
