<svg xmlns="http://www.w3.org/2000/svg" width="15.013" height="15.013" viewBox="0 0 15.013 15.013">
  <g id="listingicon" transform="translate(-3.375 -3.375)">
    <path id="Path_5" data-name="Path 5" d="M18.165,12.9l-.635-.653a.137.137,0,0,0-.1-.043h0a.131.131,0,0,0-.1.043l-4.4,4.435-1.6-1.6a.14.14,0,0,0-.2,0l-.642.642a.144.144,0,0,0,0,.206L12.5,17.952a.639.639,0,0,0,.422.206.67.67,0,0,0,.419-.2h0l4.825-4.85A.154.154,0,0,0,18.165,12.9Z" transform="translate(-3.436 -4.298)" fill="#1d1d1d"/>
    <path id="Path_6" data-name="Path 6" d="M10.882,4.386a6.494,6.494,0,1,1-4.594,1.9,6.453,6.453,0,0,1,4.594-1.9m0-1.011a7.507,7.507,0,1,0,7.507,7.507,7.505,7.505,0,0,0-7.507-7.507Z" fill="#1d1d1d"/>
  </g>
</svg>
