<?xml version="1.0" standalone="no"?>
<!DOCTYPE svg PUBLIC "-//W3C//DTD SVG 1.1//EN" "http://www.w3.org/Graphics/SVG/1.1/DTD/svg11.dtd" >
<svg xmlns="http://www.w3.org/2000/svg" xmlns:xlink="http://www.w3.org/1999/xlink" version="1.1">
<metadata>
Created by FontForge 20170731 at Sat Sep 21 10:51:33 2019
 By Aleksey,,,
Copyright (c) 2019 by TypeType. Designers Ivan Gladkikh, Pavel Emelyanov. Technical designers Marina Khodak, Kseniya Karataeva, Nadezhda Polomoshnova, Yuri Nako, Nadyr Rakhimov, Victor Rubenko. All rights reserved. Desktop use is strictly prohibited.
</metadata>
<defs>
<font id="TTInterfaces-Bold" horiz-adv-x="2048" >
  <font-face 
    font-family="TT Interfaces Bold"
    font-weight="700"
    font-stretch="normal"
    units-per-em="2048"
    panose-1="2 0 8 3 6 0 0 2 0 4"
    ascent="1638"
    descent="-410"
    x-height="1085"
    cap-height="1434"
    bbox="-1106 -522 2945 2068"
    underline-thickness="0"
    underline-position="0"
    unicode-range="U+000D-FB04"
  />
<missing-glyph horiz-adv-x="0" 
 />
    <glyph glyph-name="uniFB00" unicode="ff" horiz-adv-x="1484" 
d="M215 0v819h-174v266h174v93q0 317 338 317h205v-256h-154q-47 0 -74.5 -27.5t-27.5 -74.5v-52h399v93q0 317 338 317h205v-256h-154q-45 0 -73.5 -27.5t-28.5 -74.5v-52h256v-266h-256v-819h-287v819h-399v-819h-287z" />
    <glyph glyph-name="uniFB01" unicode="fi" horiz-adv-x="1310" 
d="M215 0v819h-174v266h174v93q0 317 338 317h205v-256h-154q-47 0 -74.5 -27.5t-27.5 -74.5v-52h686v-1085h-287v819h-399v-819h-287zM1044.5 1198q-69.5 0 -116.5 47t-47 117t47 117t116.5 47t116.5 -47t47 -117t-47 -117t-116.5 -47z" />
    <glyph glyph-name="uniFB02" unicode="fl" horiz-adv-x="1320" 
d="M215 0v819h-174v266h174v93q0 317 338 317h635v-1495h-287v1239h-297q-47 0 -74.5 -27.5t-27.5 -74.5v-52h256v-266h-256v-819h-287z" />
    <glyph glyph-name="uniFB03" unicode="ffi" horiz-adv-x="1996" 
d="M215 0v819h-174v266h174v93q0 317 338 317h205v-256h-154q-47 0 -74.5 -27.5t-27.5 -74.5v-52h399v93q0 317 338 317h205v-256h-154q-45 0 -73.5 -27.5t-28.5 -74.5v-52h686v-1085h-287v819h-399v-819h-287v819h-399v-819h-287zM1730.5 1198q-69.5 0 -116.5 47t-47 117
t47 117t116.5 47t116.5 -47t47 -117t-47 -117t-116.5 -47z" />
    <glyph glyph-name="uniFB04" unicode="ffl" horiz-adv-x="2007" 
d="M215 0v819h-174v266h174v93q0 317 338 317h205v-256h-154q-47 0 -74.5 -27.5t-27.5 -74.5v-52h399v93q0 317 338 317h635v-1495h-287v1239h-297q-45 0 -73.5 -27.5t-28.5 -74.5v-52h256v-266h-256v-819h-287v819h-399v-819h-287z" />
    <glyph glyph-name="f_f_j.liga" unicode="ffj" horiz-adv-x="1996" 
d="M1321 -410v246h164q47 0 74.5 30t27.5 83v870h-399v-819h-287v819h-399v-819h-287v819h-174v266h174v93q0 317 338 317h205v-256h-154q-47 0 -74.5 -27.5t-27.5 -74.5v-52h399v93q0 317 338 317h205v-256h-154q-45 0 -73.5 -27.5t-28.5 -74.5v-52h686v-1177
q0 -162 -81 -240t-257 -78h-215zM1730.5 1198q-69.5 0 -116.5 47t-47 117t47 117t116.5 47t116.5 -47t47 -117t-47 -117t-116.5 -47z" />
    <glyph glyph-name="f_j.liga" unicode="fj" horiz-adv-x="1310" 
d="M635 -410v246h164q47 0 74.5 30t27.5 83v870h-399v-819h-287v819h-174v266h174v93q0 317 338 317h205v-256h-154q-47 0 -74.5 -27.5t-27.5 -74.5v-52h686v-1177q0 -162 -81 -240t-257 -78h-215zM1044.5 1198q-69.5 0 -116.5 47t-47 117t47 117t116.5 47t116.5 -47
t47 -117t-47 -117t-116.5 -47z" />
    <glyph glyph-name=".notdef" horiz-adv-x="0" 
 />
    <glyph glyph-name="glyph1" horiz-adv-x="0" 
 />
    <glyph glyph-name="glyph1" horiz-adv-x="0" 
 />
    <glyph glyph-name="glyph2" horiz-adv-x="681" 
 />
    <glyph glyph-name="uni000D" unicode="&#xd;" horiz-adv-x="0" 
 />
    <glyph glyph-name="space" unicode=" " horiz-adv-x="471" 
 />
    <glyph glyph-name="exclam" unicode="!" horiz-adv-x="614" 
d="M307.5 -10q-69.5 0 -117 47t-47.5 116.5t47.5 116.5t117 47t116.5 -47t47 -116.5t-47 -116.5t-116.5 -47zM195 471l-31 809v154h287v-154l-31 -809h-225z" />
    <glyph glyph-name="quotedbl" unicode="&#x22;" horiz-adv-x="829" 
d="M113 963v471h245v-471h-245zM471 963v471h246v-471h-246z" />
    <glyph glyph-name="numbersign" unicode="#" horiz-adv-x="1382" 
d="M174 0l72 328h-215l51 245h215l61 287h-215l52 246h215l71 328h246l-72 -328h236l72 328h245l-71 -328h215l-52 -246h-215l-61 -287h215l-51 -245h-215l-72 -328h-246l72 328h-235l-72 -328h-246zM543 573h235l62 287h-236z" />
    <glyph glyph-name="dollar" unicode="$" horiz-adv-x="1280" 
d="M502 -225v215q-193 29 -311.5 141.5t-139.5 298.5h307q16 -86 89 -135t188 -49q266 0 266 174q0 66 -59.5 105.5t-147.5 53t-192.5 41t-192.5 64.5t-147.5 126t-59.5 224q0 170 110 275.5t290 134.5v215h307v-223q168 -37 263 -143.5t116 -258.5h-307q-16 72 -77 113
t-159 41q-109 0 -167 -44t-58 -110q0 -68 59.5 -110.5t147.5 -59t192.5 -45t192.5 -64.5t147.5 -122t59.5 -213q0 -158 -107.5 -272.5t-302.5 -151.5v-221h-307z" />
    <glyph glyph-name="percent" unicode="%" horiz-adv-x="1566" 
d="M225 0l891 1434h225l-890 -1434h-226zM1167.5 -20q-147.5 0 -237.5 92t-90 245.5t90 245.5t237.5 92t237.5 -92t90 -245.5t-90 -245.5t-237.5 -92zM1167.5 154q63.5 0 103.5 44t40 119.5t-40 119.5t-103.5 44t-103.5 -44t-40 -119.5t40 -119.5t103.5 -44zM399.5 778
q-147.5 0 -237.5 92.5t-90 246t90 245.5t237.5 92t237.5 -92t90 -245.5t-90 -246t-237.5 -92.5zM399.5 952q63.5 0 103.5 44t40 120t-40 120t-103.5 44t-103.5 -44t-40 -120t40 -120t103.5 -44z" />
    <glyph glyph-name="ampersand" unicode="&#x26;" horiz-adv-x="1351" 
d="M522 236q133 0 236 102l-256 256l-62 -41q-92 -61 -92 -164q0 -70 45 -111.5t129 -41.5zM502 -20q-211 0 -331 108.5t-120 280.5q0 219 195 338l82 51l-62 61q-123 123 -123 287q0 143 115 245.5t295 102.5q195 0 302.5 -95t107.5 -253q0 -201 -175 -307l-81 -51
l235 -236l143 143h349l-318 -317l338 -338h-358l-154 154q-66 -51 -111 -80t-138 -61.5t-191 -32.5zM532 911l72 52q27 20 41 32.5t27.5 37t13.5 52.5q0 55 -36 89t-97 34t-97 -35.5t-36 -97.5q0 -51 72 -123z" />
    <glyph glyph-name="quotesingle" unicode="'" horiz-adv-x="471" 
d="M113 963v471h245v-471h-245z" />
    <glyph glyph-name="parenleft" unicode="(" horiz-adv-x="727" 
d="M389 -410q-266 383 -266 952.5t266 952.5h287q-266 -399 -266 -952t266 -953h-287z" />
    <glyph glyph-name="parenright" unicode=")" horiz-adv-x="727" 
d="M51 -410q266 399 266 952.5t-266 952.5h287q266 -383 266 -952.5t-266 -952.5h-287z" />
    <glyph glyph-name="asterisk" unicode="*" horiz-adv-x="962" 
d="M348 655l-194 133l204 205l-286 62l71 215l256 -113l-30 277h225l-31 -277l256 113l72 -215l-287 -62l205 -205l-195 -133l-133 236z" />
    <glyph glyph-name="plus" unicode="+" horiz-adv-x="1126" 
d="M451 143v379h-379v226h379v378h225v-378h379v-226h-379v-379h-225z" />
    <glyph glyph-name="comma" unicode="," horiz-adv-x="471" 
d="M31 -225l82 430h256l-123 -430h-215z" />
    <glyph glyph-name="hyphen" unicode="-" horiz-adv-x="829" 
d="M82 451v256h666v-256h-666z" />
    <glyph glyph-name="period" unicode="." horiz-adv-x="471" 
d="M235.5 -10q-69.5 0 -116.5 47t-47 116.5t47 116.5t116.5 47t116.5 -47t47 -116.5t-47 -116.5t-116.5 -47z" />
    <glyph glyph-name="slash" unicode="/" horiz-adv-x="890" 
d="M0 -410l594 1905h297l-594 -1905h-297z" />
    <glyph glyph-name="zero" unicode="0" horiz-adv-x="1392" 
d="M696.5 -20q-284.5 0 -449.5 188t-165 548.5t165 549t449.5 188.5t449.5 -188.5t165 -549t-165 -548.5t-449.5 -188zM696 256q131 0 219.5 118t88.5 343t-88.5 343t-219.5 118t-219 -118t-88 -343t88 -343t219 -118z" />
    <glyph glyph-name="one" unicode="1" horiz-adv-x="808" 
d="M358 0v993h-286v277h204q82 0 82 82v82h308v-1434h-308z" />
    <glyph glyph-name="two" unicode="2" horiz-adv-x="1218" 
d="M72 0v276l624 553q102 88 103 175q0 174 -205 174q-86 0 -143.5 -45.5t-71.5 -128.5h-307q25 201 153.5 325.5t368.5 124.5q258 0 390 -117.5t132 -312.5q0 -197 -194 -369l-430 -379h645v-276h-1065z" />
    <glyph glyph-name="three" unicode="3" horiz-adv-x="1239" 
d="M625 -20q-244 0 -405 109.5t-169 340.5h307q29 -174 256 -174q236 0 236 164q0 84 -63.5 129t-172.5 45h-122v256h122q104 0 159.5 46t55.5 117.5t-55 118t-160 46.5q-90 0 -155.5 -43t-79.5 -131h-307q23 219 170 334.5t383 115.5q227 0 369.5 -110.5t142.5 -299.5
q0 -231 -226 -317q113 -41 179.5 -127t66.5 -211q0 -195 -147 -302t-385 -107z" />
    <glyph glyph-name="four" unicode="4" horiz-adv-x="1249" 
d="M727 0v276h-686v267l584 891h409v-891h185v-267h-185v-276h-307zM358 543h369v553h-10z" />
    <glyph glyph-name="five" unicode="5" horiz-adv-x="1239" 
d="M625 -20q-215 0 -363.5 116.5t-179.5 333.5h307q16 -78 75.5 -126t149.5 -48q121 0 183.5 62.5t62.5 173.5q0 98 -64.5 166.5t-181.5 68.5q-139 0 -215 -113h-297l82 820h901v-267h-645l-30 -266h10q100 72 266 72q211 0 346 -136.5t135 -355.5q0 -217 -142 -359
t-400 -142z" />
    <glyph glyph-name="six" unicode="6" horiz-adv-x="1249" 
d="M624.5 256q114.5 0 180 62.5t65.5 162.5q0 104 -71.5 170t-173.5 66q-115 0 -180.5 -63.5t-65.5 -172.5q0 -100 65.5 -162.5t180 -62.5zM625 -20q-250 0 -401.5 143t-151.5 369q0 199 153 440l318 502h338l-308 -482h11q31 10 102 11q225 0 358.5 -137.5t133.5 -344.5
q0 -221 -148.5 -361t-404.5 -140z" />
    <glyph glyph-name="seven" unicode="7" horiz-adv-x="1105" 
d="M205 0l512 1157h-666v277h993v-277l-512 -1157h-327z" />
    <glyph glyph-name="eight" unicode="8" horiz-adv-x="1269" 
d="M635 236q115 0 180.5 51t65.5 143t-65.5 143.5t-180.5 51.5t-180.5 -51.5t-65.5 -143.5t65.5 -143t180.5 -51zM635 -20q-266 0 -409.5 118.5t-143.5 311.5q0 111 64.5 198.5t160.5 128.5q-78 43 -136 125t-58 182q0 188 144 299t377.5 111t378 -110.5t144.5 -299.5
q0 -100 -58.5 -182t-135.5 -125q96 -41 160.5 -129t64.5 -198q0 -193 -143.5 -311.5t-409.5 -118.5zM634.5 850q104.5 0 160 47t55.5 127t-55.5 127t-160 47t-159.5 -47t-55 -127t55 -127t159.5 -47z" />
    <glyph glyph-name="nine" unicode="9" horiz-adv-x="1249" 
d="M369 0l307 481h-10q-31 -10 -103 -10q-225 0 -358 137t-133 344q0 221 148.5 361.5t404.5 140.5q250 0 401.5 -143.5t151.5 -368.5q0 -199 -154 -440l-317 -502h-338zM625 717q115 0 180 63.5t65 171.5q0 100 -65.5 163t-180 63t-180 -62.5t-65.5 -163.5
q0 -104 72 -169.5t174 -65.5z" />
    <glyph glyph-name="colon" unicode=":" horiz-adv-x="471" 
d="M235.5 -10q-69.5 0 -116.5 47t-47 116.5t47 116.5t116.5 47t116.5 -47t47 -116.5t-47 -116.5t-116.5 -47zM235.5 778q-69.5 0 -116.5 47t-47 117t47 117t116.5 47t116.5 -47t47 -117t-47 -117t-116.5 -47z" />
    <glyph glyph-name="semicolon" unicode=";" horiz-adv-x="471" 
d="M31 -225l82 430h256l-123 -430h-215zM235.5 778q-69.5 0 -116.5 47t-47 117t47 117t116.5 47t116.5 -47t47 -117t-47 -117t-116.5 -47z" />
    <glyph glyph-name="less" unicode="&#x3c;" horiz-adv-x="1044" 
d="M973 82l-901 440v226l901 440v-256l-625 -297l625 -297v-256z" />
    <glyph glyph-name="equal" unicode="=" horiz-adv-x="1126" 
d="M72 287v225h983v-225h-983zM72 748v225h983v-225h-983z" />
    <glyph glyph-name="greater" unicode="&#x3e;" horiz-adv-x="1044" 
d="M72 82v256l624 297l-624 297v256l901 -440v-226z" />
    <glyph glyph-name="question" unicode="?" horiz-adv-x="1064" 
d="M522.5 -10q-69.5 0 -117 47t-47.5 116.5t47.5 116.5t117 47t116.5 -47t47 -116.5t-47 -116.5t-116.5 -47zM379 471v82q0 102 32.5 176t79 112t93.5 68.5t79.5 68.5t32.5 87q0 57 -43 95t-131 38q-80 0 -128 -48t-56 -116h-297q8 199 136 309.5t345 110.5
q215 0 343 -100.5t128 -268.5q0 -88 -34.5 -155.5t-85 -108.5t-99.5 -77.5t-84 -84t-35 -106.5v-82h-276z" />
    <glyph glyph-name="at" unicode="@" horiz-adv-x="1904" 
d="M942 369q88 0 141.5 61.5t53.5 174t-53.5 174t-141.5 61.5t-141 -61.5t-53 -174t53 -174t141 -61.5zM911 -215q-377 0 -598 223t-221 606q0 371 236.5 600.5t634.5 229.5q201 0 365.5 -64.5t271 -174t165 -252t58.5 -298.5q0 -240 -106.5 -360.5t-272.5 -120.5
q-82 0 -143.5 34t-81.5 66l-21 33h-10q-76 -133 -277 -133q-178 0 -278.5 120t-100.5 310.5t98.5 310t270.5 119.5q74 0 132.5 -23.5t80.5 -45.5l23 -23h10l20 82h174v-522q0 -123 103 -123q154 0 153 266q0 150 -64.5 279t-213 217t-356.5 88q-289 0 -467.5 -172
t-178.5 -443q0 -291 158 -452.5t436 -161.5h349v-215h-349z" />
    <glyph glyph-name="A" unicode="A" horiz-adv-x="1382" 
d="M-10 0l512 1434h379l512 -1434h-318l-92 266h-584l-92 -266h-317zM500 543h383l-187 542h-10z" />
    <glyph glyph-name="B" unicode="B" horiz-adv-x="1361" 
d="M451 266h348q84 0 129 43t45 121t-45 121t-129 43h-348v-328zM143 0v1434h676q213 0 327 -106.5t114 -293.5q0 -102 -52.5 -184t-132.5 -123q90 -41 147.5 -126t57.5 -202q0 -186 -113.5 -292.5t-326.5 -106.5h-697zM451 840h327q84 0 129 43t45 120.5t-45 120.5t-129 43
h-327v-327z" />
    <glyph glyph-name="C" unicode="C" horiz-adv-x="1443" 
d="M758 -20q-311 0 -493.5 194.5t-182.5 542.5t182 542.5t494 194.5q258 0 412.5 -126t211.5 -345h-317q-88 195 -307 195q-168 0 -268.5 -119t-100.5 -342t100.5 -342t268.5 -119q219 0 307 195h317q-57 -219 -211.5 -345t-412.5 -126z" />
    <glyph glyph-name="D" unicode="D" horiz-adv-x="1433" 
d="M143 0v1434h553q301 0 478.5 -190.5t177.5 -526.5t-177.5 -526.5t-478.5 -190.5h-553zM451 276h235q156 0 257 114t101 327t-101 326.5t-257 113.5h-235v-881z" />
    <glyph glyph-name="E" unicode="E" horiz-adv-x="1228" 
d="M143 0v1434h973v-277h-665v-307h624v-256h-624v-318h686v-276h-994z" />
    <glyph glyph-name="F" unicode="F" horiz-adv-x="1187" 
d="M143 0v1434h973v-277h-665v-338h614v-276h-614v-543h-308z" />
    <glyph glyph-name="G" unicode="G" horiz-adv-x="1484" 
d="M758 -20q-311 0 -493.5 194.5t-182.5 542.5t182 542.5t494 194.5q258 0 412.5 -126t211.5 -345h-317q-88 195 -307 195q-168 0 -268.5 -119t-100.5 -342t100.5 -342t268.5 -119q266 0 327 266h-358v246h676v-113q0 -311 -171 -493t-474 -182z" />
    <glyph glyph-name="H" unicode="H" horiz-adv-x="1474" 
d="M143 0v1434h308v-574h573v574h307v-1434h-307v584h-573v-584h-308z" />
    <glyph glyph-name="I" unicode="I" horiz-adv-x="593" 
d="M143 0v1434h308v-1434h-308z" />
    <glyph glyph-name="J" unicode="J" horiz-adv-x="1167" 
d="M543 -20q-223 0 -349 118.5t-143 341.5h307q8 -90 57.5 -137t127.5 -47q184 0 184 236v942h307v-942q0 -244 -130 -378t-361 -134z" />
    <glyph glyph-name="K" unicode="K" horiz-adv-x="1310" 
d="M143 0v1434h308v-635l512 635h358l-573 -707l604 -727h-359l-542 655v-655h-308z" />
    <glyph glyph-name="L" unicode="L" horiz-adv-x="1146" 
d="M143 0v1434h308v-1158h655v-276h-963z" />
    <glyph glyph-name="M" unicode="M" horiz-adv-x="1873" 
d="M143 0v1434h451l338 -994h10l338 994h451v-1434h-308v1014h-10l-348 -1014h-256l-348 1014h-10v-1014h-308z" />
    <glyph glyph-name="N" unicode="N" horiz-adv-x="1546" 
d="M143 0v1434h400l542 -983h11v983h307v-1434h-399l-543 983h-10v-983h-308z" />
    <glyph glyph-name="O" unicode="O" horiz-adv-x="1515" 
d="M757.5 -20q-311.5 0 -493.5 194.5t-182 542.5t182 542.5t493.5 194.5t494 -194.5t182.5 -542.5t-182.5 -542.5t-494 -194.5zM758 256q168 0 268 119t100 342t-100 342t-268 119t-268.5 -119t-100.5 -342t100.5 -342t268.5 -119z" />
    <glyph glyph-name="P" unicode="P" horiz-adv-x="1320" 
d="M143 0v1434h594q221 0 361.5 -138.5t140.5 -353.5t-140.5 -353t-361.5 -138h-286v-451h-308zM451 727h256q106 0 165.5 57.5t59.5 157.5t-59.5 157.5t-165.5 57.5h-256v-430z" />
    <glyph glyph-name="Q" unicode="Q" horiz-adv-x="1515" 
d="M1044 -205l-131 199q-86 -14 -155 -14q-311 0 -493.5 194.5t-182.5 542.5t182 542.5t493.5 194.5t494 -194.5t182.5 -542.5q0 -420 -265 -617l203 -305h-328zM739 256l-135 205h328l72 -111q123 119 122 367q0 223 -100 342t-268 119t-268.5 -119t-100.5 -342
q0 -217 95 -336t255 -125z" />
    <glyph glyph-name="R" unicode="R" horiz-adv-x="1341" 
d="M143 0v1434h615q217 0 349 -129t132 -342q0 -100 -30.5 -183.5t-73.5 -130.5t-87 -80.5t-75 -44.5l-31 -12l348 -512h-348l-328 492h-163v-492h-308zM451 768h286q86 0 140.5 52t54.5 142.5t-54.5 142.5t-140.5 52h-286v-389z" />
    <glyph glyph-name="S" unicode="S" horiz-adv-x="1280" 
d="M635 -20q-246 0 -403.5 116.5t-180.5 333.5h307q16 -86 89 -135t188 -49q266 0 266 174q0 66 -59.5 105.5t-147.5 53t-192.5 41t-192.5 64.5t-147.5 126t-59.5 224q0 201 149.5 310.5t383.5 109.5q250 0 389 -115.5t164 -304.5h-307q-16 72 -77 113t-159 41
q-109 0 -167 -44t-58 -110q0 -68 59.5 -110.5t147.5 -59t192.5 -45t192.5 -64.5t147.5 -122t59.5 -213q0 -193 -155 -316.5t-429 -123.5z" />
    <glyph glyph-name="T" unicode="T" horiz-adv-x="1228" 
d="M461 0v1157h-430v277h1167v-277h-430v-1157h-307z" />
    <glyph glyph-name="U" unicode="U" horiz-adv-x="1474" 
d="M737.5 -20q-278.5 0 -441.5 168.5t-163 465.5v820h307v-820q0 -172 81 -265t216 -93t216 93t81 265v820h307v-820q0 -297 -162.5 -465.5t-441 -168.5z" />
    <glyph glyph-name="V" unicode="V" horiz-adv-x="1361" 
d="M481 0l-481 1434h328l348 -1086h10l348 1086h328l-481 -1434h-400z" />
    <glyph glyph-name="W" unicode="W" horiz-adv-x="1945" 
d="M389 0l-379 1434h318l225 -994h10l246 994h328l245 -994h11l225 994h317l-379 -1434h-337l-246 993l-246 -993h-338z" />
    <glyph glyph-name="X" unicode="X" horiz-adv-x="1290" 
d="M-20 0l471 737l-451 697h348l297 -492l297 492h348l-450 -697l471 -737h-348l-318 532l-317 -532h-348z" />
    <glyph glyph-name="Y" unicode="Y" horiz-adv-x="1249" 
d="M471 0v492l-502 942h328l321 -625h11l323 625h328l-502 -942v-492h-307z" />
    <glyph glyph-name="Z" unicode="Z" horiz-adv-x="1239" 
d="M72 0v225l696 942h-676v267h1065v-226l-696 -942h706v-266h-1095z" />
    <glyph glyph-name="bracketleft" unicode="[" horiz-adv-x="706" 
d="M143 -410v1905h512v-266h-225v-1372h225v-267h-512z" />
    <glyph glyph-name="backslash" unicode="\" horiz-adv-x="890" 
d="M594 -410l-594 1905h297l594 -1905h-297z" />
    <glyph glyph-name="bracketright" unicode="]" horiz-adv-x="706" 
d="M51 -410v267h225v1372h-225v266h512v-1905h-512z" />
    <glyph glyph-name="asciicircum" unicode="^" horiz-adv-x="972" 
d="M61 778l308 656h235l307 -656h-235l-184 430h-11l-184 -430h-236z" />
    <glyph glyph-name="underscore" unicode="_" horiz-adv-x="911" 
d="M-41 -481v256h993v-256h-993z" />
    <glyph glyph-name="grave" unicode="`" horiz-adv-x="573" 
d="M297 1249l-236 307h267l184 -307h-215z" />
    <glyph glyph-name="a" unicode="a" horiz-adv-x="1136" 
d="M512 215q100 0 162.5 56.5t62.5 148.5v31h-245q-72 0 -108 -32t-36 -81q0 -55 41 -89t123 -34zM440 -20q-174 0 -276.5 94t-102.5 243q0 152 110 245t310 93h256v52q0 76 -49 114.5t-135 38.5q-59 0 -103 -26.5t-61 -65.5h-287q35 145 151 241.5t310 96.5
q217 0 339 -106.5t122 -303.5v-696h-246l-30 123h-11q-96 -143 -297 -143z" />
    <glyph glyph-name="b" unicode="b" horiz-adv-x="1269" 
d="M665.5 236q106.5 0 176 76.5t69.5 230t-69.5 230.5t-176 77t-176 -77t-69.5 -230.5t69.5 -230t176 -76.5zM727 -20q-184 0 -307 143h-10l-31 -123h-246v1434h287v-461h10q106 133 297 133q213 0 342 -146.5t129 -417t-129 -416.5t-342 -146z" />
    <glyph glyph-name="c" unicode="c" horiz-adv-x="1167" 
d="M604 -20q-248 0 -390 148t-142 414.5t142 415t390 148.5q215 0 337 -108.5t165 -280.5h-287q-66 133 -215 133q-111 0 -178.5 -79t-67.5 -228.5t68 -228t178 -78.5q150 0 215 133h287q-43 -172 -165 -280.5t-337 -108.5z" />
    <glyph glyph-name="d" unicode="d" horiz-adv-x="1269" 
d="M604.5 236q106.5 0 176 76.5t69.5 230t-69.5 230.5t-176 77t-176.5 -77t-70 -230.5t70 -230t176.5 -76.5zM543 -20q-213 0 -342 146t-129 416.5t129 417t342 146.5q190 0 297 -133h10v461h287v-1434h-246l-31 123h-10q-123 -143 -307 -143z" />
    <glyph glyph-name="e" unicode="e" horiz-adv-x="1198" 
d="M604 -20q-248 0 -390 148t-142 414.5t142 415t390 148.5q236 0 379 -151.5t143 -391.5l-10 -112h-747q37 -215 235 -215q78 0 119 24.5t76 77.5h307q-43 -156 -166 -257t-336 -101zM369 666h460q-16 78 -74.5 131t-150.5 53q-180 0 -235 -184z" />
    <glyph glyph-name="f" unicode="f" horiz-adv-x="798" 
d="M215 0v819h-174v266h174v93q0 317 338 317h205v-256h-154q-47 0 -74.5 -27.5t-27.5 -74.5v-52h256v-266h-256v-819h-287z" />
    <glyph glyph-name="g" unicode="g" horiz-adv-x="1239" 
d="M604 -410q-420 0 -512 369h297q33 -113 215 -113q106 0 165.5 51.5t59.5 143.5v154h-10q-39 -49 -114.5 -91.5t-172.5 -42.5q-211 0 -335.5 136.5t-124.5 386.5t125 386t335 136q174 0 297 -143h11l30 122h246v-1044q0 -219 -128 -335t-384 -116zM593.5 317
q108.5 0 172 72t63.5 195t-63.5 194.5t-172 71.5t-172 -71.5t-63.5 -194.5t63.5 -195t172 -72z" />
    <glyph glyph-name="h" unicode="h" horiz-adv-x="1218" 
d="M133 0v1434h287v-461h10q117 133 277 133q180 0 289.5 -118t109.5 -322v-666h-287v625q0 106 -51 165.5t-143.5 59.5t-148.5 -62.5t-56 -162.5v-625h-287z" />
    <glyph glyph-name="i" unicode="i" horiz-adv-x="532" 
d="M123 0v1085h287v-1085h-287zM266.5 1198q-69.5 0 -117 47t-47.5 117t47.5 117t117 47t116.5 -47t47 -117t-47 -117t-116.5 -47z" />
    <glyph glyph-name="j" unicode="j" horiz-adv-x="532" 
d="M-143 -410v246h163q47 0 75 30t28 83v1136h287v-1177q0 -162 -81 -240t-257 -78h-215zM266.5 1198q-69.5 0 -117 47t-47.5 117t47.5 117t117 47t116.5 -47t47 -117t-47 -117t-116.5 -47z" />
    <glyph glyph-name="k" unicode="k" horiz-adv-x="1146" 
d="M133 0v1434h287v-830l399 481h338l-440 -532l471 -553h-338l-430 502v-502h-287z" />
    <glyph glyph-name="l" unicode="l" horiz-adv-x="552" 
d="M133 0v1434h287v-1434h-287z" />
    <glyph glyph-name="m" unicode="m" horiz-adv-x="1812" 
d="M123 0v1085h246l30 -122h11q96 143 256 143q211 0 297 -174h10q31 63 114.5 118.5t212.5 55.5q178 0 289 -117t111 -313v-676h-287v635q0 109 -51 162t-133 53q-74 0 -124 -56.5t-50 -158.5v-635h-287v635q0 109 -51 162t-133 53q-72 0 -123 -59.5t-51 -155.5v-635h-287z
" />
    <glyph glyph-name="n" unicode="n" horiz-adv-x="1208" 
d="M123 0v1085h246l30 -122h11q111 143 286 143q180 0 290 -118t110 -322v-666h-287v625q0 106 -51 165.5t-143.5 59.5t-148.5 -62.5t-56 -162.5v-625h-287z" />
    <glyph glyph-name="o" unicode="o" horiz-adv-x="1208" 
d="M604 -20q-248 0 -390 148t-142 414.5t142 415t390 148.5t390.5 -148.5t142.5 -415t-142.5 -414.5t-390.5 -148zM604.5 236q106.5 0 176 76.5t69.5 230t-69.5 230.5t-176 77t-176.5 -77t-70 -230.5t70 -230t176.5 -76.5z" />
    <glyph glyph-name="p" unicode="p" horiz-adv-x="1259" 
d="M123 -410v1495h246l30 -122h11q123 143 307 143q213 0 342 -146.5t129 -417t-129 -416.5t-342 -146q-190 0 -297 133h-10v-523h-287zM655.5 236q106.5 0 176 76.5t69.5 230t-69.5 230.5t-176 77t-176 -77t-69.5 -230.5t69.5 -230t176 -76.5z" />
    <glyph glyph-name="q" unicode="q" horiz-adv-x="1259" 
d="M850 -410v523h-10q-106 -133 -297 -133q-213 0 -342 146t-129 416.5t129 417t342 146.5q184 0 307 -143h10l31 122h246v-1495h-287zM604.5 236q106.5 0 176 76.5t69.5 230t-69.5 230.5t-176 77t-176.5 -77t-70 -230.5t70 -230t176.5 -76.5z" />
    <glyph glyph-name="r" unicode="r" horiz-adv-x="829" 
d="M123 0v1085h246l30 -122h11q82 123 256 122h133v-276h-113q-129 0 -202.5 -71.5t-73.5 -194.5v-543h-287z" />
    <glyph glyph-name="s" unicode="s" horiz-adv-x="1054" 
d="M522 -20q-223 0 -339.5 99t-141.5 259h307q8 -41 55.5 -71.5t118.5 -30.5q184 0 185 81q0 37 -46.5 59.5t-116 32t-150.5 32t-150.5 54t-115.5 104.5t-46 179q0 143 115.5 235.5t324.5 92.5q217 0 332 -93t139 -245h-307q-20 82 -164 82q-68 0 -105.5 -20.5t-37.5 -51.5
q0 -37 46 -59.5t115.5 -31.5t150.5 -31.5t150.5 -54.5t116 -104.5t46.5 -179.5q0 -147 -113 -242t-369 -95z" />
    <glyph glyph-name="t" unicode="t" horiz-adv-x="839" 
d="M553 0q-338 0 -338 317v502h-174v266h174l41 287h246v-287h256v-266h-256v-450q0 -45 27.5 -74t74.5 -29h154v-266h-205z" />
    <glyph glyph-name="u" unicode="u" horiz-adv-x="1218" 
d="M522 -20q-180 0 -289.5 117.5t-109.5 322.5v665h287v-624q0 -106 51 -165.5t143 -59.5t148.5 62t56.5 163v624h287v-1085h-246l-31 123h-10q-111 -143 -287 -143z" />
    <glyph glyph-name="v" unicode="v" horiz-adv-x="1116" 
d="M379 0l-379 1085h307l246 -788h10l246 788h307l-379 -1085h-358z" />
    <glyph glyph-name="w" unicode="w" horiz-adv-x="1648" 
d="M307 0l-297 1085h297l185 -727h10l184 727h297l184 -727h11l184 727h276l-297 -1085h-317l-184 686h-11l-184 -686h-338z" />
    <glyph glyph-name="x" unicode="x" horiz-adv-x="1024" 
d="M-20 0l348 563l-328 522h317l195 -337l195 337h317l-328 -522l348 -563h-317l-215 369l-215 -369h-317z" />
    <glyph glyph-name="y" unicode="y" horiz-adv-x="1146" 
d="M266 -410l166 410l-442 1085h317l266 -706h9l258 706h317l-594 -1495h-297z" />
    <glyph glyph-name="z" unicode="z" horiz-adv-x="1003" 
d="M61 0v215l502 614h-481v256h850v-215l-502 -614h512v-256h-881z" />
    <glyph glyph-name="braceleft" unicode="{" horiz-adv-x="747" 
d="M522 -410q-152 0 -234.5 83t-82.5 235v358q0 143 -144 144v266q143 0 144 143v359q0 152 83 234.5t234 82.5h174v-266h-92q-61 0 -86.5 -25.5t-25.5 -87.5v-287q0 -246 -185 -266v-41q184 -20 185 -266v-287q0 -61 25.5 -86.5t86.5 -25.5h92v-267h-174z" />
    <glyph glyph-name="bar" unicode="|" horiz-adv-x="778" 
d="M246 -410v1905h286v-1905h-286z" />
    <glyph glyph-name="braceright" unicode="}" horiz-adv-x="747" 
d="M51 -410v267h92q61 0 87 25.5t26 86.5v287q0 246 184 266v41q-184 20 -184 266v287q0 61 -25.5 87t-87.5 26h-92v266h174q152 0 235 -83t83 -234v-359q0 -143 143 -143v-266q-143 0 -143 -144v-358q0 -152 -83 -235t-235 -83h-174z" />
    <glyph glyph-name="asciitilde" unicode="~" horiz-adv-x="1259" 
d="M829 451q-92 0 -162.5 38.5t-120.5 76.5t-95 38q-55 0 -89 -38t-34 -105h-236q0 182 91 280.5t247 98.5q92 0 163 -39t121 -77t95 -38q55 0 89 38t34 105h235q0 -182 -91 -280t-247 -98z" />
    <glyph glyph-name="uni00A0" unicode="&#xa0;" horiz-adv-x="471" 
 />
    <glyph glyph-name="exclamdown" unicode="&#xa1;" horiz-adv-x="593" 
d="M154 -410v154l30 870h226l30 -870v-154h-286zM297 778q-70 0 -117 47t-47 117t47 117t117 47t117 -47t47 -117t-47 -117t-117 -47z" />
    <glyph glyph-name="cent" unicode="&#xa2;" horiz-adv-x="1167" 
d="M461 -225v219q-184 39 -286.5 181t-102.5 367.5t102 368t287 181.5v219h297v-224q270 -68 348 -370h-287q-66 133 -215 133q-111 0 -178.5 -79t-67.5 -228.5t68 -228t178 -78.5q150 0 215 133h287q-78 -303 -348 -371v-223h-297z" />
    <glyph glyph-name="sterling" unicode="&#xa3;" horiz-adv-x="1228" 
d="M61 0v276h52q113 0 112 132v155h-164v266h164v154q0 223 124 347t347 124q211 0 328 -112.5t133 -317.5h-317q-14 90 -47 122t-97 32q-164 0 -164 -203v-146h338v-266h-338v-153q0 -45 -12 -79t-24 -44l-15 -11h697v-276h-1117z" />
    <glyph glyph-name="currency" unicode="&#xa4;" horiz-adv-x="1228" 
d="M236 143l-144 123l133 133q-72 115 -71.5 256.5t71.5 255.5l-133 133l144 123l122 -123q115 72 256.5 72t255.5 -72l123 123l144 -123l-133 -133q72 -115 71.5 -256t-71.5 -256l133 -133l-144 -123l-123 123q-115 -72 -256 -71.5t-256 71.5zM614.5 389q114.5 0 190.5 76
t76 190.5t-76 190.5t-190.5 76t-190.5 -76t-76 -190.5t76 -190.5t190.5 -76z" />
    <glyph glyph-name="yen" unicode="&#xa5;" horiz-adv-x="1249" 
d="M471 0v205h-338v246h338v102h-338v246h182l-325 635h327l301 -625h11l303 625h328l-328 -635h184v-246h-338v-102h338v-246h-338v-205h-307z" />
    <glyph glyph-name="brokenbar" unicode="&#xa6;" horiz-adv-x="778" 
d="M246 -410v779h286v-779h-286zM246 717v778h286v-778h-286z" />
    <glyph glyph-name="section" unicode="&#xa7;" horiz-adv-x="1269" 
d="M635 -246q-211 0 -346 100.5t-166 288.5h297q43 -143 225 -143q195 0 195 123q0 51 -54.5 79.5t-136.5 38t-178 31t-178 51t-136.5 104.5t-54.5 187q0 166 144 256q-102 86 -103 226q0 154 128 256t364 102q213 0 347 -98.5t165 -270.5h-297q-25 55 -84 89t-141 34
q-184 0 -185 -123q0 -61 76 -89.5t184.5 -43t217 -41t184.5 -105.5t76 -212q0 -160 -154 -256q113 -94 113 -225q0 -156 -130 -257.5t-372 -101.5zM819 461q61 47 62 112q0 53 -43 84t-98.5 40.5t-141.5 21.5t-137 29q-61 -47 -62 -113q0 -53 45 -85t101.5 -41t141.5 -21.5
t132 -26.5z" />
    <glyph glyph-name="dieresis" unicode="&#xa8;" horiz-adv-x="819" 
d="M204.5 1260q-61.5 0 -102.5 40.5t-41 102t41 102.5t102.5 41t102.5 -41t41 -102.5t-41 -102t-102.5 -40.5zM614.5 1260q-61.5 0 -102.5 40.5t-41 102t41 102.5t102.5 41t102.5 -41t41 -102.5t-41 -102t-102.5 -40.5z" />
    <glyph glyph-name="copyright" unicode="&#xa9;" horiz-adv-x="1679" 
d="M839.5 -20q-323.5 0 -530.5 206.5t-207 530t207 530.5t530.5 207t530.5 -207t207 -530.5t-207 -530t-530.5 -206.5zM839.5 164q239.5 0 391 153.5t151.5 399.5t-151.5 399.5t-391 153.5t-391 -153.5t-151.5 -399.5t151.5 -399.5t391 -153.5zM840 328q-170 0 -269.5 103.5
t-99.5 285.5t99.5 285.5t269.5 103.5q143 0 227 -77t111 -189h-185q-41 102 -153 102q-86 0 -135.5 -56.5t-49.5 -169t49.5 -168.5t135.5 -56q113 0 153 102h185q-27 -113 -111 -189.5t-227 -76.5z" />
    <glyph glyph-name="ordfeminine" unicode="&#xaa;" horiz-adv-x="747" 
d="M338 881q68 0 111 38.5t43 94.5v20h-175q-37 0 -59 -20.5t-22 -50.5q0 -82 102 -82zM297 717q-125 0 -185.5 70.5t-60.5 154.5q0 104 64.5 164.5t191.5 60.5h185v21q0 102 -113 102q-43 0 -64.5 -14t-38.5 -47h-194q8 96 86 160.5t211 64.5q137 0 217 -71.5t80 -194.5
v-461h-164l-10 82h-10q-70 -92 -195 -92z" />
    <glyph glyph-name="guillemotleft" unicode="&#xab;" horiz-adv-x="1423" 
d="M512 61l-440 492l440 491h317l-440 -485v-12l440 -486h-317zM1055 61l-441 492l441 491h317l-440 -485v-12l440 -486h-317z" />
    <glyph glyph-name="logicalnot" unicode="&#xac;" horiz-adv-x="1085" 
d="M778 307v236h-706v225h932v-461h-226z" />
    <glyph glyph-name="uni00AD" unicode="&#xad;" horiz-adv-x="829" 
d="M82 451v256h666v-256h-666z" />
    <glyph glyph-name="registered" unicode="&#xae;" horiz-adv-x="1679" 
d="M839.5 -20q-323.5 0 -530.5 206.5t-207 530t207 530.5t530.5 207t530.5 -207t207 -530.5t-207 -530t-530.5 -206.5zM839.5 164q239.5 0 391 153.5t151.5 399.5t-151.5 399.5t-391 153.5t-391 -153.5t-151.5 -399.5t151.5 -399.5t391 -153.5zM563 338v768h328
q129 0 202.5 -69.5t73.5 -186.5q0 -86 -45 -149.5t-129 -86.5l185 -276h-205l-174 266h-51v-266h-185zM748 758h133q102 0 102 92t-102 92h-133v-184z" />
    <glyph glyph-name="macron" unicode="&#xaf;" horiz-adv-x="737" 
d="M61 1290v195h615v-195h-615z" />
    <glyph glyph-name="degree" unicode="&#xb0;" horiz-adv-x="819" 
d="M409.5 850q-139.5 0 -228.5 89t-89 228.5t89 228.5t228.5 89t228.5 -89t89 -228.5t-89 -228.5t-228.5 -89zM409.5 1024q61.5 0 97.5 38t36 105.5t-36 105.5t-97.5 38t-97.5 -38t-36 -105.5t36 -105.5t97.5 -38z" />
    <glyph glyph-name="plusminus" unicode="&#xb1;" horiz-adv-x="1126" 
d="M72 10v226h983v-226h-983zM451 307v359h-379v225h379v358h225v-358h379v-225h-379v-359h-225z" />
    <glyph glyph-name="uni00B2" unicode="&#xb2;" horiz-adv-x="686" 
d="M51 819v164l297 277q82 76 82 143q0 72 -92 72t-92 -82h-195q8 117 80 186.5t217 69.5q129 0 203 -68t74 -178q0 -119 -123 -236l-195 -184h307v-164h-563z" />
    <glyph glyph-name="uni00B3" unicode="&#xb3;" horiz-adv-x="706" 
d="M348 809q-137 0 -218 63.5t-89 171.5h195q14 -61 112 -61q102 0 103 92q0 39 -28 60.5t-75 21.5h-72v164h72q92 0 92 82q0 72 -102 72q-51 0 -72.5 -19.5t-29.5 -62.5h-195q8 121 82 188.5t215 67.5t219 -64.5t78 -161.5q0 -63 -34 -109t-79 -65q123 -61 123 -184
q0 -104 -73.5 -180t-223.5 -76z" />
    <glyph glyph-name="acute" unicode="&#xb4;" horiz-adv-x="573" 
d="M61 1249l185 307h266l-236 -307h-215z" />
    <glyph glyph-name="mu" unicode="&#xb5;" horiz-adv-x="1218" 
d="M123 -369v1454h287v-624q0 -106 51 -165.5t143 -59.5t148.5 62t56.5 163v624h287v-1085h-246l-31 123h-10q-80 -143 -246 -143q-49 0 -90 12t-57 24l-17 15v-400h-276z" />
    <glyph glyph-name="paragraph" unicode="&#xb6;" horiz-adv-x="1218" 
d="M420 -225v860q-150 0 -249 109.5t-99 289.5t99 290t249 110h655v-1659h-256v1392h-143v-1392h-256z" />
    <glyph glyph-name="periodcentered" unicode="&#xb7;" horiz-adv-x="471" 
d="M235.5 399q-69.5 0 -116.5 47.5t-47 117t47 116.5t116.5 47t116.5 -47t47 -116.5t-47 -117t-116.5 -47.5z" />
    <glyph glyph-name="cedilla" unicode="&#xb8;" horiz-adv-x="491" 
d="M61 -471v164h113q61 0 61.5 51t-59.5 51h-94v113l41 92h164l-31 -72q74 -8 124 -56t50 -128q0 -100 -59.5 -157.5t-165.5 -57.5h-144z" />
    <glyph glyph-name="uni00B9" unicode="&#xb9;" horiz-adv-x="552" 
d="M246 819v533h-185v174h134q51 0 51 51v61h184v-819h-184z" />
    <glyph glyph-name="ordmasculine" unicode="&#xba;" horiz-adv-x="798" 
d="M399.5 717q-155.5 0 -247 97t-91.5 271.5t91.5 271.5t247 97t246.5 -97t91 -271.5t-91 -271.5t-246.5 -97zM399.5 891q63.5 0 108.5 53t45 141.5t-45 141.5t-108.5 53t-108.5 -53t-45 -141.5t45 -141.5t108.5 -53z" />
    <glyph glyph-name="guillemotright" unicode="&#xbb;" horiz-adv-x="1423" 
d="M51 61l441 486v12l-441 485h318l440 -491l-440 -492h-318zM594 61l440 486v12l-440 485h317l441 -491l-441 -492h-317z" />
    <glyph glyph-name="onequarter" unicode="&#xbc;" horiz-adv-x="1587" 
d="M184 0l891 1434h195l-891 -1434h-195zM246 614v533h-185v174h134q51 0 51 51v62h184v-820h-184zM1208 0v174h-368v164l327 481h226v-481h123v-164h-123v-174h-185zM1034 338h174v246h-10z" />
    <glyph glyph-name="onehalf" unicode="&#xbd;" horiz-adv-x="1597" 
d="M184 0l891 1434h195l-891 -1434h-195zM246 614v533h-185v174h134q51 0 51 51v62h184v-820h-184zM932 0v164l297 276q82 76 82 144q0 72 -92.5 71.5t-92.5 -82.5h-194q8 117 79.5 186.5t217.5 69.5q129 0 202.5 -67.5t73.5 -177.5q0 -119 -123 -236l-194 -184h307v-164
h-563z" />
    <glyph glyph-name="threequarters" unicode="&#xbe;" horiz-adv-x="1740" 
d="M338 0l891 1434h194l-891 -1434h-194zM369 604q-137 0 -218 63.5t-90 172.5h195q14 -61 113 -62q102 0 102 92q0 39 -27.5 60.5t-74.5 21.5h-72v164h72q92 0 92 82q0 72 -103 72q-51 0 -72.5 -19.5t-29.5 -62.5h-195q8 121 82 188.5t215.5 67.5t219 -64.5t77.5 -160.5
q0 -63 -33.5 -109.5t-78.5 -65.5q123 -61 123 -184q0 -104 -73.5 -180t-223.5 -76zM1362 0v174h-369v164l328 481h225v-481h123v-164h-123v-174h-184zM1188 338h174v246h-10z" />
    <glyph glyph-name="questiondown" unicode="&#xbf;" horiz-adv-x="1064" 
d="M543 -430q-215 0 -343 100.5t-128 268.5q0 104 34.5 177.5t85 113.5t99.5 75t84 88t35 129v103h276v-103q0 -100 -23.5 -173t-58.5 -109.5t-77 -68.5t-76.5 -53.5t-58 -61.5t-23.5 -97t43 -95t131 -38q80 0 128 48t56 116h297q-8 -199 -136 -309.5t-345 -110.5z
M542.5 778q-69.5 0 -116.5 47t-47 117t47 117t116.5 47t117 -47t47.5 -117t-47.5 -117t-117 -47z" />
    <glyph glyph-name="Agrave" unicode="&#xc0;" horiz-adv-x="1382" 
d="M-10 0l512 1434h379l512 -1434h-318l-92 266h-584l-92 -266h-317zM500 543h383l-187 542h-10zM584 1567l-236 307h266l185 -307h-215z" />
    <glyph glyph-name="Aacute" unicode="&#xc1;" horiz-adv-x="1382" 
d="M-10 0l512 1434h379l512 -1434h-318l-92 266h-584l-92 -266h-317zM500 543h383l-187 542h-10zM584 1567l184 307h266l-235 -307h-215z" />
    <glyph glyph-name="Acircumflex" unicode="&#xc2;" horiz-adv-x="1382" 
d="M-10 0l512 1434h379l512 -1434h-318l-92 266h-584l-92 -266h-317zM500 543h383l-187 542h-10zM317 1567l277 317h194l277 -317h-236l-133 164h-10l-133 -164h-236z" />
    <glyph glyph-name="Atilde" unicode="&#xc3;" horiz-adv-x="1382" 
d="M-10 0l512 1434h379l512 -1434h-318l-92 266h-584l-92 -266h-317zM500 543h383l-187 542h-10zM819 1587q-57 0 -129 41t-96 41q-51 0 -51 -72h-195q0 119 58.5 187.5t146.5 68.5q57 0 129 -40.5t96 -40.5q51 0 51 71h195q0 -119 -58.5 -187.5t-146.5 -68.5z" />
    <glyph glyph-name="Adieresis" unicode="&#xc4;" horiz-adv-x="1382" 
d="M-10 0l512 1434h379l512 -1434h-318l-92 266h-584l-92 -266h-317zM500 543h383l-187 542h-10zM491.5 1577q-61.5 0 -102.5 41t-41 102.5t41 102.5t102.5 41t102.5 -41t41 -102.5t-41 -102.5t-102.5 -41zM901.5 1577q-61.5 0 -102.5 41t-41 102.5t41 102.5t102.5 41
t102 -41t40.5 -102.5t-40.5 -102.5t-102 -41z" />
    <glyph glyph-name="Aring" unicode="&#xc5;" horiz-adv-x="1382" 
d="M-10 0l512 1434h379l512 -1434h-318l-92 266h-584l-92 -266h-317zM500 543h383l-187 542h-10zM686 1505q-100 0 -162.5 62.5t-62.5 163t62.5 163t162.5 62.5t162.5 -62.5t62.5 -163t-62.5 -163t-162.5 -62.5zM686 1649q82 0 82 81.5t-82 81.5t-82 -81.5t82 -81.5z" />
    <glyph glyph-name="AE" unicode="&#xc6;" horiz-adv-x="1966" 
d="M543 553h348v594h-51zM-72 0l717 1434h1208v-277h-655v-305h614v-258h-614v-318h676v-276h-983v287h-481l-144 -287h-338z" />
    <glyph glyph-name="Ccedilla" unicode="&#xc7;" horiz-adv-x="1443" 
d="M604 -471v164h113q61 0 61 51t-59 51h-94v113l32 78q-268 29 -421.5 220t-153.5 511q0 348 182 542.5t494 194.5q258 0 412.5 -126t211.5 -345h-317q-88 195 -307 195q-168 0 -268.5 -119t-100.5 -342t100.5 -342t268.5 -119q219 0 307 195h317q-53 -205 -192 -330
t-369 -139l-22 -54q74 -8 124 -56t50 -128q0 -100 -59.5 -157.5t-165.5 -57.5h-144z" />
    <glyph glyph-name="Egrave" unicode="&#xc8;" horiz-adv-x="1228" 
d="M143 0v1434h973v-277h-665v-307h624v-256h-624v-318h686v-276h-994zM543 1567l-236 307h266l185 -307h-215z" />
    <glyph glyph-name="Eacute" unicode="&#xc9;" horiz-adv-x="1228" 
d="M143 0v1434h973v-277h-665v-307h624v-256h-624v-318h686v-276h-994zM543 1567l184 307h266l-235 -307h-215z" />
    <glyph glyph-name="Ecircumflex" unicode="&#xca;" horiz-adv-x="1228" 
d="M143 0v1434h973v-277h-665v-307h624v-256h-624v-318h686v-276h-994zM276 1567l277 317h195l276 -317h-236l-133 164h-10l-133 -164h-236z" />
    <glyph glyph-name="Edieresis" unicode="&#xcb;" horiz-adv-x="1228" 
d="M143 0v1434h973v-277h-665v-307h624v-256h-624v-318h686v-276h-994zM440.5 1577q-61.5 0 -102.5 41t-41 102.5t41 102.5t102.5 41t102.5 -41t41 -102.5t-41 -102.5t-102.5 -41zM849.5 1577q-61.5 0 -102 41t-40.5 102.5t40.5 102.5t102 41t102.5 -41t41 -102.5
t-41 -102.5t-102.5 -41z" />
    <glyph glyph-name="Igrave" unicode="&#xcc;" horiz-adv-x="593" 
d="M143 0v1434h308v-1434h-308zM195 1567l-236 307h266l185 -307h-215z" />
    <glyph glyph-name="Iacute" unicode="&#xcd;" horiz-adv-x="593" 
d="M143 0v1434h308v-1434h-308zM195 1567l184 307h266l-235 -307h-215z" />
    <glyph glyph-name="Icircumflex" unicode="&#xce;" horiz-adv-x="593" 
d="M143 0v1434h308v-1434h-308zM-72 1567l277 317h194l277 -317h-236l-133 164h-10l-133 -164h-236z" />
    <glyph glyph-name="Idieresis" unicode="&#xcf;" horiz-adv-x="593" 
d="M143 0v1434h308v-1434h-308zM92.5 1577q-61.5 0 -102.5 41t-41 102.5t41 102.5t102.5 41t102.5 -41t41 -102.5t-41 -102.5t-102.5 -41zM501.5 1577q-61.5 0 -102.5 41t-41 102.5t41 102.5t102.5 41t102.5 -41t41 -102.5t-41 -102.5t-102.5 -41z" />
    <glyph glyph-name="Eth" unicode="&#xd0;" horiz-adv-x="1464" 
d="M174 0v594h-154v256h154v584h553q301 0 478 -190.5t177 -526.5t-177 -526.5t-478 -190.5h-553zM481 276h236q156 0 257 114t101 327t-101.5 326.5t-256.5 113.5h-236v-307h318v-256h-318v-318z" />
    <glyph glyph-name="Ntilde" unicode="&#xd1;" horiz-adv-x="1546" 
d="M143 0v1434h400l542 -983h11v983h307v-1434h-399l-543 983h-10v-983h-308zM911 1587q-55 0 -126.5 41t-98.5 41q-51 0 -51 -72h-195q0 119 58.5 187.5t146.5 68.5q55 0 127 -40.5t98 -40.5q51 0 52 71h194q0 -119 -58.5 -187.5t-146.5 -68.5z" />
    <glyph glyph-name="Ograve" unicode="&#xd2;" horiz-adv-x="1515" 
d="M757.5 -20q-311.5 0 -493.5 194.5t-182 542.5t182 542.5t493.5 194.5t494 -194.5t182.5 -542.5t-182.5 -542.5t-494 -194.5zM758 256q168 0 268 119t100 342t-100 342t-268 119t-268.5 -119t-100.5 -342t100.5 -342t268.5 -119zM655 1567l-235 307h266l184 -307h-215z
" />
    <glyph glyph-name="Oacute" unicode="&#xd3;" horiz-adv-x="1515" 
d="M757.5 -20q-311.5 0 -493.5 194.5t-182 542.5t182 542.5t493.5 194.5t494 -194.5t182.5 -542.5t-182.5 -542.5t-494 -194.5zM758 256q168 0 268 119t100 342t-100 342t-268 119t-268.5 -119t-100.5 -342t100.5 -342t268.5 -119zM655 1567l185 307h266l-236 -307h-215z
" />
    <glyph glyph-name="Ocircumflex" unicode="&#xd4;" horiz-adv-x="1515" 
d="M757.5 -20q-311.5 0 -493.5 194.5t-182 542.5t182 542.5t493.5 194.5t494 -194.5t182.5 -542.5t-182.5 -542.5t-494 -194.5zM758 256q168 0 268 119t100 342t-100 342t-268 119t-268.5 -119t-100.5 -342t100.5 -342t268.5 -119zM389 1567l277 317h194l277 -317h-236
l-133 164h-10l-133 -164h-236z" />
    <glyph glyph-name="Otilde" unicode="&#xd5;" horiz-adv-x="1515" 
d="M757.5 -20q-311.5 0 -493.5 194.5t-182 542.5t182 542.5t493.5 194.5t494 -194.5t182.5 -542.5t-182.5 -542.5t-494 -194.5zM758 256q168 0 268 119t100 342t-100 342t-268 119t-268.5 -119t-100.5 -342t100.5 -342t268.5 -119zM891 1587q-55 0 -127 41t-98 41
q-51 0 -52 -72h-194q0 119 58.5 187.5t146.5 68.5q55 0 126.5 -40.5t98.5 -40.5q51 0 51 71h195q0 -119 -58.5 -187.5t-146.5 -68.5z" />
    <glyph glyph-name="Odieresis" unicode="&#xd6;" horiz-adv-x="1515" 
d="M757.5 -20q-311.5 0 -493.5 194.5t-182 542.5t182 542.5t493.5 194.5t494 -194.5t182.5 -542.5t-182.5 -542.5t-494 -194.5zM758 256q168 0 268 119t100 342t-100 342t-268 119t-268.5 -119t-100.5 -342t100.5 -342t268.5 -119zM553 1577q-61 0 -102 41t-41 102.5
t41 102.5t102 41t102 -41t41 -102.5t-41 -102.5t-102 -41zM962.5 1577q-61.5 0 -102.5 41t-41 102.5t41 102.5t102.5 41t102.5 -41t41 -102.5t-41 -102.5t-102.5 -41z" />
    <glyph glyph-name="multiply" unicode="&#xd7;" horiz-adv-x="1146" 
d="M246 184l-154 154l328 328l-328 327l154 154l327 -328l328 328l154 -154l-328 -327l328 -328l-154 -154l-328 328z" />
    <glyph glyph-name="Oslash" unicode="&#xd8;" horiz-adv-x="1515" 
d="M451 432l417 729q-55 16 -110 17q-168 0 -268.5 -119t-100.5 -342q1 -176 62 -285zM174 -51l115 201q-207 197 -207 567q0 348 182 542.5t494 194.5q137 0 256 -41l41 72h276l-112 -195q215 -197 215 -573q0 -348 -182.5 -542.5t-493.5 -194.5q-139 0 -264 43l-43 -74
h-277zM758 256q168 0 268 119t100 342q0 176 -67 293l-422 -736q55 -18 121 -18z" />
    <glyph glyph-name="Ugrave" unicode="&#xd9;" horiz-adv-x="1474" 
d="M737.5 -20q-278.5 0 -441.5 168.5t-163 465.5v820h307v-820q0 -172 81 -265t216 -93t216 93t81 265v820h307v-820q0 -297 -162.5 -465.5t-441 -168.5zM635 1567l-236 307h267l184 -307h-215z" />
    <glyph glyph-name="Uacute" unicode="&#xda;" horiz-adv-x="1474" 
d="M737.5 -20q-278.5 0 -441.5 168.5t-163 465.5v820h307v-820q0 -172 81 -265t216 -93t216 93t81 265v820h307v-820q0 -297 -162.5 -465.5t-441 -168.5zM635 1567l184 307h266l-235 -307h-215z" />
    <glyph glyph-name="Ucircumflex" unicode="&#xdb;" horiz-adv-x="1474" 
d="M737.5 -20q-278.5 0 -441.5 168.5t-163 465.5v820h307v-820q0 -172 81 -265t216 -93t216 93t81 265v820h307v-820q0 -297 -162.5 -465.5t-441 -168.5zM358 1567l277 317h194l277 -317h-236l-133 164h-10l-133 -164h-236z" />
    <glyph glyph-name="Udieresis" unicode="&#xdc;" horiz-adv-x="1474" 
d="M737.5 -20q-278.5 0 -441.5 168.5t-163 465.5v820h307v-820q0 -172 81 -265t216 -93t216 93t81 265v820h307v-820q0 -297 -162.5 -465.5t-441 -168.5zM532.5 1577q-61.5 0 -102.5 41t-41 102.5t41 102.5t102.5 41t102.5 -41t41 -102.5t-41 -102.5t-102.5 -41zM942.5 1577
q-61.5 0 -102.5 41t-41 102.5t41 102.5t102.5 41t102 -41t40.5 -102.5t-40.5 -102.5t-102 -41z" />
    <glyph glyph-name="Yacute" unicode="&#xdd;" horiz-adv-x="1249" 
d="M471 0v492l-502 942h328l321 -625h11l323 625h328l-502 -942v-492h-307zM522 1567l185 307h266l-236 -307h-215z" />
    <glyph glyph-name="Thorn" unicode="&#xde;" horiz-adv-x="1464" 
d="M143 0v1434h308v-287h460q236 0 359 -113.5t123 -316.5t-123 -316.5t-359 -113.5h-460v-287h-308zM451 563h430q205 0 204.5 153.5t-204.5 153.5h-430v-307z" />
    <glyph glyph-name="germandbls" unicode="&#xdf;" horiz-adv-x="1198" 
d="M123 0v1024q0 197 124 313.5t357 116.5q236 0 358.5 -118.5t122.5 -280.5q0 -106 -55 -187.5t-149 -119.5q115 -31 185.5 -128.5t70.5 -220.5q0 -195 -126 -297t-376 -102h-92v256h102q205 0 205 180q0 76 -51 122t-154 46h-102v246h51q205 0 205 174q0 78 -52.5 126
t-142.5 48q-92 0 -143 -49t-51 -135v-1014h-287z" />
    <glyph glyph-name="agrave" unicode="&#xe0;" horiz-adv-x="1136" 
d="M512 215q100 0 162.5 56.5t62.5 148.5v31h-245q-72 0 -108 -32t-36 -81q0 -55 41 -89t123 -34zM440 -20q-174 0 -276.5 94t-102.5 243q0 152 110 245t310 93h256v52q0 76 -49 114.5t-135 38.5q-59 0 -103 -26.5t-61 -65.5h-287q35 145 151 241.5t310 96.5
q217 0 339 -106.5t122 -303.5v-696h-246l-30 123h-11q-96 -143 -297 -143zM481 1249l-235 307h266l184 -307h-215z" />
    <glyph glyph-name="aacute" unicode="&#xe1;" horiz-adv-x="1136" 
d="M512 215q100 0 162.5 56.5t62.5 148.5v31h-245q-72 0 -108 -32t-36 -81q0 -55 41 -89t123 -34zM440 -20q-174 0 -276.5 94t-102.5 243q0 152 110 245t310 93h256v52q0 76 -49 114.5t-135 38.5q-59 0 -103 -26.5t-61 -65.5h-287q35 145 151 241.5t310 96.5
q217 0 339 -106.5t122 -303.5v-696h-246l-30 123h-11q-96 -143 -297 -143zM481 1249l185 307h266l-236 -307h-215z" />
    <glyph glyph-name="acircumflex" unicode="&#xe2;" horiz-adv-x="1136" 
d="M512 215q100 0 162.5 56.5t62.5 148.5v31h-245q-72 0 -108 -32t-36 -81q0 -55 41 -89t123 -34zM440 -20q-174 0 -276.5 94t-102.5 243q0 152 110 245t310 93h256v52q0 76 -49 114.5t-135 38.5q-59 0 -103 -26.5t-61 -65.5h-287q35 145 151 241.5t310 96.5
q217 0 339 -106.5t122 -303.5v-696h-246l-30 123h-11q-96 -143 -297 -143zM215 1249l277 318h194l277 -318h-236l-133 164h-10l-133 -164h-236z" />
    <glyph glyph-name="atilde" unicode="&#xe3;" horiz-adv-x="1136" 
d="M512 215q100 0 162.5 56.5t62.5 148.5v31h-245q-72 0 -108 -32t-36 -81q0 -55 41 -89t123 -34zM440 -20q-174 0 -276.5 94t-102.5 243q0 152 110 245t310 93h256v52q0 76 -49 114.5t-135 38.5q-59 0 -103 -26.5t-61 -65.5h-287q35 145 151 241.5t310 96.5
q217 0 339 -106.5t122 -303.5v-696h-246l-30 123h-11q-96 -143 -297 -143zM717 1270q-57 0 -129 41t-96 41q-51 0 -52 -72h-194q0 119 58 187.5t147 68.5q57 0 128.5 -41t96.5 -41q51 0 51 72h195q0 -119 -58.5 -187.5t-146.5 -68.5z" />
    <glyph glyph-name="adieresis" unicode="&#xe4;" horiz-adv-x="1136" 
d="M512 215q100 0 162.5 56.5t62.5 148.5v31h-245q-72 0 -108 -32t-36 -81q0 -55 41 -89t123 -34zM440 -20q-174 0 -276.5 94t-102.5 243q0 152 110 245t310 93h256v52q0 76 -49 114.5t-135 38.5q-59 0 -103 -26.5t-61 -65.5h-287q35 145 151 241.5t310 96.5
q217 0 339 -106.5t122 -303.5v-696h-246l-30 123h-11q-96 -143 -297 -143zM378.5 1260q-61.5 0 -102 40.5t-40.5 102t40.5 102.5t102 41t102.5 -41t41 -102.5t-41 -102t-102.5 -40.5zM788.5 1260q-61.5 0 -102.5 40.5t-41 102t41 102.5t102.5 41t102.5 -41t41 -102.5
t-41 -102t-102.5 -40.5z" />
    <glyph glyph-name="aring" unicode="&#xe5;" horiz-adv-x="1136" 
d="M512 215q100 0 162.5 56.5t62.5 148.5v31h-245q-72 0 -108 -32t-36 -81q0 -55 41 -89t123 -34zM440 -20q-174 0 -276.5 94t-102.5 243q0 152 110 245t310 93h256v52q0 76 -49 114.5t-135 38.5q-59 0 -103 -26.5t-61 -65.5h-287q35 145 151 241.5t310 96.5
q217 0 339 -106.5t122 -303.5v-696h-246l-30 123h-11q-96 -143 -297 -143zM583.5 1208q-100.5 0 -163 62.5t-62.5 163t62.5 163t163 62.5t163 -62.5t62.5 -163t-62.5 -163t-163 -62.5zM584 1352q82 0 82 82t-82 82t-82 -82t82 -82z" />
    <glyph glyph-name="ae" unicode="&#xe6;" horiz-adv-x="1853" 
d="M512 215q104 0 164.5 58.5t60.5 146.5v20h-245q-72 0 -108 -29.5t-36 -72.5q0 -55 41 -89t123 -34zM451 -20q-184 0 -287 96t-103 241q0 147 112 237.5t308 90.5h256v62q0 72 -47 112.5t-137 40.5q-127 0 -164 -92h-287q33 143 146.5 240.5t294.5 97.5q242 0 358 -174
q139 174 379 174q223 0 362.5 -153.5t139.5 -399.5l-10 -113h-748q16 -92 74.5 -148t161.5 -56q78 0 119.5 24.5t76.5 77.5h307q-43 -160 -168 -259t-315 -99q-276 0 -399 196q-72 -92 -170 -144t-260 -52zM1024 645h465q-16 94 -76.5 149.5t-152.5 55.5q-98 0 -159 -55.5
t-77 -149.5z" />
    <glyph glyph-name="ccedilla" unicode="&#xe7;" horiz-adv-x="1167" 
d="M461 -471v164h112q61 0 61.5 51t-59.5 51h-94v113l33 78q-209 25 -325.5 170t-116.5 387q0 266 142 414.5t390 148.5q215 0 337 -108.5t165 -280.5h-287q-66 133 -215 133q-111 0 -178.5 -79t-67.5 -228.5t68 -228t178 -78.5q150 0 215 133h287q-39 -156 -143.5 -261.5
t-284.5 -123.5l-23 -56q74 -8 124 -56t50 -128q0 -100 -59 -157.5t-166 -57.5h-143z" />
    <glyph glyph-name="egrave" unicode="&#xe8;" horiz-adv-x="1198" 
d="M604 -20q-248 0 -390 148t-142 414.5t142 415t390 148.5q236 0 379 -151.5t143 -391.5l-10 -112h-747q37 -215 235 -215q78 0 119 24.5t76 77.5h307q-43 -156 -166 -257t-336 -101zM369 666h460q-16 78 -74.5 131t-150.5 53q-180 0 -235 -184zM502 1249l-236 307h266
l185 -307h-215z" />
    <glyph glyph-name="eacute" unicode="&#xe9;" horiz-adv-x="1198" 
d="M604 -20q-248 0 -390 148t-142 414.5t142 415t390 148.5q236 0 379 -151.5t143 -391.5l-10 -112h-747q37 -215 235 -215q78 0 119 24.5t76 77.5h307q-43 -156 -166 -257t-336 -101zM369 666h460q-16 78 -74.5 131t-150.5 53q-180 0 -235 -184zM502 1249l184 307h266
l-235 -307h-215z" />
    <glyph glyph-name="ecircumflex" unicode="&#xea;" horiz-adv-x="1198" 
d="M604 -20q-248 0 -390 148t-142 414.5t142 415t390 148.5q236 0 379 -151.5t143 -391.5l-10 -112h-747q37 -215 235 -215q78 0 119 24.5t76 77.5h307q-43 -156 -166 -257t-336 -101zM369 666h460q-16 78 -74.5 131t-150.5 53q-180 0 -235 -184zM236 1249l276 318h195
l276 -318h-235l-134 164h-10l-133 -164h-235z" />
    <glyph glyph-name="edieresis" unicode="&#xeb;" horiz-adv-x="1198" 
d="M604 -20q-248 0 -390 148t-142 414.5t142 415t390 148.5q236 0 379 -151.5t143 -391.5l-10 -112h-747q37 -215 235 -215q78 0 119 24.5t76 77.5h307q-43 -156 -166 -257t-336 -101zM369 666h460q-16 78 -74.5 131t-150.5 53q-180 0 -235 -184zM399.5 1260
q-61.5 0 -102.5 40.5t-41 102t41 102.5t102.5 41t102.5 -41t41 -102.5t-41 -102t-102.5 -40.5zM809 1260q-61 0 -102 40.5t-41 102t41 102.5t102 41t102 -41t41 -102.5t-41 -102t-102 -40.5z" />
    <glyph glyph-name="igrave" unicode="&#xec;" horiz-adv-x="532" 
d="M123 0v1085h287v-1085h-287zM164 1249l-236 307h267l184 -307h-215z" />
    <glyph glyph-name="iacute" unicode="&#xed;" horiz-adv-x="532" 
d="M123 0v1085h287v-1085h-287zM164 1249l184 307h266l-235 -307h-215z" />
    <glyph glyph-name="icircumflex" unicode="&#xee;" horiz-adv-x="532" 
d="M123 0v1085h287v-1085h-287zM-102 1249l276 318h195l276 -318h-235l-134 164h-10l-133 -164h-235z" />
    <glyph glyph-name="idieresis" unicode="&#xef;" horiz-adv-x="532" 
d="M123 0v1085h287v-1085h-287zM61.5 1260q-61.5 0 -102.5 40.5t-41 102t41 102.5t102.5 41t102.5 -41t41 -102.5t-41 -102t-102.5 -40.5zM471 1260q-61 0 -102 40.5t-41 102t41 102.5t102 41t102 -41t41 -102.5t-41 -102t-102 -40.5z" />
    <glyph glyph-name="eth" unicode="&#xf0;" horiz-adv-x="1208" 
d="M593.5 236q106.5 0 171 70.5t64.5 185t-64.5 185.5t-171 71t-171 -71t-64.5 -185.5t64.5 -185t171 -70.5zM584 -20q-238 0 -375 141t-137 381q0 231 125 366.5t346 135.5q139 0 235 -72h10q-37 98 -163 225l-256 -113l-82 154l205 92q-129 104 -287 185h338
q78 -39 151 -89l197 78l72 -153l-115 -58q279 -313 278 -710q0 -268 -144 -415.5t-398 -147.5z" />
    <glyph glyph-name="ntilde" unicode="&#xf1;" horiz-adv-x="1208" 
d="M123 0v1085h246l30 -122h11q111 143 286 143q180 0 290 -118t110 -322v-666h-287v625q0 106 -51 165.5t-143.5 59.5t-148.5 -62.5t-56 -162.5v-625h-287zM737 1270q-57 0 -128.5 41t-96.5 41q-51 0 -51 -72h-195q0 119 58.5 187.5t146.5 68.5q57 0 129 -41t96 -41
q51 0 52 72h194q0 -119 -58.5 -187.5t-146.5 -68.5z" />
    <glyph glyph-name="ograve" unicode="&#xf2;" horiz-adv-x="1208" 
d="M604 -20q-248 0 -390 148t-142 414.5t142 415t390 148.5t390.5 -148.5t142.5 -415t-142.5 -414.5t-390.5 -148zM604.5 236q106.5 0 176 76.5t69.5 230t-69.5 230.5t-176 77t-176.5 -77t-70 -230.5t70 -230t176.5 -76.5zM502 1249l-236 307h266l185 -307h-215z" />
    <glyph glyph-name="oacute" unicode="&#xf3;" horiz-adv-x="1208" 
d="M604 -20q-248 0 -390 148t-142 414.5t142 415t390 148.5t390.5 -148.5t142.5 -415t-142.5 -414.5t-390.5 -148zM604.5 236q106.5 0 176 76.5t69.5 230t-69.5 230.5t-176 77t-176.5 -77t-70 -230.5t70 -230t176.5 -76.5zM502 1249l184 307h266l-235 -307h-215z" />
    <glyph glyph-name="ocircumflex" unicode="&#xf4;" horiz-adv-x="1208" 
d="M604 -20q-248 0 -390 148t-142 414.5t142 415t390 148.5t390.5 -148.5t142.5 -415t-142.5 -414.5t-390.5 -148zM604.5 236q106.5 0 176 76.5t69.5 230t-69.5 230.5t-176 77t-176.5 -77t-70 -230.5t70 -230t176.5 -76.5zM236 1249l276 318h195l276 -318h-235l-134 164h-10
l-133 -164h-235z" />
    <glyph glyph-name="otilde" unicode="&#xf5;" horiz-adv-x="1208" 
d="M604 -20q-248 0 -390 148t-142 414.5t142 415t390 148.5t390.5 -148.5t142.5 -415t-142.5 -414.5t-390.5 -148zM604.5 236q106.5 0 176 76.5t69.5 230t-69.5 230.5t-176 77t-176.5 -77t-70 -230.5t70 -230t176.5 -76.5zM737 1270q-57 0 -128.5 41t-96.5 41q-51 0 -51 -72
h-195q0 119 58.5 187.5t146.5 68.5q57 0 129 -41t96 -41q51 0 52 72h194q0 -119 -58.5 -187.5t-146.5 -68.5z" />
    <glyph glyph-name="odieresis" unicode="&#xf6;" horiz-adv-x="1208" 
d="M604 -20q-248 0 -390 148t-142 414.5t142 415t390 148.5t390.5 -148.5t142.5 -415t-142.5 -414.5t-390.5 -148zM604.5 236q106.5 0 176 76.5t69.5 230t-69.5 230.5t-176 77t-176.5 -77t-70 -230.5t70 -230t176.5 -76.5zM399.5 1260q-61.5 0 -102.5 40.5t-41 102t41 102.5
t102.5 41t102.5 -41t41 -102.5t-41 -102t-102.5 -40.5zM809 1260q-61 0 -102 40.5t-41 102t41 102.5t102 41t102 -41t41 -102.5t-41 -102t-102 -40.5z" />
    <glyph glyph-name="divide" unicode="&#xf7;" horiz-adv-x="1085" 
d="M542.5 82q-61.5 0 -102.5 43t-41 110.5t41 110.5t102.5 43t102.5 -43t41 -110.5t-41 -110.5t-102.5 -43zM72 522v226h942v-226h-942zM542.5 881q-61.5 0 -102.5 43t-41 110.5t41 110.5t102.5 43t102.5 -43t41 -110.5t-41 -110.5t-102.5 -43z" />
    <glyph glyph-name="oslash" unicode="&#xf8;" horiz-adv-x="1208" 
d="M383 387l287 455q-27 8 -66 8q-106 0 -176 -77t-70 -230q0 -93 25 -156zM113 -41l104 166q-145 150 -145 418q0 266 142 414.5t390 148.5q113 0 211 -35l35 55h246l-105 -165q145 -152 145.5 -418.5t-142 -414.5t-390.5 -148q-113 0 -211 32l-35 -53h-245zM604 236
q106 0 176 76.5t70 230.5q0 92 -25 155l-286 -454q26 -8 65 -8z" />
    <glyph glyph-name="ugrave" unicode="&#xf9;" horiz-adv-x="1218" 
d="M522 -20q-180 0 -289.5 117.5t-109.5 322.5v665h287v-624q0 -106 51 -165.5t143 -59.5t148.5 62t56.5 163v624h287v-1085h-246l-31 123h-10q-111 -143 -287 -143zM512 1249l-236 307h267l184 -307h-215z" />
    <glyph glyph-name="uacute" unicode="&#xfa;" horiz-adv-x="1218" 
d="M522 -20q-180 0 -289.5 117.5t-109.5 322.5v665h287v-624q0 -106 51 -165.5t143 -59.5t148.5 62t56.5 163v624h287v-1085h-246l-31 123h-10q-111 -143 -287 -143zM512 1249l184 307h267l-236 -307h-215z" />
    <glyph glyph-name="ucircumflex" unicode="&#xfb;" horiz-adv-x="1218" 
d="M522 -20q-180 0 -289.5 117.5t-109.5 322.5v665h287v-624q0 -106 51 -165.5t143 -59.5t148.5 62t56.5 163v624h287v-1085h-246l-31 123h-10q-111 -143 -287 -143zM236 1249l276 318h195l276 -318h-235l-134 164h-10l-133 -164h-235z" />
    <glyph glyph-name="udieresis" unicode="&#xfc;" horiz-adv-x="1218" 
d="M522 -20q-180 0 -289.5 117.5t-109.5 322.5v665h287v-624q0 -106 51 -165.5t143 -59.5t148.5 62t56.5 163v624h287v-1085h-246l-31 123h-10q-111 -143 -287 -143zM409.5 1260q-61.5 0 -102.5 40.5t-41 102t41 102.5t102.5 41t102.5 -41t41 -102.5t-41 -102t-102.5 -40.5z
M819.5 1260q-61.5 0 -102.5 40.5t-41 102t41 102.5t102.5 41t102.5 -41t41 -102.5t-41 -102t-102.5 -40.5z" />
    <glyph glyph-name="yacute" unicode="&#xfd;" horiz-adv-x="1146" 
d="M266 -410l166 410l-442 1085h317l266 -706h9l258 706h317l-594 -1495h-297zM471 1249l184 307h267l-236 -307h-215z" />
    <glyph glyph-name="thorn" unicode="&#xfe;" horiz-adv-x="1269" 
d="M133 -410v1844h287v-461h10q106 133 297 133q213 0 342 -146.5t129 -417t-129 -416.5t-342 -146q-190 0 -297 133h-10v-523h-287zM665.5 236q106.5 0 176 76.5t69.5 230t-69.5 230.5t-176 77t-176 -77t-69.5 -230.5t69.5 -230t176 -76.5z" />
    <glyph glyph-name="ydieresis" unicode="&#xff;" horiz-adv-x="1146" 
d="M266 -410l166 410l-442 1085h317l266 -706h9l258 706h317l-594 -1495h-297zM368.5 1260q-61.5 0 -102.5 40.5t-41 102t41 102.5t102.5 41t102.5 -41t41 -102.5t-41 -102t-102.5 -40.5zM778.5 1260q-61.5 0 -102.5 40.5t-41 102t41 102.5t102.5 41t102.5 -41t41 -102.5
t-41 -102t-102.5 -40.5z" />
    <glyph glyph-name="Amacron" unicode="&#x100;" horiz-adv-x="1382" 
d="M-10 0l512 1434h379l512 -1434h-318l-92 266h-584l-92 -266h-317zM500 543h383l-187 542h-10zM379 1618v194h614v-194h-614z" />
    <glyph glyph-name="amacron" unicode="&#x101;" horiz-adv-x="1136" 
d="M512 215q100 0 162.5 56.5t62.5 148.5v31h-245q-72 0 -108 -32t-36 -81q0 -55 41 -89t123 -34zM440 -20q-174 0 -276.5 94t-102.5 243q0 152 110 245t310 93h256v52q0 76 -49 114.5t-135 38.5q-59 0 -103 -26.5t-61 -65.5h-287q35 145 151 241.5t310 96.5
q217 0 339 -106.5t122 -303.5v-696h-246l-30 123h-11q-96 -143 -297 -143zM276 1290v195h615v-195h-615z" />
    <glyph glyph-name="Abreve" unicode="&#x102;" horiz-adv-x="1382" 
d="M-10 0l512 1434h379l512 -1434h-318l-92 266h-584l-92 -266h-317zM500 543h383l-187 542h-10zM686 1567q-139 0 -236.5 76.5t-111.5 230.5h205q14 -123 143 -123t143 123h205q-14 -154 -111.5 -230.5t-236.5 -76.5z" />
    <glyph glyph-name="abreve" unicode="&#x103;" horiz-adv-x="1136" 
d="M512 215q100 0 162.5 56.5t62.5 148.5v31h-245q-72 0 -108 -32t-36 -81q0 -55 41 -89t123 -34zM440 -20q-174 0 -276.5 94t-102.5 243q0 152 110 245t310 93h256v52q0 76 -49 114.5t-135 38.5q-59 0 -103 -26.5t-61 -65.5h-287q35 145 151 241.5t310 96.5
q217 0 339 -106.5t122 -303.5v-696h-246l-30 123h-11q-96 -143 -297 -143zM583.5 1249q-139.5 0 -236.5 77t-111 230h204q14 -123 143.5 -122.5t143.5 122.5h205q-14 -154 -111.5 -230.5t-237 -76.5z" />
    <glyph glyph-name="Aogonek" unicode="&#x104;" horiz-adv-x="1382" 
d="M1198 -430q-276 0 -276 215q0 150 153 215l-92 266h-584l-92 -266h-317l512 1434h379l512 -1434h-144q-123 -68 -123 -174q0 -82 113 -82h51v-174h-92zM500 543h383l-187 542h-10z" />
    <glyph glyph-name="aogonek" unicode="&#x105;" horiz-adv-x="1136" 
d="M512 215q100 0 162.5 56.5t62.5 148.5v31h-245q-72 0 -108 -32t-36 -81q0 -55 41 -89t123 -34zM973 -430q-276 0 -277 215q0 150 154 215h-72l-30 123h-11q-96 -143 -297 -143q-174 0 -276.5 94t-102.5 243q0 152 110 245t310 93h256v52q0 76 -49 114.5t-135 38.5
q-59 0 -103 -26.5t-61 -65.5h-287q35 145 151 241.5t310 96.5q217 0 339 -106.5t122 -303.5v-696q-123 -68 -123 -174q0 -82 113 -82h51v-174h-92z" />
    <glyph glyph-name="Cacute" unicode="&#x106;" horiz-adv-x="1443" 
d="M758 -20q-311 0 -493.5 194.5t-182.5 542.5t182 542.5t494 194.5q258 0 412.5 -126t211.5 -345h-317q-88 195 -307 195q-168 0 -268.5 -119t-100.5 -342t100.5 -342t268.5 -119q219 0 307 195h317q-57 -219 -211.5 -345t-412.5 -126zM655 1567l185 307h266l-236 -307
h-215z" />
    <glyph glyph-name="cacute" unicode="&#x107;" horiz-adv-x="1167" 
d="M604 -20q-248 0 -390 148t-142 414.5t142 415t390 148.5q215 0 337 -108.5t165 -280.5h-287q-66 133 -215 133q-111 0 -178.5 -79t-67.5 -228.5t68 -228t178 -78.5q150 0 215 133h287q-43 -172 -165 -280.5t-337 -108.5zM502 1249l184 307h266l-235 -307h-215z" />
    <glyph glyph-name="Ccircumflex" unicode="&#x108;" horiz-adv-x="1443" 
d="M758 -20q-311 0 -493.5 194.5t-182.5 542.5t182 542.5t494 194.5q258 0 412.5 -126t211.5 -345h-317q-88 195 -307 195q-168 0 -268.5 -119t-100.5 -342t100.5 -342t268.5 -119q219 0 307 195h317q-57 -219 -211.5 -345t-412.5 -126zM389 1567l277 317h194l277 -317h-236
l-133 164h-10l-133 -164h-236z" />
    <glyph glyph-name="ccircumflex" unicode="&#x109;" horiz-adv-x="1167" 
d="M604 -20q-248 0 -390 148t-142 414.5t142 415t390 148.5q215 0 337 -108.5t165 -280.5h-287q-66 133 -215 133q-111 0 -178.5 -79t-67.5 -228.5t68 -228t178 -78.5q150 0 215 133h287q-43 -172 -165 -280.5t-337 -108.5zM236 1249l276 318h195l276 -318h-235l-134 164
h-10l-133 -164h-235z" />
    <glyph glyph-name="Cdotaccent" unicode="&#x10a;" horiz-adv-x="1443" 
d="M758 -20q-311 0 -493.5 194.5t-182.5 542.5t182 542.5t494 194.5q258 0 412.5 -126t211.5 -345h-317q-88 195 -307 195q-168 0 -268.5 -119t-100.5 -342t100.5 -342t268.5 -119q219 0 307 195h317q-57 -219 -211.5 -345t-412.5 -126zM757.5 1577q-61.5 0 -102.5 41
t-41 102.5t41 102.5t102.5 41t102.5 -41t41 -102.5t-41 -102.5t-102.5 -41z" />
    <glyph glyph-name="cdotaccent" unicode="&#x10b;" horiz-adv-x="1167" 
d="M604 -20q-248 0 -390 148t-142 414.5t142 415t390 148.5q215 0 337 -108.5t165 -280.5h-287q-66 133 -215 133q-111 0 -178.5 -79t-67.5 -228.5t68 -228t178 -78.5q150 0 215 133h287q-43 -172 -165 -280.5t-337 -108.5zM604.5 1260q-61.5 0 -102.5 40.5t-41 102
t41 102.5t102.5 41t102.5 -41t41 -102.5t-41 -102t-102.5 -40.5z" />
    <glyph glyph-name="Ccaron" unicode="&#x10c;" horiz-adv-x="1443" 
d="M758 -20q-311 0 -493.5 194.5t-182.5 542.5t182 542.5t494 194.5q258 0 412.5 -126t211.5 -345h-317q-88 195 -307 195q-168 0 -268.5 -119t-100.5 -342t100.5 -342t268.5 -119q219 0 307 195h317q-57 -219 -211.5 -345t-412.5 -126zM666 1567l-277 317h236l133 -164h10
l133 164h236l-277 -317h-194z" />
    <glyph glyph-name="ccaron" unicode="&#x10d;" horiz-adv-x="1167" 
d="M604 -20q-248 0 -390 148t-142 414.5t142 415t390 148.5q215 0 337 -108.5t165 -280.5h-287q-66 133 -215 133q-111 0 -178.5 -79t-67.5 -228.5t68 -228t178 -78.5q150 0 215 133h287q-43 -172 -165 -280.5t-337 -108.5zM512 1239l-276 317h235l133 -163h10l134 163h235
l-276 -317h-195z" />
    <glyph glyph-name="Dcaron" unicode="&#x10e;" horiz-adv-x="1433" 
d="M143 0v1434h553q301 0 478.5 -190.5t177.5 -526.5t-177.5 -526.5t-478.5 -190.5h-553zM451 276h235q156 0 257 114t101 327t-101 326.5t-257 113.5h-235v-881zM614 1567l-276 317h235l134 -164h10l133 164h235l-276 -317h-195z" />
    <glyph glyph-name="dcaron" unicode="&#x10f;" horiz-adv-x="1474" 
d="M604.5 236q106.5 0 176 76.5t69.5 230t-69.5 230.5t-176 77t-176.5 -77t-70 -230.5t70 -230t176.5 -76.5zM543 -20q-213 0 -342 146t-129 416.5t129 417t342 146.5q190 0 297 -133h10v461h287v-1434h-246l-31 123h-10q-123 -143 -307 -143zM1229 1085l92 349h235
l-153 -349h-174z" />
    <glyph glyph-name="Dcroat" unicode="&#x110;" horiz-adv-x="1464" 
d="M174 0v594h-154v256h154v584h553q301 0 478 -190.5t177 -526.5t-177 -526.5t-478 -190.5h-553zM481 276h236q156 0 257 114t101 327t-101.5 326.5t-256.5 113.5h-236v-307h318v-256h-318v-318z" />
    <glyph glyph-name="dcroat" unicode="&#x111;" horiz-adv-x="1259" 
d="M593.5 236q106.5 0 171 70.5t64.5 185t-64.5 185.5t-171 71t-171 -71t-64.5 -185.5t64.5 -185t171 -70.5zM532 -20q-211 0 -335.5 135t-124.5 376.5t125 377t335 135.5q100 0 176 -44.5t111 -89.5h10v205h-256v225h256v134h287v-134h154v-225h-154v-1075h-246l-30 123
h-11q-125 -143 -297 -143z" />
    <glyph glyph-name="Emacron" unicode="&#x112;" horiz-adv-x="1228" 
d="M143 0v1434h973v-277h-665v-307h624v-256h-624v-318h686v-276h-994zM338 1618v194h614v-194h-614z" />
    <glyph glyph-name="emacron" unicode="&#x113;" horiz-adv-x="1198" 
d="M604 -20q-248 0 -390 148t-142 414.5t142 415t390 148.5q236 0 379 -151.5t143 -391.5l-10 -112h-747q37 -215 235 -215q78 0 119 24.5t76 77.5h307q-43 -156 -166 -257t-336 -101zM369 666h460q-16 78 -74.5 131t-150.5 53q-180 0 -235 -184zM297 1290v195h614v-195
h-614z" />
    <glyph glyph-name="Ebreve" unicode="&#x114;" horiz-adv-x="1228" 
d="M143 0v1434h973v-277h-665v-307h624v-256h-624v-318h686v-276h-994zM645 1567q-139 0 -236.5 76.5t-111.5 230.5h205q14 -123 143 -123t143 123h205q-14 -154 -111.5 -230.5t-236.5 -76.5z" />
    <glyph glyph-name="ebreve" unicode="&#x115;" horiz-adv-x="1198" 
d="M604 -20q-248 0 -390 148t-142 414.5t142 415t390 148.5q236 0 379 -151.5t143 -391.5l-10 -112h-747q37 -215 235 -215q78 0 119 24.5t76 77.5h307q-43 -156 -166 -257t-336 -101zM369 666h460q-16 78 -74.5 131t-150.5 53q-180 0 -235 -184zM604 1249q-139 0 -236.5 77
t-111.5 230h205q14 -123 143 -122.5t144 122.5h204q-14 -154 -111.5 -230.5t-236.5 -76.5z" />
    <glyph glyph-name="Edotaccent" unicode="&#x116;" horiz-adv-x="1228" 
d="M143 0v1434h973v-277h-665v-307h624v-256h-624v-318h686v-276h-994zM645.5 1577q-61.5 0 -102.5 41t-41 102.5t41 102.5t102.5 41t102 -41t40.5 -102.5t-40.5 -102.5t-102 -41z" />
    <glyph glyph-name="edotaccent" unicode="&#x117;" horiz-adv-x="1198" 
d="M604 -20q-248 0 -390 148t-142 414.5t142 415t390 148.5q236 0 379 -151.5t143 -391.5l-10 -112h-747q37 -215 235 -215q78 0 119 24.5t76 77.5h307q-43 -156 -166 -257t-336 -101zM369 666h460q-16 78 -74.5 131t-150.5 53q-180 0 -235 -184zM604.5 1260
q-61.5 0 -102.5 40.5t-41 102t41 102.5t102.5 41t102.5 -41t41 -102.5t-41 -102t-102.5 -40.5z" />
    <glyph glyph-name="Eogonek" unicode="&#x118;" horiz-adv-x="1228" 
d="M1085 -430q-276 0 -276 215q0 150 154 215h-820v1434h973v-277h-665v-307h624v-256h-624v-318h686v-276q-123 -68 -123 -174q0 -82 112 -82h52v-174h-93z" />
    <glyph glyph-name="eogonek" unicode="&#x119;" horiz-adv-x="1198" 
d="M686 -430q-276 0 -276 215q0 133 116 199q-213 23 -333.5 168t-120.5 391q0 266 142 414.5t390 148.5q236 0 379 -151.5t143 -391.5l-10 -112h-747q37 -215 235 -215q78 0 119 24.5t76 77.5h307q-84 -301 -393 -350q-98 -61 -99 -162q0 -82 113 -82h51v-174h-92zM369 666
h460q-16 78 -74.5 131t-150.5 53q-180 0 -235 -184z" />
    <glyph glyph-name="Ecaron" unicode="&#x11a;" horiz-adv-x="1228" 
d="M143 0v1434h973v-277h-665v-307h624v-256h-624v-318h686v-276h-994zM553 1567l-277 317h236l133 -164h10l133 164h236l-276 -317h-195z" />
    <glyph glyph-name="ecaron" unicode="&#x11b;" horiz-adv-x="1198" 
d="M604 -20q-248 0 -390 148t-142 414.5t142 415t390 148.5q236 0 379 -151.5t143 -391.5l-10 -112h-747q37 -215 235 -215q78 0 119 24.5t76 77.5h307q-43 -156 -166 -257t-336 -101zM369 666h460q-16 78 -74.5 131t-150.5 53q-180 0 -235 -184zM512 1239l-276 317h235
l133 -163h10l134 163h235l-276 -317h-195z" />
    <glyph glyph-name="Gcircumflex" unicode="&#x11c;" horiz-adv-x="1484" 
d="M758 -20q-311 0 -493.5 194.5t-182.5 542.5t182 542.5t494 194.5q258 0 412.5 -126t211.5 -345h-317q-88 195 -307 195q-168 0 -268.5 -119t-100.5 -342t100.5 -342t268.5 -119q266 0 327 266h-358v246h676v-113q0 -311 -171 -493t-474 -182zM389 1567l277 317h194
l277 -317h-236l-133 164h-10l-133 -164h-236z" />
    <glyph glyph-name="gcircumflex" unicode="&#x11d;" horiz-adv-x="1239" 
d="M604 -410q-420 0 -512 369h297q33 -113 215 -113q106 0 165.5 51.5t59.5 143.5v154h-10q-39 -49 -114.5 -91.5t-172.5 -42.5q-211 0 -335.5 136.5t-124.5 386.5t125 386t335 136q174 0 297 -143h11l30 122h246v-1044q0 -219 -128 -335t-384 -116zM593.5 317
q108.5 0 172 72t63.5 195t-63.5 194.5t-172 71.5t-172 -71.5t-63.5 -194.5t63.5 -195t172 -72zM256 1249l276 318h195l277 -318h-236l-133 164h-10l-133 -164h-236z" />
    <glyph glyph-name="Gbreve" unicode="&#x11e;" horiz-adv-x="1484" 
d="M758 -20q-311 0 -493.5 194.5t-182.5 542.5t182 542.5t494 194.5q258 0 412.5 -126t211.5 -345h-317q-88 195 -307 195q-168 0 -268.5 -119t-100.5 -342t100.5 -342t268.5 -119q266 0 327 266h-358v246h676v-113q0 -311 -171 -493t-474 -182zM757.5 1567
q-139.5 0 -236.5 76.5t-111 230.5h204q16 -123 143.5 -123t143.5 123h205q-14 -154 -111.5 -230.5t-237 -76.5z" />
    <glyph glyph-name="gbreve" unicode="&#x11f;" horiz-adv-x="1239" 
d="M604 -410q-420 0 -512 369h297q33 -113 215 -113q106 0 165.5 51.5t59.5 143.5v154h-10q-39 -49 -114.5 -91.5t-172.5 -42.5q-211 0 -335.5 136.5t-124.5 386.5t125 386t335 136q174 0 297 -143h11l30 122h246v-1044q0 -219 -128 -335t-384 -116zM593.5 317
q108.5 0 172 72t63.5 195t-63.5 194.5t-172 71.5t-172 -71.5t-63.5 -194.5t63.5 -195t172 -72zM624.5 1249q-139.5 0 -236.5 77t-112 230h205q14 -123 143.5 -122.5t143.5 122.5h205q-14 -154 -111.5 -230.5t-237 -76.5z" />
    <glyph glyph-name="Gdotaccent" unicode="&#x120;" horiz-adv-x="1484" 
d="M758 -20q-311 0 -493.5 194.5t-182.5 542.5t182 542.5t494 194.5q258 0 412.5 -126t211.5 -345h-317q-88 195 -307 195q-168 0 -268.5 -119t-100.5 -342t100.5 -342t268.5 -119q266 0 327 266h-358v246h676v-113q0 -311 -171 -493t-474 -182zM757.5 1577
q-61.5 0 -102.5 41t-41 102.5t41 102.5t102.5 41t102.5 -41t41 -102.5t-41 -102.5t-102.5 -41z" />
    <glyph glyph-name="gdotaccent" unicode="&#x121;" horiz-adv-x="1239" 
d="M604 -410q-420 0 -512 369h297q33 -113 215 -113q106 0 165.5 51.5t59.5 143.5v154h-10q-39 -49 -114.5 -91.5t-172.5 -42.5q-211 0 -335.5 136.5t-124.5 386.5t125 386t335 136q174 0 297 -143h11l30 122h246v-1044q0 -219 -128 -335t-384 -116zM593.5 317
q108.5 0 172 72t63.5 195t-63.5 194.5t-172 71.5t-172 -71.5t-63.5 -194.5t63.5 -195t172 -72zM624.5 1260q-61.5 0 -102.5 40.5t-41 102t41 102.5t102.5 41t102.5 -41t41 -102.5t-41 -102t-102.5 -40.5z" />
    <glyph glyph-name="uni0122" unicode="&#x122;" horiz-adv-x="1484" 
d="M758 -20q-311 0 -493.5 194.5t-182.5 542.5t182 542.5t494 194.5q258 0 412.5 -126t211.5 -345h-317q-88 195 -307 195q-168 0 -268.5 -119t-100.5 -342t100.5 -342t268.5 -119q266 0 327 266h-358v246h676v-113q0 -311 -171 -493t-474 -182zM563 -522l92 348h236
l-154 -348h-174z" />
    <glyph glyph-name="uni0123" unicode="&#x123;" horiz-adv-x="1239" 
d="M502 1249l153 348h174l-92 -348h-235zM604 -410q-420 0 -512 369h297q33 -113 215 -113q106 0 165.5 51.5t59.5 143.5v154h-10q-39 -49 -114.5 -91.5t-172.5 -42.5q-211 0 -335.5 136.5t-124.5 386.5t125 386t335 136q174 0 297 -143h11l30 122h246v-1044
q0 -219 -128 -335t-384 -116zM593.5 317q108.5 0 172 72t63.5 195t-63.5 194.5t-172 71.5t-172 -71.5t-63.5 -194.5t63.5 -195t172 -72z" />
    <glyph glyph-name="Hcircumflex" unicode="&#x124;" horiz-adv-x="1474" 
d="M143 0v1434h308v-574h573v574h307v-1434h-307v584h-573v-584h-308zM369 1567l276 317h195l276 -317h-235l-133 164h-11l-133 -164h-235z" />
    <glyph glyph-name="hcircumflex" unicode="&#x125;" horiz-adv-x="1218" 
d="M133 0v1434h287v-461h10q117 133 277 133q180 0 289.5 -118t109.5 -322v-666h-287v625q0 106 -51 165.5t-143.5 59.5t-148.5 -62.5t-56 -162.5v-625h-287zM246 1597l276 318h195l276 -318h-235l-133 164h-11l-133 -164h-235z" />
    <glyph glyph-name="Hbar" unicode="&#x126;" horiz-adv-x="1495" 
d="M154 0v1034h-134v236h134v164h307v-164h573v164h307v-164h134v-236h-134v-1034h-307v584h-573v-584h-307zM461 860h573v174h-573v-174z" />
    <glyph glyph-name="hbar" unicode="&#x127;" horiz-adv-x="1228" 
d="M143 0v1075h-153v225h153v134h287v-134h256v-225h-256v-246h10q117 133 277 134q180 0 289.5 -118t109.5 -323v-522h-287v481q0 106 -51 166t-143 60t-148.5 -62.5t-56.5 -163.5v-481h-287z" />
    <glyph glyph-name="Imacron" unicode="&#x12a;" horiz-adv-x="593" 
d="M143 0v1434h308v-1434h-308zM-10 1618v194h614v-194h-614z" />
    <glyph glyph-name="imacron" unicode="&#x12b;" horiz-adv-x="532" 
d="M123 0v1085h287v-1085h-287zM-41 1290v195h614v-195h-614z" />
    <glyph glyph-name="Ibreve" unicode="&#x12c;" horiz-adv-x="593" 
d="M143 0v1434h308v-1434h-308zM297 1567q-139 0 -236.5 76.5t-111.5 230.5h205q14 -123 143 -123t143 123h205q-14 -154 -111.5 -230.5t-236.5 -76.5z" />
    <glyph glyph-name="ibreve" unicode="&#x12d;" horiz-adv-x="532" 
d="M123 0v1085h287v-1085h-287zM266.5 1249q-139.5 0 -237 77t-111.5 230h205q16 -123 143 -122.5t144 122.5h204q-14 -154 -111 -230.5t-236.5 -76.5z" />
    <glyph glyph-name="Iogonek" unicode="&#x12e;" horiz-adv-x="593" 
d="M266 -430q-276 0 -276 215q0 150 153 215v1434h308v-1434h-134q-123 -68 -122 -174q0 -82 112 -82h51v-174h-92z" />
    <glyph glyph-name="iogonek" unicode="&#x12f;" horiz-adv-x="532" 
d="M246 -430q-276 0 -277 215q0 150 154 215v1085h287v-1085h-113q-123 -68 -123 -174q0 -82 113 -82h51v-174h-92zM266.5 1198q-69.5 0 -117 47t-47.5 117t47.5 117t117 47t116.5 -47t47 -117t-47 -117t-116.5 -47z" />
    <glyph glyph-name="Idotaccent" unicode="&#x130;" horiz-adv-x="593" 
d="M143 0v1434h308v-1434h-308zM297 1577q-61 0 -102 41t-41 102.5t41 102.5t102 41t102 -41t41 -102.5t-41 -102.5t-102 -41z" />
    <glyph glyph-name="dotlessi" unicode="&#x131;" horiz-adv-x="532" 
d="M123 0v1085h287v-1085h-287z" />
    <glyph glyph-name="IJ" unicode="&#x132;" horiz-adv-x="1689" 
d="M143 0v1434h308v-1434h-308zM1065 -20q-223 0 -349 118.5t-143 341.5h308q8 -90 57 -137t127 -47q184 0 184 236v942h307v-942q0 -244 -130 -378t-361 -134z" />
    <glyph glyph-name="ij" unicode="&#x133;" horiz-adv-x="1075" 
d="M123 0v1085h287v-1085h-287zM266.5 1198q-69.5 0 -117 47t-47.5 117t47.5 117t117 47t116.5 -47t47 -117t-47 -117t-116.5 -47zM399 -410v246h164q47 0 75 30t28 83v1136h286v-1177q0 -162 -80.5 -240t-257.5 -78h-215zM809 1198q-70 0 -117 47t-47 117t47 117t117 47
t117 -47t47 -117t-47 -117t-117 -47z" />
    <glyph glyph-name="Jcircumflex" unicode="&#x134;" horiz-adv-x="1167" 
d="M543 -20q-223 0 -349 118.5t-143 341.5h307q8 -90 57.5 -137t127.5 -47q184 0 184 236v942h307v-942q0 -244 -130 -378t-361 -134zM502 1567l276 317h195l276 -317h-235l-133 164h-11l-133 -164h-235z" />
    <glyph glyph-name="jcircumflex" unicode="&#x135;" horiz-adv-x="532" 
d="M-143 -410v246h163q47 0 75 30t28 83v1136h287v-1177q0 -162 -81 -240t-257 -78h-215zM-92 1249l276 318h195l276 -318h-235l-133 164h-11l-133 -164h-235z" />
    <glyph glyph-name="uni0136" unicode="&#x136;" horiz-adv-x="1310" 
d="M143 0v1434h308v-635l512 635h358l-573 -707l604 -727h-359l-542 655v-655h-308zM502 -522l92 348h235l-153 -348h-174z" />
    <glyph glyph-name="uni0137" unicode="&#x137;" horiz-adv-x="1146" 
d="M133 0v1434h287v-830l399 481h338l-440 -532l471 -553h-338l-430 502v-502h-287zM420 -522l92 348h236l-154 -348h-174z" />
    <glyph glyph-name="Lacute" unicode="&#x139;" horiz-adv-x="1146" 
d="M143 0v1434h308v-1158h655v-276h-963zM195 1567l184 307h266l-235 -307h-215z" />
    <glyph glyph-name="lacute" unicode="&#x13a;" horiz-adv-x="552" 
d="M133 0v1434h287v-1434h-287zM164 1567l184 307h266l-235 -307h-215z" />
    <glyph glyph-name="uni013B" unicode="&#x13b;" horiz-adv-x="1146" 
d="M143 0v1434h308v-1158h655v-276h-963zM420 -522l92 348h236l-154 -348h-174z" />
    <glyph glyph-name="uni013C" unicode="&#x13c;" horiz-adv-x="552" 
d="M133 0v1434h287v-1434h-287zM61 -522l93 348h235l-153 -348h-175z" />
    <glyph glyph-name="Lcaron" unicode="&#x13d;" horiz-adv-x="1146" 
d="M143 0v1434h308v-1158h655v-276h-963zM573 1085l93 349h235l-153 -349h-175z" />
    <glyph glyph-name="lcaron" unicode="&#x13e;" horiz-adv-x="757" 
d="M133 0v1434h287v-1434h-287zM512 1085l92 349h236l-154 -349h-174z" />
    <glyph glyph-name="Ldot" unicode="&#x13f;" horiz-adv-x="1146" 
d="M860.5 666q-69.5 0 -117 47t-47.5 116.5t47.5 116.5t117 47t116.5 -47t47 -116.5t-47 -116.5t-116.5 -47zM143 0v1434h308v-1158h655v-276h-963z" />
    <glyph glyph-name="ldot" unicode="&#x140;" horiz-adv-x="839" 
d="M696.5 573q-69.5 0 -117 47.5t-47.5 117t47.5 116.5t117 47t116.5 -47t47 -116.5t-47 -117t-116.5 -47.5zM133 0v1434h287v-1434h-287z" />
    <glyph glyph-name="Lslash" unicode="&#x141;" horiz-adv-x="1187" 
d="M184 0v532l-174 -61v287l174 61v615h308v-502l317 112v-286l-317 -113v-369h655v-276h-963z" />
    <glyph glyph-name="lslash" unicode="&#x142;" horiz-adv-x="645" 
d="M174 0v528l-154 -67v266l154 68v639h287v-514l164 73v-266l-164 -74v-653h-287z" />
    <glyph glyph-name="Nacute" unicode="&#x143;" horiz-adv-x="1546" 
d="M143 0v1434h400l542 -983h11v983h307v-1434h-399l-543 983h-10v-983h-308zM676 1567l184 307h266l-235 -307h-215z" />
    <glyph glyph-name="nacute" unicode="&#x144;" horiz-adv-x="1208" 
d="M123 0v1085h246l30 -122h11q111 143 286 143q180 0 290 -118t110 -322v-666h-287v625q0 106 -51 165.5t-143.5 59.5t-148.5 -62.5t-56 -162.5v-625h-287zM502 1249l184 307h266l-235 -307h-215z" />
    <glyph glyph-name="uni0145" unicode="&#x145;" horiz-adv-x="1546" 
d="M143 0v1434h400l542 -983h11v983h307v-1434h-399l-543 983h-10v-983h-308zM573 -522l93 348h235l-153 -348h-175z" />
    <glyph glyph-name="uni0146" unicode="&#x146;" horiz-adv-x="1208" 
d="M123 0v1085h246l30 -122h11q111 143 286 143q180 0 290 -118t110 -322v-666h-287v625q0 106 -51 165.5t-143.5 59.5t-148.5 -62.5t-56 -162.5v-625h-287zM399 -522l93 348h235l-154 -348h-174z" />
    <glyph glyph-name="Ncaron" unicode="&#x147;" horiz-adv-x="1546" 
d="M143 0v1434h400l542 -983h11v983h307v-1434h-399l-543 983h-10v-983h-308zM686 1567l-276 317h235l133 -164h10l134 164h235l-276 -317h-195z" />
    <glyph glyph-name="ncaron" unicode="&#x148;" horiz-adv-x="1208" 
d="M123 0v1085h246l30 -122h11q111 143 286 143q180 0 290 -118t110 -322v-666h-287v625q0 106 -51 165.5t-143.5 59.5t-148.5 -62.5t-56 -162.5v-625h-287zM512 1239l-276 317h235l133 -163h10l134 163h235l-276 -317h-195z" />
    <glyph glyph-name="napostrophe" unicode="&#x149;" horiz-adv-x="1351" 
d="M266 0v1085h246l31 -122h10q111 143 287 143q180 0 289.5 -118t109.5 -322v-666h-287v625q0 106 -51 165.5t-143 59.5t-148.5 -62.5t-56.5 -162.5v-625h-287zM10 1106l92 348h236l-154 -348h-174z" />
    <glyph glyph-name="Eng" unicode="&#x14a;" horiz-adv-x="1546" 
d="M799 -492v287h92q98 0 151.5 51.5t53.5 143.5v10h-92l-543 983h-10v-983h-308v1434h400l542 -983h11v983h307v-1403q0 -522 -481 -523h-123z" />
    <glyph glyph-name="eng" unicode="&#x14b;" horiz-adv-x="1208" 
d="M543 -410v246h164q47 0 74.5 30t27.5 83v676q0 106 -51 165.5t-143.5 59.5t-148.5 -62.5t-56 -162.5v-625h-287v1085h246l30 -122h11q111 143 286 143q180 0 290 -118t110 -322v-758q0 -162 -81 -240t-257 -78h-215z" />
    <glyph glyph-name="Omacron" unicode="&#x14c;" horiz-adv-x="1515" 
d="M757.5 -20q-311.5 0 -493.5 194.5t-182 542.5t182 542.5t493.5 194.5t494 -194.5t182.5 -542.5t-182.5 -542.5t-494 -194.5zM758 256q168 0 268 119t100 342t-100 342t-268 119t-268.5 -119t-100.5 -342t100.5 -342t268.5 -119zM451 1618v194h614v-194h-614z" />
    <glyph glyph-name="omacron" unicode="&#x14d;" horiz-adv-x="1208" 
d="M604 -20q-248 0 -390 148t-142 414.5t142 415t390 148.5t390.5 -148.5t142.5 -415t-142.5 -414.5t-390.5 -148zM604.5 236q106.5 0 176 76.5t69.5 230t-69.5 230.5t-176 77t-176.5 -77t-70 -230.5t70 -230t176.5 -76.5zM297 1290v195h614v-195h-614z" />
    <glyph glyph-name="Obreve" unicode="&#x14e;" horiz-adv-x="1515" 
d="M757.5 -20q-311.5 0 -493.5 194.5t-182 542.5t182 542.5t493.5 194.5t494 -194.5t182.5 -542.5t-182.5 -542.5t-494 -194.5zM758 256q168 0 268 119t100 342t-100 342t-268 119t-268.5 -119t-100.5 -342t100.5 -342t268.5 -119zM757.5 1567q-139.5 0 -236.5 76.5
t-111 230.5h204q16 -123 143.5 -123t143.5 123h205q-14 -154 -111.5 -230.5t-237 -76.5z" />
    <glyph glyph-name="obreve" unicode="&#x14f;" horiz-adv-x="1208" 
d="M604 -20q-248 0 -390 148t-142 414.5t142 415t390 148.5t390.5 -148.5t142.5 -415t-142.5 -414.5t-390.5 -148zM604.5 236q106.5 0 176 76.5t69.5 230t-69.5 230.5t-176 77t-176.5 -77t-70 -230.5t70 -230t176.5 -76.5zM604 1249q-139 0 -236.5 77t-111.5 230h205
q14 -123 143 -122.5t144 122.5h204q-14 -154 -111.5 -230.5t-236.5 -76.5z" />
    <glyph glyph-name="Ohungarumlaut" unicode="&#x150;" horiz-adv-x="1515" 
d="M757.5 -20q-311.5 0 -493.5 194.5t-182 542.5t182 542.5t493.5 194.5t494 -194.5t182.5 -542.5t-182.5 -542.5t-494 -194.5zM758 256q168 0 268 119t100 342t-100 342t-268 119t-268.5 -119t-100.5 -342t100.5 -342t268.5 -119zM471 1567l184 307h267l-246 -307h-205z
M840 1567l184 307h266l-246 -307h-204z" />
    <glyph glyph-name="ohungarumlaut" unicode="&#x151;" horiz-adv-x="1208" 
d="M604 -20q-248 0 -390 148t-142 414.5t142 415t390 148.5t390.5 -148.5t142.5 -415t-142.5 -414.5t-390.5 -148zM604.5 236q106.5 0 176 76.5t69.5 230t-69.5 230.5t-176 77t-176.5 -77t-70 -230.5t70 -230t176.5 -76.5zM317 1249l185 307h266l-246 -307h-205zM686 1249
l184 307h267l-246 -307h-205z" />
    <glyph glyph-name="OE" unicode="&#x152;" horiz-adv-x="2150" 
d="M737.5 256q145.5 0 246.5 124t101 337t-101 337t-246.5 124t-247 -124t-101.5 -337t101.5 -337t247 -124zM717 -20q-276 0 -455.5 199.5t-179.5 537.5t179 537.5t456 199.5q139 0 235.5 -44t132.5 -99v123h973v-277h-665v-307h614v-256h-614v-318h665v-276h-973v123
q-37 -55 -133 -99t-235 -44z" />
    <glyph glyph-name="oe" unicode="&#x153;" horiz-adv-x="1925" 
d="M583.5 236q102.5 0 164 78.5t61.5 228t-61.5 228.5t-164 79t-164 -79t-61.5 -228.5t61.5 -228t164 -78.5zM573 -20q-227 0 -364 149.5t-137 413.5t137 413.5t364 149.5q233 0 369 -195q129 195 399 195q225 0 368.5 -149.5t143.5 -393.5l-10 -112h-747
q16 -98 74.5 -156.5t160.5 -58.5q78 0 119 24.5t76 77.5h309q-43 -162 -169 -260t-325 -98q-268 0 -399 194q-129 -194 -369 -194zM1096 645h465q-16 94 -77 149.5t-153 55.5q-98 0 -158.5 -55.5t-76.5 -149.5z" />
    <glyph glyph-name="Racute" unicode="&#x154;" horiz-adv-x="1341" 
d="M143 0v1434h615q217 0 349 -129t132 -342q0 -100 -30.5 -183.5t-73.5 -130.5t-87 -80.5t-75 -44.5l-31 -12l348 -512h-348l-328 492h-163v-492h-308zM451 768h286q86 0 140.5 52t54.5 142.5t-54.5 142.5t-140.5 52h-286v-389zM563 1567l185 307h266l-236 -307h-215z" />
    <glyph glyph-name="racute" unicode="&#x155;" horiz-adv-x="829" 
d="M123 0v1085h246l30 -122h11q82 123 256 122h133v-276h-113q-129 0 -202.5 -71.5t-73.5 -194.5v-543h-287zM358 1249l185 307h266l-236 -307h-215z" />
    <glyph glyph-name="uni0156" unicode="&#x156;" horiz-adv-x="1341" 
d="M143 0v1434h615q217 0 349 -129t132 -342q0 -100 -30.5 -183.5t-73.5 -130.5t-87 -80.5t-75 -44.5l-31 -12l348 -512h-348l-328 492h-163v-492h-308zM451 768h286q86 0 140.5 52t54.5 142.5t-54.5 142.5t-140.5 52h-286v-389zM471 -522l92 348h236l-154 -348h-174z" />
    <glyph glyph-name="uni0157" unicode="&#x157;" horiz-adv-x="829" 
d="M123 0v1085h246l30 -122h11q82 123 256 122h133v-276h-113q-129 0 -202.5 -71.5t-73.5 -194.5v-543h-287zM51 -522l92 348h236l-154 -348h-174z" />
    <glyph glyph-name="Rcaron" unicode="&#x158;" horiz-adv-x="1341" 
d="M143 0v1434h615q217 0 349 -129t132 -342q0 -100 -30.5 -183.5t-73.5 -130.5t-87 -80.5t-75 -44.5l-31 -12l348 -512h-348l-328 492h-163v-492h-308zM451 768h286q86 0 140.5 52t54.5 142.5t-54.5 142.5t-140.5 52h-286v-389zM573 1567l-276 317h235l134 -164h10l133 164
h235l-276 -317h-195z" />
    <glyph glyph-name="rcaron" unicode="&#x159;" horiz-adv-x="829" 
d="M123 0v1085h246l30 -122h11q82 123 256 122h133v-276h-113q-129 0 -202.5 -71.5t-73.5 -194.5v-543h-287zM369 1239l-277 317h236l133 -163h10l133 163h236l-277 -317h-194z" />
    <glyph glyph-name="Sacute" unicode="&#x15a;" horiz-adv-x="1280" 
d="M635 -20q-246 0 -403.5 116.5t-180.5 333.5h307q16 -86 89 -135t188 -49q266 0 266 174q0 66 -59.5 105.5t-147.5 53t-192.5 41t-192.5 64.5t-147.5 126t-59.5 224q0 201 149.5 310.5t383.5 109.5q250 0 389 -115.5t164 -304.5h-307q-16 72 -77 113t-159 41
q-109 0 -167 -44t-58 -110q0 -68 59.5 -110.5t147.5 -59t192.5 -45t192.5 -64.5t147.5 -122t59.5 -213q0 -193 -155 -316.5t-429 -123.5zM543 1567l184 307h266l-235 -307h-215z" />
    <glyph glyph-name="sacute" unicode="&#x15b;" horiz-adv-x="1054" 
d="M522 -20q-223 0 -339.5 99t-141.5 259h307q8 -41 55.5 -71.5t118.5 -30.5q184 0 185 81q0 37 -46.5 59.5t-116 32t-150.5 32t-150.5 54t-115.5 104.5t-46 179q0 143 115.5 235.5t324.5 92.5q217 0 332 -93t139 -245h-307q-20 82 -164 82q-68 0 -105.5 -20.5t-37.5 -51.5
q0 -37 46 -59.5t115.5 -31.5t150.5 -31.5t150.5 -54.5t116 -104.5t46.5 -179.5q0 -147 -113 -242t-369 -95zM420 1249l184 307h266l-235 -307h-215z" />
    <glyph glyph-name="Scircumflex" unicode="&#x15c;" horiz-adv-x="1280" 
d="M635 -20q-246 0 -403.5 116.5t-180.5 333.5h307q16 -86 89 -135t188 -49q266 0 266 174q0 66 -59.5 105.5t-147.5 53t-192.5 41t-192.5 64.5t-147.5 126t-59.5 224q0 201 149.5 310.5t383.5 109.5q250 0 389 -115.5t164 -304.5h-307q-16 72 -77 113t-159 41
q-109 0 -167 -44t-58 -110q0 -68 59.5 -110.5t147.5 -59t192.5 -45t192.5 -64.5t147.5 -122t59.5 -213q0 -193 -155 -316.5t-429 -123.5zM276 1567l277 317h195l276 -317h-236l-133 164h-10l-133 -164h-236z" />
    <glyph glyph-name="scircumflex" unicode="&#x15d;" horiz-adv-x="1054" 
d="M522 -20q-223 0 -339.5 99t-141.5 259h307q8 -41 55.5 -71.5t118.5 -30.5q184 0 185 81q0 37 -46.5 59.5t-116 32t-150.5 32t-150.5 54t-115.5 104.5t-46 179q0 143 115.5 235.5t324.5 92.5q217 0 332 -93t139 -245h-307q-20 82 -164 82q-68 0 -105.5 -20.5t-37.5 -51.5
q0 -37 46 -59.5t115.5 -31.5t150.5 -31.5t150.5 -54.5t116 -104.5t46.5 -179.5q0 -147 -113 -242t-369 -95zM154 1249l276 318h195l276 -318h-235l-134 164h-10l-133 -164h-235z" />
    <glyph glyph-name="Scedilla" unicode="&#x15e;" horiz-adv-x="1280" 
d="M481 -471v164h113q61 0 61 51t-59 51h-94v113l33 78q-205 23 -334 136.5t-150 307.5h307q16 -86 89 -135t188 -49q266 0 266 174q0 66 -59.5 105.5t-147.5 53t-192.5 41t-192.5 64.5t-147.5 126t-59.5 224q0 201 149.5 310.5t383.5 109.5q250 0 389 -115.5t164 -304.5
h-307q-16 72 -77 113t-159 41q-109 0 -167 -44t-58 -110q0 -68 59.5 -110.5t147.5 -59t192.5 -45t192.5 -64.5t147.5 -122t59.5 -213q0 -180 -137.5 -302t-383.5 -136l-22 -54q74 -8 124 -56t50 -128q0 -100 -59.5 -157.5t-165.5 -57.5h-144z" />
    <glyph glyph-name="scedilla" unicode="&#x15f;" horiz-adv-x="1054" 
d="M389 -471v164h113q61 0 61 51t-59 51h-94v113l32 76q-184 16 -281.5 112.5t-119.5 241.5h307q8 -41 55.5 -71.5t118.5 -30.5q184 0 185 81q0 37 -46.5 59.5t-116 32t-150.5 32t-150.5 54t-115.5 104.5t-46 179q0 143 115.5 235.5t324.5 92.5q217 0 332 -93t139 -245h-307
q-20 82 -164 82q-68 0 -105.5 -20.5t-37.5 -51.5q0 -37 46 -59.5t115.5 -31.5t150.5 -31.5t150.5 -54.5t116 -104.5t46.5 -179.5q0 -133 -93.5 -225t-304.5 -108l-22 -56q74 -8 124 -56t50 -128q0 -100 -59.5 -157.5t-166.5 -57.5h-143z" />
    <glyph glyph-name="Scaron" unicode="&#x160;" horiz-adv-x="1280" 
d="M635 -20q-246 0 -403.5 116.5t-180.5 333.5h307q16 -86 89 -135t188 -49q266 0 266 174q0 66 -59.5 105.5t-147.5 53t-192.5 41t-192.5 64.5t-147.5 126t-59.5 224q0 201 149.5 310.5t383.5 109.5q250 0 389 -115.5t164 -304.5h-307q-16 72 -77 113t-159 41
q-109 0 -167 -44t-58 -110q0 -68 59.5 -110.5t147.5 -59t192.5 -45t192.5 -64.5t147.5 -122t59.5 -213q0 -193 -155 -316.5t-429 -123.5zM553 1567l-277 317h236l133 -164h10l133 164h236l-276 -317h-195z" />
    <glyph glyph-name="scaron" unicode="&#x161;" horiz-adv-x="1054" 
d="M522 -20q-223 0 -339.5 99t-141.5 259h307q8 -41 55.5 -71.5t118.5 -30.5q184 0 185 81q0 37 -46.5 59.5t-116 32t-150.5 32t-150.5 54t-115.5 104.5t-46 179q0 143 115.5 235.5t324.5 92.5q217 0 332 -93t139 -245h-307q-20 82 -164 82q-68 0 -105.5 -20.5t-37.5 -51.5
q0 -37 46 -59.5t115.5 -31.5t150.5 -31.5t150.5 -54.5t116 -104.5t46.5 -179.5q0 -147 -113 -242t-369 -95zM430 1239l-276 317h235l133 -163h10l134 163h235l-276 -317h-195z" />
    <glyph glyph-name="uni0162" unicode="&#x162;" horiz-adv-x="1228" 
d="M543 -471v164h112q61 0 61.5 51t-59.5 51h-94v113l41 92h-143v1157h-430v277h1167v-277h-430v-1157l-31 -72q74 -8 124 -56t50 -128q0 -100 -59 -157.5t-166 -57.5h-143z" />
    <glyph glyph-name="uni0163" unicode="&#x163;" horiz-adv-x="839" 
d="M307 -471v164h113q61 0 61 51t-59 51h-94v113l53 121q-166 72 -166 288v502h-174v266h174l41 287h246v-287h256v-266h-256v-450q0 -45 27.5 -74t74.5 -29h154v-266h-205h-21l-30 -72q74 -8 124 -56t50 -128q0 -100 -59.5 -157.5t-165.5 -57.5h-144z" />
    <glyph glyph-name="Tcaron" unicode="&#x164;" horiz-adv-x="1228" 
d="M461 0v1157h-430v277h1167v-277h-430v-1157h-307zM522 1567l-276 317h235l133 -164h11l133 164h235l-276 -317h-195z" />
    <glyph glyph-name="tcaron" unicode="&#x165;" horiz-adv-x="993" 
d="M553 0q-338 0 -338 317v502h-174v266h174l41 287h246v-287h256v-266h-256v-450q0 -45 27.5 -74t74.5 -29h154v-266h-205zM748 1085l92 349h235l-153 -349h-174z" />
    <glyph glyph-name="Tbar" unicode="&#x166;" horiz-adv-x="1249" 
d="M471 0v676h-317v266h317v215h-430v277h1167v-277h-430v-215h318v-266h-318v-676h-307z" />
    <glyph glyph-name="tbar" unicode="&#x167;" horiz-adv-x="839" 
d="M553 0q-338 0 -338 317v164h-174v246h174v113h-174v245h174l41 287h246v-287h256v-245h-256v-113h256v-246h-256v-112q0 -45 27.5 -74t74.5 -29h154v-266h-205z" />
    <glyph glyph-name="Umacron" unicode="&#x16a;" horiz-adv-x="1474" 
d="M737.5 -20q-278.5 0 -441.5 168.5t-163 465.5v820h307v-820q0 -172 81 -265t216 -93t216 93t81 265v820h307v-820q0 -297 -162.5 -465.5t-441 -168.5zM430 1618v194h614v-194h-614z" />
    <glyph glyph-name="umacron" unicode="&#x16b;" horiz-adv-x="1218" 
d="M522 -20q-180 0 -289.5 117.5t-109.5 322.5v665h287v-624q0 -106 51 -165.5t143 -59.5t148.5 62t56.5 163v624h287v-1085h-246l-31 123h-10q-111 -143 -287 -143zM307 1290v195h615v-195h-615z" />
    <glyph glyph-name="Ubreve" unicode="&#x16c;" horiz-adv-x="1474" 
d="M737.5 -20q-278.5 0 -441.5 168.5t-163 465.5v820h307v-820q0 -172 81 -265t216 -93t216 93t81 265v820h307v-820q0 -297 -162.5 -465.5t-441 -168.5zM737.5 1567q-139.5 0 -237 76.5t-111.5 230.5h205q16 -123 143 -123t144 123h204q-14 -154 -111 -230.5t-236.5 -76.5z
" />
    <glyph glyph-name="ubreve" unicode="&#x16d;" horiz-adv-x="1218" 
d="M522 -20q-180 0 -289.5 117.5t-109.5 322.5v665h287v-624q0 -106 51 -165.5t143 -59.5t148.5 62t56.5 163v624h287v-1085h-246l-31 123h-10q-111 -143 -287 -143zM614.5 1249q-139.5 0 -236.5 77t-112 230h205q16 -123 143 -122.5t144 122.5h205q-14 -154 -111.5 -230.5
t-237 -76.5z" />
    <glyph glyph-name="Uring" unicode="&#x16e;" horiz-adv-x="1474" 
d="M737.5 -20q-278.5 0 -441.5 168.5t-163 465.5v820h307v-820q0 -172 81 -265t216 -93t216 93t81 265v820h307v-820q0 -297 -162.5 -465.5t-441 -168.5zM737.5 1516q-100.5 0 -163 62t-62.5 162.5t62.5 163t163 62.5t163 -62.5t62.5 -163t-62.5 -162.5t-163 -62zM737 1659
q82 0 82 82t-82 82t-82 -82t82 -82z" />
    <glyph glyph-name="uring" unicode="&#x16f;" horiz-adv-x="1218" 
d="M522 -20q-180 0 -289.5 117.5t-109.5 322.5v665h287v-624q0 -106 51 -165.5t143 -59.5t148.5 62t56.5 163v624h287v-1085h-246l-31 123h-10q-111 -143 -287 -143zM614.5 1208q-100.5 0 -163 62.5t-62.5 163t62.5 163t163 62.5t163 -62.5t62.5 -163t-62.5 -163t-163 -62.5
zM614 1352q82 0 82 82t-82 82t-82 -82t82 -82z" />
    <glyph glyph-name="Uhungarumlaut" unicode="&#x170;" horiz-adv-x="1474" 
d="M737.5 -20q-278.5 0 -441.5 168.5t-163 465.5v820h307v-820q0 -172 81 -265t216 -93t216 93t81 265v820h307v-820q0 -297 -162.5 -465.5t-441 -168.5zM451 1567l184 307h266l-246 -307h-204zM819 1567l185 307h266l-246 -307h-205z" />
    <glyph glyph-name="uhungarumlaut" unicode="&#x171;" horiz-adv-x="1218" 
d="M522 -20q-180 0 -289.5 117.5t-109.5 322.5v665h287v-624q0 -106 51 -165.5t143 -59.5t148.5 62t56.5 163v624h287v-1085h-246l-31 123h-10q-111 -143 -287 -143zM328 1249l184 307h266l-246 -307h-204zM696 1249l185 307h266l-246 -307h-205z" />
    <glyph glyph-name="Uogonek" unicode="&#x172;" horiz-adv-x="1474" 
d="M829 -430q-276 0 -276 215q0 131 119 199q-250 18 -394.5 185t-144.5 445v820h307v-820q0 -172 81 -265t216 -93t216 93t81 265v820h307v-820q0 -262 -127 -425.5t-352 -198.5q-104 -63 -104 -164q0 -82 112 -82h52v-174h-93z" />
    <glyph glyph-name="uogonek" unicode="&#x173;" horiz-adv-x="1218" 
d="M1044 -430q-276 0 -276 215q0 150 154 215h-72l-31 123h-10q-111 -143 -287 -143q-180 0 -289.5 117.5t-109.5 322.5v665h287v-624q0 -106 51 -165.5t143 -59.5t148.5 62t56.5 163v624h287v-1085q-123 -68 -123 -174q0 -82 112 -82h52v-174h-93z" />
    <glyph glyph-name="Wcircumflex" unicode="&#x174;" horiz-adv-x="1945" 
d="M389 0l-379 1434h318l225 -994h10l246 994h328l245 -994h11l225 994h317l-379 -1434h-337l-246 993l-246 -993h-338zM604 1567l277 317h194l277 -317h-236l-133 164h-10l-133 -164h-236z" />
    <glyph glyph-name="wcircumflex" unicode="&#x175;" horiz-adv-x="1648" 
d="M307 0l-297 1085h297l185 -727h10l184 727h297l184 -727h11l184 727h276l-297 -1085h-317l-184 686h-11l-184 -686h-338zM461 1249l276 318h195l276 -318h-235l-133 164h-11l-133 -164h-235z" />
    <glyph glyph-name="Ycircumflex" unicode="&#x176;" horiz-adv-x="1249" 
d="M471 0v492l-502 942h328l321 -625h11l323 625h328l-502 -942v-492h-307zM256 1567l276 317h195l277 -317h-236l-133 164h-10l-133 -164h-236z" />
    <glyph glyph-name="ycircumflex" unicode="&#x177;" horiz-adv-x="1146" 
d="M266 -410l166 410l-442 1085h317l266 -706h9l258 706h317l-594 -1495h-297zM205 1249l276 318h195l276 -318h-235l-133 164h-11l-133 -164h-235z" />
    <glyph glyph-name="Ydieresis" unicode="&#x178;" horiz-adv-x="1249" 
d="M471 0v492l-502 942h328l321 -625h11l323 625h328l-502 -942v-492h-307zM419.5 1577q-61.5 0 -102.5 41t-41 102.5t41 102.5t102.5 41t102.5 -41t41 -102.5t-41 -102.5t-102.5 -41zM829.5 1577q-61.5 0 -102.5 41t-41 102.5t41 102.5t102.5 41t102.5 -41t41 -102.5
t-41 -102.5t-102.5 -41z" />
    <glyph glyph-name="Zacute" unicode="&#x179;" horiz-adv-x="1239" 
d="M72 0v225l696 942h-676v267h1065v-226l-696 -942h706v-266h-1095zM512 1567l184 307h267l-236 -307h-215z" />
    <glyph glyph-name="zacute" unicode="&#x17a;" horiz-adv-x="1003" 
d="M61 0v215l502 614h-481v256h850v-215l-502 -614h512v-256h-881zM399 1249l185 307h266l-236 -307h-215z" />
    <glyph glyph-name="Zdotaccent" unicode="&#x17b;" horiz-adv-x="1239" 
d="M72 0v225l696 942h-676v267h1065v-226l-696 -942h706v-266h-1095zM624.5 1577q-61.5 0 -102.5 41t-41 102.5t41 102.5t102.5 41t102.5 -41t41 -102.5t-41 -102.5t-102.5 -41z" />
    <glyph glyph-name="zdotaccent" unicode="&#x17c;" horiz-adv-x="1003" 
d="M61 0v215l502 614h-481v256h850v-215l-502 -614h512v-256h-881zM501.5 1260q-61.5 0 -102.5 40.5t-41 102t41 102.5t102.5 41t102.5 -41t41 -102.5t-41 -102t-102.5 -40.5z" />
    <glyph glyph-name="Zcaron" unicode="&#x17d;" horiz-adv-x="1239" 
d="M72 0v225l696 942h-676v267h1065v-226l-696 -942h706v-266h-1095zM532 1567l-276 317h236l133 -164h10l133 164h236l-277 -317h-195z" />
    <glyph glyph-name="zcaron" unicode="&#x17e;" horiz-adv-x="1003" 
d="M61 0v215l502 614h-481v256h850v-215l-502 -614h512v-256h-881zM410 1239l-277 317h236l133 -163h10l133 163h236l-277 -317h-194z" />
    <glyph glyph-name="uni018F" unicode="&#x18f;" horiz-adv-x="1495" 
d="M737 256q147 0 240.5 91t118.5 237h-707q45 -328 348 -328zM737 -20q-301 0 -478 196.5t-177 571.5v71h1016q-20 168 -114.5 263.5t-246.5 95.5q-207 0 -297 -164h-317q51 195 202.5 317.5t411.5 122.5q311 0 493.5 -194.5t182.5 -542.5t-182.5 -542.5t-493.5 -194.5z
" />
    <glyph glyph-name="florin" unicode="&#x192;" horiz-adv-x="942" 
d="M-133 -369l61 277h103q68 0 97.5 21.5t39.5 70.5l143 676h-188l51 266h195l51 236q33 152 122 224.5t267 72.5h184l-61 -277h-103q-66 0 -95 -21.5t-42 -70.5l-37 -164h236l-51 -266h-238l-162 -748q-33 -152 -122 -224.5t-267 -72.5h-184z" />
    <glyph glyph-name="Aringacute" unicode="&#x1fa;" horiz-adv-x="1382" 
d="M686 1638q82 0 82 82t-82 82t-82 -82t82 -82zM686 1495q-100 0 -162.5 62.5t-62.5 162.5q0 90 52 151.5t138 72.5l45 124h215l-106 -153q106 -63 106 -195q0 -100 -62.5 -162.5t-162.5 -62.5zM-10 0l512 1434h379l512 -1434h-318l-92 266h-584l-92 -266h-317zM500 543
h383l-187 542h-10z" />
    <glyph glyph-name="aringacute" unicode="&#x1fb;" horiz-adv-x="1136" 
d="M584 1331q82 0 82 82t-82 82t-82 -82t82 -82zM583.5 1188q-100.5 0 -163 62.5t-62.5 162.5q0 90 52.5 151.5t138.5 71.5l45 125h215l-107 -153q106 -63 107 -195q0 -100 -62.5 -162.5t-163 -62.5zM512 215q100 0 162.5 56.5t62.5 148.5v31h-245q-72 0 -108 -32t-36 -81
q0 -55 41 -89t123 -34zM440 -20q-174 0 -276.5 94t-102.5 243q0 152 110 245t310 93h256v52q0 76 -49 114.5t-135 38.5q-59 0 -103 -26.5t-61 -65.5h-287q35 145 151 241.5t310 96.5q217 0 339 -106.5t122 -303.5v-696h-246l-30 123h-11q-96 -143 -297 -143z" />
    <glyph glyph-name="AEacute" unicode="&#x1fc;" horiz-adv-x="1966" 
d="M543 553h348v594h-51zM-72 0l717 1434h1208v-277h-655v-305h614v-258h-614v-318h676v-276h-983v287h-481l-144 -287h-338zM952 1567l185 307h266l-236 -307h-215z" />
    <glyph glyph-name="aeacute" unicode="&#x1fd;" horiz-adv-x="1853" 
d="M512 215q104 0 164.5 58.5t60.5 146.5v20h-245q-72 0 -108 -29.5t-36 -72.5q0 -55 41 -89t123 -34zM451 -20q-184 0 -287 96t-103 241q0 147 112 237.5t308 90.5h256v62q0 72 -47 112.5t-137 40.5q-127 0 -164 -92h-287q33 143 146.5 240.5t294.5 97.5q242 0 358 -174
q139 174 379 174q223 0 362.5 -153.5t139.5 -399.5l-10 -113h-748q16 -92 74.5 -148t161.5 -56q78 0 119.5 24.5t76.5 77.5h307q-43 -160 -168 -259t-315 -99q-276 0 -399 196q-72 -92 -170 -144t-260 -52zM1024 645h465q-16 94 -76.5 149.5t-152.5 55.5q-98 0 -159 -55.5
t-77 -149.5zM829 1249l185 307h266l-236 -307h-215z" />
    <glyph glyph-name="Oslashacute" unicode="&#x1fe;" horiz-adv-x="1515" 
d="M451 432l417 729q-55 16 -110 17q-168 0 -268.5 -119t-100.5 -342q1 -176 62 -285zM174 -51l115 201q-207 197 -207 567q0 348 182 542.5t494 194.5q137 0 256 -41l41 72h276l-112 -195q215 -197 215 -573q0 -348 -182.5 -542.5t-493.5 -194.5q-139 0 -264 43l-43 -74
h-277zM758 256q168 0 268 119t100 342q0 176 -67 293l-422 -736q55 -18 121 -18zM655 1567l185 307h266l-236 -307h-215z" />
    <glyph glyph-name="oslashacute" unicode="&#x1ff;" horiz-adv-x="1208" 
d="M383 387l287 455q-27 8 -66 8q-106 0 -176 -77t-70 -230q0 -93 25 -156zM113 -41l104 166q-145 150 -145 418q0 266 142 414.5t390 148.5q113 0 211 -35l35 55h246l-105 -165q145 -152 145.5 -418.5t-142 -414.5t-390.5 -148q-113 0 -211 32l-35 -53h-245zM604 236
q106 0 176 76.5t70 230.5q0 92 -25 155l-286 -454q26 -8 65 -8zM502 1249l184 307h266l-235 -307h-215z" />
    <glyph glyph-name="uni0218" unicode="&#x218;" horiz-adv-x="1280" 
d="M635 -20q-246 0 -403.5 116.5t-180.5 333.5h307q16 -86 89 -135t188 -49q266 0 266 174q0 66 -59.5 105.5t-147.5 53t-192.5 41t-192.5 64.5t-147.5 126t-59.5 224q0 201 149.5 310.5t383.5 109.5q250 0 389 -115.5t164 -304.5h-307q-16 72 -77 113t-159 41
q-109 0 -167 -44t-58 -110q0 -68 59.5 -110.5t147.5 -59t192.5 -45t192.5 -64.5t147.5 -122t59.5 -213q0 -193 -155 -316.5t-429 -123.5zM440 -522l92 348h236l-154 -348h-174z" />
    <glyph glyph-name="uni0219" unicode="&#x219;" horiz-adv-x="1054" 
d="M522 -20q-223 0 -339.5 99t-141.5 259h307q8 -41 55.5 -71.5t118.5 -30.5q184 0 185 81q0 37 -46.5 59.5t-116 32t-150.5 32t-150.5 54t-115.5 104.5t-46 179q0 143 115.5 235.5t324.5 92.5q217 0 332 -93t139 -245h-307q-20 82 -164 82q-68 0 -105.5 -20.5t-37.5 -51.5
q0 -37 46 -59.5t115.5 -31.5t150.5 -31.5t150.5 -54.5t116 -104.5t46.5 -179.5q0 -147 -113 -242t-369 -95zM317 -522l93 348h235l-153 -348h-175z" />
    <glyph glyph-name="uni021A" unicode="&#x21a;" horiz-adv-x="1228" 
d="M461 0v1157h-430v277h1167v-277h-430v-1157h-307zM410 -522l92 348h235l-153 -348h-174z" />
    <glyph glyph-name="uni021B" unicode="&#x21b;" horiz-adv-x="839" 
d="M553 0q-338 0 -338 317v502h-174v266h174l41 287h246v-287h256v-266h-256v-450q0 -45 27.5 -74t74.5 -29h154v-266h-205zM276 -522l93 348h235l-153 -348h-175z" />
    <glyph glyph-name="uni0232" unicode="&#x232;" horiz-adv-x="1249" 
d="M471 0v492l-502 942h328l321 -625h11l323 625h328l-502 -942v-492h-307zM317 1618v194h615v-194h-615z" />
    <glyph glyph-name="uni0233" unicode="&#x233;" horiz-adv-x="1146" 
d="M266 -410l166 410l-442 1085h317l266 -706h9l258 706h317l-594 -1495h-297zM266 1290v195h615v-195h-615z" />
    <glyph glyph-name="uni0244" unicode="&#x244;" horiz-adv-x="1515" 
d="M758 256q135 0 216 93t81 265v246h-594v-246q0 -172 81 -265t216 -93zM757.5 -20q-278.5 0 -441 168.5t-162.5 465.5v246h-134v236h134v338h307v-338h594v338h307v-338h133v-236h-133v-246q0 -297 -163 -465.5t-441.5 -168.5z" />
    <glyph glyph-name="uni0259" unicode="&#x259;" horiz-adv-x="1198" 
d="M594 236q180 0 235 184h-460q16 -78 74.5 -131t150.5 -53zM594 -20q-236 0 -379 151.5t-143 390.5l10 113h747q-16 98 -74.5 156.5t-160.5 58.5q-78 0 -119 -24.5t-76 -77.5h-307q43 156 166 257t336 101q248 0 390 -148.5t142 -415t-142 -414.5t-390 -148z" />
    <glyph glyph-name="uni0289" unicode="&#x289;" horiz-adv-x="1300" 
d="M645 236q92 0 148.5 62t56.5 163v235h-399v-235q0 -106 51 -165.5t143 -59.5zM563 -20q-180 0 -289.5 117.5t-109.5 322.5v276h-123v226h123v163h287v-163h399v163h287v-163h123v-226h-123v-696h-246l-31 123h-10q-111 -143 -287 -143z" />
    <glyph glyph-name="uni02BC" unicode="&#x2bc;" horiz-adv-x="450" 
d="M61 1085l93 349h235l-153 -349h-175z" />
    <glyph glyph-name="circumflex" unicode="&#x2c6;" horiz-adv-x="870" 
d="M61 1249l277 318h194l277 -318h-236l-133 164h-10l-133 -164h-236z" />
    <glyph glyph-name="caron" unicode="&#x2c7;" horiz-adv-x="870" 
d="M338 1239l-277 317h236l133 -163h10l133 163h236l-277 -317h-194z" />
    <glyph glyph-name="breve" unicode="&#x2d8;" horiz-adv-x="819" 
d="M409.5 1249q-139.5 0 -236.5 77t-112 230h205q16 -123 143.5 -122.5t143.5 122.5h205q-14 -154 -111.5 -230.5t-237 -76.5z" />
    <glyph glyph-name="dotaccent" unicode="&#x2d9;" horiz-adv-x="409" 
d="M204.5 1260q-61.5 0 -102.5 40.5t-41 102t41 102.5t102.5 41t102.5 -41t41 -102.5t-41 -102t-102.5 -40.5z" />
    <glyph glyph-name="ring" unicode="&#x2da;" horiz-adv-x="573" 
d="M286.5 1208q-100.5 0 -163 62.5t-62.5 163t62.5 163t163 62.5t163 -62.5t62.5 -163t-62.5 -163t-163 -62.5zM287 1352q82 0 82 82t-82 82t-82 -82t82 -82z" />
    <glyph glyph-name="ogonek" unicode="&#x2db;" horiz-adv-x="491" 
d="M338 -430q-276 0 -277 215q0 150 154 215v20h174v-20q-123 -68 -123 -174q0 -82 113 -82h51v-174h-92z" />
    <glyph glyph-name="tilde" unicode="&#x2dc;" horiz-adv-x="798" 
d="M532 1260q-57 0 -128.5 40.5t-96.5 40.5q-51 0 -51 -71h-195q0 119 58.5 187.5t146.5 68.5q57 0 128 -41t98 -41q51 0 51 72h194q0 -119 -58.5 -187.5t-146.5 -68.5z" />
    <glyph glyph-name="hungarumlaut" unicode="&#x2dd;" horiz-adv-x="942" 
d="M61 1249l185 307h266l-246 -307h-205zM430 1249l184 307h267l-246 -307h-205z" />
    <glyph glyph-name="acutecomb" unicode="&#x301;" horiz-adv-x="0" 
d="M-840 1567l185 307h266l-236 -307h-215z" />
    <glyph glyph-name="uni0302" unicode="&#x302;" horiz-adv-x="0" 
d="M-1106 1567l277 317h194l277 -317h-236l-133 164h-10l-133 -164h-236z" />
    <glyph glyph-name="uni0304" unicode="&#x304;" horiz-adv-x="0" 
d="M-1044 1618v194h614v-194h-614z" />
    <glyph glyph-name="uni0306" unicode="&#x306;" horiz-adv-x="0" 
d="M-737.5 1577q-139.5 0 -236.5 77t-111 230h204q16 -123 143.5 -123t143.5 123h205q-14 -154 -111.5 -230.5t-237 -76.5z" />
    <glyph glyph-name="uni0307" unicode="&#x307;" horiz-adv-x="0" 
d="M-737.5 1587q-61.5 0 -102.5 41t-41 102.5t41 102.5t102.5 41t102.5 -41t41 -102.5t-41 -102.5t-102.5 -41z" />
    <glyph glyph-name="uni0308" unicode="&#x308;" horiz-adv-x="0" 
d="M-942.5 1587q-61.5 0 -102 41t-40.5 102.5t40.5 102.5t102 41t102.5 -41t41 -102.5t-41 -102.5t-102.5 -41zM-532.5 1587q-61.5 0 -102.5 41t-41 102.5t41 102.5t102.5 41t102.5 -41t41 -102.5t-41 -102.5t-102.5 -41z" />
    <glyph glyph-name="uni030A" unicode="&#x30a;" horiz-adv-x="0" 
d="M-737.5 1536q-100.5 0 -163 62.5t-62.5 163t62.5 163t163 62.5t163 -62.5t62.5 -163t-62.5 -163t-163 -62.5zM-737 1679q82 0 82 82t-82 82t-82 -82t82 -82z" />
    <glyph glyph-name="uni030C" unicode="&#x30c;" horiz-adv-x="0" 
d="M-829 1556l-277 318h236l133 -164h10l133 164h236l-277 -318h-194z" />
    <glyph glyph-name="uni0326" unicode="&#x326;" horiz-adv-x="450" 
d="M61 -522l93 348h235l-153 -348h-175z" />
    <glyph glyph-name="uni0400" unicode="&#x400;" horiz-adv-x="1228" 
d="M143 0v1434h973v-277h-665v-307h624v-256h-624v-318h686v-276h-994zM543 1567l-236 307h266l185 -307h-215z" />
    <glyph glyph-name="uni0401" unicode="&#x401;" horiz-adv-x="1228" 
d="M143 0v1434h973v-277h-665v-307h624v-256h-624v-318h686v-276h-994zM440.5 1577q-61.5 0 -102.5 41t-41 102.5t41 102.5t102.5 41t102.5 -41t41 -102.5t-41 -102.5t-102.5 -41zM849.5 1577q-61.5 0 -102 41t-40.5 102.5t40.5 102.5t102 41t102.5 -41t41 -102.5
t-41 -102.5t-102.5 -41z" />
    <glyph glyph-name="uni0402" unicode="&#x402;" horiz-adv-x="1484" 
d="M338 0v1157h-348v277h993v-277h-338v-276q102 51 266 51q236 0 369 -127t133 -344q0 -211 -133 -336t-369 -125h-123v276h82q236 0 236 185q0 205 -236 205q-123 0 -225 -52v-614h-307z" />
    <glyph glyph-name="uni0403" unicode="&#x403;" horiz-adv-x="1085" 
d="M143 0v1434h891v-277h-583v-1157h-308zM481 1567l185 307h266l-236 -307h-215z" />
    <glyph glyph-name="uni0404" unicode="&#x404;" horiz-adv-x="1443" 
d="M758 -20q-311 0 -493.5 194.5t-182.5 542.5t182 542.5t494 194.5q258 0 412.5 -126t211.5 -345h-317q-88 195 -307 195q-141 0 -237.5 -86t-121.5 -252h482v-246h-482q25 -166 121 -252t238 -86q219 0 307 195h317q-57 -219 -211.5 -345t-412.5 -126z" />
    <glyph glyph-name="uni0405" unicode="&#x405;" horiz-adv-x="1280" 
d="M635 -20q-246 0 -403.5 116.5t-180.5 333.5h307q16 -86 89 -135t188 -49q266 0 266 174q0 66 -59.5 105.5t-147.5 53t-192.5 41t-192.5 64.5t-147.5 126t-59.5 224q0 201 149.5 310.5t383.5 109.5q250 0 389 -115.5t164 -304.5h-307q-16 72 -77 113t-159 41
q-109 0 -167 -44t-58 -110q0 -68 59.5 -110.5t147.5 -59t192.5 -45t192.5 -64.5t147.5 -122t59.5 -213q0 -193 -155 -316.5t-429 -123.5z" />
    <glyph glyph-name="uni0406" unicode="&#x406;" horiz-adv-x="593" 
d="M143 0v1434h308v-1434h-308z" />
    <glyph glyph-name="uni0407" unicode="&#x407;" horiz-adv-x="593" 
d="M143 0v1434h308v-1434h-308zM92.5 1577q-61.5 0 -102.5 41t-41 102.5t41 102.5t102.5 41t102.5 -41t41 -102.5t-41 -102.5t-102.5 -41zM501.5 1577q-61.5 0 -102.5 41t-41 102.5t41 102.5t102.5 41t102.5 -41t41 -102.5t-41 -102.5t-102.5 -41z" />
    <glyph glyph-name="uni0408" unicode="&#x408;" horiz-adv-x="1167" 
d="M543 -20q-223 0 -349 118.5t-143 341.5h307q8 -90 57.5 -137t127.5 -47q184 0 184 236v942h307v-942q0 -244 -130 -378t-361 -134z" />
    <glyph glyph-name="uni0409" unicode="&#x409;" horiz-adv-x="2068" 
d="M20 -31v307h21q82 0 125 43t66.5 170t23.5 371v574h983v-471h266q227 0 364.5 -135.5t137.5 -346.5t-137 -346t-365 -135h-573v1157h-369v-328q0 -469 -104.5 -664.5t-407.5 -195.5h-31zM1239 276h236q106 0 165.5 55.5t59.5 149.5t-59.5 149.5t-165.5 55.5h-236v-410z
" />
    <glyph glyph-name="uni040A" unicode="&#x40a;" horiz-adv-x="2119" 
d="M143 0v1434h308v-523h532v523h307v-523h287q221 0 351 -126t130 -334q0 -203 -130 -327t-351 -124h-594v635h-532v-635h-308zM1290 276h266q92 0 143.5 45.5t51.5 129.5q0 86 -51 135t-144 49h-266v-359z" />
    <glyph glyph-name="uni040B" unicode="&#x40b;" horiz-adv-x="1505" 
d="M338 0v1157h-348v277h993v-277h-338v-276q102 51 266 51q471 0 471 -502v-430h-307v430q0 127 -50 181.5t-155 54.5q-123 0 -225 -52v-614h-307z" />
    <glyph glyph-name="uni040C" unicode="&#x40c;" horiz-adv-x="1310" 
d="M143 0v1434h308v-635l512 635h358l-573 -707l604 -727h-359l-542 655v-655h-308zM594 1567l184 307h266l-235 -307h-215z" />
    <glyph glyph-name="uni040D" unicode="&#x40d;" horiz-adv-x="1546" 
d="M143 0v1434h308v-994h10l553 994h389v-1434h-307v993h-11l-553 -993h-389zM676 1567l-236 307h267l184 -307h-215z" />
    <glyph glyph-name="uni040E" unicode="&#x40e;" horiz-adv-x="1208" 
d="M297 0l164 379l-492 1055h328l317 -686h11l286 686h318l-615 -1434h-317zM604 1567q-139 0 -236.5 76.5t-111.5 230.5h205q14 -123 143 -123t144 123h204q-14 -154 -111.5 -230.5t-236.5 -76.5z" />
    <glyph glyph-name="uni040F" unicode="&#x40f;" horiz-adv-x="1454" 
d="M584 -297v297h-441v1434h308v-1158h553v1158h307v-1434h-441v-297h-286z" />
    <glyph glyph-name="uni0410" unicode="&#x410;" horiz-adv-x="1382" 
d="M-10 0l512 1434h379l512 -1434h-318l-92 266h-584l-92 -266h-317zM500 543h383l-187 542h-10z" />
    <glyph glyph-name="uni0411" unicode="&#x411;" horiz-adv-x="1310" 
d="M451 276h266q104 0 159.5 49.5t55.5 135.5t-55.5 135t-159.5 49h-266v-369zM143 0v1434h994v-277h-686v-235h307q221 0 351 -126t130 -335t-130 -335t-351 -126h-615z" />
    <glyph glyph-name="uni0412" unicode="&#x412;" horiz-adv-x="1361" 
d="M451 266h348q84 0 129 43t45 121t-45 121t-129 43h-348v-328zM143 0v1434h676q213 0 327 -106.5t114 -293.5q0 -102 -52.5 -184t-132.5 -123q90 -41 147.5 -126t57.5 -202q0 -186 -113.5 -292.5t-326.5 -106.5h-697zM451 840h327q84 0 129 43t45 120.5t-45 120.5t-129 43
h-327v-327z" />
    <glyph glyph-name="uni0413" unicode="&#x413;" horiz-adv-x="1085" 
d="M143 0v1434h891v-277h-583v-1157h-308z" />
    <glyph glyph-name="uni0414" unicode="&#x414;" horiz-adv-x="1484" 
d="M10 -297v573h133q66 109 89.5 257.5t23.5 367.5v533h1004v-1158h174v-573h-287v297h-850v-297h-287zM440 276h512v881h-389v-256q0 -447 -123 -625z" />
    <glyph glyph-name="uni0415" unicode="&#x415;" horiz-adv-x="1228" 
d="M143 0v1434h973v-277h-665v-307h624v-256h-624v-318h686v-276h-994z" />
    <glyph glyph-name="uni0416" unicode="&#x416;" horiz-adv-x="1863" 
d="M-41 0l533 727l-502 707h348l440 -635v635h307v-635l441 635h348l-502 -707l533 -727h-349l-471 655v-655h-307v655l-471 -655h-348z" />
    <glyph glyph-name="uni0417" unicode="&#x417;" horiz-adv-x="1290" 
d="M635 -20q-268 0 -417.5 116.5t-166.5 333.5h307q25 -174 277 -174q266 0 266 164t-266 164h-143v266h143q246 0 246 164q0 76 -65.5 120t-180.5 44q-100 0 -171 -43t-85 -131h-307q49 451 563 450q268 0 410.5 -112.5t142.5 -297.5q0 -119 -59.5 -201.5t-155.5 -115.5
q236 -90 235 -338q0 -178 -147 -293.5t-426 -115.5z" />
    <glyph glyph-name="uni0418" unicode="&#x418;" horiz-adv-x="1546" 
d="M143 0v1434h308v-994h10l553 994h389v-1434h-307v993h-11l-553 -993h-389z" />
    <glyph glyph-name="uni0419" unicode="&#x419;" horiz-adv-x="1546" 
d="M143 0v1434h308v-994h10l553 994h389v-1434h-307v993h-11l-553 -993h-389zM778.5 1567q-139.5 0 -237 76.5t-111.5 230.5h205q16 -123 143 -123t144 123h204q-14 -154 -111 -230.5t-236.5 -76.5z" />
    <glyph glyph-name="uni041A" unicode="&#x41a;" horiz-adv-x="1310" 
d="M143 0v1434h308v-635l512 635h358l-573 -707l604 -727h-359l-542 655v-655h-308z" />
    <glyph glyph-name="uni041B" unicode="&#x41b;" horiz-adv-x="1413" 
d="M20 -31v307h21q82 0 125 43t66.5 170t23.5 371v574h1014v-1434h-307v1157h-400v-328q0 -469 -104.5 -664.5t-407.5 -195.5h-31z" />
    <glyph glyph-name="uni041C" unicode="&#x41c;" horiz-adv-x="1873" 
d="M143 0v1434h451l338 -994h10l338 994h451v-1434h-308v1014h-10l-348 -1014h-256l-348 1014h-10v-1014h-308z" />
    <glyph glyph-name="uni041D" unicode="&#x41d;" horiz-adv-x="1474" 
d="M143 0v1434h308v-574h573v574h307v-1434h-307v584h-573v-584h-308z" />
    <glyph glyph-name="uni041E" unicode="&#x41e;" horiz-adv-x="1515" 
d="M757.5 -20q-311.5 0 -493.5 194.5t-182 542.5t182 542.5t493.5 194.5t494 -194.5t182.5 -542.5t-182.5 -542.5t-494 -194.5zM758 256q168 0 268 119t100 342t-100 342t-268 119t-268.5 -119t-100.5 -342t100.5 -342t268.5 -119z" />
    <glyph glyph-name="uni041F" unicode="&#x41f;" horiz-adv-x="1454" 
d="M143 0v1434h1168v-1434h-307v1157h-553v-1157h-308z" />
    <glyph glyph-name="uni0420" unicode="&#x420;" horiz-adv-x="1320" 
d="M143 0v1434h594q221 0 361.5 -138.5t140.5 -353.5t-140.5 -353t-361.5 -138h-286v-451h-308zM451 727h256q106 0 165.5 57.5t59.5 157.5t-59.5 157.5t-165.5 57.5h-256v-430z" />
    <glyph glyph-name="uni0421" unicode="&#x421;" horiz-adv-x="1443" 
d="M758 -20q-311 0 -493.5 194.5t-182.5 542.5t182 542.5t494 194.5q258 0 412.5 -126t211.5 -345h-317q-88 195 -307 195q-168 0 -268.5 -119t-100.5 -342t100.5 -342t268.5 -119q219 0 307 195h317q-57 -219 -211.5 -345t-412.5 -126z" />
    <glyph glyph-name="uni0422" unicode="&#x422;" horiz-adv-x="1228" 
d="M461 0v1157h-430v277h1167v-277h-430v-1157h-307z" />
    <glyph glyph-name="uni0423" unicode="&#x423;" horiz-adv-x="1208" 
d="M297 0l164 379l-492 1055h328l317 -686h11l286 686h318l-615 -1434h-317z" />
    <glyph glyph-name="uni0424" unicode="&#x424;" horiz-adv-x="1740" 
d="M717 410v634q-166 0 -257 -85t-91 -232t91 -232t257 -85zM717 -20v163q-301 0 -478.5 163t-177.5 421t177.5 421t478.5 163v143h307v-143q301 0 478 -163t177 -421t-177 -421t-478 -163v-163h-307zM1024 410q166 0 257 85t91 232t-91 232t-257 85v-634z" />
    <glyph glyph-name="uni0425" unicode="&#x425;" horiz-adv-x="1290" 
d="M-20 0l471 737l-451 697h348l297 -492l297 492h348l-450 -697l471 -737h-348l-318 532l-317 -532h-348z" />
    <glyph glyph-name="uni0426" unicode="&#x426;" horiz-adv-x="1536" 
d="M1198 -297v297h-1055v1434h308v-1158h553v1158h307v-1158h174v-573h-287z" />
    <glyph glyph-name="uni0427" unicode="&#x427;" horiz-adv-x="1413" 
d="M963 0v471q-143 -61 -308 -61q-260 0 -396 138t-136 394v492h307v-482q0 -129 70.5 -197.5t195.5 -68.5q143 0 267 62v686h307v-1434h-307z" />
    <glyph glyph-name="uni0428" unicode="&#x428;" horiz-adv-x="2007" 
d="M143 0v1434h308v-1158h399v1158h307v-1158h399v1158h308v-1434h-1721z" />
    <glyph glyph-name="uni0429" unicode="&#x429;" horiz-adv-x="2088" 
d="M1751 -297v297h-1608v1434h308v-1158h399v1158h307v-1158h399v1158h308v-1158h174v-573h-287z" />
    <glyph glyph-name="uni042A" unicode="&#x42a;" horiz-adv-x="1484" 
d="M635 276h256q106 0 165.5 55.5t59.5 149.5t-59.5 149.5t-165.5 55.5h-256v-410zM328 0v1157h-328v277h635v-471h287q227 0 364 -135.5t137 -346.5t-137 -346t-364 -135h-594z" />
    <glyph glyph-name="uni042B" unicode="&#x42b;" horiz-adv-x="1802" 
d="M451 276h235q106 0 165.5 55.5t59.5 149.5t-59 149.5t-166 55.5h-235v-410zM143 0v1434h308v-471h266q227 0 364.5 -135.5t137.5 -346.5t-137.5 -346t-364.5 -135h-574zM1352 0v1434h307v-1434h-307z" />
    <glyph glyph-name="uni042C" unicode="&#x42c;" horiz-adv-x="1300" 
d="M451 276h256q106 0 165.5 55.5t59.5 149.5t-59.5 149.5t-165.5 55.5h-256v-410zM143 0v1434h308v-471h286q227 0 364.5 -135.5t137.5 -346.5t-137 -346t-365 -135h-594z" />
    <glyph glyph-name="uni042D" unicode="&#x42d;" horiz-adv-x="1433" 
d="M676 -20q-258 0 -412.5 125.5t-212.5 345.5h318q88 -195 307 -195q141 0 237.5 86t120.5 252h-481v246h481q-25 166 -121 252t-237 86q-219 0 -307 -195h-318q57 219 212 345t413 126q311 0 493.5 -194.5t182.5 -542.5t-182.5 -542.5t-493.5 -194.5z" />
    <glyph glyph-name="uni042E" unicode="&#x42e;" horiz-adv-x="2007" 
d="M1280 -20q-260 0 -432 158.5t-205 445.5h-192v-584h-308v1434h308v-574h192q37 283 208 438.5t429 155.5q291 0 468 -195.5t177 -541.5t-177 -541.5t-468 -195.5zM1280 256q154 0 246 115.5t92 345t-92 345.5t-246 116t-246 -116t-92 -345.5t92 -345t246 -115.5z" />
    <glyph glyph-name="uni042F" unicode="&#x42f;" horiz-adv-x="1341" 
d="M51 0l359 512l-33 11t-74 41t-94 80t-74 131t-33 188q0 213 132.5 342t349.5 129h614v-1434h-307v492h-143l-338 -492h-359zM604 768h287v389h-287q-86 0 -140 -52t-54 -142.5t54 -142.5t140 -52z" />
    <glyph glyph-name="uni0430" unicode="&#x430;" horiz-adv-x="1136" 
d="M512 215q100 0 162.5 56.5t62.5 148.5v31h-245q-72 0 -108 -32t-36 -81q0 -55 41 -89t123 -34zM440 -20q-174 0 -276.5 94t-102.5 243q0 152 110 245t310 93h256v52q0 76 -49 114.5t-135 38.5q-59 0 -103 -26.5t-61 -65.5h-287q35 145 151 241.5t310 96.5
q217 0 339 -106.5t122 -303.5v-696h-246l-30 123h-11q-96 -143 -297 -143z" />
    <glyph glyph-name="uni0431" unicode="&#x431;" horiz-adv-x="1218" 
d="M614.5 236q114.5 0 180 71.5t65.5 194.5t-65.5 194.5t-180 71.5t-180 -71.5t-65.5 -194.5t65.5 -194.5t180 -71.5zM614 -20q-252 0 -392 157.5t-140 466.5q0 416 144.5 628t428.5 212q266 0 410 72v-277q-106 -61 -379 -61q-287 0 -338 -287h10q88 123 318 123
q211 0 341 -138.5t130 -373.5q0 -240 -143.5 -381t-389.5 -141z" />
    <glyph glyph-name="uni0432" unicode="&#x432;" horiz-adv-x="1105" 
d="M410 236h225q59 0 91 28.5t32 77.5q0 109 -123 109h-225v-215zM123 0v1085h563q160 0 249 -78.5t89 -218.5q0 -164 -143 -235q164 -74 163 -236q0 -154 -91 -235.5t-267 -81.5h-563zM410 666h215q113 0 112.5 92t-112.5 92h-215v-184z" />
    <glyph glyph-name="uni0433" unicode="&#x433;" horiz-adv-x="890" 
d="M123 0v1085h727v-266h-440v-819h-287z" />
    <glyph glyph-name="uni0434" unicode="&#x434;" horiz-adv-x="1228" 
d="M10 -246v512h103q43 68 62.5 149t19.5 230v440h860v-819h133v-512h-277v246h-624v-246h-277zM389 266h379v553h-287v-174q0 -217 -92 -379z" />
    <glyph glyph-name="uni0435" unicode="&#x435;" horiz-adv-x="1198" 
d="M604 -20q-248 0 -390 148t-142 414.5t142 415t390 148.5q236 0 379 -151.5t143 -391.5l-10 -112h-747q37 -215 235 -215q78 0 119 24.5t76 77.5h307q-43 -156 -166 -257t-336 -101zM369 666h460q-16 78 -74.5 131t-150.5 53q-180 0 -235 -184z" />
    <glyph glyph-name="uni0436" unicode="&#x436;" horiz-adv-x="1638" 
d="M-41 0l430 553l-399 532h348l338 -460v460h287v-460l337 460h349l-400 -532l430 -553h-348l-368 481v-481h-287v481l-369 -481h-348z" />
    <glyph glyph-name="uni0437" unicode="&#x437;" horiz-adv-x="1064" 
d="M532 -20q-426 0 -491 358h307q29 -102 184 -102q84 0 129.5 27.5t45.5 74.5q0 92 -164 92h-113v236h102q154 0 154 92t-154 92q-68 0 -111.5 -27.5t-51.5 -74.5h-297q16 168 130.5 263t329.5 95q217 0 334 -87t117 -231q0 -162 -164 -235q184 -84 185 -256
q0 -143 -121.5 -230t-350.5 -87z" />
    <glyph glyph-name="uni0438" unicode="&#x438;" horiz-adv-x="1249" 
d="M123 0v1085h287v-655h10l389 655h317v-1085h-286v666h-11l-389 -666h-317z" />
    <glyph glyph-name="uni0439" unicode="&#x439;" horiz-adv-x="1249" 
d="M123 0v1085h287v-655h10l389 655h317v-1085h-286v666h-11l-389 -666h-317zM625 1239q-131 0 -222.5 77t-105.5 230h205q14 -123 122.5 -123t123.5 123h204q-14 -154 -105 -230.5t-222 -76.5z" />
    <glyph glyph-name="uni043A" unicode="&#x43a;" horiz-adv-x="1136" 
d="M123 0v1085h287v-481l399 481h338l-440 -532l471 -553h-338l-430 502v-502h-287z" />
    <glyph glyph-name="uni043B" unicode="&#x43b;" horiz-adv-x="1187" 
d="M20 -20v286h31q96 0 125 83t29 317v419h860v-1085h-287v819h-286v-194q0 -119 -9.5 -209t-35 -176t-68.5 -140.5t-116 -87t-171 -32.5h-72z" />
    <glyph glyph-name="uni043C" unicode="&#x43c;" horiz-adv-x="1525" 
d="M123 0v1085h399l236 -645h10l236 645h399v-1085h-287v676h-10l-246 -676h-194l-246 676h-10v-676h-287z" />
    <glyph glyph-name="uni043D" unicode="&#x43d;" horiz-adv-x="1208" 
d="M123 0v1085h287v-409h389v409h286v-1085h-286v410h-389v-410h-287z" />
    <glyph glyph-name="uni043E" unicode="&#x43e;" horiz-adv-x="1208" 
d="M604 -20q-248 0 -390 148t-142 414.5t142 415t390 148.5t390.5 -148.5t142.5 -415t-142.5 -414.5t-390.5 -148zM604.5 236q106.5 0 176 76.5t69.5 230t-69.5 230.5t-176 77t-176.5 -77t-70 -230.5t70 -230t176.5 -76.5z" />
    <glyph glyph-name="uni043F" unicode="&#x43f;" horiz-adv-x="1208" 
d="M123 0v1085h962v-1085h-286v819h-389v-819h-287z" />
    <glyph glyph-name="uni0440" unicode="&#x440;" horiz-adv-x="1259" 
d="M123 -410v1495h246l30 -122h11q123 143 307 143q213 0 342 -146.5t129 -417t-129 -416.5t-342 -146q-190 0 -297 133h-10v-523h-287zM655.5 236q106.5 0 176 76.5t69.5 230t-69.5 230.5t-176 77t-176 -77t-69.5 -230.5t69.5 -230t176 -76.5z" />
    <glyph glyph-name="uni0441" unicode="&#x441;" horiz-adv-x="1167" 
d="M604 -20q-248 0 -390 148t-142 414.5t142 415t390 148.5q215 0 337 -108.5t165 -280.5h-287q-66 133 -215 133q-111 0 -178.5 -79t-67.5 -228.5t68 -228t178 -78.5q150 0 215 133h287q-43 -172 -165 -280.5t-337 -108.5z" />
    <glyph glyph-name="uni0442" unicode="&#x442;" horiz-adv-x="1003" 
d="M358 0v819h-338v266h963v-266h-338v-819h-287z" />
    <glyph glyph-name="uni0443" unicode="&#x443;" horiz-adv-x="1146" 
d="M266 -410l166 410l-442 1085h317l266 -706h9l258 706h317l-594 -1495h-297z" />
    <glyph glyph-name="uni0444" unicode="&#x444;" horiz-adv-x="1536" 
d="M625 256v573q-129 0 -203 -77.5t-74 -208.5t74 -209t203 -78zM625 -410v410q-254 0 -409 148.5t-155 394t155 394t409 148.5v390h286v-390q254 0 409 -148.5t155 -394t-155 -394t-409 -148.5v-410h-286zM911 256q129 0 203 78t74 209t-74 208.5t-203 77.5v-573z" />
    <glyph glyph-name="uni0445" unicode="&#x445;" horiz-adv-x="1024" 
d="M-20 0l348 563l-328 522h317l195 -337l195 337h317l-328 -522l348 -563h-317l-215 369l-215 -369h-317z" />
    <glyph glyph-name="uni0446" unicode="&#x446;" horiz-adv-x="1249" 
d="M932 -246v246h-809v1085h287v-819h378v819h287v-819h133v-512h-276z" />
    <glyph glyph-name="uni0447" unicode="&#x447;" horiz-adv-x="1167" 
d="M758 0v338q-102 -41 -226 -41q-213 0 -321.5 108.5t-108.5 311.5v368h287v-368q0 -164 195 -164q106 0 174 41v491h286v-1085h-286z" />
    <glyph glyph-name="uni0448" unicode="&#x448;" horiz-adv-x="1658" 
d="M123 0v1085h287v-819h276v819h287v-819h276v819h287v-1085h-1413z" />
    <glyph glyph-name="uni0449" unicode="&#x449;" horiz-adv-x="1710" 
d="M1393 -246v246h-1270v1085h287v-819h276v819h287v-819h276v819h287v-819h133v-512h-276z" />
    <glyph glyph-name="uni044A" unicode="&#x44a;" horiz-adv-x="1198" 
d="M256 0v819h-256v266h543v-337h225q168 0 273.5 -103.5t105.5 -265.5q0 -170 -104.5 -274.5t-274.5 -104.5h-512zM543 256h184q133 0 133 123q0 53 -36 83t-97 30h-184v-236z" />
    <glyph glyph-name="uni044B" unicode="&#x44b;" horiz-adv-x="1505" 
d="M410 256h163q133 0 134 123q0 53 -36 83t-98 30h-163v-236zM123 0v1085h287v-337h204q168 0 273.5 -103.5t105.5 -265.5q0 -170 -105.5 -274.5t-273.5 -104.5h-491zM1096 0v1085h286v-1085h-286z" />
    <glyph glyph-name="uni044C" unicode="&#x44c;" horiz-adv-x="1064" 
d="M410 256h184q133 0 133 123q0 53 -36 83t-97 30h-184v-236zM123 0v1085h287v-337h225q168 0 273.5 -103.5t105.5 -265.5q0 -170 -105.5 -274.5t-273.5 -104.5h-512z" />
    <glyph glyph-name="uni044D" unicode="&#x44d;" horiz-adv-x="1157" 
d="M553 -20q-215 0 -337 108.5t-165 280.5h287q68 -133 215 -133q180 0 231 184h-323v246h323q-51 184 -231 184q-147 0 -215 -133h-287q43 172 165 280.5t337 108.5q248 0 390 -148.5t142 -415t-142 -414.5t-390 -148z" />
    <glyph glyph-name="uni044E" unicode="&#x44e;" horiz-adv-x="1628" 
d="M1044 -20q-209 0 -339 114.5t-162 315.5h-133v-410h-287v1085h287v-409h133q33 201 163 315.5t338 114.5q242 0 377 -152.5t135 -410.5t-135 -410.5t-377 -152.5zM1044.5 236q98.5 0 162 76.5t63.5 230t-63.5 230.5t-162 77t-162 -77t-63.5 -230.5t63.5 -230t162 -76.5z
" />
    <glyph glyph-name="uni044F" unicode="&#x44f;" horiz-adv-x="1116" 
d="M41 0l250 389q-96 41 -152.5 127t-56.5 201q0 168 104.5 268t274.5 100h532v-1085h-286v358h-113l-225 -358h-328zM492 614h215v215h-215q-123 0 -123 -112q0 -103 123 -103z" />
    <glyph glyph-name="uni0450" unicode="&#x450;" horiz-adv-x="1198" 
d="M604 -20q-248 0 -390 148t-142 414.5t142 415t390 148.5q236 0 379 -151.5t143 -391.5l-10 -112h-747q37 -215 235 -215q78 0 119 24.5t76 77.5h307q-43 -156 -166 -257t-336 -101zM369 666h460q-16 78 -74.5 131t-150.5 53q-180 0 -235 -184zM502 1249l-236 307h266
l185 -307h-215z" />
    <glyph glyph-name="uni0451" unicode="&#x451;" horiz-adv-x="1198" 
d="M604 -20q-248 0 -390 148t-142 414.5t142 415t390 148.5q236 0 379 -151.5t143 -391.5l-10 -112h-747q37 -215 235 -215q78 0 119 24.5t76 77.5h307q-43 -156 -166 -257t-336 -101zM369 666h460q-16 78 -74.5 131t-150.5 53q-180 0 -235 -184zM399.5 1260
q-61.5 0 -102.5 40.5t-41 102t41 102.5t102.5 41t102.5 -41t41 -102.5t-41 -102t-102.5 -40.5zM809 1260q-61 0 -102 40.5t-41 102t41 102.5t102 41t102 -41t41 -102.5t-41 -102t-102 -40.5z" />
    <glyph glyph-name="uni0452" unicode="&#x452;" horiz-adv-x="1228" 
d="M563 -410v246h164q47 0 74.5 30t27.5 83v532q0 106 -51 166t-143 60t-148.5 -62.5t-56.5 -163.5v-481h-287v1075h-153v225h153v134h287v-134h256v-225h-256v-246h10q117 133 277 134q180 0 289.5 -118t109.5 -323v-614q0 -162 -81 -240t-257 -78h-215z" />
    <glyph glyph-name="uni0453" unicode="&#x453;" horiz-adv-x="890" 
d="M123 0v1085h727v-266h-440v-819h-287zM389 1249l184 307h267l-236 -307h-215z" />
    <glyph glyph-name="uni0454" unicode="&#x454;" horiz-adv-x="1167" 
d="M604 -20q-248 0 -390 148t-142 414.5t142 415t390 148.5q215 0 337 -108.5t165 -280.5h-287q-66 133 -215 133q-178 0 -231 -184h323v-246h-323q53 -184 231 -184q150 0 215 133h287q-43 -172 -165 -280.5t-337 -108.5z" />
    <glyph glyph-name="uni0455" unicode="&#x455;" horiz-adv-x="1054" 
d="M522 -20q-223 0 -339.5 99t-141.5 259h307q8 -41 55.5 -71.5t118.5 -30.5q184 0 185 81q0 37 -46.5 59.5t-116 32t-150.5 32t-150.5 54t-115.5 104.5t-46 179q0 143 115.5 235.5t324.5 92.5q217 0 332 -93t139 -245h-307q-20 82 -164 82q-68 0 -105.5 -20.5t-37.5 -51.5
q0 -37 46 -59.5t115.5 -31.5t150.5 -31.5t150.5 -54.5t116 -104.5t46.5 -179.5q0 -147 -113 -242t-369 -95z" />
    <glyph glyph-name="uni0456" unicode="&#x456;" horiz-adv-x="532" 
d="M123 0v1085h287v-1085h-287zM266.5 1198q-69.5 0 -117 47t-47.5 117t47.5 117t117 47t116.5 -47t47 -117t-47 -117t-116.5 -47z" />
    <glyph glyph-name="uni0457" unicode="&#x457;" horiz-adv-x="532" 
d="M123 0v1085h287v-1085h-287zM61.5 1260q-61.5 0 -102.5 40.5t-41 102t41 102.5t102.5 41t102.5 -41t41 -102.5t-41 -102t-102.5 -40.5zM471 1260q-61 0 -102 40.5t-41 102t41 102.5t102 41t102 -41t41 -102.5t-41 -102t-102 -40.5z" />
    <glyph glyph-name="uni0458" unicode="&#x458;" horiz-adv-x="532" 
d="M-143 -410v246h163q47 0 75 30t28 83v1136h287v-1177q0 -162 -81 -240t-257 -78h-215zM266.5 1198q-69.5 0 -117 47t-47.5 117t47.5 117t117 47t116.5 -47t47 -117t-47 -117t-116.5 -47z" />
    <glyph glyph-name="uni0459" unicode="&#x459;" horiz-adv-x="1699" 
d="M20 -20v286h31q96 0 125 83t29 317v419h839v-337h226q168 0 273.5 -103.5t105.5 -265.5q0 -170 -105.5 -274.5t-273.5 -104.5h-512v819h-266v-194q0 -119 -9.5 -209t-35 -176t-68.5 -140.5t-116 -87t-171 -32.5h-72zM1044 256h185q133 0 133 123q0 113 -133 113h-185
v-236z" />
    <glyph glyph-name="uni045A" unicode="&#x45a;" horiz-adv-x="1710" 
d="M123 0v1085h287v-378h358v378h287v-378h245q166 0 262.5 -96.5t96.5 -252.5q0 -164 -95.5 -261t-263.5 -97h-532v440h-358v-440h-287zM1055 256h205q49 0 80.5 25.5t31.5 76.5q0 45 -31.5 69t-80.5 24h-205v-195z" />
    <glyph glyph-name="uni045B" unicode="&#x45b;" horiz-adv-x="1228" 
d="M143 0v1075h-153v225h153v134h287v-134h256v-225h-256v-246h10q117 133 277 134q180 0 289.5 -118t109.5 -323v-522h-287v481q0 106 -51 166t-143 60t-148.5 -62.5t-56.5 -163.5v-481h-287z" />
    <glyph glyph-name="uni045C" unicode="&#x45c;" horiz-adv-x="1136" 
d="M123 0v1085h287v-481l399 481h338l-440 -532l471 -553h-338l-430 502v-502h-287zM502 1249l184 307h266l-235 -307h-215z" />
    <glyph glyph-name="uni045D" unicode="&#x45d;" horiz-adv-x="1249" 
d="M123 0v1085h287v-655h10l389 655h317v-1085h-286v666h-11l-389 -666h-317zM522 1249l-235 307h266l184 -307h-215z" />
    <glyph glyph-name="uni045E" unicode="&#x45e;" horiz-adv-x="1146" 
d="M266 -410l166 410l-442 1085h317l266 -706h9l258 706h317l-594 -1495h-297zM573.5 1239q-131.5 0 -222.5 77t-105 230h205q16 -123 122.5 -123t122.5 123h205q-14 -154 -105 -230.5t-222.5 -76.5z" />
    <glyph glyph-name="uni045F" unicode="&#x45f;" horiz-adv-x="1218" 
d="M471 -246v246h-348v1085h287v-819h399v819h287v-1085h-348v-246h-277z" />
    <glyph glyph-name="uni0490" unicode="&#x490;" horiz-adv-x="1085" 
d="M143 0v1434h594v286h297v-563h-583v-1157h-308z" />
    <glyph glyph-name="uni0491" unicode="&#x491;" horiz-adv-x="890" 
d="M123 0v1085h461v246h266v-512h-440v-819h-287z" />
    <glyph glyph-name="uni0492" unicode="&#x492;" horiz-adv-x="1198" 
d="M205 0v543h-174v276h174v615h942v-277h-635v-338h379v-276h-379v-543h-307z" />
    <glyph glyph-name="uni0493" unicode="&#x493;" horiz-adv-x="921" 
d="M154 0v369h-144v245h144v471h727v-266h-441v-205h297v-245h-297v-369h-286z" />
    <glyph glyph-name="uni0494" unicode="&#x494;" horiz-adv-x="1320" 
d="M676 -297v277q135 0 211 73.5t76 222.5q0 102 -74 183.5t-203 81.5q-43 0 -83 -7.5t-66.5 -18.5t-47 -21.5t-30.5 -18.5l-8 -6v-469h-308v1434h932v-277h-624v-399q102 61 286 61q256 0 394.5 -146.5t138.5 -396.5q0 -274 -157.5 -423.5t-436.5 -149.5z" />
    <glyph glyph-name="uni0495" unicode="&#x495;" horiz-adv-x="1085" 
d="M573 -410v267q184 0 185 235q0 266 -195 266q-45 0 -84 -15t-53 -32l-16 -14v-297h-287v1085h747v-266h-460v-256q72 51 194 51q201 0 320.5 -131t119.5 -391q0 -244 -123 -373t-348 -129z" />
    <glyph glyph-name="uni0496" unicode="&#x496;" horiz-adv-x="1884" 
d="M1638 -297v297h-82l-471 655v-655h-307v655l-471 -655h-348l533 727l-502 707h348l440 -635v635h307v-635l441 635h348l-502 -707l330 -451h223v-573h-287z" />
    <glyph glyph-name="uni0497" unicode="&#x497;" horiz-adv-x="1638" 
d="M1393 -246v246h-62l-368 481v-481h-287v481l-369 -481h-348l430 553l-399 532h348l338 -460v460h287v-460l337 460h349l-400 -532l224 -287h196v-512h-276z" />
    <glyph glyph-name="uni049A" unicode="&#x49a;" horiz-adv-x="1320" 
d="M1075 -297v297h-82l-542 655v-655h-308v1434h308v-635l512 635h358l-573 -707l374 -451h240v-573h-287z" />
    <glyph glyph-name="uni049B" unicode="&#x49b;" horiz-adv-x="1136" 
d="M891 -246v246h-51l-430 502v-502h-287v1085h287v-481l399 481h338l-440 -532l243 -287h217v-512h-276z" />
    <glyph glyph-name="uni049C" unicode="&#x49c;" horiz-adv-x="1361" 
d="M143 0v1434h308v-584h61v194h164v-194h41l317 584h338l-409 -707l430 -727h-328l-348 594h-41v-195h-164v195h-61v-594h-308z" />
    <glyph glyph-name="uni049D" unicode="&#x49d;" horiz-adv-x="1177" 
d="M123 0v1085h287v-409h41v133h143v-133h31l225 409h317l-307 -532q59 -100 175 -286.5t163 -266.5h-317l-256 430h-31v-133h-143v133h-41v-430h-287z" />
    <glyph glyph-name="uni04A2" unicode="&#x4a2;" horiz-adv-x="1556" 
d="M1219 -297v297h-195v584h-573v-584h-308v1434h308v-574h573v574h307v-1158h174v-573h-286z" />
    <glyph glyph-name="uni04A3" unicode="&#x4a3;" horiz-adv-x="1259" 
d="M942 -246v246h-143v410h-389v-410h-287v1085h287v-409h389v409h286v-819h134v-512h-277z" />
    <glyph glyph-name="uni04AA" unicode="&#x4aa;" horiz-adv-x="1443" 
d="M604 -297v291q-244 43 -383 231.5t-139 491.5q0 348 182 542.5t494 194.5q258 0 412.5 -126t211.5 -345h-317q-88 195 -307 195q-168 0 -268.5 -119t-100.5 -342t100.5 -342t268.5 -119q219 0 307 195h317q-102 -397 -481 -459v-289h-297z" />
    <glyph glyph-name="uni04AB" unicode="&#x4ab;" horiz-adv-x="1167" 
d="M471 -246v238q-188 37 -293.5 180t-105.5 371q0 266 142 414.5t390 148.5q215 0 337 -108.5t165 -280.5h-287q-66 133 -215 133q-111 0 -178.5 -79t-67.5 -228.5t68 -228t178 -78.5q150 0 215 133h287q-78 -309 -358 -373v-242h-277z" />
    <glyph glyph-name="uni04AE" unicode="&#x4ae;" horiz-adv-x="1249" 
d="M471 0v492l-502 942h328l321 -625h11l323 625h328l-502 -942v-492h-307z" />
    <glyph glyph-name="uni04AF" unicode="&#x4af;" horiz-adv-x="1116" 
d="M420 -410v410h-41l-389 1085h307l256 -768h10l256 768h307l-389 -1085h-41v-410h-276z" />
    <glyph glyph-name="uni04B0" unicode="&#x4b0;" horiz-adv-x="1249" 
d="M471 0v471h-328v266h197l-371 697h328l321 -625h11l323 625h328l-371 -697h197v-266h-328v-471h-307z" />
    <glyph glyph-name="uni04B1" unicode="&#x4b1;" horiz-adv-x="1116" 
d="M420 -410v410h-246v246h123l-307 839h307l256 -768h10l256 768h307l-307 -839h123v-246h-246v-410h-276z" />
    <glyph glyph-name="uni04B2" unicode="&#x4b2;" horiz-adv-x="1310" 
d="M1034 -297v297h-71l-318 532l-317 -532h-348l471 737l-451 697h348l297 -492l297 492h348l-450 -697l293 -461h188v-573h-287z" />
    <glyph glyph-name="uni04B3" unicode="&#x4b3;" horiz-adv-x="1054" 
d="M788 -246v246h-61l-215 369l-215 -369h-317l348 563l-328 522h317l195 -337l195 337h317l-328 -522l183 -297h186v-512h-277z" />
    <glyph glyph-name="uni04B6" unicode="&#x4b6;" horiz-adv-x="1495" 
d="M1157 -297v297h-194v471q-143 -61 -308 -61q-260 0 -396 138t-136 394v492h307v-482q0 -129 70.5 -197.5t195.5 -68.5q143 0 267 62v686h307v-1158h174v-573h-287z" />
    <glyph glyph-name="uni04B7" unicode="&#x4b7;" horiz-adv-x="1218" 
d="M901 -246v246h-143v338q-102 -41 -226 -41q-213 0 -321.5 108.5t-108.5 311.5v368h287v-368q0 -164 195 -164q106 0 174 41v491h286v-819h134v-512h-277z" />
    <glyph glyph-name="uni04B8" unicode="&#x4b8;" horiz-adv-x="1413" 
d="M963 0v471q-76 -33 -164 -49v-186h-195v174q-236 14 -358.5 151t-122.5 381v492h307v-482q0 -209 174 -254v244h195v-250q90 16 164 56v686h307v-1434h-307z" />
    <glyph glyph-name="uni04B9" unicode="&#x4b9;" horiz-adv-x="1167" 
d="M758 0v338q-53 -20 -103 -31v-133h-153v123q-197 8 -298.5 115.5t-101.5 304.5v368h287v-368q0 -125 113 -154v123h153v-129q49 4 103 37v491h286v-1085h-286z" />
    <glyph glyph-name="uni04BA" unicode="&#x4ba;" horiz-adv-x="1413" 
d="M143 0v1434h308v-471q143 61 307 61q260 0 396 -138t136 -394v-492h-307v481q0 129 -70.5 198t-195.5 69q-143 0 -266 -62v-686h-308z" />
    <glyph glyph-name="uni04BB" unicode="&#x4bb;" horiz-adv-x="1218" 
d="M133 0v1434h287v-461h10q117 133 277 133q180 0 289.5 -118t109.5 -322v-666h-287v625q0 106 -51 165.5t-143.5 59.5t-148.5 -62.5t-56 -162.5v-625h-287z" />
    <glyph glyph-name="uni04C1" unicode="&#x4c1;" horiz-adv-x="1863" 
d="M-41 0l533 727l-502 707h348l440 -635v635h307v-635l441 635h348l-502 -707l533 -727h-349l-471 655v-655h-307v655l-471 -655h-348zM932 1567q-139 0 -236.5 76.5t-111.5 230.5h204q14 -123 143.5 -123t143.5 123h205q-14 -154 -111.5 -230.5t-236.5 -76.5z" />
    <glyph glyph-name="uni04C2" unicode="&#x4c2;" horiz-adv-x="1638" 
d="M-41 0l430 553l-399 532h348l338 -460v460h287v-460l337 460h349l-400 -532l430 -553h-348l-368 481v-481h-287v481l-369 -481h-348zM819 1239q-131 0 -222 77t-105 230h204q16 -123 123 -123t123 123h205q-14 -154 -105.5 -230.5t-222.5 -76.5z" />
    <glyph glyph-name="uni04D2" unicode="&#x4d2;" horiz-adv-x="1382" 
d="M-10 0l512 1434h379l512 -1434h-318l-92 266h-584l-92 -266h-317zM500 543h383l-187 542h-10zM491.5 1577q-61.5 0 -102.5 41t-41 102.5t41 102.5t102.5 41t102.5 -41t41 -102.5t-41 -102.5t-102.5 -41zM901.5 1577q-61.5 0 -102.5 41t-41 102.5t41 102.5t102.5 41
t102 -41t40.5 -102.5t-40.5 -102.5t-102 -41z" />
    <glyph glyph-name="uni04D3" unicode="&#x4d3;" horiz-adv-x="1136" 
d="M512 215q100 0 162.5 56.5t62.5 148.5v31h-245q-72 0 -108 -32t-36 -81q0 -55 41 -89t123 -34zM440 -20q-174 0 -276.5 94t-102.5 243q0 152 110 245t310 93h256v52q0 76 -49 114.5t-135 38.5q-59 0 -103 -26.5t-61 -65.5h-287q35 145 151 241.5t310 96.5
q217 0 339 -106.5t122 -303.5v-696h-246l-30 123h-11q-96 -143 -297 -143zM378.5 1260q-61.5 0 -102 40.5t-40.5 102t40.5 102.5t102 41t102.5 -41t41 -102.5t-41 -102t-102.5 -40.5zM788.5 1260q-61.5 0 -102.5 40.5t-41 102t41 102.5t102.5 41t102.5 -41t41 -102.5
t-41 -102t-102.5 -40.5z" />
    <glyph glyph-name="uni04D8" unicode="&#x4d8;" horiz-adv-x="1495" 
d="M737 256q147 0 240.5 91t118.5 237h-707q45 -328 348 -328zM737 -20q-301 0 -478 196.5t-177 571.5v71h1016q-20 168 -114.5 263.5t-246.5 95.5q-207 0 -297 -164h-317q51 195 202.5 317.5t411.5 122.5q311 0 493.5 -194.5t182.5 -542.5t-182.5 -542.5t-493.5 -194.5z
" />
    <glyph glyph-name="uni04D9" unicode="&#x4d9;" horiz-adv-x="1198" 
d="M594 236q180 0 235 184h-460q16 -78 74.5 -131t150.5 -53zM594 -20q-236 0 -379 151.5t-143 390.5l10 113h747q-16 98 -74.5 156.5t-160.5 58.5q-78 0 -119 -24.5t-76 -77.5h-307q43 156 166 257t336 101q248 0 390 -148.5t142 -415t-142 -414.5t-390 -148z" />
    <glyph glyph-name="uni04E0" unicode="&#x4e0;" horiz-adv-x="1280" 
d="M625 -20q-268 0 -418 116.5t-166 333.5h307q14 -92 92 -133t185 -41q131 0 198.5 55.5t67.5 139.5q0 90 -60.5 137t-205.5 47h-256v246l352 276h-619v277h1055v-246l-389 -307h10q193 0 306.5 -120t113.5 -321q0 -190 -141 -325t-432 -135z" />
    <glyph glyph-name="uni04E1" unicode="&#x4e1;" horiz-adv-x="1095" 
d="M543 -410q-246 0 -384.5 124t-138.5 317h287q8 -84 70.5 -134.5t154.5 -50.5q102 0 159 56.5t57 169.5q0 215 -246 215h-236v225l369 307h-543v266h912v-266l-369 -307q195 -23 297 -142.5t102 -308.5q0 -219 -127.5 -345t-363.5 -126z" />
    <glyph glyph-name="uni04E2" unicode="&#x4e2;" horiz-adv-x="1546" 
d="M143 0v1434h308v-994h10l553 994h389v-1434h-307v993h-11l-553 -993h-389zM471 1618v194h614v-194h-614z" />
    <glyph glyph-name="uni04E3" unicode="&#x4e3;" horiz-adv-x="1249" 
d="M123 0v1085h287v-655h10l389 655h317v-1085h-286v666h-11l-389 -666h-317zM317 1290v195h615v-195h-615z" />
    <glyph glyph-name="uni04E6" unicode="&#x4e6;" horiz-adv-x="1515" 
d="M757.5 -20q-311.5 0 -493.5 194.5t-182 542.5t182 542.5t493.5 194.5t494 -194.5t182.5 -542.5t-182.5 -542.5t-494 -194.5zM758 256q168 0 268 119t100 342t-100 342t-268 119t-268.5 -119t-100.5 -342t100.5 -342t268.5 -119zM553 1577q-61 0 -102 41t-41 102.5
t41 102.5t102 41t102 -41t41 -102.5t-41 -102.5t-102 -41zM962.5 1577q-61.5 0 -102.5 41t-41 102.5t41 102.5t102.5 41t102.5 -41t41 -102.5t-41 -102.5t-102.5 -41z" />
    <glyph glyph-name="uni04E7" unicode="&#x4e7;" horiz-adv-x="1208" 
d="M604 -20q-248 0 -390 148t-142 414.5t142 415t390 148.5t390.5 -148.5t142.5 -415t-142.5 -414.5t-390.5 -148zM604.5 236q106.5 0 176 76.5t69.5 230t-69.5 230.5t-176 77t-176.5 -77t-70 -230.5t70 -230t176.5 -76.5zM399.5 1260q-61.5 0 -102.5 40.5t-41 102t41 102.5
t102.5 41t102.5 -41t41 -102.5t-41 -102t-102.5 -40.5zM809 1260q-61 0 -102 40.5t-41 102t41 102.5t102 41t102 -41t41 -102.5t-41 -102t-102 -40.5z" />
    <glyph glyph-name="uni04E8" unicode="&#x4e8;" horiz-adv-x="1515" 
d="M757.5 256q141.5 0 238 86t120.5 252h-719q27 -166 123 -252t237.5 -86zM757.5 -20q-311.5 0 -493.5 194.5t-182 542.5t182 542.5t493.5 194.5t494 -194.5t182.5 -542.5t-182.5 -542.5t-494 -194.5zM397 829h721q-25 170 -121 259.5t-239 89.5q-145 0 -240.5 -89.5
t-120.5 -259.5z" />
    <glyph glyph-name="uni04E9" unicode="&#x4e9;" horiz-adv-x="1208" 
d="M604.5 236q186.5 0 233.5 194h-467q47 -194 233.5 -194zM604 -20q-248 0 -390 148t-142 414.5t142 415t390 148.5t390.5 -148.5t142.5 -415t-142.5 -414.5t-390.5 -148zM371 655h467q-47 195 -233.5 195t-233.5 -195z" />
    <glyph glyph-name="uni04EE" unicode="&#x4ee;" horiz-adv-x="1208" 
d="M297 0l164 379l-492 1055h328l317 -686h11l286 686h318l-615 -1434h-317zM297 1618v194h614v-194h-614z" />
    <glyph glyph-name="uni04EF" unicode="&#x4ef;" horiz-adv-x="1146" 
d="M266 -410l166 410l-442 1085h317l266 -706h9l258 706h317l-594 -1495h-297zM266 1290v195h615v-195h-615z" />
    <glyph glyph-name="uni04F0" unicode="&#x4f0;" horiz-adv-x="1208" 
d="M297 0l164 379l-492 1055h328l317 -686h11l286 686h318l-615 -1434h-317zM399.5 1577q-61.5 0 -102.5 41t-41 102.5t41 102.5t102.5 41t102.5 -41t41 -102.5t-41 -102.5t-102.5 -41zM809 1577q-61 0 -102 41t-41 102.5t41 102.5t102 41t102 -41t41 -102.5t-41 -102.5
t-102 -41z" />
    <glyph glyph-name="uni04F1" unicode="&#x4f1;" horiz-adv-x="1146" 
d="M266 -410l166 410l-442 1085h317l266 -706h9l258 706h317l-594 -1495h-297zM368.5 1260q-61.5 0 -102.5 40.5t-41 102t41 102.5t102.5 41t102.5 -41t41 -102.5t-41 -102t-102.5 -40.5zM778.5 1260q-61.5 0 -102.5 40.5t-41 102t41 102.5t102.5 41t102.5 -41t41 -102.5
t-41 -102t-102.5 -40.5z" />
    <glyph glyph-name="Wgrave" unicode="&#x1e80;" horiz-adv-x="1945" 
d="M389 0l-379 1434h318l225 -994h10l246 994h328l245 -994h11l225 994h317l-379 -1434h-337l-246 993l-246 -993h-338zM870 1567l-235 307h266l184 -307h-215z" />
    <glyph glyph-name="wgrave" unicode="&#x1e81;" horiz-adv-x="1648" 
d="M307 0l-297 1085h297l185 -727h10l184 727h297l184 -727h11l184 727h276l-297 -1085h-317l-184 686h-11l-184 -686h-338zM727 1249l-235 307h266l184 -307h-215z" />
    <glyph glyph-name="Wacute" unicode="&#x1e82;" horiz-adv-x="1945" 
d="M389 0l-379 1434h318l225 -994h10l246 994h328l245 -994h11l225 994h317l-379 -1434h-337l-246 993l-246 -993h-338zM870 1567l185 307h266l-236 -307h-215z" />
    <glyph glyph-name="wacute" unicode="&#x1e83;" horiz-adv-x="1648" 
d="M307 0l-297 1085h297l185 -727h10l184 727h297l184 -727h11l184 727h276l-297 -1085h-317l-184 686h-11l-184 -686h-338zM737 1249l185 307h266l-236 -307h-215z" />
    <glyph glyph-name="Wdieresis" unicode="&#x1e84;" horiz-adv-x="1945" 
d="M389 0l-379 1434h318l225 -994h10l246 994h328l245 -994h11l225 994h317l-379 -1434h-337l-246 993l-246 -993h-338zM768 1577q-61 0 -102 41t-41 102.5t41 102.5t102 41t102 -41t41 -102.5t-41 -102.5t-102 -41zM1177.5 1577q-61.5 0 -102.5 41t-41 102.5t41 102.5
t102.5 41t102.5 -41t41 -102.5t-41 -102.5t-102.5 -41z" />
    <glyph glyph-name="wdieresis" unicode="&#x1e85;" horiz-adv-x="1648" 
d="M307 0l-297 1085h297l185 -727h10l184 727h297l184 -727h11l184 727h276l-297 -1085h-317l-184 686h-11l-184 -686h-338zM624.5 1260q-61.5 0 -102.5 40.5t-41 102t41 102.5t102.5 41t102.5 -41t41 -102.5t-41 -102t-102.5 -40.5zM1034.5 1260q-61.5 0 -102.5 40.5
t-41 102t41 102.5t102.5 41t102.5 -41t41 -102.5t-41 -102t-102.5 -40.5z" />
    <glyph glyph-name="uni1E9E" unicode="&#x1e9e;" horiz-adv-x="1413" 
d="M133 0v983q0 213 114.5 332t315.5 119h717v-267l-276 -286v-11q141 -25 239 -135t98 -284q0 -213 -127 -332t-344 -119h-215v276h164q215 0 215 185q0 84 -54 134t-171 50h-133v236l266 276h-317q-86 0 -135.5 -47t-49.5 -137v-973h-307z" />
    <glyph glyph-name="Ygrave" unicode="&#x1ef2;" horiz-adv-x="1249" 
d="M471 0v492l-502 942h328l321 -625h11l323 625h328l-502 -942v-492h-307zM522 1567l-235 307h266l184 -307h-215z" />
    <glyph glyph-name="ygrave" unicode="&#x1ef3;" horiz-adv-x="1146" 
d="M266 -410l166 410l-442 1085h317l266 -706h9l258 706h317l-594 -1495h-297zM471 1249l-235 307h266l184 -307h-215z" />
    <glyph glyph-name="endash" unicode="&#x2013;" horiz-adv-x="1198" 
d="M61 451v256h1076v-256h-1076z" />
    <glyph glyph-name="emdash" unicode="&#x2014;" horiz-adv-x="1710" 
d="M61 451v256h1588v-256h-1588z" />
    <glyph glyph-name="quoteleft" unicode="&#x2018;" horiz-adv-x="440" 
d="M61 1004l123 430h215l-82 -430h-256z" />
    <glyph glyph-name="quoteright" unicode="&#x2019;" horiz-adv-x="440" 
d="M61 1004l82 430h256l-123 -430h-215z" />
    <glyph glyph-name="quotesinglbase" unicode="&#x201a;" horiz-adv-x="430" 
d="M31 -225l82 430h256l-123 -430h-215z" />
    <glyph glyph-name="quotedblleft" unicode="&#x201c;" horiz-adv-x="819" 
d="M61 1004l123 430h215l-82 -430h-256zM440 1004l123 430h215l-82 -430h-256z" />
    <glyph glyph-name="quotedblright" unicode="&#x201d;" horiz-adv-x="819" 
d="M61 1004l82 430h256l-123 -430h-215zM440 1004l82 430h256l-123 -430h-215z" />
    <glyph glyph-name="quotedblbase" unicode="&#x201e;" horiz-adv-x="808" 
d="M31 -225l82 430h256l-123 -430h-215zM410 -225l82 430h256l-123 -430h-215z" />
    <glyph glyph-name="dagger" unicode="&#x2020;" horiz-adv-x="1003" 
d="M358 0v850h-245v276h245v308h287v-308h246v-276h-246v-850h-287z" />
    <glyph glyph-name="daggerdbl" unicode="&#x2021;" horiz-adv-x="1003" 
d="M358 0v307h-245v277h245v266h-245v276h245v308h287v-308h246v-276h-246v-266h246v-277h-246v-307h-287z" />
    <glyph glyph-name="bullet" unicode="&#x2022;" horiz-adv-x="962" 
d="M481.5 358q-98.5 0 -167 71t-68.5 165t68.5 164.5t167 70.5t167 -70.5t68.5 -164.5t-68.5 -165t-167 -71z" />
    <glyph glyph-name="ellipsis" unicode="&#x2026;" horiz-adv-x="1556" 
d="M235.5 -10q-69.5 0 -116.5 47t-47 116.5t47 116.5t116.5 47t116.5 -47t47 -116.5t-47 -116.5t-116.5 -47zM778.5 -10q-69.5 0 -117 47t-47.5 116.5t47.5 116.5t117 47t116.5 -47t47 -116.5t-47 -116.5t-116.5 -47zM1321 -10q-70 0 -117 47t-47 116.5t47 116.5t117 47
t117 -47t47 -116.5t-47 -116.5t-117 -47z" />
    <glyph glyph-name="perthousand" unicode="&#x2030;" horiz-adv-x="2324" 
d="M225 0l891 1434h225l-890 -1434h-226zM1167.5 -20q-147.5 0 -237.5 92t-90 245.5t90 245.5t237.5 92t237.5 -92t90 -245.5t-90 -245.5t-237.5 -92zM1167.5 154q63.5 0 103.5 44t40 119.5t-40 119.5t-103.5 44t-103.5 -44t-40 -119.5t40 -119.5t103.5 -44zM1925.5 -20
q-147.5 0 -238 92t-90.5 245.5t90.5 245.5t238 92t237.5 -92t90 -245.5t-90 -245.5t-237.5 -92zM1925.5 154q63.5 0 103 44t39.5 119.5t-39.5 119.5t-103 44t-103.5 -44t-40 -119.5t40 -119.5t103.5 -44zM399.5 778q-147.5 0 -237.5 92.5t-90 246t90 245.5t237.5 92
t237.5 -92t90 -245.5t-90 -246t-237.5 -92.5zM399.5 952q63.5 0 103.5 44t40 120t-40 120t-103.5 44t-103.5 -44t-40 -120t40 -120t103.5 -44z" />
    <glyph glyph-name="guilsinglleft" unicode="&#x2039;" horiz-adv-x="880" 
d="M512 61l-440 492l440 491h317l-440 -485v-12l440 -486h-317z" />
    <glyph glyph-name="guilsinglright" unicode="&#x203a;" horiz-adv-x="880" 
d="M51 61l441 486v12l-441 485h318l440 -491l-440 -492h-318z" />
    <glyph glyph-name="fraction" unicode="&#x2044;" horiz-adv-x="327" 
d="M-379 0l891 1434h195l-891 -1434h-195z" />
    <glyph glyph-name="uni2070" unicode="&#x2070;" horiz-adv-x="798" 
d="M399.5 809q-151.5 0 -245 109.5t-93.5 310.5t93.5 310.5t245 109.5t244.5 -109.5t93 -310.5t-93 -310.5t-244.5 -109.5zM399.5 983q67.5 0 110.5 61.5t43 184.5t-43 184.5t-110.5 61.5t-110.5 -61.5t-43 -184.5t43 -184.5t110.5 -61.5z" />
    <glyph glyph-name="uni2074" unicode="&#x2074;" horiz-adv-x="706" 
d="M379 819v174h-369v164l328 481h225v-481h123v-164h-123v-174h-184zM205 1157h174v246h-10z" />
    <glyph glyph-name="uni2075" unicode="&#x2075;" horiz-adv-x="716" 
d="M358 809q-131 0 -220 69.5t-97 176.5h195q18 -72 122 -72q123 0 123 113q0 123 -133 123q-78 0 -102 -52h-185l52 471h512v-163h-365l-14 -134h10q51 31 133 31q125 0 201 -73.5t76 -200.5t-82.5 -208t-225.5 -81z" />
    <glyph glyph-name="uni2076" unicode="&#x2076;" horiz-adv-x="716" 
d="M358.5 983q61.5 0 97.5 34t36 89t-36 89t-97.5 34t-97.5 -34t-36 -89t36 -89t97.5 -34zM358 809q-154 0 -235.5 88t-81.5 219q0 121 82 246l184 276h205l-174 -256h31q137 0 222 -80.5t85 -205.5t-87.5 -206t-230.5 -81z" />
    <glyph glyph-name="uni2077" unicode="&#x2077;" horiz-adv-x="624" 
d="M113 819l286 656h-348v163h543v-163l-287 -656h-194z" />
    <glyph glyph-name="uni2078" unicode="&#x2078;" horiz-adv-x="737" 
d="M368.5 973q57.5 0 90.5 30.5t33 71.5t-33 72t-90.5 31t-90 -31t-32.5 -72t32.5 -71.5t90 -30.5zM368.5 809q-137.5 0 -222.5 66.5t-85 179.5q0 135 123 194q-45 23 -73.5 72t-28.5 102q0 96 77 161t210 65t209.5 -64.5t76.5 -161.5q0 -53 -28.5 -102t-73.5 -72
q123 -59 123 -194q0 -113 -85 -179.5t-222.5 -66.5zM368.5 1321q51.5 0 77 23.5t25.5 58.5t-25.5 58.5t-77 23.5t-77 -23.5t-25.5 -58.5t25.5 -58.5t77 -23.5z" />
    <glyph glyph-name="uni2079" unicode="&#x2079;" horiz-adv-x="716" 
d="M205 819l174 256h-31q-137 0 -222 81t-85 206t87 206t230 81q154 0 236 -88t82 -220q0 -121 -82 -245l-184 -277h-205zM358.5 1229q61.5 0 97.5 33.5t36 89t-36 89.5t-97.5 34t-97.5 -34t-36 -89.5t36 -89t97.5 -33.5z" />
    <glyph glyph-name="uni2080" unicode="&#x2080;" horiz-adv-x="798" 
d="M399.5 -215q-151.5 0 -245 109.5t-93.5 310.5t93.5 310.5t245 109.5t244.5 -109.5t93 -310.5t-93 -310.5t-244.5 -109.5zM399.5 -41q67.5 0 110.5 61.5t43 184.5t-43 184.5t-110.5 61.5t-110.5 -61.5t-43 -184.5t43 -184.5t110.5 -61.5z" />
    <glyph glyph-name="uni2081" unicode="&#x2081;" horiz-adv-x="552" 
d="M246 -205v533h-185v174h134q51 0 51 51v61h184v-819h-184z" />
    <glyph glyph-name="uni2082" unicode="&#x2082;" horiz-adv-x="686" 
d="M51 -205v164l297 277q82 76 82 143q0 72 -92 72t-92 -82h-195q8 117 80 186.5t217 69.5q129 0 203 -68t74 -178q0 -119 -123 -236l-195 -184h307v-164h-563z" />
    <glyph glyph-name="uni2083" unicode="&#x2083;" horiz-adv-x="706" 
d="M348 -215q-137 0 -218 63.5t-89 171.5h195q14 -61 112 -61q102 0 103 92q0 39 -28 60.5t-75 21.5h-72v164h72q92 0 92 82q0 72 -102 72q-51 0 -72.5 -19.5t-29.5 -62.5h-195q8 121 82 188.5t215 67.5t219 -64.5t78 -161.5q0 -63 -34 -109t-79 -65q123 -61 123 -184
q0 -104 -73.5 -180t-223.5 -76z" />
    <glyph glyph-name="uni2084" unicode="&#x2084;" horiz-adv-x="706" 
d="M379 -205v174h-369v164l328 481h225v-481h123v-164h-123v-174h-184zM205 133h174v246h-10z" />
    <glyph glyph-name="uni2085" unicode="&#x2085;" horiz-adv-x="716" 
d="M358 -215q-131 0 -220 69.5t-97 176.5h195q18 -72 122 -72q123 0 123 113q0 123 -133 123q-78 0 -102 -52h-185l52 471h512v-163h-365l-14 -134h10q51 31 133 31q125 0 201 -73.5t76 -200.5t-82.5 -208t-225.5 -81z" />
    <glyph glyph-name="uni2086" unicode="&#x2086;" horiz-adv-x="716" 
d="M358.5 -41q61.5 0 97.5 34t36 89t-36 89t-97.5 34t-97.5 -34t-36 -89t36 -89t97.5 -34zM358 -215q-154 0 -235.5 88t-81.5 219q0 121 82 246l184 276h205l-174 -256h31q137 0 222 -80.5t85 -205.5t-87.5 -206t-230.5 -81z" />
    <glyph glyph-name="uni2087" unicode="&#x2087;" horiz-adv-x="624" 
d="M113 -205l286 656h-348v163h543v-163l-287 -656h-194z" />
    <glyph glyph-name="uni2088" unicode="&#x2088;" horiz-adv-x="737" 
d="M368.5 -51q57.5 0 90.5 30.5t33 71.5t-33 72t-90.5 31t-90 -31t-32.5 -72t32.5 -71.5t90 -30.5zM368.5 -215q-137.5 0 -222.5 66.5t-85 179.5q0 135 123 194q-45 23 -73.5 72t-28.5 102q0 96 77 161t210 65t209.5 -64.5t76.5 -161.5q0 -53 -28.5 -102t-73.5 -72
q123 -59 123 -194q0 -113 -85 -179.5t-222.5 -66.5zM368.5 297q51.5 0 77 23.5t25.5 58.5t-25.5 58.5t-77 23.5t-77 -23.5t-25.5 -58.5t25.5 -58.5t77 -23.5z" />
    <glyph glyph-name="uni2089" unicode="&#x2089;" horiz-adv-x="716" 
d="M205 -205l174 256h-31q-137 0 -222 81t-85 206t87 206t230 81q154 0 236 -88t82 -220q0 -121 -82 -245l-184 -277h-205zM358.5 205q61.5 0 97.5 33.5t36 89t-36 89.5t-97.5 34t-97.5 -34t-36 -89.5t36 -89t97.5 -33.5z" />
    <glyph glyph-name="uni20A9" unicode="&#x20a9;" horiz-adv-x="2017" 
d="M594 317h10l17 82h-39zM545 635h127l35 164h-187zM420 0l-86 399h-293v236h244l-35 164h-209v235h158l-86 400h307l63 -400h273l84 400h338l84 -400h272l63 400h308l-86 -400h157v-235h-209l-34 -164h243v-236h-293l-86 -399h-348l-84 399h-313l-84 -399h-348zM901 635
h215l-35 164h-145zM1413 317h10l13 82h-39zM985 1034h47l-18 82h-10zM1346 635h127l24 164h-186z" />
    <glyph glyph-name="Euro" unicode="&#x20ac;" horiz-adv-x="1536" 
d="M870 -20q-246 0 -414.5 125.5t-232.5 355.5h-192v194h164v123h-164v195h192q63 229 232.5 355t414.5 126q240 0 394.5 -115.5t210.5 -314.5h-318q-96 154 -287 154q-250 0 -327 -205h471v-195h-512v-123h512v-194h-471q78 -205 327 -205q190 0 287 154h318
q-55 -199 -210 -314.5t-395 -115.5z" />
    <glyph glyph-name="uni20B4" unicode="&#x20b4;" horiz-adv-x="1341" 
d="M676 -20q-225 0 -368.5 98t-143.5 239q0 96 41 164h-113v185h1157v-185h-727q-41 -45 -41 -112q0 -55 52.5 -89t142.5 -34q162 0 225 112h307q-31 -174 -169 -276t-363 -102zM92 768v184h727q41 45 41 113q0 55 -52 89t-142 34q-162 0 -226 -113h-307q31 174 169 276.5
t363.5 102.5t369 -98.5t143.5 -239.5q0 -96 -41 -164h112v-184h-1157z" />
    <glyph glyph-name="uni20B8" unicode="&#x20b8;" horiz-adv-x="1290" 
d="M492 0v768h-431v276h1168v-276h-430v-768h-307zM61 1157v277h1168v-277h-1168z" />
    <glyph glyph-name="uni20B9" unicode="&#x20b9;" horiz-adv-x="1218" 
d="M737 0l-338 461h-327v246h420q193 0 225 133h-645v215h645q-33 133 -225 133h-420v246h1095v-246h-204q41 -41 61 -133h143v-215h-143q-37 -262 -297 -348l358 -492h-348z" />
    <glyph glyph-name="uni20BA" unicode="&#x20ba;" horiz-adv-x="1249" 
d="M236 0v471l-185 -72v236l185 72v122l-185 -71v235l185 72v369h307v-256l307 112v-235l-307 -113v-123l307 113v-236l-307 -112v-308q199 0 274.5 48.5t83.5 197.5h307q-8 -287 -172 -404.5t-524 -117.5h-276z" />
    <glyph glyph-name="uni20BD" unicode="&#x20bd;" horiz-adv-x="1331" 
d="M184 0v195h-153v245h153v113h-153v256h153v625h615q213 0 337 -120t124 -320.5t-124 -320.5t-337 -120h-307v-113h399v-245h-399v-195h-308zM492 809h266q92 0 143 45t51 129t-51 129t-143 45h-266v-348z" />
    <glyph glyph-name="uni20BF" unicode="&#x20bf;" horiz-adv-x="1361" 
d="M451 266h348q84 0 129 43t45 121t-45 121t-129 43h-348v-328zM328 -225v225h-185v1434h185v225h245v-225h134v225h245v-238q150 -33 229 -133t79 -254q0 -102 -52.5 -184t-132.5 -123q90 -41 147.5 -126t57.5 -202q0 -160 -85 -262t-243 -129v-233h-245v225h-134v-225
h-245zM451 840h327q84 0 129 43t45 120.5t-45 120.5t-129 43h-327v-327z" />
    <glyph glyph-name="uni2113" unicode="&#x2113;" horiz-adv-x="870" 
d="M512 -20q-317 0 -317 307v153q-82 -31 -185 -30v184q45 0 91 10t71 21l23 10v522q0 141 80.5 219t216.5 78q139 0 223 -86t84 -262q0 -217 -114 -375t-296 -239v-205q0 -59 41 -91t113 -32q33 0 65.5 8t50.5 16l17 7v-195q-62 -20 -164 -20zM389 707q100 61 157.5 165.5
t57.5 233.5q0 164 -112 164q-102 0 -103 -133v-430z" />
    <glyph glyph-name="uni2116" unicode="&#x2116;" horiz-adv-x="2334" 
d="M143 0v1434h400l542 -983h11v983h307v-1434h-399l-543 983h-10v-983h-308zM1577 0v225h655v-225h-655zM1904.5 348q-153.5 0 -251 97.5t-97.5 251t97.5 250.5t251 97t251 -97t97.5 -250.5t-97.5 -251t-251 -97.5zM1904.5 553q55.5 0 89.5 38t34 105.5t-34 105.5t-89.5 38
t-89 -38t-33.5 -105.5t33.5 -105.5t89 -38z" />
    <glyph glyph-name="uni2117" unicode="&#x2117;" horiz-adv-x="1679" 
d="M839.5 -20q-323.5 0 -530.5 206.5t-207 530t207 530.5t530.5 207t530.5 -207t207 -530.5t-207 -530t-530.5 -206.5zM839.5 164q239.5 0 391 153.5t151.5 399.5t-151.5 399.5t-391 153.5t-391 -153.5t-151.5 -399.5t151.5 -399.5t391 -153.5zM563 338v768h328
q133 0 204.5 -71.5t71.5 -184.5q0 -119 -71.5 -192.5t-204.5 -73.5h-143v-246h-185zM748 748h133q102 0 102 102q0 92 -102 92h-133v-194z" />
    <glyph glyph-name="trademark" unicode="&#x2122;" horiz-adv-x="1515" 
d="M225 799v461h-194v174h563v-174h-195v-461h-174zM655 799v635h256l113 -369h10l113 369h256v-635h-174v368h-10l-113 -368h-154l-112 368h-11v-368h-174z" />
    <glyph glyph-name="Omega" unicode="&#x2126;" horiz-adv-x="1679" 
d="M184 0v184h226q-12 6 -32 19.5t-69 64.5t-87 112.5t-68.5 166t-30.5 221.5q0 309 194.5 497.5t522 188.5t522 -188.5t194.5 -497.5q0 -117 -29.5 -220.5t-71.5 -167t-84 -110.5t-73 -65l-28 -21h225v-184h-522v184q16 6 40.5 19.5t90 61.5t116 106.5t91.5 160t41 216.5
q0 229 -144.5 375.5t-368 146.5t-367.5 -146.5t-144 -375.5q0 -115 39 -215.5t94 -161t111.5 -105.5t95.5 -63l39 -19v-184h-523z" />
    <glyph glyph-name="estimated" unicode="&#x212e;" horiz-adv-x="1740" 
d="M901 -41q-334 0 -556 214t-222 523.5t218 523.5t539.5 214t539.5 -214t218 -524v-10h-1177q-31 0 -31 -31v-399q0 -86 82 -139q178 -106 389 -107q100 0 192.5 29t154 68.5t107.5 80.5t66 70l23 29h112q-8 -14 -26.5 -36t-79.5 -78t-132 -99t-183.5 -79t-233.5 -36z
M461 737h839q31 0 31 31v379q0 82 -82 135q-160 100 -368.5 100t-368.5 -100q-82 -53 -82 -135v-379q0 -31 31 -31z" />
    <glyph glyph-name="uni2150" unicode="&#x2150;" horiz-adv-x="1607" 
d="M184 0l891 1434h195l-891 -1434h-195zM246 614v533h-185v174h134q51 0 51 51v62h184v-820h-184zM1034 0l287 655h-348v164h543v-164l-287 -655h-195z" />
    <glyph glyph-name="uni2151" unicode="&#x2151;" horiz-adv-x="1617" 
d="M184 0l891 1434h195l-891 -1434h-195zM246 614v533h-185v174h134q51 0 51 51v62h184v-820h-184zM1075 0l174 256h-30q-137 0 -222.5 81t-85.5 206t87 205.5t231 80.5q154 0 235.5 -88t81.5 -219q0 -121 -82 -246l-184 -276h-205zM1228.5 410q61.5 0 97.5 33.5t36 89
t-36 89t-97.5 33.5t-97 -33.5t-35.5 -89t35.5 -89t97 -33.5z" />
    <glyph glyph-name="uni2152" unicode="&#x2152;" horiz-adv-x="2170" 
d="M184 0l891 1434h195l-891 -1434h-195zM246 614v533h-185v174h134q51 0 51 51v62h184v-820h-184zM1137 0v532h-185v175h133q51 0 52 51v61h184v-819h-184zM1740.5 -10q-151.5 0 -244.5 109.5t-93 310t93 310t244.5 109.5t245 -109.5t93.5 -310t-93.5 -310t-245 -109.5z
M1740.5 164q67.5 0 110.5 61.5t43 184t-43 184t-110.5 61.5t-110.5 -61.5t-43 -184t43 -184t110.5 -61.5z" />
    <glyph glyph-name="onethird" unicode="&#x2153;" horiz-adv-x="1628" 
d="M184 0l891 1434h195l-891 -1434h-195zM246 614v533h-185v174h134q51 0 51 51v62h184v-820h-184zM1239 -10q-137 0 -218 63.5t-89 171.5h194q16 -61 113 -61q102 0 102 92q0 39 -27.5 60.5t-74.5 21.5h-72v164h72q92 0 92 82q0 72 -102 71q-51 0 -72.5 -19.5t-30.5 -62.5
h-194q8 121 81.5 188.5t215 67.5t219.5 -64.5t78 -160.5q0 -63 -34 -109t-79 -65q123 -61 123 -184q0 -104 -73.5 -180t-223.5 -76z" />
    <glyph glyph-name="twothirds" unicode="&#x2154;" horiz-adv-x="1771" 
d="M338 0l891 1434h194l-891 -1434h-194zM72 614v164l297 277q82 76 82 143q0 72 -92.5 72t-92.5 -82h-194q8 117 79.5 186.5t217.5 69.5q129 0 202.5 -67.5t73.5 -178.5q0 -119 -123 -235l-194 -185h307v-164h-563zM1382 -10q-137 0 -218 63.5t-89 171.5h195
q16 -61 112 -61q102 0 103 92q0 39 -27.5 60.5t-75.5 21.5h-71v164h71q92 0 93 82q0 72 -103 71q-51 0 -72.5 -19.5t-29.5 -62.5h-195q8 121 82 188.5t215 67.5t219 -64.5t78 -160.5q0 -63 -33.5 -109t-79.5 -65q123 -61 123 -184q0 -104 -73.5 -180t-223.5 -76z" />
    <glyph glyph-name="uni2155" unicode="&#x2155;" horiz-adv-x="1648" 
d="M184 0l891 1434h195l-891 -1434h-195zM246 614v533h-185v174h134q51 0 51 51v62h184v-820h-184zM1249 -10q-131 0 -220 69.5t-97 176.5h194q18 -72 123 -72q123 0 123 112q0 123 -133 123q-76 0 -102 -51h-185l52 471h512v-164h-365l-14 -133h10q51 31 133 31
q125 0 200.5 -73.5t75.5 -200.5t-82 -208t-225 -81z" />
    <glyph glyph-name="uni2156" unicode="&#x2156;" horiz-adv-x="1812" 
d="M338 0l891 1434h194l-891 -1434h-194zM72 614v164l297 277q82 76 82 143q0 72 -92.5 72t-92.5 -82h-194q8 117 79.5 186.5t217.5 69.5q129 0 202.5 -67.5t73.5 -178.5q0 -119 -123 -235l-194 -185h307v-164h-563zM1413 -10q-131 0 -220 69.5t-97 176.5h194
q18 -72 123 -72q123 0 123 112q0 123 -133 123q-76 0 -103 -51h-184l51 471h512v-164h-364l-15 -133h11q51 31 133 31q125 0 200.5 -73.5t75.5 -200.5t-82 -208t-225 -81z" />
    <glyph glyph-name="uni2157" unicode="&#x2157;" horiz-adv-x="1802" 
d="M338 0l891 1434h194l-891 -1434h-194zM369 604q-137 0 -218 63.5t-90 172.5h195q14 -61 113 -62q102 0 102 92q0 39 -27.5 60.5t-74.5 21.5h-72v164h72q92 0 92 82q0 72 -103 72q-51 0 -72.5 -19.5t-29.5 -62.5h-195q8 121 82 188.5t215.5 67.5t219 -64.5t77.5 -160.5
q0 -63 -33.5 -109.5t-78.5 -65.5q123 -61 123 -184q0 -104 -73.5 -180t-223.5 -76zM1403 -10q-131 0 -220 69.5t-98 176.5h195q18 -72 123 -72q123 0 123 112q0 123 -133 123q-78 0 -103 -51h-184l51 471h512v-164h-364l-15 -133h10q51 31 134 31q125 0 200.5 -73.5
t75.5 -200.5t-82 -208t-225 -81z" />
    <glyph glyph-name="uni2158" unicode="&#x2158;" horiz-adv-x="1843" 
d="M379 0l891 1434h194l-891 -1434h-194zM410 614v174h-369v164l328 482h225v-482h123v-164h-123v-174h-184zM236 952h174v246h-11zM1444 -10q-131 0 -220 69.5t-98 176.5h195q18 -72 123 -72q123 0 123 112q0 123 -133 123q-78 0 -103 -51h-184l51 471h512v-164h-364
l-15 -133h10q51 31 134 31q125 0 200.5 -73.5t75.5 -200.5t-82 -208t-225 -81z" />
    <glyph glyph-name="uni2159" unicode="&#x2159;" horiz-adv-x="1587" 
d="M184 0l891 1434h195l-891 -1434h-195zM246 614v533h-185v174h134q51 0 51 51v62h184v-820h-184zM1198.5 164q61.5 0 97 33.5t35.5 89t-35.5 89.5t-97 34t-97.5 -34t-36 -89.5t36 -89t97.5 -33.5zM1198 -10q-154 0 -235.5 88t-81.5 219q0 121 82 246l184 276h205
l-174 -256h30q137 0 222.5 -81t85.5 -205.5t-87.5 -205.5t-230.5 -81z" />
    <glyph glyph-name="uni215A" unicode="&#x215a;" horiz-adv-x="1781" 
d="M379 0l891 1434h194l-891 -1434h-194zM389 604q-131 0 -220 69.5t-97 176.5h194q18 -72 123 -72q123 0 123 113q0 123 -133 123q-76 0 -103 -51h-184l51 471h512v-164h-364l-15 -133h11q51 31 133 30q125 0 200.5 -73.5t75.5 -200.5t-82 -208t-225 -81zM1392.5 164
q61.5 0 97.5 33.5t36 89t-36 89.5t-97.5 34t-97 -34t-35.5 -89.5t35.5 -89t97 -33.5zM1393 -10q-154 0 -236 88t-82 219q0 121 82 246l184 276h205l-174 -256h31q137 0 222 -81t85 -205.5t-87 -205.5t-230 -81z" />
    <glyph glyph-name="oneeighth" unicode="&#x215b;" horiz-adv-x="1638" 
d="M184 0l891 1434h195l-891 -1434h-195zM246 614v533h-185v174h134q51 0 51 51v62h184v-820h-184zM1239 154q57 0 90 30.5t33 71.5t-33 71.5t-90 30.5t-90 -30.5t-33 -71.5t33 -71.5t90 -30.5zM1239 -10q-137 0 -222 66.5t-85 179.5q0 135 123 194q-45 23 -74 72t-29 102
q0 96 77 160.5t210 64.5t210 -64.5t77 -160.5q0 -53 -29 -102t-74 -72q123 -59 123 -194q0 -113 -85 -179.5t-222 -66.5zM1239 502q51 0 76.5 23.5t25.5 58t-25.5 58.5t-76.5 24t-76.5 -24t-25.5 -58.5t25.5 -58t76.5 -23.5z" />
    <glyph glyph-name="threeeighths" unicode="&#x215c;" horiz-adv-x="1792" 
d="M338 0l891 1434h194l-891 -1434h-194zM369 604q-137 0 -218 63.5t-90 172.5h195q14 -61 113 -62q102 0 102 92q0 39 -27.5 60.5t-74.5 21.5h-72v164h72q92 0 92 82q0 72 -103 72q-51 0 -72.5 -19.5t-29.5 -62.5h-195q8 121 82 188.5t215.5 67.5t219 -64.5t77.5 -160.5
q0 -63 -33.5 -109.5t-78.5 -65.5q123 -61 123 -184q0 -104 -73.5 -180t-223.5 -76zM1392.5 154q57.5 0 90.5 30.5t33 71.5t-33 71.5t-90.5 30.5t-90 -30.5t-32.5 -71.5t32.5 -71.5t90 -30.5zM1392.5 -10q-137.5 0 -222.5 66.5t-85 179.5q0 135 123 194q-45 23 -73.5 72
t-28.5 102q0 96 77 160.5t210 64.5t209.5 -64.5t76.5 -160.5q0 -53 -28.5 -102t-73.5 -72q123 -59 123 -194q0 -113 -85 -179.5t-222.5 -66.5zM1392.5 502q51.5 0 77 23.5t25.5 58t-25.5 58.5t-77 24t-77 -24t-25.5 -58.5t25.5 -58t77 -23.5z" />
    <glyph glyph-name="fiveeighths" unicode="&#x215d;" horiz-adv-x="1832" 
d="M379 0l891 1434h194l-891 -1434h-194zM389 604q-131 0 -220 69.5t-97 176.5h194q18 -72 123 -72q123 0 123 113q0 123 -133 123q-76 0 -103 -51h-184l51 471h512v-164h-364l-15 -133h11q51 31 133 30q125 0 200.5 -73.5t75.5 -200.5t-82 -208t-225 -81zM1433.5 154
q57.5 0 90 30.5t32.5 71.5t-32.5 71.5t-90 30.5t-90 -30.5t-32.5 -71.5t32.5 -71.5t90 -30.5zM1433.5 -10q-137.5 0 -222.5 66.5t-85 179.5q0 135 123 194q-45 23 -73.5 72t-28.5 102q0 96 76.5 160.5t210 64.5t210 -64.5t76.5 -160.5q0 -53 -28.5 -102t-73.5 -72
q123 -59 123 -194q0 -113 -85 -179.5t-222.5 -66.5zM1433.5 502q51.5 0 77 23.5t25.5 58t-25.5 58.5t-77 24t-77 -24t-25.5 -58.5t25.5 -58t77 -23.5z" />
    <glyph glyph-name="seveneighths" unicode="&#x215e;" horiz-adv-x="1628" 
d="M184 0l891 1434h195l-891 -1434h-195zM143 614l287 656h-348v164h543v-164l-287 -656h-195zM1228.5 154q57.5 0 90.5 30.5t33 71.5t-33 71.5t-90.5 30.5t-90 -30.5t-32.5 -71.5t32.5 -71.5t90 -30.5zM1229 -10q-137 0 -222 66.5t-85 179.5q0 135 122 194q-45 23 -73.5 72
t-28.5 102q0 96 77 160.5t210 64.5t210 -64.5t77 -160.5q0 -53 -29 -102t-74 -72q123 -59 123 -194q0 -113 -85 -179.5t-222 -66.5zM1229 502q51 0 76.5 23.5t25.5 58t-25.5 58.5t-76.5 24t-77 -24t-26 -58.5t26 -58t77 -23.5z" />
    <glyph glyph-name="uni215F" unicode="&#x215f;" horiz-adv-x="890" 
d="M184 0l891 1434h195l-891 -1434h-195zM246 614v533h-185v174h134q51 0 51 51v62h184v-820h-184z" />
    <glyph glyph-name="arrowleft" unicode="&#x2190;" 
d="M748 1157l143 -143l-205 -205h1055v-195h-1055l205 -204l-143 -144l-441 441v10z" />
    <glyph glyph-name="arrowup" unicode="&#x2191;" 
d="M1464 993l-143 -143l-205 205v-1055h-194v1055l-205 -205l-144 143l441 441h10z" />
    <glyph glyph-name="arrowright" unicode="&#x2192;" 
d="M1157 1014l143 143l441 -440v-10l-441 -441l-143 144l205 204h-1055v195h1055z" />
    <glyph glyph-name="arrowdown" unicode="&#x2193;" 
d="M1321 584l143 -144l-440 -440h-10l-441 440l144 144l205 -205v1055h194v-1055z" />
    <glyph glyph-name="arrowboth" unicode="&#x2194;" 
d="M707 1157l143 -143l-205 -205h758l-205 205l143 143l441 -440v-10l-441 -441l-143 144l205 204h-758l205 -204l-143 -144l-441 441v10z" />
    <glyph glyph-name="arrowupdn" unicode="&#x2195;" 
d="M1321 543l143 -144l-440 -440h-10l-441 440l144 144l205 -205v758l-205 -205l-144 143l441 441h10l440 -441l-143 -143l-205 205v-758z" />
    <glyph glyph-name="uni2196" unicode="&#x2196;" 
d="M1628 246l-133 -133l-891 891v-308h-194v615l20 20h614v-194h-307z" />
    <glyph glyph-name="uni2197" unicode="&#x2197;" 
d="M553 113l-133 133l891 891h-307v194h614l20 -20v-615h-194v308z" />
    <glyph glyph-name="uni2198" unicode="&#x2198;" 
d="M420 1188l133 133l891 -891v307h194v-614l-20 -21h-614v195h307z" />
    <glyph glyph-name="uni2199" unicode="&#x2199;" 
d="M1495 1321l133 -133l-891 -891h307v-195h-614l-20 21v614h194v-307z" />
    <glyph glyph-name="uni21C5" unicode="&#x21c5;" 
d="M1126 993l-143 -143l-205 205v-1055h-194v1055l-205 -205l-143 143l440 441h10zM1669 584l143 -144l-440 -440h-10l-440 440l143 144l205 -205v1055h194v-1055z" />
    <glyph glyph-name="uni21F5" unicode="&#x21f5;" 
d="M983 584l143 -144l-440 -440h-10l-440 440l143 144l205 -205v1055h194v-1055zM1812 993l-143 -143l-205 205v-1055h-194v1055l-205 -205l-143 143l440 441h10z" />
    <glyph glyph-name="partialdiff" unicode="&#x2202;" horiz-adv-x="1187" 
d="M563 164q137 0 222 105.5t85 303.5q-4 6 -11 18.5t-33.5 42.5t-57.5 53.5t-83 42t-112 18.5q-127 0 -206.5 -76t-79.5 -211q0 -137 75.5 -217t200.5 -80zM563 -20q-211 0 -341 128t-130 353q0 213 123 342t317 129q201 0 338 -123h11q0 207 -91.5 334t-236.5 127
q-139 0 -195 -113h-206q29 123 130 210t271 87q250 0 386 -187.5t136 -549.5q0 -737 -512 -737z" />
    <glyph glyph-name="emptyset" unicode="&#x2205;" horiz-adv-x="1679" 
d="M422 371l690 823q-121 76 -272 76q-225 0 -374 -154.5t-149 -398.5q1 -199 105 -346zM840 -20q-231 0 -402 104l-80 -94h-256l187 221q-176 199 -176 506q0 330 201.5 533.5t525.5 203.5q223 0 401 -106l80 96h256l-186 -223q176 -203 176 -504q0 -330 -201.5 -533.5
t-525.5 -203.5zM840 164q225 0 373.5 154.5t148.5 398.5q0 199 -107 344l-690 -823q125 -74 275 -74z" />
    <glyph glyph-name="Delta" unicode="&#x2206;" horiz-adv-x="1331" 
d="M297 184h737l-368 1035zM20 0l512 1434h267l512 -1434h-1291z" />
    <glyph glyph-name="product" unicode="&#x220f;" horiz-adv-x="1454" 
d="M184 -225v1659h1086v-1659h-215v1464h-656v-1464h-215z" />
    <glyph glyph-name="summation" unicode="&#x2211;" horiz-adv-x="1208" 
d="M123 -225v184l450 686l-450 604v185h983v-195h-737l450 -594l-450 -676h737v-194h-983z" />
    <glyph glyph-name="minus" unicode="&#x2212;" horiz-adv-x="1126" 
d="M72 522v226h983v-226h-983z" />
    <glyph glyph-name="radical" unicode="&#x221a;" horiz-adv-x="1331" 
d="M440 -225l-174 501h-235v195h389l166 -481h22l457 1495h215l-522 -1710h-318z" />
    <glyph glyph-name="infinity" unicode="&#x221e;" horiz-adv-x="1617" 
d="M451 543q139 0 256 174q-117 174 -256 174q-78 0 -126.5 -48t-48.5 -126t48.5 -126t126.5 -48zM451 379q-160 0 -254.5 92t-94.5 245.5t94.5 246t254.5 92.5q195 0 358 -205q164 205 358 205q160 0 254.5 -92.5t94.5 -246t-94.5 -245.5t-254.5 -92q-195 0 -358 205
q-163 -205 -358 -205zM1167 543q78 0 126 48t48 126t-48 126t-126 48q-139 0 -256 -174q117 -174 256 -174z" />
    <glyph glyph-name="integral" unicode="&#x222b;" horiz-adv-x="798" 
d="M82 -225v184h31q113 0 148.5 51t35.5 195v1024q0 240 83 335t296 95h41v-184h-31q-113 0 -148.5 -51.5t-35.5 -194.5v-1024q0 -240 -83 -335t-296 -95h-41z" />
    <glyph glyph-name="approxequal" unicode="&#x2248;" horiz-adv-x="1239" 
d="M102 225q0 154 85 256.5t233 102.5q90 0 205.5 -56.5t152.5 -56.5q47 0 75 29.5t28 83.5h256q0 -154 -85 -256.5t-233 -102.5q-90 0 -205.5 56.5t-152.5 56.5q-47 0 -75 -29.5t-28 -83.5h-256zM102 655q0 154 85 256.5t233 102.5q90 0 205.5 -56.5t152.5 -56.5
q47 0 75 30t28 83h256q0 -154 -85 -256.5t-233 -102.5q-90 0 -205.5 56.5t-152.5 56.5q-47 0 -75 -29.5t-28 -83.5h-256z" />
    <glyph glyph-name="notequal" unicode="&#x2260;" horiz-adv-x="1126" 
d="M236 133l65 154h-229v225h327l103 236h-430v225h528l66 153h225l-66 -153h230v-225h-328l-102 -236h430v-225h-529l-65 -154h-225z" />
    <glyph glyph-name="lessequal" unicode="&#x2264;" horiz-adv-x="1044" 
d="M72 0v205h901v-205h-901zM973 256l-901 379v205l901 379v-246l-625 -236l625 -235v-246z" />
    <glyph glyph-name="greaterequal" unicode="&#x2265;" horiz-adv-x="1044" 
d="M72 0v205h901v-205h-901zM72 256v246l624 235l-624 236v246l901 -379v-205z" />
    <glyph glyph-name="uni2318" unicode="&#x2318;" horiz-adv-x="1669" 
d="M410 174q61 0 102 41t41 102v123h-123q-61 0 -102 -39t-41 -94q0 -61 34 -97t89 -36zM410 0q-137 0 -222.5 83t-85.5 214q0 133 88.5 215t239.5 82h123v246h-123q-152 0 -240 82t-88 215q0 131 85 214t223 83q147 0 227 -82t80 -236v-123h235v123q0 154 80 236t228 82
q137 0 222 -83t85 -214q0 -133 -88 -215t-240 -82h-123v-246h123q152 0 240 -82t88 -215q0 -131 -85 -214t-222 -83q-147 0 -227.5 82t-80.5 235v123h-235v-123q0 -154 -80 -235.5t-227 -81.5zM717 594h235v246h-235v-246zM430 993h123v123q0 61 -41 102.5t-102 41.5
q-55 0 -89 -36t-34 -98q0 -55 41 -94t102 -39zM1260 174q55 0 88.5 36t33.5 97q0 55 -41 94t-102 39h-123v-123q0 -61 41.5 -102t102.5 -41zM1116 993h123q61 0 102 39t41 94q0 61 -33.5 97.5t-88.5 36.5q-61 0 -102.5 -41t-41.5 -103v-123z" />
    <glyph glyph-name="uni2460" unicode="&#x2460;" 
d="M963 307v533h-185v174h133q51 0 52 51v61h184v-819h-184zM1024 -164q-369 0 -625 256t-256 624.5t256 624.5t625 256t625 -256t256 -624.5t-256 -624.5t-625 -256zM1024 -10q307 0 517 210t210 517t-210 517t-517 210t-517 -210t-210 -517t210 -517t517 -210z" />
    <glyph glyph-name="uni2461" unicode="&#x2461;" 
d="M748 307v164l296 277q82 76 82 143q0 72 -92 72t-92 -82h-194q8 117 79.5 186.5t216.5 69.5q129 0 203 -68t74 -178q0 -119 -123 -236l-194 -184h307v-164h-563zM1024 -164q-369 0 -625 256t-256 624.5t256 624.5t625 256t625 -256t256 -624.5t-256 -624.5t-625 -256z
M1024 -10q307 0 517 210t210 517t-210 517t-517 210t-517 -210t-210 -517t210 -517t517 -210z" />
    <glyph glyph-name="uni2462" unicode="&#x2462;" 
d="M1044 297q-137 0 -218 63.5t-89 171.5h195q14 -61 112 -61q102 0 103 92q0 39 -27.5 60.5t-75.5 21.5h-71v164h71q92 0 93 82q0 72 -103 72q-51 0 -72.5 -19.5t-29.5 -62.5h-195q8 121 82 188.5t215.5 67.5t219 -64.5t77.5 -161.5q0 -63 -33.5 -109t-78.5 -65
q123 -61 122 -184q0 -104 -73.5 -180t-223.5 -76zM1024 -164q-369 0 -625 256t-256 624.5t256 624.5t625 256t625 -256t256 -624.5t-256 -624.5t-625 -256zM1024 -10q307 0 517 210t210 517t-210 517t-517 210t-517 -210t-210 -517t210 -517t517 -210z" />
    <glyph glyph-name="uni2463" unicode="&#x2463;" 
d="M1024 307v174h-369v164l328 481h225v-481h123v-164h-123v-174h-184zM850 645h174v246h-10zM1024 -164q-369 0 -625 256t-256 624.5t256 624.5t625 256t625 -256t256 -624.5t-256 -624.5t-625 -256zM1024 -10q307 0 517 210t210 517t-210 517t-517 210t-517 -210
t-210 -517t210 -517t517 -210z" />
    <glyph glyph-name="uni2464" unicode="&#x2464;" 
d="M1034 297q-131 0 -220 69.5t-97 176.5h194q18 -72 123 -72q123 0 123 113q0 123 -133 123q-78 0 -102 -52h-185l51 471h512v-163h-364l-14 -134h10q51 31 133 31q125 0 200.5 -73.5t75.5 -200.5t-82 -208t-225 -81zM1024 -164q-369 0 -625 256t-256 624.5t256 624.5
t625 256t625 -256t256 -624.5t-256 -624.5t-625 -256zM1024 -10q307 0 517 210t210 517t-210 517t-517 210t-517 -210t-210 -517t210 -517t517 -210z" />
    <glyph glyph-name="uni2465" unicode="&#x2465;" 
d="M1024 471q61 0 97 34t36 89t-36 89t-97 34t-97 -34t-36 -89t36 -89t97 -34zM1024 297q-154 0 -235.5 88t-81.5 219q0 121 81 246l185 276h205l-174 -256h30q137 0 222 -80.5t85 -205.5t-87 -206t-230 -81zM1024 -164q-369 0 -625 256t-256 624.5t256 624.5t625 256
t625 -256t256 -624.5t-256 -624.5t-625 -256zM1024 -10q307 0 517 210t210 517t-210 517t-517 210t-517 -210t-210 -517t210 -517t517 -210z" />
    <glyph glyph-name="uni2466" unicode="&#x2466;" 
d="M829 307l287 656h-348v163h543v-163l-287 -656h-195zM1024 -164q-369 0 -625 256t-256 624.5t256 624.5t625 256t625 -256t256 -624.5t-256 -624.5t-625 -256zM1024 -10q307 0 517 210t210 517t-210 517t-517 210t-517 -210t-210 -517t210 -517t517 -210z" />
    <glyph glyph-name="uni2467" unicode="&#x2467;" 
d="M1022 461q57 0 90 30.5t33 71.5t-33 72t-90 31t-90 -31t-33 -72t33 -71.5t90 -30.5zM1022 297q-137 0 -222 66.5t-85 179.5q0 135 123 194q-45 23 -74 72t-29 102q0 96 77 161t210 65t210 -64.5t77 -161.5q0 -53 -29 -102t-74 -72q123 -59 123 -194q0 -113 -85 -179.5
t-222 -66.5zM1022 809q51 0 76.5 23.5t25.5 58.5t-25.5 58.5t-76.5 23.5t-76.5 -23.5t-25.5 -58.5t25.5 -58.5t76.5 -23.5zM1024 -164q-369 0 -625 256t-256 624.5t256 624.5t625 256t625 -256t256 -624.5t-256 -624.5t-625 -256zM1024 -10q307 0 517 210t210 517t-210 517
t-517 210t-517 -210t-210 -517t210 -517t517 -210z" />
    <glyph glyph-name="uni2468" unicode="&#x2468;" 
d="M870 307l174 256h-30q-137 0 -222 81t-85 206t87 206t230 81q154 0 235.5 -88t81.5 -220q0 -121 -81 -245l-185 -277h-205zM1024 717q61 0 97 33.5t36 89t-36 89.5t-97 34t-97 -34t-36 -89.5t36 -89t97 -33.5zM1024 -164q-369 0 -625 256t-256 624.5t256 624.5t625 256
t625 -256t256 -624.5t-256 -624.5t-625 -256zM1024 -10q307 0 517 210t210 517t-210 517t-517 210t-517 -210t-210 -517t210 -517t517 -210z" />
    <glyph glyph-name="uni2469" unicode="&#x2469;" 
d="M635 307v533h-184v174h133q51 0 51 51v61h184v-819h-184zM1249.5 297q-151.5 0 -245 109.5t-93.5 310.5t93.5 310.5t245 109.5t244.5 -109.5t93 -310.5t-93 -310.5t-244.5 -109.5zM1249.5 471q67.5 0 110.5 61.5t43 184.5t-43 184.5t-110.5 61.5t-110.5 -61.5t-43 -184.5
t43 -184.5t110.5 -61.5zM1024 -164q-369 0 -625 256t-256 624.5t256 624.5t625 256t625 -256t256 -624.5t-256 -624.5t-625 -256zM1024 -10q307 0 517 210t210 517t-210 517t-517 210t-517 -210t-210 -517t210 -517t517 -210z" />
    <glyph glyph-name="uni246A" unicode="&#x246a;" 
d="M1208 307v533h-184v174h133q51 0 51 51v61h185v-819h-185zM727 307v533h-184v174h133q51 0 51 51v61h184v-819h-184zM1024 -164q-369 0 -625 256t-256 624.5t256 624.5t625 256t625 -256t256 -624.5t-256 -624.5t-625 -256zM1024 -10q307 0 517 210t210 517t-210 517
t-517 210t-517 -210t-210 -517t210 -517t517 -210z" />
    <glyph glyph-name="uni246B" unicode="&#x246b;" 
d="M655 307v533h-184v174h133q51 0 51 51v61h185v-819h-185zM952 307v164l297 277q82 76 82 143q0 72 -92 72t-92 -82h-195q8 117 80 186.5t217 69.5q129 0 203 -68t74 -178q0 -119 -123 -236l-195 -184h308v-164h-564zM1024 -164q-369 0 -625 256t-256 624.5t256 624.5
t625 256t625 -256t256 -624.5t-256 -624.5t-625 -256zM1024 -10q307 0 517 210t210 517t-210 517t-517 210t-517 -210t-210 -517t210 -517t517 -210z" />
    <glyph glyph-name="uni246C" unicode="&#x246c;" 
d="M645 307v533h-184v174h133q51 0 51 51v61h184v-819h-184zM1239 297q-137 0 -218 63.5t-89 171.5h194q16 -61 113 -61q102 0 102 92q0 39 -27.5 60.5t-74.5 21.5h-72v164h72q92 0 92 82q0 72 -102 72q-51 0 -72.5 -19.5t-30.5 -62.5h-194q8 121 81.5 188.5t215 67.5
t219.5 -64.5t78 -161.5q0 -63 -34 -109t-79 -65q123 -61 123 -184q0 -104 -73.5 -180t-223.5 -76zM1024 -164q-369 0 -625 256t-256 624.5t256 624.5t625 256t625 -256t256 -624.5t-256 -624.5t-625 -256zM1024 -10q307 0 517 210t210 517t-210 517t-517 210t-517 -210
t-210 -517t210 -517t517 -210z" />
    <glyph glyph-name="uni246D" unicode="&#x246d;" 
d="M645 307v533h-184v174h133q51 0 51 51v61h184v-819h-184zM1270 307v174h-369v164l328 481h225v-481h123v-164h-123v-174h-184zM1096 645h174v246h-10zM1024 -164q-369 0 -625 256t-256 624.5t256 624.5t625 256t625 -256t256 -624.5t-256 -624.5t-625 -256zM1024 -10
q307 0 517 210t210 517t-210 517t-517 210t-517 -210t-210 -517t210 -517t517 -210z" />
    <glyph glyph-name="uni246E" unicode="&#x246e;" 
d="M645 307v533h-184v174h133q51 0 51 51v61h184v-819h-184zM1239 297q-131 0 -220 69.5t-97 176.5h194q18 -72 123 -72q123 0 123 113q0 123 -133 123q-78 0 -103 -52h-184l51 471h512v-163h-364l-15 -134h11q51 31 133 31q125 0 200.5 -73.5t75.5 -200.5t-82 -208
t-225 -81zM1024 -164q-369 0 -625 256t-256 624.5t256 624.5t625 256t625 -256t256 -624.5t-256 -624.5t-625 -256zM1024 -10q307 0 517 210t210 517t-210 517t-517 210t-517 -210t-210 -517t210 -517t517 -210z" />
    <glyph glyph-name="uni246F" unicode="&#x246f;" 
d="M645 307v533h-184v174h133q51 0 51 51v61h184v-819h-184zM1239 471q61 0 97 34t36 89t-36 89t-97 34t-97 -34t-36 -89t36 -89t97 -34zM1239 297q-154 0 -235.5 88t-81.5 219q0 121 82 246l184 276h205l-174 -256h30q137 0 222 -80.5t85 -205.5t-87 -206t-230 -81z
M1024 -164q-369 0 -625 256t-256 624.5t256 624.5t625 256t625 -256t256 -624.5t-256 -624.5t-625 -256zM1024 -10q307 0 517 210t210 517t-210 517t-517 210t-517 -210t-210 -517t210 -517t517 -210z" />
    <glyph glyph-name="uni2470" unicode="&#x2470;" 
d="M666 307v533h-185v174h133q51 0 52 51v61h184v-819h-184zM1034 307l287 656h-348v163h543v-163l-287 -656h-195zM1024 -164q-369 0 -625 256t-256 624.5t256 624.5t625 256t625 -256t256 -624.5t-256 -624.5t-625 -256zM1024 -10q307 0 517 210t210 517t-210 517
t-517 210t-517 -210t-210 -517t210 -517t517 -210z" />
    <glyph glyph-name="uni2471" unicode="&#x2471;" 
d="M655 307v533h-184v174h133q51 0 51 51v61h185v-819h-185zM1239 461q57 0 90 30.5t33 71.5t-33 72t-90 31t-90 -31t-33 -72t33 -71.5t90 -30.5zM1239 297q-137 0 -222 66.5t-85 179.5q0 135 123 194q-45 23 -74 72t-29 102q0 96 77 161t210 65t210 -64.5t77 -161.5
q0 -53 -29 -102t-74 -72q123 -59 123 -194q0 -113 -85 -179.5t-222 -66.5zM1239 809q51 0 76.5 23.5t25.5 58.5t-25.5 58.5t-76.5 23.5t-76.5 -23.5t-25.5 -58.5t25.5 -58.5t76.5 -23.5zM1024 -164q-369 0 -625 256t-256 624.5t256 624.5t625 256t625 -256t256 -624.5
t-256 -624.5t-625 -256zM1024 -10q307 0 517 210t210 517t-210 517t-517 210t-517 -210t-210 -517t210 -517t517 -210z" />
    <glyph glyph-name="uni2472" unicode="&#x2472;" 
d="M655 307v533h-184v174h133q51 0 51 51v61h185v-819h-185zM1085 307l175 256h-31q-137 0 -222 81t-85 206t87 206t230 81q154 0 235.5 -88t81.5 -220q0 -121 -81 -245l-185 -277h-205zM1239 717q61 0 97 33.5t36 89t-36 89.5t-97 34t-97 -34t-36 -89.5t36 -89t97 -33.5z
M1024 -164q-369 0 -625 256t-256 624.5t256 624.5t625 256t625 -256t256 -624.5t-256 -624.5t-625 -256zM1024 -10q307 0 517 210t210 517t-210 517t-517 210t-517 -210t-210 -517t210 -517t517 -210z" />
    <glyph glyph-name="uni2473" unicode="&#x2473;" 
d="M420 307v164l297 277q82 76 82 143q0 72 -92.5 72t-92.5 -82h-194q8 117 79.5 186.5t217.5 69.5q129 0 202.5 -68t73.5 -178q0 -119 -123 -236l-194 -184h307v-164h-563zM1341.5 297q-151.5 0 -244.5 109.5t-93 310.5t93 310.5t244.5 109.5t244.5 -109.5t93 -310.5
t-93 -310.5t-244.5 -109.5zM1341.5 471q67.5 0 110.5 61.5t43 184.5t-43 184.5t-110.5 61.5t-110.5 -61.5t-43 -184.5t43 -184.5t110.5 -61.5zM1024 -164q-369 0 -625 256t-256 624.5t256 624.5t625 256t625 -256t256 -624.5t-256 -624.5t-625 -256zM1024 -10q307 0 517 210
t210 517t-210 517t-517 210t-517 -210t-210 -517t210 -517t517 -210z" />
    <glyph glyph-name="uni24EA" unicode="&#x24ea;" 
d="M1024 297q-152 0 -245 109.5t-93 310.5t93 310.5t245 109.5t245 -109.5t93 -310.5t-93 -310.5t-245 -109.5zM1024 471q68 0 111 61.5t43 184.5t-43 184.5t-111 61.5t-111 -61.5t-43 -184.5t43 -184.5t111 -61.5zM1024 -164q-369 0 -625 256t-256 624.5t256 624.5t625 256
t625 -256t256 -624.5t-256 -624.5t-625 -256zM1024 -10q307 0 517 210t210 517t-210 517t-517 210t-517 -210t-210 -517t210 -517t517 -210z" />
    <glyph glyph-name="uni24EB" unicode="&#x24eb;" 
d="M727 307h184v819h-184v-61q0 -51 -51 -51h-133v-174h184v-533zM1024 -164q-369 0 -625 256t-256 624.5t256 624.5t625 256t625 -256t256 -624.5t-256 -624.5t-625 -256zM1208 307h185v819h-185v-61q0 -51 -51 -51h-133v-174h184v-533z" />
    <glyph glyph-name="uni24EC" unicode="&#x24ec;" 
d="M655 307h185v819h-185v-61q0 -51 -51 -51h-133v-174h184v-533zM1024 -164q-369 0 -625 256t-256 624.5t256 624.5t625 256t625 -256t256 -624.5t-256 -624.5t-625 -256zM952 307h564v164h-308l195 184q123 117 123 236q0 111 -74 178.5t-203 67.5q-145 0 -216.5 -70
t-80.5 -186h195q0 82 92 82t92 -72q0 -68 -82 -143l-297 -277v-164z" />
    <glyph glyph-name="uni24ED" unicode="&#x24ed;" 
d="M645 307h184v819h-184v-61q0 -51 -51 -51h-133v-174h184v-533zM1024 -164q-369 0 -625 256t-256 624.5t256 624.5t625 256t625 -256t256 -624.5t-256 -624.5t-625 -256zM1239 297q150 0 223.5 76t73.5 180q0 123 -123 184q45 18 79 64.5t34 109.5q0 96 -78 161t-219.5 65
t-215 -68t-81.5 -188h194q8 43 30 62.5t73 19.5q102 0 102 -72q0 -82 -92 -82h-72v-164h72q47 0 74.5 -21.5t27.5 -60.5q0 -92 -102 -92q-96 0 -113 61h-194q8 -109 89 -172t218 -63z" />
    <glyph glyph-name="uni24EE" unicode="&#x24ee;" 
d="M645 307h184v819h-184v-61q0 -51 -51 -51h-133v-174h184v-533zM1024 -164q-369 0 -625 256t-256 624.5t256 624.5t625 256t625 -256t256 -624.5t-256 -624.5t-625 -256zM1270 307h184v174h123v164h-123v481h-225l-328 -481v-164h369v-174zM1096 645l164 246h10v-246h-174
z" />
    <glyph glyph-name="uni24EF" unicode="&#x24ef;" 
d="M645 307h184v819h-184v-61q0 -51 -51 -51h-133v-174h184v-533zM1024 -164q-369 0 -625 256t-256 624.5t256 624.5t625 256t625 -256t256 -624.5t-256 -624.5t-625 -256zM1239 297q143 0 225 81t82 208t-75.5 200.5t-200.5 73.5q-37 0 -70 -8t-49 -16l-14 -7h-11l15 134
h364v163h-512l-51 -471h184q25 51 103 52q133 0 133 -123q0 -113 -123 -113q-104 0 -123 72h-194q8 -106 97 -176t220 -70z" />
    <glyph glyph-name="uni24F0" unicode="&#x24f0;" 
d="M645 307h184v819h-184v-61q0 -51 -51 -51h-133v-174h184v-533zM1024 -164q-369 0 -625 256t-256 624.5t256 624.5t625 256t625 -256t256 -624.5t-256 -624.5t-625 -256zM1239 297q143 0 230 81t87 206t-85 205.5t-222 80.5h-30l174 256h-205l-184 -276q-82 -125 -82 -246
q0 -131 81.5 -219t235.5 -88zM1239 471q-61 0 -97 34t-36 89t36 89t97 34t97 -34t36 -89t-36 -89t-97 -34z" />
    <glyph glyph-name="uni24F1" unicode="&#x24f1;" 
d="M666 307h184v819h-184v-61q0 -51 -52 -51h-133v-174h185v-533zM1024 -164q-369 0 -625 256t-256 624.5t256 624.5t625 256t625 -256t256 -624.5t-256 -624.5t-625 -256zM1034 307h195l287 656v163h-543v-163h348z" />
    <glyph glyph-name="uni24F2" unicode="&#x24f2;" 
d="M655 307h185v819h-185v-61q0 -51 -51 -51h-133v-174h184v-533zM1024 -164q-369 0 -625 256t-256 624.5t256 624.5t625 256t625 -256t256 -624.5t-256 -624.5t-625 -256zM1239 297q137 0 222 66.5t85 179.5q0 135 -123 194q45 23 74 72t29 102q0 96 -77 161t-210 65
t-210 -64.5t-77 -161.5q0 -53 29 -102t74 -72q-123 -59 -123 -194q0 -113 85 -179.5t222 -66.5zM1239 461q-57 0 -90 30.5t-33 71.5t33 72t90 31t90 -31t33 -72t-33 -71.5t-90 -30.5zM1239 809q-51 0 -76.5 23.5t-25.5 58.5t25.5 58.5t76.5 23.5t76.5 -23.5t25.5 -58.5
t-25.5 -58.5t-76.5 -23.5z" />
    <glyph glyph-name="uni24F3" unicode="&#x24f3;" 
d="M655 307h185v819h-185v-61q0 -51 -51 -51h-133v-174h184v-533zM1024 -164q-369 0 -625 256t-256 624.5t256 624.5t625 256t625 -256t256 -624.5t-256 -624.5t-625 -256zM1085 307h205l185 277q82 125 81 245q0 131 -81.5 219.5t-235.5 88.5q-143 0 -230 -81t-87 -206
t85 -206t222 -81h31zM1239 717q-61 0 -97 33.5t-36 89t36 89.5t97 34t97 -34t36 -89.5t-36 -89t-97 -33.5z" />
    <glyph glyph-name="uni24F4" unicode="&#x24f4;" 
d="M420 307h563v164h-307l194 184q123 117 123 236q0 111 -73.5 178.5t-202.5 67.5q-145 0 -217 -70t-80 -186h194q0 82 92.5 82t92.5 -72q0 -68 -82 -143l-297 -277v-164zM1024 -164q-369 0 -625 256t-256 624.5t256 624.5t625 256t625 -256t256 -624.5t-256 -624.5
t-625 -256zM1341.5 297q151.5 0 244.5 109.5t93 310.5t-93 310.5t-244.5 109.5t-244.5 -109.5t-93 -310.5t93 -310.5t244.5 -109.5zM1341.5 471q-67.5 0 -110.5 61.5t-43 184.5t43 184.5t110.5 61.5t110.5 -61.5t43 -184.5t-43 -184.5t-110.5 -61.5z" />
    <glyph glyph-name="uni24FF" unicode="&#x24ff;" 
d="M1024 -164q-369 0 -625 256t-256 624.5t256 624.5t625 256t625 -256t256 -624.5t-256 -624.5t-625 -256zM1024 297q152 0 245 109.5t93 310.5t-93 310.5t-245 109.5t-245 -109.5t-93 -310.5t93 -310.5t245 -109.5zM1024 471q-68 0 -111 61.5t-43 184.5t43 184.5t111 61.5
t111 -61.5t43 -184.5t-43 -184.5t-111 -61.5z" />
    <glyph glyph-name="lozenge" unicode="&#x25ca;" horiz-adv-x="1228" 
d="M532 0l-460 717l460 717h164l461 -717l-461 -717h-164zM614 205l328 512l-328 512l-327 -512z" />
    <glyph glyph-name="uni2776" unicode="&#x2776;" 
d="M963 307h184v819h-184v-61q0 -51 -52 -51h-133v-174h185v-533zM1024 -164q-369 0 -625 256t-256 624.5t256 624.5t625 256t625 -256t256 -624.5t-256 -624.5t-625 -256z" />
    <glyph glyph-name="uni2777" unicode="&#x2777;" 
d="M1024 -164q-369 0 -625 256t-256 624.5t256 624.5t625 256t625 -256t256 -624.5t-256 -624.5t-625 -256zM748 307h563v164h-307l194 184q123 117 123 236q0 111 -73.5 178.5t-203.5 67.5q-145 0 -216.5 -70t-79.5 -186h194q0 82 92 82t92 -72q0 -68 -82 -143l-296 -277
v-164z" />
    <glyph glyph-name="uni2778" unicode="&#x2778;" 
d="M1024 -164q-369 0 -625 256t-256 624.5t256 624.5t625 256t625 -256t256 -624.5t-256 -624.5t-625 -256zM1044 297q150 0 223.5 76t73.5 180q0 123 -122 184q45 18 78.5 64.5t33.5 109.5q0 96 -77.5 161t-219 65t-215.5 -68t-82 -188h195q8 43 29.5 62.5t72.5 19.5
q102 0 103 -72q0 -82 -93 -82h-71v-164h71q47 0 75 -21.5t28 -60.5q0 -92 -103 -92q-98 0 -112 61h-195q8 -109 89 -172t218 -63z" />
    <glyph glyph-name="uni2779" unicode="&#x2779;" 
d="M850 645l164 246h10v-246h-174zM1024 307h184v174h123v164h-123v481h-225l-328 -481v-164h369v-174zM1024 -164q-369 0 -625 256t-256 624.5t256 624.5t625 256t625 -256t256 -624.5t-256 -624.5t-625 -256z" />
    <glyph glyph-name="uni277A" unicode="&#x277a;" 
d="M1024 -164q-369 0 -625 256t-256 624.5t256 624.5t625 256t625 -256t256 -624.5t-256 -624.5t-625 -256zM1034 297q143 0 225 81t82 208t-75.5 200.5t-200.5 73.5q-37 0 -69.5 -8t-49.5 -16l-14 -7h-10l14 134h364v163h-512l-51 -471h185q25 51 102 52q133 0 133 -123
q0 -113 -123 -113q-104 0 -123 72h-194q8 -106 97 -176t220 -70z" />
    <glyph glyph-name="uni277B" unicode="&#x277b;" 
d="M1024 471q-61 0 -97 34t-36 89t36 89t97 34t97 -34t36 -89t-36 -89t-97 -34zM1024 297q143 0 230 81t87 206t-85 205.5t-222 80.5h-30l174 256h-205l-185 -276q-82 -125 -81 -246q0 -131 81.5 -219t235.5 -88zM1024 -164q-369 0 -625 256t-256 624.5t256 624.5t625 256
t625 -256t256 -624.5t-256 -624.5t-625 -256z" />
    <glyph glyph-name="uni277C" unicode="&#x277c;" 
d="M1024 -164q-369 0 -625 256t-256 624.5t256 624.5t625 256t625 -256t256 -624.5t-256 -624.5t-625 -256zM829 307h195l287 656v163h-543v-163h348z" />
    <glyph glyph-name="uni277D" unicode="&#x277d;" 
d="M1022 461q-57 0 -90 30.5t-33 71.5t33 72t90 31t90 -31t33 -72t-33 -71.5t-90 -30.5zM1022 297q137 0 222 66.5t85 179.5q0 135 -123 194q45 23 74 72t29 102q0 96 -77 161t-210 65t-210 -64.5t-77 -161.5q0 -53 29 -102t74 -72q-123 -59 -123 -194q0 -113 85 -179.5
t222 -66.5zM1022 809q-51 0 -76.5 23.5t-25.5 58.5t25.5 58.5t76.5 23.5t76.5 -23.5t25.5 -58.5t-25.5 -58.5t-76.5 -23.5zM1024 -164q-369 0 -625 256t-256 624.5t256 624.5t625 256t625 -256t256 -624.5t-256 -624.5t-625 -256z" />
    <glyph glyph-name="uni277E" unicode="&#x277e;" 
d="M1024 -164q-369 0 -625 256t-256 624.5t256 624.5t625 256t625 -256t256 -624.5t-256 -624.5t-625 -256zM870 307h205l185 277q82 125 81 245q0 131 -81.5 219.5t-235.5 88.5q-143 0 -230 -81t-87 -206t85 -206t222 -81h30zM1024 717q-61 0 -97 33.5t-36 89t36 89.5
t97 34t97 -34t36 -89.5t-36 -89t-97 -33.5z" />
    <glyph glyph-name="uni277F" unicode="&#x277f;" 
d="M635 307h184v819h-184v-61q0 -51 -51 -51h-133v-174h184v-533zM1024 -164q-369 0 -625 256t-256 624.5t256 624.5t625 256t625 -256t256 -624.5t-256 -624.5t-625 -256zM1249.5 297q151.5 0 244.5 109.5t93 310.5t-93 310.5t-244.5 109.5t-245 -109.5t-93.5 -310.5
t93.5 -310.5t245 -109.5zM1249.5 471q-67.5 0 -110.5 61.5t-43 184.5t43 184.5t110.5 61.5t110.5 -61.5t43 -184.5t-43 -184.5t-110.5 -61.5z" />
    <glyph glyph-name="uni2921" unicode="&#x2921;" 
d="M676 1198l829 -829v307h195v-615l-21 -20h-614v195h307l-829 829v-307h-195v614l21 21h614v-195h-307z" />
    <glyph glyph-name="uni2922" unicode="&#x2922;" 
d="M543 369l829 829h-307v195h614l21 -21v-614h-195v307l-829 -829h307v-195h-614l-21 20v615h195v-307z" />
    <glyph glyph-name="uniE000" unicode="&#xe000;" 
d="M1413 1239h-1096v195h1096q139 0 218 -80t79 -217v-492q0 -137 -79 -217t-218 -80h-450l204 -205l-143 -143l-440 440v11l440 440l143 -143l-204 -205h450q45 0 74 27.5t29 74.5v492q0 47 -29 74.5t-74 27.5z" />
    <glyph glyph-name="uniE001" unicode="&#xe001;" 
d="M625 195h1095v-195h-1095q-137 0 -217 80t-80 217v491q0 137 79.5 217t217.5 80h450l-205 205l144 144l440 -441v-10l-440 -440l-144 143l205 205h-450q-47 0 -75 -27.5t-28 -75.5v-491q0 -47 28 -74.5t75 -27.5z" />
    <glyph glyph-name="uniE002" unicode="&#xe002;" 
d="M1362 1096l-424 -365v-8l424 -363l-137 -155l-600 518v8l600 518z" />
    <glyph glyph-name="uniE003" unicode="&#xe003;" 
d="M655 410l-153 133l518 600h8l518 -600l-153 -133l-365 419h-8z" />
    <glyph glyph-name="uniE004" unicode="&#xe004;" 
d="M1110 731l-424 365l137 153l600 -518v-8l-600 -518l-137 155l424 363v8z" />
    <glyph glyph-name="uniE005" unicode="&#xe005;" 
d="M502 922l153 133l365 -420h8l365 420l153 -133l-518 -600h-8z" />
    <glyph glyph-name="uniE006" unicode="&#xe006;" 
d="M1085 1096l-423 -365v-8l423 -363l-137 -155l-600 518v8l600 518zM1602 1096l-424 -365v-8l424 -363l-138 -155l-600 518v8l600 518z" />
    <glyph glyph-name="uniE007" unicode="&#xe007;" 
d="M655 139l-153 133l518 600h8l518 -600l-153 -133l-365 420h-8zM655 655l-153 133l518 601h8l518 -601l-153 -133l-365 420h-8z" />
    <glyph glyph-name="uniE008" unicode="&#xe008;" 
d="M870 731l-424 365l138 153l600 -518v-8l-600 -518l-138 155l424 363v8zM1386 731l-423 365l137 153l600 -518v-8l-600 -518l-137 155l423 363v8z" />
    <glyph glyph-name="uniE009" unicode="&#xe009;" 
d="M502 662l153 133l365 -420h8l365 420l153 -133l-518 -601h-8zM502 1178l153 133l365 -420h8l365 420l153 -133l-518 -600h-8z" />
    <glyph glyph-name="uniE00A" unicode="&#xe00a;" 
d="M1253 952l-268 -231v-8l268 -230l-135 -155l-446 385v8l446 385zM1024 -20q-315 0 -526 210.5t-211 526t211 526.5t526 211t526 -211t211 -526.5t-211 -526t-526 -210.5zM1024 174q231 0 387 155.5t156 387t-156 387.5t-387 156t-387 -156t-156 -387.5t156 -387
t387 -155.5z" />
    <glyph glyph-name="uniE00B" unicode="&#xe00b;" 
d="M1024 -20q-315 0 -526 210.5t-211 526t211 526.5t526 211t526 -211t211 -526.5t-211 -526t-526 -210.5zM1024 174q231 0 387 155.5t156 387t-156 387.5t-387 156t-387 -156t-156 -387.5t156 -387t387 -155.5zM788 471l-153 133l385 447h8l385 -447l-153 -133l-232 266h-8
z" />
    <glyph glyph-name="uniE00C" unicode="&#xe00c;" 
d="M1024 -20q-315 0 -526 210.5t-211 526t211 526.5t526 211t526 -211t211 -526.5t-211 -526t-526 -210.5zM1024 174q231 0 387 155.5t156 387t-156 387.5t-387 156t-387 -156t-156 -387.5t156 -387t387 -155.5zM1065 721l-268 231l135 154l446 -385v-8l-446 -385l-135 155
l268 230v8z" />
    <glyph glyph-name="uniE00D" unicode="&#xe00d;" 
d="M635 815l153 133l232 -266h8l232 266l153 -133l-385 -446h-8zM1024 -20q-315 0 -526 210.5t-211 526t211 526.5t526 211t526 -211t211 -526.5t-211 -526t-526 -210.5zM1024 174q231 0 387 155.5t156 387t-156 387.5t-387 156t-387 -156t-156 -387.5t156 -387t387 -155.5z
" />
    <glyph glyph-name="uniE00E" unicode="&#xe00e;" 
d="M932 348v195h194v-195h11l82 82l122 -123l-307 -307h-10l-307 307l123 123l82 -82h10zM338 819h1372v-194h-1372v194zM932 891v194h-10l-82 -81l-123 122l307 308h10l307 -308l-122 -122l-82 81h-11v-194h-194z" />
    <glyph glyph-name="uniE00F" unicode="&#xe00f;" 
d="M840 625h-195v-11l82 -82l-123 -122l-307 307v10l307 307l123 -123l-82 -82v-10h195v-194zM932 0v1434h194v-1434h-194zM1403 625h-195v194h195v10l-82 82l123 123l307 -307v-10l-307 -307l-123 122l82 82v11z" />
    <glyph glyph-name="uniE010" unicode="&#xe010;" 
d="M1024 287h10l164 164l143 -144l-307 -307h-10l-307 307l143 144zM338 819h1372v-194h-1372v194zM1034 1147h-10l-164 -164l-143 143l307 308h10l307 -308l-143 -143z" />
    <glyph glyph-name="uniE011" unicode="&#xe011;" 
d="M594 727v-10l164 -164l-144 -143l-307 307v10l307 307l144 -143zM932 0v1434h194v-1434h-194zM1454 717v10l-164 164l144 143l307 -307v-10l-307 -307l-144 143z" />
    <glyph glyph-name="uniE012" unicode="&#xe012;" 
d="M635 195h225v-195h-532l-21 20v533h195v-225l389 389l-389 389v-225h-195v532l21 21h532v-195h-225l389 -389l389 389h-225v195h532l21 -21v-532h-195v225l-389 -389l389 -389v225h195v-533l-21 -20h-532v195h225l-389 389z" />
    <glyph glyph-name="uniE013" unicode="&#xe013;" 
d="M932 614h-287v-10l86 -88l-117 -117l-307 308v10l307 307l117 -117l-86 -88v-10h287v287h-10l-88 -86l-117 116l307 308h10l307 -308l-116 -116l-88 86h-11v-287h277v10l-86 88l117 117l307 -307v-10l-307 -308l-117 117l86 88v10h-277v-276h11l88 86l116 -117l-307 -307
h-10l-307 307l117 117l88 -86h10v276z" />
    <glyph glyph-name="uniE014" unicode="&#xe014;" 
d="M618 379q-41 0 -68.5 27.5t-27.5 68.5t29 69.5t67 28.5h334v-194h-334zM516 625q-41 0 -68.5 27.5t-27.5 68.5t28.5 69.5t67.5 28.5h436v-194h-436zM332 860q-41 0 -68.5 29t-27.5 67q0 41 28.5 70t67.5 29h620v-195h-620zM1116 1116h-436q-41 0 -68.5 27.5t-27.5 68.5
t27.5 70t68.5 29h508l225 -164h307v-1024h-989q-39 0 -67.5 28.5t-28.5 67.5q0 41 27.5 69.5t68.5 28.5h795v635h-185z" />
    <glyph glyph-name="uniE015" unicode="&#xe015;" 
d="M1423 594v395q0 39 28 67.5t69 28.5t69.5 -27.5t28.5 -68.5v-467l-164 -225v-297h-1024v938q0 41 28.5 68.5t67.5 27.5q41 0 70 -27.5t29 -68.5v-743h635v174zM686 778v273q0 39 27.5 67.5t68.5 28.5t70 -28.5t29 -67.5v-273h-195zM932 778v375q0 39 27.5 67.5t68.5 28.5
t69.5 -28.5t28.5 -67.5v-375h-194zM1167 778v559q0 39 29 68t68 29q41 0 69.5 -29t28.5 -68v-559h-195z" />
    <glyph glyph-name="uniE016" unicode="&#xe016;" 
d="M1368 1116h-436l-225 -164h-185v-635h795q41 0 68.5 -28.5t27.5 -69.5q0 -39 -28.5 -67.5t-67.5 -28.5h-989v1024h307l225 164h508q41 0 68.5 -29t27.5 -70t-27.5 -68.5t-68.5 -27.5zM1430 379h-334v194h334q39 0 67.5 -28.5t28.5 -69.5t-27.5 -68.5t-68.5 -27.5z
M1532 625h-436v194h436q39 0 67.5 -28.5t28.5 -69.5t-27.5 -68.5t-68.5 -27.5zM1716 860h-620v195h620q39 0 67.5 -29t28.5 -70q0 -39 -27.5 -67.5t-68.5 -28.5z" />
    <glyph glyph-name="uniE017" unicode="&#xe017;" 
d="M881 655v-559q0 -39 -29 -67.5t-68 -28.5q-41 0 -69.5 28.5t-28.5 67.5v559h195zM1116 655v-374q0 -39 -27.5 -68t-68.5 -29t-69.5 29t-28.5 68v374h194zM1362 655v-272q0 -39 -27.5 -67.5t-68.5 -28.5t-70 28.5t-29 67.5v272h195zM625 840v-396q0 -39 -28 -67.5
t-69 -28.5t-69.5 27.5t-28.5 68.5v467l164 226v297h1024v-938q0 -41 -28.5 -69t-67.5 -28q-41 0 -70 28t-29 69v743h-635v-174z" />
    <glyph glyph-name="uniE018" unicode="&#xe018;" 
d="M922 287v850q0 47 -29 74.5t-74 27.5h-276v-942h276q45 0 92 -10h11zM1229 1434h461v-1332h-471q-47 0 -75 -28.5t-28 -73.5h-194q0 45 -29 73.5t-74 28.5h-471v1332h471q63 0 112.5 -18.5t65.5 -35.5l17 -18h20q6 8 18.5 20.5t63 32t113.5 19.5zM1116 1137v-850h10
q47 10 93 10h276v942h-276q-47 0 -75 -27.5t-28 -74.5z" />
    <glyph glyph-name="uniE019" unicode="&#xe019;" 
d="M1024 -20q-315 0 -526 210.5t-211 526t211 526.5t526 211t526 -211t211 -526.5t-211 -526t-526 -210.5zM1024 174q231 0 387 155.5t156 387t-156 387.5t-387 156t-387 -156t-156 -387.5t156 -387t387 -155.5zM922 328v297h-287v194h287v287h194v-287h297v-194h-297v-297
h-194z" />
    <glyph glyph-name="uniE01A" unicode="&#xe01a;" 
d="M573 1300l451 -450l451 450l133 -133l-451 -450l451 -451l-133 -133l-451 451l-451 -451l-133 133l451 451l-451 450z" />
    <glyph glyph-name="uniE01B" unicode="&#xe01b;" 
d="M575 401l762 762q-137 96 -313 97q-231 0 -387 -156t-156 -387q0 -177 94 -316zM1024 -20q-315 0 -526 210.5t-211 526t211 526.5t526 211t526 -211t211 -526.5t-211 -526t-526 -210.5zM1470 1030l-761 -762q139 -94 315 -94q231 0 387 155.5t156 387.5q-1 176 -97 313z
" />
    <glyph glyph-name="uniE01C" unicode="&#xe01c;" 
d="M707 1137v-349l92 93l143 -144l-328 -327h-10l-328 327l144 144l92 -93v349q0 137 80 217t217 80h635v-195h-635q-47 0 -74.5 -27.5t-27.5 -74.5zM1341 297v348l-92 -92l-143 143l328 328h10l328 -328l-144 -143l-92 92v-348q0 -137 -80 -217t-217 -80h-635v195h635
q47 0 74.5 27.5t27.5 74.5z" />
    <glyph glyph-name="uniE01D" unicode="&#xe01d;" 
d="M809 623q131 0 219 90t88 221q0 127 -89 215t-218 88q-127 0 -215 -89t-92 -218q0 -129 90 -218t217 -89zM791 930h-218q0 100 68 168.5t168 68.5v-217q-18 0 -18 -20zM1313 930q0 -33 -13 -94l355 -351q86 -86 86 -188q0 -115 -109 -211q-88 -86 -188 -86
q-102 0 -189 86l-352 352q-51 -10 -94 -10q-207 2 -354.5 148.5t-147.5 353.5t148.5 355.5t353.5 148.5q209 0 357.5 -148.5t146.5 -355.5zM1096 520l282 -282q20 -20 52 -21q37 0 64.5 32t27.5 58q0 35 -21 55l-280 281q-51 -72 -125 -123z" />
    <glyph glyph-name="uniE01E" unicode="&#xe01e;" 
d="M522 297q0 -43 30 -72.5t73 -29.5t72.5 29.5t29.5 72.5t-29.5 72.5t-72.5 29.5t-73 -29.5t-30 -72.5zM1126 678v65l-309 166q-86 -70 -192 -69q-123 0 -210 87t-87 210t87 210t210 87t210 -87t87 -210v-19l323 -174q80 59 178 60q123 0 210 -87.5t87 -210t-87 -209.5
t-210 -87q-104 0 -184 63l-317 -170v-6q0 -123 -87 -210t-210 -87t-210 87t-87 210t87 210t210 87q111 0 198 -78zM522 1137q0 -43 30 -73t73 -30t72.5 30t29.5 73t-29.5 72.5t-72.5 29.5t-73 -29.5t-30 -72.5zM1321 707q0 -43 29.5 -73t72.5 -30t73 30t30 73t-30 72.5
t-73 29.5t-72.5 -29.5t-29.5 -72.5z" />
    <glyph glyph-name="uniE01F" unicode="&#xe01f;" 
d="M1567 717h194q0 -315 -211 -526t-526 -211q-330 0 -543 229v-229h-194v512l20 20h512v-195h-170q154 -143 375 -143q231 0 387 156t156 387zM481 717h-194q0 315 211 526t526 211q330 0 543 -229v229h194v-512l-20 -20h-512v194h170q-154 143 -375 144q-231 0 -387 -156
t-156 -387z" />
    <glyph glyph-name="uniE020" unicode="&#xe020;" 
d="M1024 1260v194q315 0 526 -211t211 -526.5t-211 -526t-526 -210.5t-526 210.5t-211 526.5q0 328 227 543h-227v194h512l20 -20v-512h-194v170q-143 -154 -144 -375q0 -231 156 -387t387 -156t387 155.5t156 387t-156 387.5t-387 156z" />
    <glyph glyph-name="uniE021" unicode="&#xe021;" 
d="M1567 717h194q0 -256 -145 -451l125 -123l-133 -133l-123 123q-195 -154 -461 -153q-330 0 -543 229v-229h-194v512l20 20h512v-195h-170q154 -143 375 -143q178 0 319 98l-763 764q-98 -141 -99 -319h-194q0 266 153 461l-112 112l133 133l112 -114q195 145 451 145
q330 0 543 -229v229h194v-512l-20 -20h-512v194h170q-154 143 -375 144q-168 0 -309 -93l760 -759q92 141 92 309z" />
    <glyph glyph-name="uniE022" unicode="&#xe022;" 
d="M922 0v297h-11l-88 -86l-116 117l307 307h10l307 -307l-117 -117l-88 86h-10v-297h-194zM1372 195h133q47 0 75 27.5t28 74.5v410q0 47 -28 74.5t-75 27.5h-205v328q0 47 -27.5 74.5t-74.5 27.5h-51q-45 0 -74 -27.5t-29 -74.5v-185h-204q-45 0 -74 -27.5t-29 -74.5v-195
h-205q-45 0 -73.5 -28.5t-28.5 -73.5v-256q0 -47 28.5 -74.5t73.5 -27.5h134v-195h-134q-139 0 -217.5 80t-78.5 217v256q0 139 78.5 218t217.5 79h11q0 137 78.5 217t218.5 80h10q0 131 80 209t217 78h51q137 0 217 -80t80 -217v-133h10q137 0 217 -80t80 -217v-410
q0 -137 -80 -217t-217 -80h-133v195z" />
    <glyph glyph-name="uniE023" unicode="&#xe023;" 
d="M1116 635v-297h10l88 86l117 -117l-307 -307h-10l-307 307l116 117l88 -86h11v297h194zM1372 195h133q47 0 75 27.5t28 74.5v410q0 47 -28 74.5t-75 27.5h-205v328q0 47 -27.5 74.5t-74.5 27.5h-51q-45 0 -74 -27.5t-29 -74.5v-185h-204q-45 0 -74 -27.5t-29 -74.5v-195
h-205q-45 0 -73.5 -28.5t-28.5 -73.5v-256q0 -47 28.5 -74.5t73.5 -27.5h134v-195h-134q-139 0 -217.5 80t-78.5 217v256q0 139 78.5 218t217.5 79h11q0 137 78.5 217t218.5 80h10q0 131 80 209t217 78h51q137 0 217 -80t80 -217v-133h10q137 0 217 -80t80 -217v-410
q0 -137 -80 -217t-217 -80h-133v195z" />
    <glyph glyph-name="uniE024" unicode="&#xe024;" 
d="M440 0v1434h1168v-1434h-340l-244 410l-242 -410h-342zM635 195h31l256 440h204l256 -440h31v1044h-778v-1044z" />
    <glyph glyph-name="uniE025" unicode="&#xe025;" 
d="M451 266l122 -123l697 697l-123 123zM1352 1434l389 -390l-1045 -1044h-409v369zM1260 1075l122 -123l113 113l-123 123z" />
    <glyph glyph-name="uniE026" unicode="&#xe026;" 
d="M717 195h614q45 0 74 27.5t29 74.5v635h-134v-615h-184v615h-184v-615h-184v615h-134v-635q0 -47 29 -74.5t74 -27.5zM1628 932v-635q0 -137 -79 -217t-218 -80h-614q-139 0 -218 80t-79 217v635h-82v194h317v308h738v-308h317v-194h-82zM850 1126h348v113h-348v-113z
" />
    <glyph glyph-name="uniE027" unicode="&#xe027;" 
d="M1024 -20q-315 0 -526 210.5t-211 526t211 526.5t526 211t526 -211t211 -526.5t-211 -526t-526 -210.5zM1024 174q231 0 387 155.5t156 387t-156 387.5t-387 156t-387 -156t-156 -387.5t156 -387t387 -155.5zM778 1096l246 -246l246 246l133 -133l-246 -246l236 -236
l-133 -133l-236 236l-236 -236l-133 133l236 236l-246 246z" />
    <glyph glyph-name="uniE028" unicode="&#xe028;" 
d="M1559 819l131 225q72 -150 71 -327q0 -315 -211 -526t-526 -211t-526 210.5t-211 526t211 526.5t526 211q184 0 348 -82l-102 -168q-115 55 -246 56q-231 0 -387 -156t-156 -387.5t156 -387t387 -155.5t387 155.5t156 387.5q0 71 -8 102zM1722 1356l-606 -1059h-184
l-301 524l170 97l211 -375h24l518 907z" />
    <glyph glyph-name="uniE029" unicode="&#xe029;" 
d="M317 0v1434h912v-195h-717v-1044h1024v624h195v-819h-1414zM1692 1356l-607 -1059h-184l-301 524l170 97l211 -375h25l518 907z" />
    <glyph glyph-name="uniE02A" unicode="&#xe02a;" 
d="M573 195h267v512h358v-512h266v604l-440 368h-10l-441 -368v-604zM379 0v696h-82v103l717 635h10l236 -211v149h296v-409l185 -164v-103h-82v-696h-1280z" />
    <glyph glyph-name="uniE02B" unicode="&#xe02b;" 
d="M553 307v185h430v-185h-430zM553 573v185h532v-185h-532zM440 1239v-942q0 -47 28 -74.5t75 -27.5h669q-14 47 -14 102v942h-758zM553 952v185h532v-185h-532zM1495 0h-952q-137 0 -217 80t-80 217v1137h1147v-349h399v-788q0 -137 -79 -217t-218 -80zM1495 195
q45 0 73.5 27.5t28.5 74.5v594h-204v-594q0 -47 28.5 -74.5t73.5 -27.5z" />
    <glyph glyph-name="uniE02C" unicode="&#xe02c;" 
d="M922 307v594h194v-594h-194zM1024 -20q-315 0 -526 210.5t-211 526t211 526.5t526 211t526 -211t211 -526.5t-211 -526t-526 -210.5zM1024 174q231 0 387 155.5t156 387t-156 387.5t-387 156t-387 -156t-156 -387.5t156 -387t387 -155.5zM1024 952q-45 0 -73.5 28
t-28.5 75t28.5 74.5t73.5 27.5t73.5 -27.5t28.5 -74.5t-28.5 -75t-73.5 -28z" />
    <glyph glyph-name="uniE02D" unicode="&#xe02d;" 
d="M276 0v1434h809v-195h-614v-1044h1096v583h194v-778h-1485zM1071 608l-133 133l496 498h-205v195h512l20 -21v-491h-194v184z" />
    <glyph glyph-name="uniE02E" unicode="&#xe02e;" 
d="M512 195h1024v696h-1024v-696zM686 553v195h676v-195h-676zM317 0v1434h1414v-1434h-1414zM512 1085h1024v154h-1024v-154z" />
    <glyph glyph-name="uniE02F" unicode="&#xe02f;" 
d="M317 0v1434h1414v-1434h-1414zM522 205h1004v1024h-1004v-1024zM840 397l-31 23l31 225l-144 143l11 41l215 41l92 205h41l92 -205l215 -41l10 -41l-143 -143l31 -225l-31 -23l-195 107z" />
    <glyph glyph-name="uniE030" unicode="&#xe030;" 
d="M655 195h738q45 0 73.5 27.5t28.5 74.5v276h-256v-204h-430v204h-256v-276q0 -47 28.5 -74.5t73.5 -27.5zM942 1434h164q139 0 218 -80t79 -217v-11h287v-829q0 -137 -79 -217t-218 -80h-738q-139 0 -218 80t-79 217v829h287v11q0 137 79 217t218 80zM553 768h942v164
h-942v-164zM1208 1126v11q0 47 -28.5 74.5t-73.5 27.5h-164q-45 0 -73.5 -27.5t-28.5 -74.5v-11h368z" />
    <glyph glyph-name="uniE031" unicode="&#xe031;" 
d="M338 102v195h1372v-195h-1372zM338 625v194h1372v-194h-1372zM338 1137v194h1372v-194h-1372z" />
    <glyph glyph-name="uniE032" unicode="&#xe032;" 
d="M922 522v400h194v-400h-194zM1731 1137v-574q0 -137 -79 -217t-218 -80h-205l-195 -266h-368v266h-52q-139 0 -218 80t-79 217v574q0 137 79 217t218 80h820q139 0 218 -80t79 -217zM1147 461h287q45 0 73.5 27.5t28.5 74.5v574q0 47 -28.5 74.5t-73.5 27.5h-820
q-45 0 -73.5 -27.5t-28.5 -74.5v-574q0 -47 28.5 -74.5t73.5 -27.5h246v-266h92zM1024 983q-45 0 -73.5 28.5t-28.5 73.5t28.5 74t73.5 29t73.5 -29t28.5 -74t-28.5 -73.5t-73.5 -28.5z" />
    <glyph glyph-name="uniE033" unicode="&#xe033;" 
d="M748 748h552q137 0 217 -79t80 -218v-451h-1146v451q0 139 80 218t217 79zM1403 195v256q0 45 -27.5 73.5t-75.5 28.5h-112l-154 -156h-20l-154 156h-112q-47 0 -75 -28.5t-28 -73.5v-256h758zM1055 829h-62q-137 0 -217 79t-80 218v308h656v-308q0 -139 -80 -218
t-217 -79zM993 1024h62q47 0 74.5 28.5t27.5 73.5v113h-266v-113q0 -45 27.5 -73.5t74.5 -28.5z" />
    <glyph glyph-name="uniE034" unicode="&#xe034;" 
d="M440 0v1434h779l389 -390v-1044h-1168zM635 195h778v768h-317v276h-461v-1044z" />
    <glyph glyph-name="uniE035" unicode="&#xe035;" 
d="M748 297v195h409v-195h-409zM748 584v194h552v-194h-552zM440 0v1434h779l389 -390v-1044h-1168zM635 195h778v768h-317v276h-461v-1044z" />
    <glyph glyph-name="uniE036" unicode="&#xe036;" 
d="M707 307v51l256 256l133 -133l30 31l185 -184v-21h-604zM440 0v1434h779l389 -390v-1044h-1168zM635 195h778v768h-317v276h-461v-1044zM1137 614q-43 0 -73 30t-30 73q0 41 30 71.5t73 30.5q41 0 71.5 -30.5t30.5 -71.5q0 -43 -30.5 -73t-71.5 -30z" />
    <glyph glyph-name="uniE037" unicode="&#xe037;" 
d="M1321 348l-102 103l-103 -103h-215v10l154 154l-82 82l-246 -246h-215v10l461 461l194 -194l52 51l317 -318v-10h-215zM215 0v1434h1618v-1434h-1618zM410 195h1228v1044h-1228v-1044zM1229 881q-43 0 -73 29.5t-30 72.5q0 41 30 71.5t73 30.5q41 0 71.5 -30.5
t30.5 -71.5q0 -43 -30.5 -72.5t-71.5 -29.5z" />
    <glyph glyph-name="uniE038" unicode="&#xe038;" 
d="M512 195h1024v512h-1024v-512zM317 0v1434h502l88 -185h824v-1249h-1414zM512 901h1024v154h-1024v-154z" />
    <glyph glyph-name="uniE039" unicode="&#xe039;" 
d="M500 195l104 706h871v154h-1024v-860h49zM674 195h911l76 512h-911zM1731 0h-1475v1434h502l88 -185h823v-348h174v-143z" />
    <glyph glyph-name="uniE03A" unicode="&#xe03a;" 
d="M819 0l-174 72q29 66 28 122t-13.5 79.5t-34.5 54.5q-23 29 -83.5 42t-172.5 -12q-70 162 -72 164q154 66 154 205t-154 205l72 164q113 -25 173 -11.5t83 41.5q23 31 35 54.5t13 80t-28 121.5l174 72q29 -66 73 -105.5t73.5 -49t58.5 -9.5t58.5 9.5t73.5 49.5t73 105
l174 -72q-29 -66 -28 -122t13.5 -79.5t34.5 -54.5q23 -29 83.5 -42t172.5 12q70 -162 72 -164q-154 -66 -154 -205t154 -205l-72 -164q-113 25 -173 11.5t-83 -41.5q-23 -31 -35 -54.5t-13 -80t28 -121.5l-174 -72q-29 66 -73 105.5t-73.5 49t-58.5 9.5t-58.5 -9.5
t-73.5 -49t-73 -105.5zM625 584l16 -37q57 0 129 -74q74 -72 74 -129l37 -16q41 41 143 41t143 -41l37 16q0 57 74 129q72 74 129 74q16 35 16 37q-41 41 -41 143t41 143l-16 37q-57 0 -129 74q-74 72 -74 129q-35 16 -37 16q-41 -41 -143 -41t-143 41l-37 -16
q0 -57 -74 -129q-72 -74 -129 -74l-16 -37q41 -41 41 -143t-41 -143zM1024 543q-78 0 -131 54t-53 130t53 130t131 54q76 0 130 -54t54 -130t-54 -130t-130 -54z" />
    <glyph glyph-name="uniE03B" unicode="&#xe03b;" 
d="M553 553l-164 72l31 71l-72 72l-72 -20l-71 153l71 37v127l-71 41l71 154l72 -21l80 80l-29 63l144 72l30 -72h170l35 72l144 -72l-31 -71l76 -74l77 23l72 -154l-82 -41v-123l82 -41l-72 -153l-81 20l-72 -72l41 -71l-164 -72l-35 72h-145zM655 778q90 0 158 67.5
t68 158t-68 158t-158 67.5t-157.5 -67.5t-67.5 -158t67.5 -158t157.5 -67.5zM655 901q-45 0 -73.5 28.5t-28.5 74t28.5 74t73.5 28.5t74 -28.5t29 -74t-29 -74t-74 -28.5zM1280 -20l-164 71l31 72l-72 72l-71 -21l-72 154l72 37v127l-72 40l72 154l71 -20l80 79l-29 64
l144 72l30 -72h170l35 72l144 -72l-31 -72l76 -73l78 22l71 -154l-82 -40v-123l82 -41l-71 -154l-82 21l-72 -72l41 -72l-164 -71l-35 71h-145zM1382.5 205q90.5 0 158 67.5t67.5 157.5t-67.5 157.5t-158 67.5t-158 -67.5t-67.5 -157.5t67.5 -157.5t158 -67.5zM1382.5 328
q-47.5 0 -75 28.5t-27.5 73.5t27.5 73.5t75 28.5t75 -28.5t27.5 -73.5t-27.5 -73.5t-75 -28.5z" />
    <glyph glyph-name="uniE03C" unicode="&#xe03c;" 
d="M932 1219v-410h-406q35 -84 111 -135t172 -51q131 0 219 90t88 221q0 96 -50 172t-134 113zM391 1208h39l215 -215h103v103l-216 215v41q127 82 277 82q209 0 355.5 -147.5t146.5 -354.5q0 -45 -11 -96l355 -351q86 -86 86 -188q0 -115 -109 -211q-88 -86 -188 -86
q-102 0 -189 86l-352 352q-51 -10 -94 -10q-207 2 -354.5 148.5t-147.5 353.5q0 151 84 278zM1096 520l282 -282q20 -20 52 -21q37 0 64.5 32t27.5 58q0 35 -21 55l-280 281q-51 -72 -125 -123z" />
    <glyph glyph-name="uniE03D" unicode="&#xe03d;" 
d="M317 666v297q0 139 79 218t218 79l72 -11q0 125 100.5 221.5t237.5 96.5t237.5 -96.5t100.5 -221.5q41 10 72 11q139 0 218 -79t79 -218v-666q0 -137 -79 -217t-218 -80h-820q-139 0 -218 80t-79 217v246h261q37 -82 129 -82q59 0 101 42t42 101.5t-42 101.5t-101 42
q-43 0 -80 -23t-54 -59h-256zM512 963v-72h20q86 51 175 51q139 0 238 -99.5t99 -238.5t-99 -238.5t-238 -99.5q-109 0 -195 51v-20q0 -47 28.5 -74.5t73.5 -27.5h820q45 0 73.5 27.5t28.5 74.5v666q0 45 -28.5 73.5t-73.5 28.5q-29 0 -136.5 -26.5t-160.5 -45.5h-41v111
q72 41 71 125q0 59 -42 101t-101 42t-101 -42t-42 -101q0 -82 71 -123v-113h-41q-215 72 -297 72q-45 0 -73.5 -28.5t-28.5 -73.5z" />
    <glyph glyph-name="uniE03E" unicode="&#xe03e;" 
d="M1444 297v840q0 47 -27.5 74.5t-75.5 27.5h-716q-47 0 -75 -27.5t-28 -74.5v-840q0 -47 28 -74.5t75 -27.5h716q47 0 75 27.5t28 74.5zM1229 991l110 -139l-399 -315l-250 163l109 154l141 -90zM1638 1167h21q57 0 100 -30.5t43 -81.5v-205q0 -51 -43 -82t-100 -31h-21
v-440q0 -137 -79.5 -217t-217.5 -80h-716q-137 0 -217 80t-80 217v840q0 137 79.5 217t217.5 80h716q135 0 216 -75t81 -192z" />
    <glyph glyph-name="uniE03F" unicode="&#xe03f;" 
d="M317 297v840q0 137 79 217t218 80h820q139 0 218 -80t79 -217v-840q0 -137 -79 -217t-218 -80h-820q-139 0 -218 80t-79 217zM1536 297v840q0 47 -28.5 74.5t-73.5 27.5h-820q-45 0 -73.5 -27.5t-28.5 -74.5v-840q0 -47 28.5 -74.5t73.5 -27.5h820q45 0 73.5 27.5
t28.5 74.5zM809 369q-113 0 -113 112v471q0 113 113 113h430q113 0 113 -113v-471q0 -113 -113 -112h-430z" />
    <glyph glyph-name="uniE040" unicode="&#xe040;" 
d="M655.5 471q112.5 0 189.5 77t77 189.5t-77 189.5t-189.5 77t-189.5 -77t-77 -189.5t77 -189.5t189.5 -77zM1382 266h-716q-195 0 -333 138.5t-138 333t138 332.5t333 138h716q199 0 335 -135t136 -335.5t-136 -336t-335 -135.5zM1137 737.5q0 -143.5 -72 -256.5v-10h328
q113 0 189.5 77t76.5 189.5t-77 189.5t-189 77h-328v-11q72 -112 72 -255.5z" />
    <glyph glyph-name="uniE041" unicode="&#xe041;" 
d="M1382 266h-716q-199 0 -335 135.5t-136 336t136 335.5t335 135h716q195 0 333 -138t138 -332.5t-138 -333t-333 -138.5zM1392.5 471q112.5 0 189.5 77t77 189.5t-77 189.5t-189.5 77t-189.5 -77t-77 -189.5t77 -189.5t189.5 -77z" />
    <glyph glyph-name="uniE042" unicode="&#xe042;" 
d="M922 287v225q-31 31 -31 82q0 53 35 88t88 35t88 -35t35 -88q0 -51 -31 -82v-225h-184zM737 195h574q45 0 73.5 27.5t28.5 74.5v502h-778v-502q0 -47 28.5 -74.5t73.5 -27.5zM973 1434h102q137 0 217 -80t80 -217v-144h236v-696q0 -137 -79 -217t-218 -80h-574
q-139 0 -218 80t-79 217v696h236v144q0 137 80 217t217 80zM1178 993v144q0 47 -28 74.5t-75 27.5h-102q-47 0 -75 -27.5t-28 -74.5v-144h308z" />
    <glyph glyph-name="uniE043" unicode="&#xe043;" 
d="M922 287v225q-31 31 -31 82q0 53 35 88t88 35t88 -35t35 -88q0 -51 -31 -82v-225h-184zM737 195h574q45 0 73.5 27.5t28.5 74.5v502h-778v-502q0 -47 28.5 -74.5t73.5 -27.5zM870 1106v-113h738v-696q0 -137 -79 -217t-218 -80h-574q-139 0 -218 80t-79 217v696h236v113
q0 113 96 209l74 74q96 96 209 96q121 0 211 -96l59 -64l-137 -137l-62 63q-37 33 -71 33q-39 0 -72 -33l-74 -73q-39 -39 -39 -72z" />
    </font>
</defs>
</svg>
