<?xml version="1.0" standalone="no"?>
<!DOCTYPE svg PUBLIC "-//W3C//DTD SVG 1.1//EN" "http://www.w3.org/Graphics/SVG/1.1/DTD/svg11.dtd" >
<svg xmlns="http://www.w3.org/2000/svg" xmlns:xlink="http://www.w3.org/1999/xlink" version="1.1">
<metadata>
Created by FontForge 20170731 at Sat Sep 21 10:51:32 2019
 By Aleksey,,,
Copyright (c) 2019 by TypeType. Designers Ivan Gladkikh, Pavel Emelyanov. Technical designers Marina Khodak, Kseniya Karataeva, Nadezhda Polomoshnova, Yuri Nako, Nadyr Rakhimov, Victor Rubenko. All rights reserved. Desktop use is strictly prohibited.
</metadata>
<defs>
<font id="TTInterfaces-DemiBold" horiz-adv-x="2048" >
  <font-face 
    font-family="TT Interfaces DemiBold"
    font-weight="600"
    font-stretch="normal"
    units-per-em="2048"
    panose-1="2 0 5 3 2 0 0 2 0 4"
    ascent="1638"
    descent="-410"
    x-height="1085"
    cap-height="1434"
    bbox="-1085 -512 2945 2048"
    underline-thickness="0"
    underline-position="0"
    unicode-range="U+000D-FB04"
  />
<missing-glyph horiz-adv-x="0" 
 />
    <glyph glyph-name="uniFB00" unicode="ff" horiz-adv-x="1413" 
d="M215 0v870h-174v215h174v93q0 139 83 218t234 79h185v-215h-154q-51 0 -81.5 -33t-30.5 -80v-62h419v93q0 139 83 218t235 79h184v-215h-153q-51 0 -82 -33t-31 -80v-62h266v-215h-266v-870h-236v870h-419v-870h-236z" />
    <glyph glyph-name="uniFB01" unicode="fi" horiz-adv-x="1239" 
d="M215 0v870h-174v215h174v93q0 139 83 218t234 79h185v-215h-154q-51 0 -81.5 -33t-30.5 -80v-62h655v-1085h-236v870h-419v-870h-236zM987 1208q-63 0 -105 41t-42 102.5t42 102.5t105 41q66 0 108 -41t42 -102.5t-42 -102.5t-108 -41z" />
    <glyph glyph-name="uniFB02" unicode="fl" horiz-adv-x="1249" 
d="M215 0v870h-174v215h174v93q0 139 83 218t234 79h574v-1475h-236v1260h-307q-51 0 -81.5 -33t-30.5 -80v-62h266v-215h-266v-870h-236z" />
    <glyph glyph-name="uniFB03" unicode="ffi" horiz-adv-x="1894" 
d="M215 0v870h-174v215h174v93q0 139 83 218t234 79h185v-215h-154q-51 0 -81.5 -33t-30.5 -80v-62h419v93q0 139 83 218t235 79h184v-215h-153q-51 0 -82 -33t-31 -80v-62h655v-1085h-235v870h-420v-870h-236v870h-419v-870h-236zM1642 1208q-63 0 -105 41t-42 102.5
t42 102.5t105 41q66 0 108 -41t42 -102.5t-42 -102.5t-108 -41z" />
    <glyph glyph-name="uniFB04" unicode="ffl" horiz-adv-x="1904" 
d="M215 0v870h-174v215h174v93q0 139 83 218t234 79h185v-215h-154q-51 0 -81.5 -33t-30.5 -80v-62h419v93q0 139 83 218t235 79h573v-1475h-235v1260h-307q-51 0 -82 -33t-31 -80v-62h266v-215h-266v-870h-236v870h-419v-870h-236z" />
    <glyph glyph-name="f_f_j.liga" unicode="ffj" horiz-adv-x="1894" 
d="M1249 -410v205h164q47 0 80 31t33 82v962h-420v-870h-236v870h-419v-870h-236v870h-174v215h174v93q0 139 83 218t234 79h185v-215h-154q-51 0 -81.5 -33t-30.5 -80v-62h419v93q0 139 83 218t235 79h184v-215h-153q-51 0 -82 -33t-31 -80v-62h655v-1198q0 -145 -82 -221
t-235 -76h-195zM1642 1208q-63 0 -105 41t-42 102.5t42 102.5t105 41q66 0 108 -41t42 -102.5t-42 -102.5t-108 -41z" />
    <glyph glyph-name="f_j.liga" unicode="fj" horiz-adv-x="1239" 
d="M594 -410v205h164q47 0 79.5 31t32.5 82v962h-419v-870h-236v870h-174v215h174v93q0 139 83 218t234 79h185v-215h-154q-51 0 -81.5 -33t-30.5 -80v-62h655v-1198q0 -145 -82 -221t-236 -76h-194zM987 1208q-63 0 -105 41t-42 102.5t42 102.5t105 41q66 0 108 -41
t42 -102.5t-42 -102.5t-108 -41z" />
    <glyph glyph-name=".notdef" horiz-adv-x="0" 
 />
    <glyph glyph-name="glyph1" horiz-adv-x="0" 
 />
    <glyph glyph-name="glyph1" horiz-adv-x="0" 
 />
    <glyph glyph-name="glyph2" horiz-adv-x="681" 
 />
    <glyph glyph-name="uni000D" unicode="&#xd;" horiz-adv-x="0" 
 />
    <glyph glyph-name="space" unicode=" " horiz-adv-x="450" 
 />
    <glyph glyph-name="exclam" unicode="!" horiz-adv-x="593" 
d="M297 -10q-61 0 -102 41t-41 102.5t41 102t102 40.5t102 -40.5t41 -102t-41 -102.5t-102 -41zM205 451l-31 860v123h246v-123l-31 -860h-184z" />
    <glyph glyph-name="quotedbl" unicode="&#x22;" horiz-adv-x="798" 
d="M123 973v461h215v-461h-215zM461 973v461h215v-461h-215z" />
    <glyph glyph-name="numbersign" unicode="#" horiz-adv-x="1361" 
d="M184 0l76 358h-219l41 205h223l66 307h-228l41 205h230l78 359h215l-78 -359h256l78 359h215l-78 -359h221l-41 -205h-223l-66 -307h228l-41 -205h-232l-76 -358h-215l76 358h-256l-76 -358h-215zM520 563h256l66 307h-256z" />
    <glyph glyph-name="dollar" unicode="$" horiz-adv-x="1259" 
d="M512 -225v213q-188 25 -306 134t-145 288h256q25 -96 106 -150.5t202 -54.5q150 0 223.5 54t73.5 151q0 63 -45.5 104t-116 62.5t-156.5 39t-173 44t-157.5 67.5t-115.5 122t-45 195q0 166 107.5 271.5t291.5 130.5v213h256v-217q166 -31 264 -128t125 -249h-256
q-49 164 -276 164q-125 0 -190.5 -51.5t-65.5 -133.5q0 -90 84 -139t204.5 -74.5t241.5 -60.5t205 -124t84 -236q0 -156 -111.5 -271.5t-308.5 -146.5v-217h-256z" />
    <glyph glyph-name="percent" unicode="%" horiz-adv-x="1556" 
d="M225 0l891 1434h215l-891 -1434h-215zM1157.5 -20q-147.5 0 -238 92t-90.5 245.5t90.5 245.5t238 92t237.5 -92t90 -245.5t-90 -245.5t-237.5 -92zM1157 143q70 0 112 45t42 129t-42 129.5t-112 45.5t-111.5 -45.5t-41.5 -129.5t41.5 -129t111.5 -45zM399.5 778
q-147.5 0 -237.5 92.5t-90 246t90 245.5t237.5 92t237.5 -92t90 -245.5t-90 -246t-237.5 -92.5zM399.5 942q69.5 0 111.5 45t42 129t-42 129t-111.5 45t-111.5 -45t-42 -129t42 -129t111.5 -45z" />
    <glyph glyph-name="ampersand" unicode="&#x26;" horiz-adv-x="1300" 
d="M492 195q152 0 278 127l-291 288l-69 -47q-113 -80 -113 -194q0 -76 55.5 -125t139.5 -49zM492 -20q-209 0 -330 106.5t-121 271.5q0 209 205 349l78 55l-64 61q-127 123 -127 283q0 143 110.5 245.5t288.5 102.5q182 0 286 -96t104 -252q0 -174 -185 -307l-82 -60
l267 -264l157 160h314l-310 -316l320 -319h-307l-164 164q-207 -184 -440 -184zM502 891l82 61q102 76 102 144q0 61 -43 102t-111 41q-76 0 -119.5 -42t-43.5 -112q0 -41 18.5 -69.5t63.5 -73.5z" />
    <glyph glyph-name="quotesingle" unicode="'" horiz-adv-x="460" 
d="M123 973v461h215v-461h-215z" />
    <glyph glyph-name="parenleft" unicode="(" horiz-adv-x="686" 
d="M399 -410q-125 180 -195.5 427t-70.5 525.5t70.5 525.5t195.5 427h236q-266 -399 -266 -952t266 -953h-236z" />
    <glyph glyph-name="parenright" unicode=")" horiz-adv-x="686" 
d="M51 -410q266 399 266 952.5t-266 952.5h236q125 -180 195.5 -427t70.5 -525.5t-70.5 -525t-195.5 -427.5h-236z" />
    <glyph glyph-name="asterisk" unicode="*" horiz-adv-x="962" 
d="M338 666l-174 112l205 215l-297 72l61 184l277 -102l-31 287h205l-31 -287l276 102l62 -184l-297 -72l205 -215l-174 -112l-144 247z" />
    <glyph glyph-name="plus" unicode="+" horiz-adv-x="1136" 
d="M471 143v389h-389v195h389v389h195v-389h389v-195h-389v-389h-195z" />
    <glyph glyph-name="comma" unicode="," horiz-adv-x="450" 
d="M41 -215l82 420h225l-123 -420h-184z" />
    <glyph glyph-name="hyphen" unicode="-" horiz-adv-x="808" 
d="M82 471v215h645v-215h-645z" />
    <glyph glyph-name="period" unicode="." horiz-adv-x="450" 
d="M225.5 -10q-61.5 0 -102.5 41t-41 102.5t41 102t102.5 40.5t102.5 -40.5t41 -102t-41 -102.5t-102.5 -41z" />
    <glyph glyph-name="slash" unicode="/" horiz-adv-x="839" 
d="M0 -410l594 1905h246l-594 -1905h-246z" />
    <glyph glyph-name="zero" unicode="0" horiz-adv-x="1372" 
d="M686 -20q-272 0 -438 190t-166 546.5t166 547t438 190.5t438 -190.5t166 -547t-166 -546.5t-438 -190zM686.5 215q149.5 0 248.5 127t99 375t-99 375t-248.5 127t-249 -127t-99.5 -375t99.5 -375t249 -127z" />
    <glyph glyph-name="one" unicode="1" horiz-adv-x="757" 
d="M348 0v1034h-287v226h205q82 0 82 83v91h256v-1434h-256z" />
    <glyph glyph-name="two" unicode="2" horiz-adv-x="1198" 
d="M82 0v225l635 594q102 96 102 205q0 96 -58.5 150.5t-176.5 54.5q-98 0 -164 -55.5t-82 -149.5h-256q25 195 152.5 312.5t349.5 117.5q240 0 370.5 -114.5t130.5 -305.5q0 -182 -184 -358l-471 -451h676v-225h-1024z" />
    <glyph glyph-name="three" unicode="3" horiz-adv-x="1208" 
d="M600 -20q-225 0 -374.5 108.5t-164.5 321.5h256q14 -98 90 -151.5t187 -53.5q123 0 194.5 56t71.5 148.5t-71.5 148.5t-194.5 56h-113v215h113q119 0 182.5 53.5t63.5 141.5t-63.5 146.5t-182.5 58.5q-96 0 -169 -54.5t-87 -150.5h-256q31 211 167 320.5t355 109.5
q223 0 357.5 -112.5t134.5 -297.5q0 -115 -57.5 -196.5t-157.5 -120.5q109 -39 172 -128t63 -210q0 -184 -141.5 -296.5t-374.5 -112.5z" />
    <glyph glyph-name="four" unicode="4" horiz-adv-x="1208" 
d="M727 0v297h-686v225l594 912h348v-912h184v-225h-184v-297h-256zM307 522h420v635h-10z" />
    <glyph glyph-name="five" unicode="5" horiz-adv-x="1218" 
d="M604 -20q-190 0 -337.5 114.5t-184.5 315.5h256q23 -92 95.5 -148.5t170.5 -56.5q135 0 206 74.5t71 201.5q0 121 -72 199t-205 78q-152 0 -246 -133h-245l82 809h860v-226h-645l-31 -327h10q98 82 266 82q209 0 345.5 -138.5t136.5 -353.5q0 -217 -142.5 -354
t-390.5 -137z" />
    <glyph glyph-name="six" unicode="6" horiz-adv-x="1228" 
d="M614 205q125 0 201 72.5t76 193.5t-76 193.5t-201 72.5t-200.5 -72.5t-75.5 -193.5t75.5 -193.5t200.5 -72.5zM614.5 -20q-243.5 0 -388 138t-144.5 363q0 217 143 441l328 512h287l-348 -523h10q61 31 153 31q219 0 355.5 -134t136.5 -337q0 -217 -144.5 -354t-388 -137
z" />
    <glyph glyph-name="seven" unicode="7" horiz-adv-x="1085" 
d="M215 0l533 1208h-687v226h963v-226l-532 -1208h-277z" />
    <glyph glyph-name="eight" unicode="8" horiz-adv-x="1249" 
d="M625 205q129 0 202.5 57t73.5 157.5t-73.5 158t-202.5 57.5t-203 -57.5t-74 -158t74 -157.5t203 -57zM625 -20q-254 0 -393.5 119.5t-139.5 310.5q0 104 69.5 195t166.5 132q-86 43 -145.5 124t-59.5 183q0 184 139 297t362.5 113t362.5 -112.5t139 -297.5
q0 -102 -59 -183t-145 -124q96 -41 165.5 -132t69.5 -195q0 -190 -139 -310t-393 -120zM624.5 840q118.5 0 182 53t63.5 141t-63.5 141.5t-182 53.5t-182 -53.5t-63.5 -141.5t63.5 -141t182 -53z" />
    <glyph glyph-name="nine" unicode="9" horiz-adv-x="1228" 
d="M389 0l348 522h-10q-61 -31 -154 -30q-219 0 -355 134t-136 337q0 217 144.5 354t388 137t388 -138t144.5 -364q0 -217 -143 -440l-328 -512h-287zM614 696q125 0 201 73t76 193.5t-76 193.5t-201 73t-200.5 -73t-75.5 -193.5t75.5 -193.5t200.5 -73z" />
    <glyph glyph-name="colon" unicode=":" horiz-adv-x="450" 
d="M225.5 -10q-61.5 0 -102.5 41t-41 102.5t41 102t102.5 40.5t102.5 -40.5t41 -102t-41 -102.5t-102.5 -41zM225.5 809q-61.5 0 -102.5 41t-41 102.5t41 102.5t102.5 41t102.5 -41t41 -102.5t-41 -102.5t-102.5 -41z" />
    <glyph glyph-name="semicolon" unicode=";" horiz-adv-x="450" 
d="M41 -215l82 420h225l-123 -420h-184zM225.5 809q-61.5 0 -102.5 41t-41 102.5t41 102.5t102.5 41t102.5 -41t41 -102.5t-41 -102.5t-102.5 -41z" />
    <glyph glyph-name="less" unicode="&#x3c;" horiz-adv-x="1075" 
d="M983 92l-891 440v205l891 441v-226l-655 -317l655 -318v-225z" />
    <glyph glyph-name="equal" unicode="=" horiz-adv-x="1126" 
d="M72 307v195h983v-195h-983zM72 748v194h983v-194h-983z" />
    <glyph glyph-name="greater" unicode="&#x3e;" horiz-adv-x="1075" 
d="M92 92v225l656 318l-656 317v226l891 -441v-205z" />
    <glyph glyph-name="question" unicode="?" horiz-adv-x="1054" 
d="M512 -10q-61 0 -102 41t-41 102.5t41 102t102 40.5t102 -40.5t41 -102t-41 -102.5t-102 -41zM389 451v81q0 98 33 170t80 112t93 74t79 80t33 107q0 74 -49.5 119t-145.5 45q-88 0 -147.5 -57.5t-67.5 -137.5h-246q23 197 144.5 303.5t316.5 106.5q201 0 326 -100.5
t125 -268.5q0 -90 -35 -158.5t-84 -110.5t-99.5 -80t-85 -89t-34.5 -115v-81h-236z" />
    <glyph glyph-name="at" unicode="@" horiz-adv-x="1894" 
d="M942 338q100 0 157.5 70.5t57.5 195.5q0 123 -57.5 189.5t-157.5 66.5t-157.5 -66.5t-57.5 -189.5q0 -125 57.5 -195.5t157.5 -70.5zM901 -205q-362 0 -580.5 222.5t-218.5 596.5q0 362 234.5 591t615.5 229q387 0 618.5 -227.5t231.5 -561.5q0 -236 -98 -358.5
t-260 -122.5q-82 0 -140.5 36t-76.5 70l-19 37h-10q-37 -61 -111.5 -102t-175.5 -41q-174 0 -276.5 123t-102.5 317q0 193 100.5 311.5t268.5 118.5q106 0 169 -32.5t87 -69.5h10l21 92h153v-553q0 -123 103 -123q82 0 123 63.5t41 223.5q0 254 -174 434t-482 180
q-297 0 -476 -177t-179 -458q0 -291 164 -462.5t440 -171.5h348v-185h-348z" />
    <glyph glyph-name="A" unicode="A" horiz-adv-x="1341" 
d="M-10 0l522 1434h317l523 -1434h-267l-110 307h-608l-111 -307h-266zM446 532h449l-219 615h-10z" />
    <glyph glyph-name="B" unicode="B" horiz-adv-x="1351" 
d="M410 225h389q96 0 150.5 51.5t54.5 143.5q0 90 -54.5 142t-150.5 52h-389v-389zM154 0v1434h655q205 0 317.5 -106.5t112.5 -293.5q0 -102 -52 -184t-132 -123q90 -41 147.5 -126t57.5 -202q0 -186 -113 -292.5t-318 -106.5h-675zM410 819h368q94 0 149.5 52.5
t55.5 142.5t-55.5 142t-149.5 52h-368v-389z" />
    <glyph glyph-name="C" unicode="C" horiz-adv-x="1433" 
d="M758 -20q-305 0 -485.5 191t-180.5 545.5t180.5 546t485.5 191.5q238 0 389 -116.5t215 -323.5h-266q-98 215 -338 215q-188 0 -299 -132t-111 -380t110.5 -380t299.5 -132q240 0 338 215h266q-63 -207 -214.5 -323.5t-389.5 -116.5z" />
    <glyph glyph-name="D" unicode="D" horiz-adv-x="1423" 
d="M154 0v1434h532q297 0 471 -188.5t174 -528.5t-174 -528.5t-471 -188.5h-532zM410 225h266q176 0 287.5 127t111.5 364.5t-111.5 364.5t-287.5 127h-266v-983z" />
    <glyph glyph-name="E" unicode="E" horiz-adv-x="1218" 
d="M154 0v1434h942v-226h-686v-379h645v-215h-645v-389h706v-225h-962z" />
    <glyph glyph-name="F" unicode="F" horiz-adv-x="1177" 
d="M154 0v1434h942v-226h-686v-409h634v-226h-634v-573h-256z" />
    <glyph glyph-name="G" unicode="G" horiz-adv-x="1484" 
d="M758 -20q-305 0 -485.5 191t-180.5 545.5t180.5 546t485.5 191.5q238 0 389 -116.5t215 -323.5h-266q-98 215 -338 215q-188 0 -299 -132t-111 -380t110.5 -380t299.5 -132q168 0 265 100.5t114 237.5h-400v215h656v-101q0 -309 -170 -493t-465 -184z" />
    <glyph glyph-name="H" unicode="H" horiz-adv-x="1464" 
d="M154 0v1434h256v-594h645v594h256v-1434h-256v614h-645v-614h-256z" />
    <glyph glyph-name="I" unicode="I" horiz-adv-x="563" 
d="M154 0v1434h256v-1434h-256z" />
    <glyph glyph-name="J" unicode="J" horiz-adv-x="1157" 
d="M532 -20q-209 0 -333.5 113.5t-147.5 326.5h256q14 -104 75.5 -159.5t149.5 -55.5q104 0 165 72.5t61 214.5v942h256v-942q0 -244 -128.5 -378t-353.5 -134z" />
    <glyph glyph-name="K" unicode="K" horiz-adv-x="1259" 
d="M154 0v1434h256v-656l563 656h297l-604 -707l634 -727h-296l-594 676v-676h-256z" />
    <glyph glyph-name="L" unicode="L" horiz-adv-x="1136" 
d="M154 0v1434h256v-1209h686v-225h-942z" />
    <glyph glyph-name="M" unicode="M" horiz-adv-x="1832" 
d="M154 0v1434h378l379 -1065h11l378 1065h379v-1434h-256v1096h-10l-389 -1096h-215l-389 1096h-10v-1096h-256z" />
    <glyph glyph-name="N" unicode="N" horiz-adv-x="1525" 
d="M154 0v1434h338l614 -1076h10v1076h256v-1434h-338l-614 1075h-10v-1075h-256z" />
    <glyph glyph-name="O" unicode="O" horiz-adv-x="1515" 
d="M758 -20q-305 0 -485.5 194.5t-180.5 542.5t180.5 542.5t485.5 194.5t485 -194.5t180 -542.5t-180 -542.5t-485 -194.5zM757.5 205q188.5 0 299 132t110.5 380t-110.5 380t-299 132t-299 -132t-110.5 -380t110.5 -380t299 -132z" />
    <glyph glyph-name="P" unicode="P" horiz-adv-x="1310" 
d="M154 0v1434h575q213 0 351.5 -132.5t138.5 -339t-138.5 -338.5t-351.5 -132h-319v-492h-256zM410 717h297q123 0 189.5 64.5t66.5 181t-67 181t-189 64.5h-297v-491z" />
    <glyph glyph-name="Q" unicode="Q" horiz-adv-x="1515" 
d="M1065 -205l-135 203q-80 -18 -172 -18q-305 0 -485.5 194.5t-180.5 542.5t180.5 542.5t485.5 194.5t485 -194.5t180 -542.5q0 -438 -278 -627l196 -295h-276zM758 205h35l-168 256h276l111 -170q156 133 155 426q0 248 -110.5 380t-299 132t-299 -132t-110.5 -380
t111 -380t299 -132z" />
    <glyph glyph-name="R" unicode="R" horiz-adv-x="1331" 
d="M154 0v1434h594q209 0 340 -123t131 -328q0 -104 -34 -188t-90.5 -133.5t-108.5 -77t-105 -41.5l379 -543h-287l-369 532h-194v-532h-256zM410 758h319q106 0 170 59.5t64 166t-63.5 165.5t-172.5 59h-317v-450z" />
    <glyph glyph-name="S" unicode="S" horiz-adv-x="1259" 
d="M625 -20q-233 0 -383 112.5t-181 317.5h256q25 -96 106 -150.5t202 -54.5q150 0 223.5 54t73.5 151q0 63 -45.5 104t-116 62.5t-156.5 39t-173 44t-157.5 67.5t-115.5 122t-45 195q0 190 139 300t373 110q231 0 366 -103.5t166 -285.5h-256q-49 164 -276 164
q-125 0 -190.5 -51.5t-65.5 -133.5q0 -90 84 -139t204.5 -74.5t241.5 -60.5t205 -124t84 -236q0 -184 -151.5 -307t-411.5 -123z" />
    <glyph glyph-name="T" unicode="T" horiz-adv-x="1218" 
d="M481 0v1208h-440v226h1137v-226h-441v-1208h-256z" />
    <glyph glyph-name="U" unicode="U" horiz-adv-x="1454" 
d="M727 -20q-272 0 -428 163.5t-156 462.5v828h256v-828q0 -190 89.5 -295.5t238.5 -105.5q147 0 237.5 105.5t90.5 295.5v828h256v-828q0 -297 -157 -461.5t-427 -164.5z" />
    <glyph glyph-name="V" unicode="V" horiz-adv-x="1341" 
d="M502 0l-492 1434h277l379 -1147h10l379 1147h276l-491 -1434h-338z" />
    <glyph glyph-name="W" unicode="W" horiz-adv-x="1914" 
d="M389 0l-369 1434h267l245 -1086h11l266 1086h297l266 -1086h10l246 1086h266l-368 -1434h-307l-256 1075h-11l-256 -1075h-307z" />
    <glyph glyph-name="X" unicode="X" horiz-adv-x="1249" 
d="M-20 0l481 737l-461 697h287l338 -523l338 523h286l-461 -697l482 -737h-287l-358 563l-359 -563h-286z" />
    <glyph glyph-name="Y" unicode="Y" horiz-adv-x="1198" 
d="M471 0v512l-502 922h267l358 -666h10l359 666h266l-502 -922v-512h-256z" />
    <glyph glyph-name="Z" unicode="Z" horiz-adv-x="1208" 
d="M72 0v195l737 1013h-717v226h1034v-195l-737 -1014h748v-225h-1065z" />
    <glyph glyph-name="bracketleft" unicode="[" horiz-adv-x="675" 
d="M154 -410v1905h471v-225h-236v-1454h236v-226h-471z" />
    <glyph glyph-name="backslash" unicode="\" horiz-adv-x="839" 
d="M594 -410l-594 1905h246l594 -1905h-246z" />
    <glyph glyph-name="bracketright" unicode="]" horiz-adv-x="675" 
d="M51 -410v226h236v1454h-236v225h471v-1905h-471z" />
    <glyph glyph-name="asciicircum" unicode="^" horiz-adv-x="972" 
d="M72 778l307 656h215l307 -656h-205l-204 461h-11l-205 -461h-204z" />
    <glyph glyph-name="underscore" unicode="_" horiz-adv-x="860" 
d="M-41 -451v215h942v-215h-942z" />
    <glyph glyph-name="grave" unicode="`" horiz-adv-x="542" 
d="M297 1239l-236 297h236l184 -297h-184z" />
    <glyph glyph-name="a" unicode="a" horiz-adv-x="1116" 
d="M492 184q123 0 194.5 63.5t71.5 172.5v51h-266q-184 0 -185 -143q0 -63 47.5 -103.5t137.5 -40.5zM440 -20q-166 0 -267 95t-101 242q0 145 108.5 241.5t300.5 96.5h277v52q0 92 -57.5 143t-157.5 51q-78 0 -128 -36t-67 -87h-242q37 145 152 236.5t285 91.5
q213 0 331.5 -106.5t118.5 -292.5v-707h-205l-20 133h-10q-35 -61 -120 -107t-198 -46z" />
    <glyph glyph-name="b" unicode="b" horiz-adv-x="1249" 
d="M655.5 195q120.5 0 198.5 89t78 259t-78 259t-198.5 89t-198.5 -89t-78 -259t78 -259t198.5 -89zM696 -20q-102 0 -185 43t-132 110h-10l-31 -133h-195v1434h236v-471h10q37 55 120 99t187 44q213 0 342 -147.5t129 -416t-129 -415.5t-342 -147z" />
    <glyph glyph-name="c" unicode="c" horiz-adv-x="1136" 
d="M594 -20q-233 0 -372.5 149.5t-139.5 413.5t139 413.5t373 149.5q190 0 315 -101.5t166 -256.5h-235q-80 143 -246 143q-125 0 -201 -91t-76 -257t76 -257t201 -91q166 0 246 143h235q-41 -156 -166 -257t-315 -101z" />
    <glyph glyph-name="d" unicode="d" horiz-adv-x="1249" 
d="M594 195q121 0 198.5 89t77.5 259t-77.5 259t-198.5 89t-199 -89t-78 -259t78 -259t199 -89zM553 -20q-213 0 -342 147t-129 415.5t129 416t342 147.5q104 0 187 -44t120 -99h10v471h236v-1434h-195l-30 133h-11q-49 -68 -132 -110.5t-185 -42.5z" />
    <glyph glyph-name="e" unicode="e" horiz-adv-x="1187" 
d="M602 -20q-240 0 -380 148t-140 415q0 264 139 413.5t373 149.5q238 0 375 -153.5t137 -379.5l-10 -102h-768q8 -125 81.5 -200.5t194.5 -75.5q137 0 225 122h256q-49 -150 -171 -243.5t-312 -93.5zM328 655h532q-16 104 -85.5 170t-180.5 66q-104 0 -172.5 -62.5
t-93.5 -173.5z" />
    <glyph glyph-name="f" unicode="f" horiz-adv-x="757" 
d="M215 0v870h-174v215h174v93q0 139 83 218t234 79h185v-215h-154q-51 0 -81.5 -33t-30.5 -80v-62h266v-215h-266v-870h-236z" />
    <glyph glyph-name="g" unicode="g" horiz-adv-x="1228" 
d="M594 -410q-391 0 -492 349h246q45 -133 246 -134q123 0 194.5 59.5t71.5 166.5v174h-10q-43 -59 -125 -101.5t-182 -42.5q-205 0 -333 137.5t-128 385t128 385t333 137.5q102 0 185 -43t132 -111h10l31 133h195v-1054q0 -209 -129 -325t-373 -116zM586 276
q117 0 195.5 83t78.5 224.5t-79 224.5t-197.5 83t-192.5 -82t-74 -225.5t75 -225.5t194 -82z" />
    <glyph glyph-name="h" unicode="h" horiz-adv-x="1198" 
d="M143 0v1434h236v-471h10q96 143 287 143q178 0 288.5 -121t110.5 -319v-666h-235v645q0 115 -62.5 180.5t-163.5 65.5q-104 0 -169.5 -71.5t-65.5 -178.5v-641h-236z" />
    <glyph glyph-name="i" unicode="i" horiz-adv-x="501" 
d="M133 0v1085h236v-1085h-236zM250 1208q-63 0 -105.5 41t-42.5 102.5t42 102.5t106 41q66 0 107.5 -41t41.5 -102.5t-41.5 -102.5t-107.5 -41z" />
    <glyph glyph-name="j" unicode="j" horiz-adv-x="501" 
d="M-143 -410v205h163q47 0 80 31t33 82v1177h236v-1198q0 -145 -82 -221t-236 -76h-194zM250 1208q-63 0 -105.5 41t-42.5 102.5t42 102.5t106 41q66 0 107.5 -41t41.5 -102.5t-41.5 -102.5t-107.5 -41z" />
    <glyph glyph-name="k" unicode="k" horiz-adv-x="1095" 
d="M143 0v1434h236v-840l440 491h287l-481 -532l512 -553h-287l-471 512v-512h-236z" />
    <glyph glyph-name="l" unicode="l" horiz-adv-x="522" 
d="M143 0v1434h236v-1434h-236z" />
    <glyph glyph-name="m" unicode="m" horiz-adv-x="1802" 
d="M133 0v1085h195l30 -133h11q92 154 266 154q115 0 193.5 -53.5t113.5 -130.5h10q33 76 124 130t214 54q172 0 280.5 -119t108.5 -321v-666h-235v645q0 117 -62.5 181.5t-152.5 64.5q-88 0 -146.5 -66.5t-58.5 -179.5v-645h-236v645q0 119 -59 182.5t-156 63.5
q-88 0 -146 -66.5t-58 -179.5v-645h-236z" />
    <glyph glyph-name="n" unicode="n" horiz-adv-x="1187" 
d="M133 0v1085h195l30 -133h11q92 154 297 154q178 0 288.5 -121t110.5 -319v-666h-236v645q0 115 -62 180.5t-163 65.5q-104 0 -169.5 -71.5t-65.5 -178.5v-641h-236z" />
    <glyph glyph-name="o" unicode="o" horiz-adv-x="1187" 
d="M593.5 -20q-233.5 0 -372.5 149.5t-139 413.5t139 413.5t372.5 149.5t373 -149.5t139.5 -413.5t-139.5 -413.5t-373 -149.5zM594 195q121 0 198.5 89t77.5 259t-77.5 259t-198.5 89t-199 -89t-78 -259t78 -259t199 -89z" />
    <glyph glyph-name="p" unicode="p" horiz-adv-x="1239" 
d="M133 -410v1495h195l30 -133h11q49 68 132 111t185 43q213 0 342 -147.5t129 -416t-129 -415.5t-342 -147q-104 0 -187 44t-120 99h-10v-533h-236zM645 195q121 0 199 89t78 259t-78 259t-199 89t-198.5 -89t-77.5 -259t77.5 -259t198.5 -89z" />
    <glyph glyph-name="q" unicode="q" horiz-adv-x="1239" 
d="M870 -410v533h-10q-37 -55 -120 -99t-187 -44q-213 0 -342 147t-129 415.5t129 416t342 147.5q102 0 185 -43t132 -111h11l30 133h195v-1495h-236zM594 195q121 0 198.5 89t77.5 259t-77.5 259t-198.5 89t-199 -89t-78 -259t78 -259t199 -89z" />
    <glyph glyph-name="r" unicode="r" horiz-adv-x="798" 
d="M133 0v1085h195l30 -133h11q88 133 266 133h133v-225h-113q-131 0 -208.5 -71.5t-77.5 -194.5v-594h-236z" />
    <glyph glyph-name="s" unicode="s" horiz-adv-x="1024" 
d="M512 -20q-193 0 -310.5 92t-150.5 245h256q16 -55 69.5 -88.5t135.5 -33.5q205 0 205 112q0 55 -64.5 84t-155.5 46.5t-183.5 45t-157 104.5t-64.5 201q0 137 108.5 227.5t301 90.5t305.5 -86t145 -232h-256q-41 102 -194 103q-164 0 -164 -103q0 -47 46 -76.5t115.5 -41
t150.5 -35t150.5 -54t116 -101t46.5 -173.5q0 -145 -115 -236t-336 -91z" />
    <glyph glyph-name="t" unicode="t" horiz-adv-x="798" 
d="M522 0q-145 0 -226 79t-81 218v573h-174v215h174l31 287h205v-287h266v-215h-266v-542q0 -47 30.5 -80t81.5 -33h154v-215h-195z" />
    <glyph glyph-name="u" unicode="u" horiz-adv-x="1198" 
d="M532 -20q-178 0 -288.5 120.5t-110.5 319.5v665h236v-645q0 -115 62.5 -180t162.5 -65q104 0 169.5 71.5t65.5 177.5v641h236v-1085h-195l-30 133h-11q-92 -153 -297 -153z" />
    <glyph glyph-name="v" unicode="v" horiz-adv-x="1095" 
d="M399 0l-399 1085h256l287 -829h10l287 829h256l-400 -1085h-297z" />
    <glyph glyph-name="w" unicode="w" horiz-adv-x="1607" 
d="M307 0l-297 1085h246l205 -788h10l205 788h256l205 -788h10l205 788h245l-297 -1085h-286l-205 748h-10l-205 -748h-287z" />
    <glyph glyph-name="x" unicode="x" horiz-adv-x="1003" 
d="M-10 0l358 563l-338 522h266l226 -358l225 358h266l-338 -522l359 -563h-266l-246 399l-246 -399h-266z" />
    <glyph glyph-name="y" unicode="y" horiz-adv-x="1116" 
d="M276 -410l164 410l-440 1085h256l297 -768h10l297 768h256l-594 -1495h-246z" />
    <glyph glyph-name="z" unicode="z" horiz-adv-x="972" 
d="M61 0v184l543 686h-522v215h819v-184l-543 -686h553v-215h-850z" />
    <glyph glyph-name="braceleft" unicode="{" horiz-adv-x="706" 
d="M502 -410q-131 0 -209 78t-78 209v410q0 143 -143 143v225q143 0 143 144v409q0 131 78 209t209 78h153v-225h-102q-55 0 -78.5 -25.5t-23.5 -87.5v-348q0 -133 -40 -185.5t-135 -60.5v-41q94 -8 134.5 -60t40.5 -186v-348q0 -61 23.5 -86.5t78.5 -25.5h102v-226h-153z
" />
    <glyph glyph-name="bar" unicode="|" horiz-adv-x="727" 
d="M246 -410v1905h235v-1905h-235z" />
    <glyph glyph-name="braceright" unicode="}" horiz-adv-x="706" 
d="M51 -410v226h103q55 0 78.5 25.5t23.5 86.5v348q0 133 40 185.5t134 60.5v41q-94 8 -134 60.5t-40 185.5v348q0 61 -23.5 87t-78.5 26h-103v225h154q131 0 209 -78t78 -209v-409q0 -143 143 -144v-225q-143 0 -143 -143v-410q0 -131 -78 -209t-209 -78h-154z" />
    <glyph glyph-name="asciitilde" unicode="~" horiz-adv-x="1218" 
d="M809 461q-92 0 -163 41t-121 82t-95 41q-133 0 -133 -154h-205q0 166 85 257t233 91q92 0 162.5 -41t120.5 -82t95 -41q133 0 134 154h204q0 -166 -85 -257t-232 -91z" />
    <glyph glyph-name="uni00A0" unicode="&#xa0;" horiz-adv-x="450" 
 />
    <glyph glyph-name="exclamdown" unicode="&#xa1;" horiz-adv-x="573" 
d="M164 -410v123l31 932h184l31 -932v-123h-246zM286.5 819q-61.5 0 -102.5 41t-41 102.5t41 102.5t102.5 41t102.5 -41t41 -102.5t-41 -102.5t-102.5 -41z" />
    <glyph glyph-name="cent" unicode="&#xa2;" horiz-adv-x="1136" 
d="M481 -225v215q-186 33 -292.5 177t-106.5 376q0 229 106.5 373.5t292.5 179.5v215h246v-221q135 -33 224 -125.5t124 -216.5h-235q-80 143 -246 143q-125 0 -201 -91t-76 -257t76 -257t201 -91q166 0 246 143h235q-35 -127 -124 -219t-224 -123v-221h-246z" />
    <glyph glyph-name="sterling" unicode="&#xa3;" horiz-adv-x="1208" 
d="M72 0v225h51q113 0 113 144v215h-164v225h164v184q0 215 120.5 338t329.5 123q193 0 314.5 -109.5t136.5 -300.5h-267q-31 184 -184 185q-88 0 -141 -63.5t-53 -182.5v-174h348v-225h-348v-215q0 -45 -12.5 -81t-24.5 -50l-15 -13h717v-225h-1085z" />
    <glyph glyph-name="currency" unicode="&#xa4;" horiz-adv-x="1208" 
d="M225 164l-123 112l127 130q-76 115 -75.5 250t75.5 249l-127 129l123 113l121 -123q119 82 258 82t258 -82l121 123l123 -113l-127 -129q76 -115 76 -250t-76 -249l127 -130l-123 -112l-121 123q-119 -82 -258 -82t-258 82zM604 379q115 0 196 81t81 195.5t-81 195.5
t-196 81t-195.5 -81t-80.5 -195.5t80.5 -195.5t195.5 -81z" />
    <glyph glyph-name="yen" unicode="&#xa5;" horiz-adv-x="1177" 
d="M461 0v225h-338v215h338v113h-338v215h205l-348 666h276l328 -666h10l328 666h276l-348 -666h205v-215h-338v-113h338v-215h-338v-225h-256z" />
    <glyph glyph-name="brokenbar" unicode="&#xa6;" horiz-adv-x="727" 
d="M246 -410v768h235v-768h-235zM246 727v768h235v-768h-235z" />
    <glyph glyph-name="section" unicode="&#xa7;" horiz-adv-x="1259" 
d="M645 -246q-211 0 -346 98.5t-166 280.5h246q45 -164 266 -164q225 0 225 144q0 70 -77.5 103.5t-189 49t-223.5 41t-189.5 101t-77.5 206.5q0 164 143 267q-102 86 -102 215q0 156 121.5 257t349.5 101q205 0 333.5 -94t167.5 -264h-245q-25 63 -92.5 103t-163.5 40
q-225 0 -226 -143q0 -59 56.5 -94t140.5 -45.5t182.5 -31t182 -49t140 -100t56.5 -182.5q0 -164 -143 -266q102 -86 102 -215q0 -156 -122 -257.5t-349 -101.5zM829 430q82 66 82 143q0 82 -68.5 115t-203.5 49.5t-199 40.5q-82 -66 -82 -143q0 -82 69 -115t204 -49t198 -41
z" />
    <glyph glyph-name="dieresis" unicode="&#xa8;" horiz-adv-x="778" 
d="M194.5 1260q-59.5 0 -96.5 38.5t-37 94t37 94.5t96.5 39t96.5 -39t37 -94.5t-37 -94t-96.5 -38.5zM583.5 1260q-59.5 0 -96 38.5t-36.5 94t36.5 94.5t96 39t96.5 -39t37 -94.5t-37 -94t-96.5 -38.5z" />
    <glyph glyph-name="copyright" unicode="&#xa9;" horiz-adv-x="1699" 
d="M849.5 -20q-321.5 0 -529 206.5t-207.5 530t207.5 530.5t529 207t529.5 -207t208 -530.5t-208 -530t-529.5 -206.5zM850 143q246 0 404.5 161t158.5 413t-158.5 412.5t-404.5 160.5t-404.5 -160.5t-158.5 -412.5t158.5 -413t404.5 -161zM852 328q-172 0 -271.5 103.5
t-99.5 285.5t99.5 285.5t271.5 103.5q135 0 218 -72.5t118 -183.5h-174q-35 102 -164 102q-92 0 -143.5 -60.5t-51.5 -175t51.5 -175t143.5 -60.5q129 0 164 103h174q-35 -111 -118 -183.5t-218 -72.5z" />
    <glyph glyph-name="ordfeminine" unicode="&#xaa;" horiz-adv-x="747" 
d="M338 870q76 0 120 40t44 104v20h-185q-92 0 -92 -71q0 -93 113 -93zM307 717q-125 0 -190.5 71.5t-65.5 153.5q0 104 64.5 164.5t191.5 60.5h195v21q0 113 -123 112q-82 0 -113 -61h-184q16 96 93 155.5t204 59.5q137 0 217 -71.5t80 -194.5v-461h-154l-10 92h-10
q-62 -102 -195 -102z" />
    <glyph glyph-name="guillemotleft" unicode="&#xab;" horiz-adv-x="1341" 
d="M512 61l-440 492l440 491h276l-440 -485v-12l440 -486h-276zM1014 61l-441 492l441 491h276l-440 -485v-12l440 -486h-276z" />
    <glyph glyph-name="logicalnot" unicode="&#xac;" horiz-adv-x="1064" 
d="M788 317v246h-716v195h911v-441h-195z" />
    <glyph glyph-name="uni00AD" unicode="&#xad;" horiz-adv-x="808" 
d="M82 471v215h645v-215h-645z" />
    <glyph glyph-name="registered" unicode="&#xae;" horiz-adv-x="1699" 
d="M849.5 -20q-321.5 0 -529 206.5t-207.5 530t207.5 530.5t529 207t529.5 -207t208 -530.5t-208 -530t-529.5 -206.5zM850 143q246 0 404.5 161t158.5 413t-158.5 412.5t-404.5 160.5t-404.5 -160.5t-158.5 -412.5t158.5 -413t404.5 -161zM573 338v768h328q129 0 203 -69.5
t74 -186.5q0 -88 -49.5 -150.5t-135.5 -85.5l195 -276h-195l-184 266h-61v-266h-175zM748 748h145q121 0 121 102t-123 102h-143v-204z" />
    <glyph glyph-name="macron" unicode="&#xaf;" horiz-adv-x="727" 
d="M61 1290v174h605v-174h-605z" />
    <glyph glyph-name="degree" unicode="&#xb0;" horiz-adv-x="798" 
d="M399.5 860q-137.5 0 -222.5 87t-85 220t85 220.5t222.5 87.5t222.5 -87.5t85 -220.5t-85 -220t-222.5 -87zM399.5 1014q67.5 0 105.5 42t38 111.5t-38 111.5t-105.5 42t-105.5 -42t-38 -111.5t38 -111.5t105.5 -42z" />
    <glyph glyph-name="plusminus" unicode="&#xb1;" horiz-adv-x="1136" 
d="M82 10v195h973v-195h-973zM471 276v369h-389v195h389v389h195v-389h389v-195h-389v-369h-195z" />
    <glyph glyph-name="uni00B2" unicode="&#xb2;" horiz-adv-x="686" 
d="M61 819v154l297 287q82 82 82 143q0 35 -25.5 58.5t-76.5 23.5t-76.5 -25.5t-25.5 -66.5h-185q8 115 83 185.5t214 70.5q129 0 203 -68t74 -178q0 -119 -113 -225l-215 -205h317v-154h-553z" />
    <glyph glyph-name="uni00B3" unicode="&#xb3;" horiz-adv-x="696" 
d="M338 809q-123 0 -203 59.5t-94 165.5h184q16 -61 113 -61q53 0 83 27.5t30 74.5q0 41 -26 66.5t-77 25.5h-82v154h82q92 0 92 82t-102 82q-94 0 -113 -92h-184q8 115 83 185.5t214 70.5q127 0 207 -65.5t80 -160.5q0 -63 -34 -109t-79 -65q123 -61 123 -184
q0 -109 -76 -182.5t-221 -73.5z" />
    <glyph glyph-name="acute" unicode="&#xb4;" horiz-adv-x="542" 
d="M61 1239l185 297h235l-235 -297h-185z" />
    <glyph glyph-name="mu" unicode="&#xb5;" horiz-adv-x="1198" 
d="M133 -369v1454h236v-645q0 -115 62.5 -180t162.5 -65q104 0 169.5 71.5t65.5 173.5v645h236v-1085h-195l-30 133h-11q-92 -154 -276 -153q-59 0 -105.5 18t-62.5 35l-16 18v-420h-236z" />
    <glyph glyph-name="paragraph" unicode="&#xb6;" horiz-adv-x="1167" 
d="M420 -225v880q-154 0 -246 106.5t-92 283t92 283t246 106.5h594v-1659h-226v1433h-143v-1433h-225z" />
    <glyph glyph-name="periodcentered" unicode="&#xb7;" horiz-adv-x="450" 
d="M225.5 410q-61.5 0 -102.5 41t-41 102t41 102t102.5 41t102.5 -41t41 -102t-41 -102t-102.5 -41z" />
    <glyph glyph-name="cedilla" unicode="&#xb8;" horiz-adv-x="471" 
d="M61 -451v144h113q61 0 62 55q0 57 -62 57h-92v103l41 92h153l-30 -72q72 -8 118 -54t46 -120q0 -92 -58.5 -148.5t-156.5 -56.5h-134z" />
    <glyph glyph-name="uni00B9" unicode="&#xb9;" horiz-adv-x="542" 
d="M246 819v543h-185v164h134q51 0 51 51v61h174v-819h-174z" />
    <glyph glyph-name="ordmasculine" unicode="&#xba;" horiz-adv-x="798" 
d="M399.5 717q-149.5 0 -238.5 97t-89 271.5t89 271.5t238.5 97t238.5 -97t89 -271.5t-89 -271.5t-238.5 -97zM399.5 881q69.5 0 111.5 56t42 148.5t-42 148.5t-111.5 56t-111.5 -56t-42 -148.5t42 -148.5t111.5 -56z" />
    <glyph glyph-name="guillemotright" unicode="&#xbb;" horiz-adv-x="1341" 
d="M51 61l441 486v12l-441 485h277l440 -491l-440 -492h-277zM553 61l440 486v12l-440 485h276l441 -491l-441 -492h-276z" />
    <glyph glyph-name="onequarter" unicode="&#xbc;" horiz-adv-x="1566" 
d="M184 0l891 1434h185l-891 -1434h-185zM246 614v543h-185v164h134q51 0 51 51v62h174v-820h-174zM1198 0v174h-369v154l328 491h215v-491h123v-154h-123v-174h-174zM1004 328h194v276h-10z" />
    <glyph glyph-name="onehalf" unicode="&#xbd;" horiz-adv-x="1587" 
d="M184 0l891 1434h185l-891 -1434h-185zM246 614v543h-185v164h134q51 0 51 51v62h174v-820h-174zM932 0v154l297 286q82 82 82 144q0 35 -25.5 58.5t-77 23.5t-77 -26t-25.5 -67h-184q8 115 82.5 185.5t214.5 70.5q129 0 202.5 -67.5t73.5 -177.5q0 -119 -113 -226
l-215 -204h318v-154h-553z" />
    <glyph glyph-name="threequarters" unicode="&#xbe;" horiz-adv-x="1730" 
d="M338 0l891 1434h184l-891 -1434h-184zM358 604q-123 0 -202.5 59.5t-94.5 165.5h185q16 -61 112 -61q53 0 83 27.5t30 74.5q0 41 -25.5 67t-76.5 26h-82v153h82q92 0 92 82t-103 82q-94 0 -112 -92h-185q8 115 83 185.5t214 70.5q127 0 207 -65.5t80 -159.5
q0 -63 -33.5 -109.5t-79.5 -65.5q123 -61 123 -184q0 -109 -76 -182.5t-221 -73.5zM1362 0v174h-369v154l328 491h215v-491h123v-154h-123v-174h-174zM1167 328h195v276h-10z" />
    <glyph glyph-name="questiondown" unicode="&#xbf;" horiz-adv-x="1054" 
d="M543 -430q-201 0 -326 100.5t-125 268.5q0 88 24.5 156.5t62.5 106.5t82 75.5t82 67.5t62.5 78t24.5 109v113h236v-113q0 -109 -33 -183.5t-79 -114t-93 -74.5t-80 -87.5t-33 -123.5q0 -74 49 -119t146 -45q88 0 147.5 57.5t67.5 137.5h246q-23 -197 -144.5 -303.5
t-316.5 -106.5zM542.5 819q-61.5 0 -102.5 41t-41 102.5t41 102.5t102.5 41t102.5 -41t41 -102.5t-41 -102.5t-102.5 -41z" />
    <glyph glyph-name="Agrave" unicode="&#xc0;" horiz-adv-x="1341" 
d="M-10 0l522 1434h317l523 -1434h-267l-110 307h-608l-111 -307h-266zM446 532h449l-219 615h-10zM573 1567l-235 297h235l185 -297h-185z" />
    <glyph glyph-name="Aacute" unicode="&#xc1;" horiz-adv-x="1341" 
d="M-10 0l522 1434h317l523 -1434h-267l-110 307h-608l-111 -307h-266zM446 532h449l-219 615h-10zM573 1567l185 297h235l-235 -297h-185z" />
    <glyph glyph-name="Acircumflex" unicode="&#xc2;" horiz-adv-x="1341" 
d="M-10 0l522 1434h317l523 -1434h-267l-110 307h-608l-111 -307h-266zM446 532h449l-219 615h-10zM317 1567l277 307h154l276 -307h-205l-143 174h-10l-144 -174h-205z" />
    <glyph glyph-name="Atilde" unicode="&#xc3;" horiz-adv-x="1341" 
d="M-10 0l522 1434h317l523 -1434h-267l-110 307h-608l-111 -307h-266zM446 532h449l-219 615h-10zM809 1597q-63 0 -137 46.5t-99 46.5q-61 0 -61 -82h-174q0 113 54 179t140 66q63 0 137 -46t99 -46q61 0 61 82h175q0 -113 -54.5 -179.5t-140.5 -66.5z" />
    <glyph glyph-name="Adieresis" unicode="&#xc4;" horiz-adv-x="1341" 
d="M-10 0l522 1434h317l523 -1434h-267l-110 307h-608l-111 -307h-266zM446 532h449l-219 615h-10zM481.5 1587q-59.5 0 -96.5 39t-37 94.5t37 94t96.5 38.5t96 -38.5t36.5 -94t-36.5 -94.5t-96 -39zM870.5 1587q-59.5 0 -96.5 39t-37 94.5t37 94t96.5 38.5t96.5 -38.5
t37 -94t-37 -94.5t-96.5 -39z" />
    <glyph glyph-name="Aring" unicode="&#xc5;" horiz-adv-x="1341" 
d="M-10 0l522 1434h317l523 -1434h-267l-110 307h-608l-111 -307h-266zM446 532h449l-219 615h-10zM665.5 1516q-94.5 0 -154.5 58t-60 156.5t60 157t154.5 58.5t155 -58.5t60.5 -157t-60.5 -156.5t-155 -58zM666 1649q82 0 82 81.5t-82 81.5t-82 -81.5t82 -81.5z" />
    <glyph glyph-name="AE" unicode="&#xc6;" horiz-adv-x="1945" 
d="M481 530h400v658h-82zM-61 0l706 1434h1178v-226h-686v-379h645v-215h-645v-389h706v-225h-962v303h-510l-156 -303h-276z" />
    <glyph glyph-name="Ccedilla" unicode="&#xc7;" horiz-adv-x="1433" 
d="M604 -451v144h113q61 0 61 55q0 57 -61 57h-92v103l32 78q-264 31 -414.5 219t-150.5 512q0 354 180.5 545.5t485.5 191.5q238 0 389 -116.5t215 -323.5h-266q-98 215 -338 215q-188 0 -299 -132t-111 -380t110.5 -380t299.5 -132q240 0 338 215h266q-127 -412 -551 -438
l-23 -54q72 -8 118 -54t46 -120q0 -92 -58 -148.5t-157 -56.5h-133z" />
    <glyph glyph-name="Egrave" unicode="&#xc8;" horiz-adv-x="1218" 
d="M154 0v1434h942v-226h-686v-379h645v-215h-645v-389h706v-225h-962zM553 1567l-236 297h236l184 -297h-184z" />
    <glyph glyph-name="Eacute" unicode="&#xc9;" horiz-adv-x="1218" 
d="M154 0v1434h942v-226h-686v-379h645v-215h-645v-389h706v-225h-962zM543 1567l184 297h236l-236 -297h-184z" />
    <glyph glyph-name="Ecircumflex" unicode="&#xca;" horiz-adv-x="1218" 
d="M154 0v1434h942v-226h-686v-379h645v-215h-645v-389h706v-225h-962zM287 1567l276 307h154l276 -307h-205l-143 174h-10l-143 -174h-205z" />
    <glyph glyph-name="Edieresis" unicode="&#xcb;" horiz-adv-x="1218" 
d="M154 0v1434h942v-226h-686v-379h645v-215h-645v-389h706v-225h-962zM440.5 1587q-59.5 0 -96.5 39t-37 94.5t37 94t96.5 38.5t96 -38.5t36.5 -94t-36.5 -94.5t-96 -39zM829.5 1587q-59.5 0 -96.5 39t-37 94.5t37 94t96.5 38.5t96.5 -38.5t37 -94t-37 -94.5t-96.5 -39z
" />
    <glyph glyph-name="Igrave" unicode="&#xcc;" horiz-adv-x="563" 
d="M154 0v1434h256v-1434h-256zM195 1567l-236 297h236l184 -297h-184z" />
    <glyph glyph-name="Iacute" unicode="&#xcd;" horiz-adv-x="563" 
d="M154 0v1434h256v-1434h-256zM195 1567l184 297h235l-235 -297h-184z" />
    <glyph glyph-name="Icircumflex" unicode="&#xce;" horiz-adv-x="563" 
d="M154 0v1434h256v-1434h-256zM-72 1567l277 307h153l277 -307h-205l-143 174h-11l-143 -174h-205z" />
    <glyph glyph-name="Idieresis" unicode="&#xcf;" horiz-adv-x="563" 
d="M154 0v1434h256v-1434h-256zM92.5 1587q-59.5 0 -96.5 39t-37 94.5t37 94t96.5 38.5t96 -38.5t36.5 -94t-36.5 -94.5t-96 -39zM481.5 1587q-59.5 0 -96.5 39t-37 94.5t37 94t96.5 38.5t96 -38.5t36.5 -94t-36.5 -94.5t-96 -39z" />
    <glyph glyph-name="Eth" unicode="&#xd0;" horiz-adv-x="1443" 
d="M174 0v614h-154v215h154v605h533q297 0 471 -188.5t174 -528.5t-174 -528.5t-471 -188.5h-533zM430 225h266q176 0 288 127t112 364.5t-112 364.5t-288 127h-266v-379h338v-215h-338v-389z" />
    <glyph glyph-name="Ntilde" unicode="&#xd1;" horiz-adv-x="1525" 
d="M154 0v1434h338l614 -1076h10v1076h256v-1434h-338l-614 1075h-10v-1075h-256zM911 1597q-63 0 -137 46.5t-98 46.5q-61 0 -62 -82h-174q0 113 54.5 179t140.5 66q63 0 137 -46t98 -46q61 0 62 82h174q0 -113 -54.5 -179.5t-140.5 -66.5z" />
    <glyph glyph-name="Ograve" unicode="&#xd2;" horiz-adv-x="1515" 
d="M758 -20q-305 0 -485.5 194.5t-180.5 542.5t180.5 542.5t485.5 194.5t485 -194.5t180 -542.5t-180 -542.5t-485 -194.5zM757.5 205q188.5 0 299 132t110.5 380t-110.5 380t-299 132t-299 -132t-110.5 -380t110.5 -380t299 -132zM666 1567l-236 297h236l184 -297h-184z
" />
    <glyph glyph-name="Oacute" unicode="&#xd3;" horiz-adv-x="1515" 
d="M758 -20q-305 0 -485.5 194.5t-180.5 542.5t180.5 542.5t485.5 194.5t485 -194.5t180 -542.5t-180 -542.5t-485 -194.5zM757.5 205q188.5 0 299 132t110.5 380t-110.5 380t-299 132t-299 -132t-110.5 -380t110.5 -380t299 -132zM666 1567l184 297h235l-235 -297h-184z
" />
    <glyph glyph-name="Ocircumflex" unicode="&#xd4;" horiz-adv-x="1515" 
d="M758 -20q-305 0 -485.5 194.5t-180.5 542.5t180.5 542.5t485.5 194.5t485 -194.5t180 -542.5t-180 -542.5t-485 -194.5zM757.5 205q188.5 0 299 132t110.5 380t-110.5 380t-299 132t-299 -132t-110.5 -380t110.5 -380t299 -132zM399 1567l277 307h153l277 -307h-205
l-143 174h-10l-144 -174h-205z" />
    <glyph glyph-name="Otilde" unicode="&#xd5;" horiz-adv-x="1515" 
d="M758 -20q-305 0 -485.5 194.5t-180.5 542.5t180.5 542.5t485.5 194.5t485 -194.5t180 -542.5t-180 -542.5t-485 -194.5zM757.5 205q188.5 0 299 132t110.5 380t-110.5 380t-299 132t-299 -132t-110.5 -380t110.5 -380t299 -132zM891 1597q-63 0 -137 46.5t-99 46.5
q-61 0 -61 -82h-174q0 113 54 179t140 66q63 0 137 -46t99 -46q61 0 61 82h174q0 -113 -54 -179.5t-140 -66.5z" />
    <glyph glyph-name="Odieresis" unicode="&#xd6;" horiz-adv-x="1515" 
d="M758 -20q-305 0 -485.5 194.5t-180.5 542.5t180.5 542.5t485.5 194.5t485 -194.5t180 -542.5t-180 -542.5t-485 -194.5zM757.5 205q188.5 0 299 132t110.5 380t-110.5 380t-299 132t-299 -132t-110.5 -380t110.5 -380t299 -132zM563.5 1587q-59.5 0 -96.5 39t-37 94.5
t37 94t96.5 38.5t96 -38.5t36.5 -94t-36.5 -94.5t-96 -39zM952.5 1587q-59.5 0 -96.5 39t-37 94.5t37 94t96.5 38.5t96 -38.5t36.5 -94t-36.5 -94.5t-96 -39z" />
    <glyph glyph-name="multiply" unicode="&#xd7;" horiz-adv-x="1126" 
d="M225 195l-133 133l338 338l-338 338l133 133l338 -338l338 338l133 -133l-338 -338l338 -338l-133 -133l-338 337z" />
    <glyph glyph-name="Oslash" unicode="&#xd8;" horiz-adv-x="1515" 
d="M436 365l484 833q-74 31 -162 31q-188 0 -299 -132t-111 -380q0 -221 88 -352zM195 -51l110 190q-213 197 -213 578q0 348 180.5 542.5t485.5 194.5q156 0 280 -53l49 84h234l-113 -193q215 -199 215 -575q0 -348 -180 -542.5t-485 -194.5q-150 0 -281 51l-47 -82h-235z
M758 205q188 0 298.5 132t110.5 380q0 219 -90 350l-481 -831q72 -31 162 -31z" />
    <glyph glyph-name="Ugrave" unicode="&#xd9;" horiz-adv-x="1454" 
d="M727 -20q-272 0 -428 163.5t-156 462.5v828h256v-828q0 -190 89.5 -295.5t238.5 -105.5q147 0 237.5 105.5t90.5 295.5v828h256v-828q0 -297 -157 -461.5t-427 -164.5zM635 1567l-236 297h236l184 -297h-184z" />
    <glyph glyph-name="Uacute" unicode="&#xda;" horiz-adv-x="1454" 
d="M727 -20q-272 0 -428 163.5t-156 462.5v828h256v-828q0 -190 89.5 -295.5t238.5 -105.5q147 0 237.5 105.5t90.5 295.5v828h256v-828q0 -297 -157 -461.5t-427 -164.5zM635 1567l184 297h236l-236 -297h-184z" />
    <glyph glyph-name="Ucircumflex" unicode="&#xdb;" horiz-adv-x="1454" 
d="M727 -20q-272 0 -428 163.5t-156 462.5v828h256v-828q0 -190 89.5 -295.5t238.5 -105.5q147 0 237.5 105.5t90.5 295.5v828h256v-828q0 -297 -157 -461.5t-427 -164.5zM369 1567l276 307h154l276 -307h-205l-143 174h-10l-144 -174h-204z" />
    <glyph glyph-name="Udieresis" unicode="&#xdc;" horiz-adv-x="1454" 
d="M727 -20q-272 0 -428 163.5t-156 462.5v828h256v-828q0 -190 89.5 -295.5t238.5 -105.5q147 0 237.5 105.5t90.5 295.5v828h256v-828q0 -297 -157 -461.5t-427 -164.5zM532.5 1587q-59.5 0 -96.5 39t-37 94.5t37 94t96.5 38.5t96.5 -38.5t37 -94t-37 -94.5t-96.5 -39z
M921.5 1587q-59.5 0 -96.5 39t-37 94.5t37 94t96.5 38.5t96.5 -38.5t37 -94t-37 -94.5t-96.5 -39z" />
    <glyph glyph-name="Yacute" unicode="&#xdd;" horiz-adv-x="1198" 
d="M471 0v512l-502 922h267l358 -666h10l359 666h266l-502 -922v-512h-256zM502 1567l184 297h236l-236 -297h-184z" />
    <glyph glyph-name="Thorn" unicode="&#xde;" horiz-adv-x="1443" 
d="M154 0v1434h256v-308h501q217 0 334 -110.5t117 -299t-117 -299t-334 -110.5h-501v-307h-256zM410 532h481q104 0 159.5 49.5t55.5 135.5t-55.5 135t-159.5 49h-481v-369z" />
    <glyph glyph-name="germandbls" unicode="&#xdf;" horiz-adv-x="1177" 
d="M133 0v1032q0 190 122 306t339 116q221 0 341 -117.5t120 -271.5q0 -113 -55.5 -196t-149.5 -121q115 -31 185.5 -128.5t70.5 -220.5q0 -190 -122 -294.5t-359 -104.5h-103v215h103q119 0 182 53.5t63 151.5q0 94 -62.5 149.5t-182.5 55.5h-103v204h62q109 0 172 53.5
t63 151.5q0 92 -60.5 148.5t-165 56.5t-164.5 -59.5t-60 -153.5v-1026h-236z" />
    <glyph glyph-name="agrave" unicode="&#xe0;" horiz-adv-x="1116" 
d="M492 184q123 0 194.5 63.5t71.5 172.5v51h-266q-184 0 -185 -143q0 -63 47.5 -103.5t137.5 -40.5zM440 -20q-166 0 -267 95t-101 242q0 145 108.5 241.5t300.5 96.5h277v52q0 92 -57.5 143t-157.5 51q-78 0 -128 -36t-67 -87h-242q37 145 152 236.5t285 91.5
q213 0 331.5 -106.5t118.5 -292.5v-707h-205l-20 133h-10q-35 -61 -120 -107t-198 -46zM471 1239l-235 297h235l184 -297h-184z" />
    <glyph glyph-name="aacute" unicode="&#xe1;" horiz-adv-x="1116" 
d="M492 184q123 0 194.5 63.5t71.5 172.5v51h-266q-184 0 -185 -143q0 -63 47.5 -103.5t137.5 -40.5zM440 -20q-166 0 -267 95t-101 242q0 145 108.5 241.5t300.5 96.5h277v52q0 92 -57.5 143t-157.5 51q-78 0 -128 -36t-67 -87h-242q37 145 152 236.5t285 91.5
q213 0 331.5 -106.5t118.5 -292.5v-707h-205l-20 133h-10q-35 -61 -120 -107t-198 -46zM471 1239l184 297h236l-236 -297h-184z" />
    <glyph glyph-name="acircumflex" unicode="&#xe2;" horiz-adv-x="1116" 
d="M492 184q123 0 194.5 63.5t71.5 172.5v51h-266q-184 0 -185 -143q0 -63 47.5 -103.5t137.5 -40.5zM440 -20q-166 0 -267 95t-101 242q0 145 108.5 241.5t300.5 96.5h277v52q0 92 -57.5 143t-157.5 51q-78 0 -128 -36t-67 -87h-242q37 145 152 236.5t285 91.5
q213 0 331.5 -106.5t118.5 -292.5v-707h-205l-20 133h-10q-35 -61 -120 -107t-198 -46zM205 1239l276 307h154l276 -307h-204l-144 174h-10l-143 -174h-205z" />
    <glyph glyph-name="atilde" unicode="&#xe3;" horiz-adv-x="1116" 
d="M492 184q123 0 194.5 63.5t71.5 172.5v51h-266q-184 0 -185 -143q0 -63 47.5 -103.5t137.5 -40.5zM440 -20q-166 0 -267 95t-101 242q0 145 108.5 241.5t300.5 96.5h277v52q0 92 -57.5 143t-157.5 51q-78 0 -128 -36t-67 -87h-242q37 145 152 236.5t285 91.5
q213 0 331.5 -106.5t118.5 -292.5v-707h-205l-20 133h-10q-35 -61 -120 -107t-198 -46zM707 1270q-63 0 -137 46t-99 46q-61 0 -61 -82h-174q0 113 54 179.5t140 66.5q63 0 137 -46t99 -46q61 0 61 82h174q0 -113 -54 -179.5t-140 -66.5z" />
    <glyph glyph-name="adieresis" unicode="&#xe4;" horiz-adv-x="1116" 
d="M492 184q123 0 194.5 63.5t71.5 172.5v51h-266q-184 0 -185 -143q0 -63 47.5 -103.5t137.5 -40.5zM440 -20q-166 0 -267 95t-101 242q0 145 108.5 241.5t300.5 96.5h277v52q0 92 -57.5 143t-157.5 51q-78 0 -128 -36t-67 -87h-242q37 145 152 236.5t285 91.5
q213 0 331.5 -106.5t118.5 -292.5v-707h-205l-20 133h-10q-35 -61 -120 -107t-198 -46zM368.5 1260q-59.5 0 -96 38.5t-36.5 94t36.5 94.5t96 39t96.5 -39t37 -94.5t-37 -94t-96.5 -38.5zM757.5 1260q-59.5 0 -96 38.5t-36.5 94t36.5 94.5t96 39t96.5 -39t37 -94.5t-37 -94
t-96.5 -38.5z" />
    <glyph glyph-name="aring" unicode="&#xe5;" horiz-adv-x="1116" 
d="M492 184q123 0 194.5 63.5t71.5 172.5v51h-266q-184 0 -185 -143q0 -63 47.5 -103.5t137.5 -40.5zM440 -20q-166 0 -267 95t-101 242q0 145 108.5 241.5t300.5 96.5h277v52q0 92 -57.5 143t-157.5 51q-78 0 -128 -36t-67 -87h-242q37 145 152 236.5t285 91.5
q213 0 331.5 -106.5t118.5 -292.5v-707h-205l-20 133h-10q-35 -61 -120 -107t-198 -46zM563 1198q-94 0 -154.5 58.5t-60.5 156.5t60.5 156.5t154.5 58.5t154.5 -58.5t60.5 -156.5t-60.5 -156.5t-154.5 -58.5zM563 1331q82 0 82 82t-82 82t-82 -82t82 -82z" />
    <glyph glyph-name="ae" unicode="&#xe6;" horiz-adv-x="1843" 
d="M492 184q123 0 194.5 63.5t71.5 172.5v41h-266q-94 0 -139.5 -37t-45.5 -96q0 -63 47.5 -103.5t137.5 -40.5zM440 -20q-166 0 -267 95t-101 242q0 143 108.5 235.5t300.5 92.5h277v62q0 92 -57.5 143t-157.5 51q-78 0 -128 -36t-67 -87h-242q37 145 152 236.5t285 91.5
q125 0 216 -51t132 -133q152 184 369 184q236 0 368.5 -152.5t132.5 -380.5l-10 -112h-758q8 -123 81 -194.5t196 -71.5q78 0 124 30.5t91 91.5h256q-49 -150 -168 -243.5t-305 -93.5q-260 0 -398 204q-131 -204 -430 -204zM993 645h529q-12 115 -83 180.5t-179 65.5
q-115 0 -183 -64.5t-84 -181.5z" />
    <glyph glyph-name="ccedilla" unicode="&#xe7;" horiz-adv-x="1136" 
d="M451 -451v144h112q61 0 62 55q0 57 -62 57h-92v103l35 78q-197 27 -310.5 172t-113.5 385q0 264 139 413.5t373 149.5q190 0 315 -101.5t166 -256.5h-235q-80 143 -246 143q-125 0 -201 -91t-76 -257t76 -257t201 -91q166 0 246 143h235q-37 -141 -145.5 -238.5
t-272.5 -115.5l-22 -56q72 -8 118 -54t46 -120q0 -92 -58.5 -148.5t-156.5 -56.5h-133z" />
    <glyph glyph-name="egrave" unicode="&#xe8;" horiz-adv-x="1187" 
d="M602 -20q-240 0 -380 148t-140 415q0 264 139 413.5t373 149.5q238 0 375 -153.5t137 -379.5l-10 -102h-768q8 -125 81.5 -200.5t194.5 -75.5q137 0 225 122h256q-49 -150 -171 -243.5t-312 -93.5zM328 655h532q-16 104 -85.5 170t-180.5 66q-104 0 -172.5 -62.5
t-93.5 -173.5zM512 1239l-236 297h236l184 -297h-184z" />
    <glyph glyph-name="eacute" unicode="&#xe9;" horiz-adv-x="1187" 
d="M602 -20q-240 0 -380 148t-140 415q0 264 139 413.5t373 149.5q238 0 375 -153.5t137 -379.5l-10 -102h-768q8 -125 81.5 -200.5t194.5 -75.5q137 0 225 122h256q-49 -150 -171 -243.5t-312 -93.5zM328 655h532q-16 104 -85.5 170t-180.5 66q-104 0 -172.5 -62.5
t-93.5 -173.5zM512 1239l184 297h236l-236 -297h-184z" />
    <glyph glyph-name="ecircumflex" unicode="&#xea;" horiz-adv-x="1187" 
d="M602 -20q-240 0 -380 148t-140 415q0 264 139 413.5t373 149.5q238 0 375 -153.5t137 -379.5l-10 -102h-768q8 -125 81.5 -200.5t194.5 -75.5q137 0 225 122h256q-49 -150 -171 -243.5t-312 -93.5zM328 655h532q-16 104 -85.5 170t-180.5 66q-104 0 -172.5 -62.5
t-93.5 -173.5zM246 1239l276 307h154l276 -307h-204l-144 174h-10l-143 -174h-205z" />
    <glyph glyph-name="edieresis" unicode="&#xeb;" horiz-adv-x="1187" 
d="M602 -20q-240 0 -380 148t-140 415q0 264 139 413.5t373 149.5q238 0 375 -153.5t137 -379.5l-10 -102h-768q8 -125 81.5 -200.5t194.5 -75.5q137 0 225 122h256q-49 -150 -171 -243.5t-312 -93.5zM328 655h532q-16 104 -85.5 170t-180.5 66q-104 0 -172.5 -62.5
t-93.5 -173.5zM409.5 1260q-59.5 0 -96.5 38.5t-37 94t37 94.5t96.5 39t96.5 -39t37 -94.5t-37 -94t-96.5 -38.5zM798.5 1260q-59.5 0 -96 38.5t-36.5 94t36.5 94.5t96 39t96.5 -39t37 -94.5t-37 -94t-96.5 -38.5z" />
    <glyph glyph-name="igrave" unicode="&#xec;" horiz-adv-x="501" 
d="M133 0v1085h236v-1085h-236zM164 1239l-236 297h236l184 -297h-184z" />
    <glyph glyph-name="iacute" unicode="&#xed;" horiz-adv-x="501" 
d="M133 0v1085h236v-1085h-236zM154 1239l184 297h235l-235 -297h-184z" />
    <glyph glyph-name="icircumflex" unicode="&#xee;" horiz-adv-x="501" 
d="M133 0v1085h236v-1085h-236zM-102 1239l276 307h154l276 -307h-205l-143 174h-10l-144 -174h-204z" />
    <glyph glyph-name="idieresis" unicode="&#xef;" horiz-adv-x="501" 
d="M133 0v1085h236v-1085h-236zM61.5 1260q-59.5 0 -96.5 38.5t-37 94t37 94.5t96.5 39t96.5 -39t37 -94.5t-37 -94t-96.5 -38.5zM450.5 1260q-59.5 0 -96.5 38.5t-37 94t37 94.5t96.5 39t96.5 -39t37 -94.5t-37 -94t-96.5 -38.5z" />
    <glyph glyph-name="eth" unicode="&#xf0;" horiz-adv-x="1187" 
d="M584 195q123 0 194.5 79.5t71.5 217t-71.5 217t-194.5 79.5t-195 -79.5t-72 -217t72 -217t195 -79.5zM573 -20q-229 0 -360 137t-131 374.5t123 375t338 137.5q164 0 245 -82h11q-43 115 -174 245l-256 -123l-72 144l205 102q-129 104 -287 185h307q68 -35 164 -103
l195 82l71 -143l-133 -62q135 -160 206 -329.5t71 -387.5q0 -260 -138.5 -406t-384.5 -146z" />
    <glyph glyph-name="ntilde" unicode="&#xf1;" horiz-adv-x="1187" 
d="M133 0v1085h195l30 -133h11q92 154 297 154q178 0 288.5 -121t110.5 -319v-666h-236v645q0 115 -62 180.5t-163 65.5q-104 0 -169.5 -71.5t-65.5 -178.5v-641h-236zM737 1270q-63 0 -137 46t-98 46q-61 0 -62 -82h-174q0 113 54.5 179.5t140.5 66.5q63 0 137 -46t98 -46
q61 0 62 82h174q0 -113 -54.5 -179.5t-140.5 -66.5z" />
    <glyph glyph-name="ograve" unicode="&#xf2;" horiz-adv-x="1187" 
d="M593.5 -20q-233.5 0 -372.5 149.5t-139 413.5t139 413.5t372.5 149.5t373 -149.5t139.5 -413.5t-139.5 -413.5t-373 -149.5zM594 195q121 0 198.5 89t77.5 259t-77.5 259t-198.5 89t-199 -89t-78 -259t78 -259t199 -89zM502 1239l-236 297h236l184 -297h-184z" />
    <glyph glyph-name="oacute" unicode="&#xf3;" horiz-adv-x="1187" 
d="M593.5 -20q-233.5 0 -372.5 149.5t-139 413.5t139 413.5t372.5 149.5t373 -149.5t139.5 -413.5t-139.5 -413.5t-373 -149.5zM594 195q121 0 198.5 89t77.5 259t-77.5 259t-198.5 89t-199 -89t-78 -259t78 -259t199 -89zM502 1239l184 297h236l-236 -297h-184z" />
    <glyph glyph-name="ocircumflex" unicode="&#xf4;" horiz-adv-x="1187" 
d="M593.5 -20q-233.5 0 -372.5 149.5t-139 413.5t139 413.5t372.5 149.5t373 -149.5t139.5 -413.5t-139.5 -413.5t-373 -149.5zM594 195q121 0 198.5 89t77.5 259t-77.5 259t-198.5 89t-199 -89t-78 -259t78 -259t199 -89zM246 1239l276 307h154l276 -307h-204l-144 174h-10
l-143 -174h-205z" />
    <glyph glyph-name="otilde" unicode="&#xf5;" horiz-adv-x="1187" 
d="M593.5 -20q-233.5 0 -372.5 149.5t-139 413.5t139 413.5t372.5 149.5t373 -149.5t139.5 -413.5t-139.5 -413.5t-373 -149.5zM594 195q121 0 198.5 89t77.5 259t-77.5 259t-198.5 89t-199 -89t-78 -259t78 -259t199 -89zM737 1270q-63 0 -137 46t-98 46q-61 0 -62 -82
h-174q0 113 54.5 179.5t140.5 66.5q63 0 137 -46t98 -46q61 0 62 82h174q0 -113 -54.5 -179.5t-140.5 -66.5z" />
    <glyph glyph-name="odieresis" unicode="&#xf6;" horiz-adv-x="1187" 
d="M593.5 -20q-233.5 0 -372.5 149.5t-139 413.5t139 413.5t372.5 149.5t373 -149.5t139.5 -413.5t-139.5 -413.5t-373 -149.5zM594 195q121 0 198.5 89t77.5 259t-77.5 259t-198.5 89t-199 -89t-78 -259t78 -259t199 -89zM399.5 1260q-59.5 0 -96.5 38.5t-37 94t37 94.5
t96.5 39t96 -39t36.5 -94.5t-36.5 -94t-96 -38.5zM788.5 1260q-59.5 0 -96.5 38.5t-37 94t37 94.5t96.5 39t96.5 -39t37 -94.5t-37 -94t-96.5 -38.5z" />
    <glyph glyph-name="divide" unicode="&#xf7;" horiz-adv-x="1105" 
d="M553 92q-55 0 -89 36t-34 97.5t34 97t89 35.5t89 -35.5t34 -97t-34 -97.5t-89 -36zM82 532v195h942v-195h-942zM553 901q-55 0 -89 36t-34 97.5t34 97t89 35.5t89 -35.5t34 -97t-34 -97.5t-89 -36z" />
    <glyph glyph-name="oslash" unicode="&#xf8;" horiz-adv-x="1187" 
d="M356 342l340 528q-55 20 -102 21q-121 0 -199 -89t-78 -259q0 -119 39 -201zM113 -41l108 170q-139 152 -139 414q0 264 139 413.5t373 149.5q119 0 225 -45l41 65h215l-108 -170q139 -152 139 -413q0 -264 -139.5 -413.5t-372.5 -149.5q-119 0 -225 43l-41 -64h-215z
M594 195q121 0 198.5 89t77.5 259q0 123 -41 200l-340 -530q50 -18 105 -18z" />
    <glyph glyph-name="ugrave" unicode="&#xf9;" horiz-adv-x="1198" 
d="M532 -20q-178 0 -288.5 120.5t-110.5 319.5v665h236v-645q0 -115 62.5 -180t162.5 -65q104 0 169.5 71.5t65.5 177.5v641h236v-1085h-195l-30 133h-11q-92 -153 -297 -153zM512 1239l-236 297h236l184 -297h-184z" />
    <glyph glyph-name="uacute" unicode="&#xfa;" horiz-adv-x="1198" 
d="M532 -20q-178 0 -288.5 120.5t-110.5 319.5v665h236v-645q0 -115 62.5 -180t162.5 -65q104 0 169.5 71.5t65.5 177.5v641h236v-1085h-195l-30 133h-11q-92 -153 -297 -153zM512 1239l184 297h236l-236 -297h-184z" />
    <glyph glyph-name="ucircumflex" unicode="&#xfb;" horiz-adv-x="1198" 
d="M532 -20q-178 0 -288.5 120.5t-110.5 319.5v665h236v-645q0 -115 62.5 -180t162.5 -65q104 0 169.5 71.5t65.5 177.5v641h236v-1085h-195l-30 133h-11q-92 -153 -297 -153zM246 1239l276 307h154l276 -307h-204l-144 174h-10l-143 -174h-205z" />
    <glyph glyph-name="udieresis" unicode="&#xfc;" horiz-adv-x="1198" 
d="M532 -20q-178 0 -288.5 120.5t-110.5 319.5v665h236v-645q0 -115 62.5 -180t162.5 -65q104 0 169.5 71.5t65.5 177.5v641h236v-1085h-195l-30 133h-11q-92 -153 -297 -153zM409.5 1260q-59.5 0 -96.5 38.5t-37 94t37 94.5t96.5 39t96.5 -39t37 -94.5t-37 -94t-96.5 -38.5
zM798.5 1260q-59.5 0 -96 38.5t-36.5 94t36.5 94.5t96 39t96.5 -39t37 -94.5t-37 -94t-96.5 -38.5z" />
    <glyph glyph-name="yacute" unicode="&#xfd;" horiz-adv-x="1116" 
d="M276 -410l164 410l-440 1085h256l297 -768h10l297 768h256l-594 -1495h-246zM461 1239l184 297h236l-236 -297h-184z" />
    <glyph glyph-name="thorn" unicode="&#xfe;" horiz-adv-x="1249" 
d="M143 -410v1844h236v-471h10q106 143 307 143q213 0 342 -147.5t129 -416t-129 -415.5t-342 -147q-104 0 -187 44t-120 99h-10v-533h-236zM655.5 195q120.5 0 198.5 89t78 259t-78 259t-198.5 89t-198.5 -89t-78 -259t78 -259t198.5 -89z" />
    <glyph glyph-name="ydieresis" unicode="&#xff;" horiz-adv-x="1116" 
d="M276 -410l164 410l-440 1085h256l297 -768h10l297 768h256l-594 -1495h-246zM358.5 1260q-59.5 0 -96.5 38.5t-37 94t37 94.5t96.5 39t96.5 -39t37 -94.5t-37 -94t-96.5 -38.5zM747.5 1260q-59.5 0 -96.5 38.5t-37 94t37 94.5t96.5 39t96.5 -39t37 -94.5t-37 -94
t-96.5 -38.5z" />
    <glyph glyph-name="Amacron" unicode="&#x100;" horiz-adv-x="1341" 
d="M-10 0l522 1434h317l523 -1434h-267l-110 307h-608l-111 -307h-266zM446 532h449l-219 615h-10zM369 1628v174h604v-174h-604z" />
    <glyph glyph-name="amacron" unicode="&#x101;" horiz-adv-x="1116" 
d="M492 184q123 0 194.5 63.5t71.5 172.5v51h-266q-184 0 -185 -143q0 -63 47.5 -103.5t137.5 -40.5zM440 -20q-166 0 -267 95t-101 242q0 145 108.5 241.5t300.5 96.5h277v52q0 92 -57.5 143t-157.5 51q-78 0 -128 -36t-67 -87h-242q37 145 152 236.5t285 91.5
q213 0 331.5 -106.5t118.5 -292.5v-707h-205l-20 133h-10q-35 -61 -120 -107t-198 -46zM266 1290v174h604v-174h-604z" />
    <glyph glyph-name="Abreve" unicode="&#x102;" horiz-adv-x="1341" 
d="M-10 0l522 1434h317l523 -1434h-267l-110 307h-608l-111 -307h-266zM446 532h449l-219 615h-10zM676 1567q-137 0 -230.5 74.5t-107.5 222.5h184q14 -133 153.5 -133t153.5 133h185q-14 -147 -107.5 -222t-230.5 -75z" />
    <glyph glyph-name="abreve" unicode="&#x103;" horiz-adv-x="1116" 
d="M492 184q123 0 194.5 63.5t71.5 172.5v51h-266q-184 0 -185 -143q0 -63 47.5 -103.5t137.5 -40.5zM440 -20q-166 0 -267 95t-101 242q0 145 108.5 241.5t300.5 96.5h277v52q0 92 -57.5 143t-157.5 51q-78 0 -128 -36t-67 -87h-242q37 145 152 236.5t285 91.5
q213 0 331.5 -106.5t118.5 -292.5v-707h-205l-20 133h-10q-35 -61 -120 -107t-198 -46zM563 1239q-137 0 -230 75t-108 222h185q14 -133 153 -133t154 133h184q-14 -147 -107.5 -222t-230.5 -75z" />
    <glyph glyph-name="Aogonek" unicode="&#x104;" horiz-adv-x="1341" 
d="M1188 -420q-127 0 -191.5 54.5t-64.5 150.5q0 150 153 215l-110 307h-608l-111 -307h-266l522 1434h317l523 -1434h-103q-143 -80 -143 -184q0 -82 113 -82h51v-154h-82zM446 532h449l-219 615h-10z" />
    <glyph glyph-name="aogonek" unicode="&#x105;" horiz-adv-x="1116" 
d="M492 184q123 0 194.5 63.5t71.5 172.5v51h-266q-184 0 -185 -143q0 -63 47.5 -103.5t137.5 -40.5zM932 -420q-127 0 -191.5 54.5t-64.5 150.5q0 150 153 215h-41l-20 133h-10q-35 -61 -120 -107t-198 -46q-166 0 -267 95t-101 242q0 145 108.5 241.5t300.5 96.5h277v52
q0 92 -57.5 143t-157.5 51q-78 0 -128 -36t-67 -87h-242q37 145 152 236.5t285 91.5q213 0 331.5 -106.5t118.5 -292.5v-707q-143 -80 -143 -184q0 -82 113 -82h51v-154h-82z" />
    <glyph glyph-name="Cacute" unicode="&#x106;" horiz-adv-x="1433" 
d="M758 -20q-305 0 -485.5 191t-180.5 545.5t180.5 546t485.5 191.5q238 0 389 -116.5t215 -323.5h-266q-98 215 -338 215q-188 0 -299 -132t-111 -380t110.5 -380t299.5 -132q240 0 338 215h266q-63 -207 -214.5 -323.5t-389.5 -116.5zM655 1567l185 297h235l-235 -297
h-185z" />
    <glyph glyph-name="cacute" unicode="&#x107;" horiz-adv-x="1136" 
d="M594 -20q-233 0 -372.5 149.5t-139.5 413.5t139 413.5t373 149.5q190 0 315 -101.5t166 -256.5h-235q-80 143 -246 143q-125 0 -201 -91t-76 -257t76 -257t201 -91q166 0 246 143h235q-41 -156 -166 -257t-315 -101zM512 1239l184 297h236l-236 -297h-184z" />
    <glyph glyph-name="Ccircumflex" unicode="&#x108;" horiz-adv-x="1433" 
d="M758 -20q-305 0 -485.5 191t-180.5 545.5t180.5 546t485.5 191.5q238 0 389 -116.5t215 -323.5h-266q-98 215 -338 215q-188 0 -299 -132t-111 -380t110.5 -380t299.5 -132q240 0 338 215h266q-63 -207 -214.5 -323.5t-389.5 -116.5zM399 1567l277 307h153l277 -307h-205
l-143 174h-10l-144 -174h-205z" />
    <glyph glyph-name="ccircumflex" unicode="&#x109;" horiz-adv-x="1136" 
d="M594 -20q-233 0 -372.5 149.5t-139.5 413.5t139 413.5t373 149.5q190 0 315 -101.5t166 -256.5h-235q-80 143 -246 143q-125 0 -201 -91t-76 -257t76 -257t201 -91q166 0 246 143h235q-41 -156 -166 -257t-315 -101zM246 1239l276 307h154l276 -307h-204l-144 174h-10
l-143 -174h-205z" />
    <glyph glyph-name="Cdotaccent" unicode="&#x10a;" horiz-adv-x="1433" 
d="M758 -20q-305 0 -485.5 191t-180.5 545.5t180.5 546t485.5 191.5q238 0 389 -116.5t215 -323.5h-266q-98 215 -338 215q-188 0 -299 -132t-111 -380t110.5 -380t299.5 -132q240 0 338 215h266q-63 -207 -214.5 -323.5t-389.5 -116.5zM757.5 1587q-59.5 0 -96 39
t-36.5 94.5t36.5 94t96 38.5t96.5 -38.5t37 -94t-37 -94.5t-96.5 -39z" />
    <glyph glyph-name="cdotaccent" unicode="&#x10b;" horiz-adv-x="1136" 
d="M594 -20q-233 0 -372.5 149.5t-139.5 413.5t139 413.5t373 149.5q190 0 315 -101.5t166 -256.5h-235q-80 143 -246 143q-125 0 -201 -91t-76 -257t76 -257t201 -91q166 0 246 143h235q-41 -156 -166 -257t-315 -101zM604.5 1260q-59.5 0 -96.5 38.5t-37 94t37 94.5
t96.5 39t96 -39t36.5 -94.5t-36.5 -94t-96 -38.5z" />
    <glyph glyph-name="Ccaron" unicode="&#x10c;" horiz-adv-x="1433" 
d="M758 -20q-305 0 -485.5 191t-180.5 545.5t180.5 546t485.5 191.5q238 0 389 -116.5t215 -323.5h-266q-98 215 -338 215q-188 0 -299 -132t-111 -380t110.5 -380t299.5 -132q240 0 338 215h266q-63 -207 -214.5 -323.5t-389.5 -116.5zM676 1567l-277 307h205l144 -174h10
l143 174h205l-277 -307h-153z" />
    <glyph glyph-name="ccaron" unicode="&#x10d;" horiz-adv-x="1136" 
d="M594 -20q-233 0 -372.5 149.5t-139.5 413.5t139 413.5t373 149.5q190 0 315 -101.5t166 -256.5h-235q-80 143 -246 143q-125 0 -201 -91t-76 -257t76 -257t201 -91q166 0 246 143h235q-41 -156 -166 -257t-315 -101zM522 1229l-276 307h205l143 -174h10l144 174h204
l-276 -307h-154z" />
    <glyph glyph-name="Dcaron" unicode="&#x10e;" horiz-adv-x="1423" 
d="M154 0v1434h532q297 0 471 -188.5t174 -528.5t-174 -528.5t-471 -188.5h-532zM410 225h266q176 0 287.5 127t111.5 364.5t-111.5 364.5t-287.5 127h-266v-983zM625 1567l-277 307h205l143 -174h11l143 174h205l-277 -307h-153z" />
    <glyph glyph-name="dcaron" unicode="&#x10f;" horiz-adv-x="1433" 
d="M594 195q121 0 198.5 89t77.5 259t-77.5 259t-198.5 89t-199 -89t-78 -259t78 -259t199 -89zM553 -20q-213 0 -342 147t-129 415.5t129 416t342 147.5q104 0 187 -44t120 -99h10v471h236v-1434h-195l-30 133h-11q-49 -68 -132 -110.5t-185 -42.5zM1208 1096l92 338h205
l-143 -338h-154z" />
    <glyph glyph-name="Dcroat" unicode="&#x110;" horiz-adv-x="1443" 
d="M174 0v614h-154v215h154v605h533q297 0 471 -188.5t174 -528.5t-174 -528.5t-471 -188.5h-533zM430 225h266q176 0 288 127t112 364.5t-112 364.5t-288 127h-266v-379h338v-215h-338v-389z" />
    <glyph glyph-name="dcroat" unicode="&#x111;" horiz-adv-x="1249" 
d="M584 195q123 0 194.5 79.5t71.5 217t-71.5 217t-194.5 79.5t-195 -79.5t-72 -217t72 -217t195 -79.5zM543 -20q-211 0 -336 135t-125 376.5t125 377t336 135.5q178 0 297 -144h10v236h-277v194h277v144h235v-144h164v-194h-164v-1096h-194l-31 133h-10
q-114 -153 -307 -153z" />
    <glyph glyph-name="Emacron" unicode="&#x112;" horiz-adv-x="1218" 
d="M154 0v1434h942v-226h-686v-379h645v-215h-645v-389h706v-225h-962zM338 1628v174h604v-174h-604z" />
    <glyph glyph-name="emacron" unicode="&#x113;" horiz-adv-x="1187" 
d="M602 -20q-240 0 -380 148t-140 415q0 264 139 413.5t373 149.5q238 0 375 -153.5t137 -379.5l-10 -102h-768q8 -125 81.5 -200.5t194.5 -75.5q137 0 225 122h256q-49 -150 -171 -243.5t-312 -93.5zM328 655h532q-16 104 -85.5 170t-180.5 66q-104 0 -172.5 -62.5
t-93.5 -173.5zM307 1290v174h604v-174h-604z" />
    <glyph glyph-name="Ebreve" unicode="&#x114;" horiz-adv-x="1218" 
d="M154 0v1434h942v-226h-686v-379h645v-215h-645v-389h706v-225h-962zM635 1567q-137 0 -230.5 74.5t-107.5 222.5h184q14 -133 153.5 -133t153.5 133h185q-14 -147 -107.5 -222t-230.5 -75z" />
    <glyph glyph-name="ebreve" unicode="&#x115;" horiz-adv-x="1187" 
d="M602 -20q-240 0 -380 148t-140 415q0 264 139 413.5t373 149.5q238 0 375 -153.5t137 -379.5l-10 -102h-768q8 -125 81.5 -200.5t194.5 -75.5q137 0 225 122h256q-49 -150 -171 -243.5t-312 -93.5zM328 655h532q-16 104 -85.5 170t-180.5 66q-104 0 -172.5 -62.5
t-93.5 -173.5zM604 1239q-137 0 -230 75t-108 222h185q14 -133 153 -133t154 133h184q-14 -147 -107.5 -222t-230.5 -75z" />
    <glyph glyph-name="Edotaccent" unicode="&#x116;" horiz-adv-x="1218" 
d="M154 0v1434h942v-226h-686v-379h645v-215h-645v-389h706v-225h-962zM634.5 1587q-59.5 0 -96 39t-36.5 94.5t36.5 94t96 38.5t96.5 -38.5t37 -94t-37 -94.5t-96.5 -39z" />
    <glyph glyph-name="edotaccent" unicode="&#x117;" horiz-adv-x="1187" 
d="M602 -20q-240 0 -380 148t-140 415q0 264 139 413.5t373 149.5q238 0 375 -153.5t137 -379.5l-10 -102h-768q8 -125 81.5 -200.5t194.5 -75.5q137 0 225 122h256q-49 -150 -171 -243.5t-312 -93.5zM328 655h532q-16 104 -85.5 170t-180.5 66q-104 0 -172.5 -62.5
t-93.5 -173.5zM604.5 1260q-59.5 0 -96.5 38.5t-37 94t37 94.5t96.5 39t96 -39t36.5 -94.5t-36.5 -94t-96 -38.5z" />
    <glyph glyph-name="Eogonek" unicode="&#x118;" horiz-adv-x="1218" 
d="M1055 -420q-127 0 -191.5 54.5t-64.5 150.5q0 150 153 215h-798v1434h942v-226h-686v-379h645v-215h-645v-389h706v-225q-143 -80 -143 -184q0 -82 112 -82h52v-154h-82z" />
    <glyph glyph-name="eogonek" unicode="&#x119;" horiz-adv-x="1187" 
d="M676 -420q-127 0 -191.5 54.5t-64.5 150.5q0 131 117 199q-211 18 -333 164.5t-122 394.5q0 264 139 413.5t373 149.5q238 0 375 -153.5t137 -379.5l-10 -102h-768q8 -125 81.5 -200.5t194.5 -75.5q137 0 225 122h256q-41 -125 -133 -212t-231 -113q-127 -76 -127 -176
q0 -82 113 -82h51v-154h-82zM328 655h532q-16 104 -85.5 170t-180.5 66q-104 0 -172.5 -62.5t-93.5 -173.5z" />
    <glyph glyph-name="Ecaron" unicode="&#x11a;" horiz-adv-x="1218" 
d="M154 0v1434h942v-226h-686v-379h645v-215h-645v-389h706v-225h-962zM563 1567l-276 307h205l143 -174h10l143 174h205l-276 -307h-154z" />
    <glyph glyph-name="ecaron" unicode="&#x11b;" horiz-adv-x="1187" 
d="M602 -20q-240 0 -380 148t-140 415q0 264 139 413.5t373 149.5q238 0 375 -153.5t137 -379.5l-10 -102h-768q8 -125 81.5 -200.5t194.5 -75.5q137 0 225 122h256q-49 -150 -171 -243.5t-312 -93.5zM328 655h532q-16 104 -85.5 170t-180.5 66q-104 0 -172.5 -62.5
t-93.5 -173.5zM522 1229l-276 307h205l143 -174h10l144 174h204l-276 -307h-154z" />
    <glyph glyph-name="Gcircumflex" unicode="&#x11c;" horiz-adv-x="1484" 
d="M758 -20q-305 0 -485.5 191t-180.5 545.5t180.5 546t485.5 191.5q238 0 389 -116.5t215 -323.5h-266q-98 215 -338 215q-188 0 -299 -132t-111 -380t110.5 -380t299.5 -132q168 0 265 100.5t114 237.5h-400v215h656v-101q0 -309 -170 -493t-465 -184zM399 1567l277 307
h153l277 -307h-205l-143 174h-10l-144 -174h-205z" />
    <glyph glyph-name="gcircumflex" unicode="&#x11d;" horiz-adv-x="1228" 
d="M594 -410q-391 0 -492 349h246q45 -133 246 -134q123 0 194.5 59.5t71.5 166.5v174h-10q-43 -59 -125 -101.5t-182 -42.5q-205 0 -333 137.5t-128 385t128 385t333 137.5q102 0 185 -43t132 -111h10l31 133h195v-1054q0 -209 -129 -325t-373 -116zM586 276
q117 0 195.5 83t78.5 224.5t-79 224.5t-197.5 83t-192.5 -82t-74 -225.5t75 -225.5t194 -82zM266 1239l277 307h153l277 -307h-205l-143 174h-11l-143 -174h-205z" />
    <glyph glyph-name="Gbreve" unicode="&#x11e;" horiz-adv-x="1484" 
d="M758 -20q-305 0 -485.5 191t-180.5 545.5t180.5 546t485.5 191.5q238 0 389 -116.5t215 -323.5h-266q-98 215 -338 215q-188 0 -299 -132t-111 -380t110.5 -380t299.5 -132q168 0 265 100.5t114 237.5h-400v215h656v-101q0 -309 -170 -493t-465 -184zM758 1567
q-137 0 -230.5 74.5t-107.5 222.5h184q14 -133 153.5 -133t153.5 133h185q-14 -147 -107.5 -222t-230.5 -75z" />
    <glyph glyph-name="gbreve" unicode="&#x11f;" horiz-adv-x="1228" 
d="M594 -410q-391 0 -492 349h246q45 -133 246 -134q123 0 194.5 59.5t71.5 166.5v174h-10q-43 -59 -125 -101.5t-182 -42.5q-205 0 -333 137.5t-128 385t128 385t333 137.5q102 0 185 -43t132 -111h10l31 133h195v-1054q0 -209 -129 -325t-373 -116zM586 276
q117 0 195.5 83t78.5 224.5t-79 224.5t-197.5 83t-192.5 -82t-74 -225.5t75 -225.5t194 -82zM624.5 1239q-137.5 0 -230.5 75t-107 222h184q14 -133 153.5 -133t153.5 133h185q-14 -147 -107.5 -222t-231 -75z" />
    <glyph glyph-name="Gdotaccent" unicode="&#x120;" horiz-adv-x="1484" 
d="M758 -20q-305 0 -485.5 191t-180.5 545.5t180.5 546t485.5 191.5q238 0 389 -116.5t215 -323.5h-266q-98 215 -338 215q-188 0 -299 -132t-111 -380t110.5 -380t299.5 -132q168 0 265 100.5t114 237.5h-400v215h656v-101q0 -309 -170 -493t-465 -184zM757.5 1587
q-59.5 0 -96 39t-36.5 94.5t36.5 94t96 38.5t96.5 -38.5t37 -94t-37 -94.5t-96.5 -39z" />
    <glyph glyph-name="gdotaccent" unicode="&#x121;" horiz-adv-x="1228" 
d="M594 -410q-391 0 -492 349h246q45 -133 246 -134q123 0 194.5 59.5t71.5 166.5v174h-10q-43 -59 -125 -101.5t-182 -42.5q-205 0 -333 137.5t-128 385t128 385t333 137.5q102 0 185 -43t132 -111h10l31 133h195v-1054q0 -209 -129 -325t-373 -116zM586 276
q117 0 195.5 83t78.5 224.5t-79 224.5t-197.5 83t-192.5 -82t-74 -225.5t75 -225.5t194 -82zM624.5 1260q-59.5 0 -96 38.5t-36.5 94t36.5 94.5t96 39t96.5 -39t37 -94.5t-37 -94t-96.5 -38.5z" />
    <glyph glyph-name="uni0122" unicode="&#x122;" horiz-adv-x="1484" 
d="M758 -20q-305 0 -485.5 191t-180.5 545.5t180.5 546t485.5 191.5q238 0 389 -116.5t215 -323.5h-266q-98 215 -338 215q-188 0 -299 -132t-111 -380t110.5 -380t299.5 -132q168 0 265 100.5t114 237.5h-400v215h656v-101q0 -309 -170 -493t-465 -184zM563 -512l92 338
h215l-153 -338h-154z" />
    <glyph glyph-name="uni0123" unicode="&#x123;" horiz-adv-x="1228" 
d="M502 1239l153 338h154l-92 -338h-215zM594 -410q-391 0 -492 349h246q45 -133 246 -134q123 0 194.5 59.5t71.5 166.5v174h-10q-43 -59 -125 -101.5t-182 -42.5q-205 0 -333 137.5t-128 385t128 385t333 137.5q102 0 185 -43t132 -111h10l31 133h195v-1054
q0 -209 -129 -325t-373 -116zM586 276q117 0 195.5 83t78.5 224.5t-79 224.5t-197.5 83t-192.5 -82t-74 -225.5t75 -225.5t194 -82z" />
    <glyph glyph-name="Hcircumflex" unicode="&#x124;" horiz-adv-x="1464" 
d="M154 0v1434h256v-594h645v594h256v-1434h-256v614h-645v-614h-256zM379 1567l276 307h154l276 -307h-204l-144 174h-10l-143 -174h-205z" />
    <glyph glyph-name="hcircumflex" unicode="&#x125;" horiz-adv-x="1198" 
d="M143 0v1434h236v-471h10q96 143 287 143q178 0 288.5 -121t110.5 -319v-666h-235v645q0 115 -62.5 180.5t-163.5 65.5q-104 0 -169.5 -71.5t-65.5 -178.5v-641h-236zM256 1587l276 307h154l277 -307h-205l-144 174h-10l-143 -174h-205z" />
    <glyph glyph-name="Hbar" unicode="&#x126;" horiz-adv-x="1484" 
d="M164 0v1044h-144v205h144v185h256v-185h645v185h256v-185h143v-205h-143v-1044h-256v614h-645v-614h-256zM420 840h645v204h-645v-204z" />
    <glyph glyph-name="hbar" unicode="&#x127;" horiz-adv-x="1208" 
d="M154 0v1096h-154v194h154v144h235v-144h277v-194h-277v-277h10q96 143 287 144q178 0 288.5 -121t110.5 -320v-522h-235v502q0 115 -62.5 180.5t-162.5 65.5q-104 0 -170 -72t-66 -178v-498h-235z" />
    <glyph glyph-name="Imacron" unicode="&#x12a;" horiz-adv-x="563" 
d="M154 0v1434h256v-1434h-256zM-20 1628v174h604v-174h-604z" />
    <glyph glyph-name="imacron" unicode="&#x12b;" horiz-adv-x="501" 
d="M133 0v1085h236v-1085h-236zM-51 1290v174h604v-174h-604z" />
    <glyph glyph-name="Ibreve" unicode="&#x12c;" horiz-adv-x="563" 
d="M154 0v1434h256v-1434h-256zM287 1567q-137 0 -230.5 74.5t-107.5 222.5h184q14 -133 153.5 -133t153.5 133h185q-14 -147 -107.5 -222t-230.5 -75z" />
    <glyph glyph-name="ibreve" unicode="&#x12d;" horiz-adv-x="501" 
d="M133 0v1085h236v-1085h-236zM256 1239q-137 0 -230.5 75t-107.5 222h184q14 -133 153.5 -133t154.5 133h184q-14 -147 -107.5 -222t-230.5 -75z" />
    <glyph glyph-name="Iogonek" unicode="&#x12e;" horiz-adv-x="563" 
d="M256 -420q-127 0 -191.5 54.5t-64.5 150.5q0 150 154 215v1434h256v-1434h-93q-143 -80 -143 -184q0 -82 113 -82h51v-154h-82z" />
    <glyph glyph-name="iogonek" unicode="&#x12f;" horiz-adv-x="501" 
d="M236 -420q-127 0 -191.5 54.5t-64.5 150.5q0 150 153 215v1085h236v-1085h-72q-143 -80 -143 -184q0 -82 112 -82h51v-154h-81zM250 1208q-63 0 -105.5 41t-42.5 102.5t42 102.5t106 41q66 0 107.5 -41t41.5 -102.5t-41.5 -102.5t-107.5 -41z" />
    <glyph glyph-name="Idotaccent" unicode="&#x130;" horiz-adv-x="563" 
d="M154 0v1434h256v-1434h-256zM286.5 1587q-59.5 0 -96 39t-36.5 94.5t36.5 94t96 38.5t96.5 -38.5t37 -94t-37 -94.5t-96.5 -39z" />
    <glyph glyph-name="dotlessi" unicode="&#x131;" horiz-adv-x="501" 
d="M133 0v1085h236v-1085h-236z" />
    <glyph glyph-name="IJ" unicode="&#x132;" horiz-adv-x="1628" 
d="M154 0v1434h256v-1434h-256zM1004 -20q-209 0 -334 113.5t-148 326.5h256q14 -104 75.5 -159.5t150.5 -55.5q104 0 164.5 72.5t60.5 214.5v942h256v-942q0 -244 -128 -378t-353 -134z" />
    <glyph glyph-name="ij" unicode="&#x133;" horiz-adv-x="1013" 
d="M133 0v1085h236v-1085h-236zM250 1208q-63 0 -105.5 41t-42.5 102.5t42 102.5t106 41q66 0 107.5 -41t41.5 -102.5t-41.5 -102.5t-107.5 -41zM369 -410v205h163q47 0 80 31t33 82v1177h236v-1198q0 -145 -82 -221t-236 -76h-194zM762 1208q-63 0 -105.5 41t-42.5 102.5
t42 102.5t106 41q66 0 107.5 -41t41.5 -102.5t-41.5 -102.5t-107.5 -41z" />
    <glyph glyph-name="Jcircumflex" unicode="&#x134;" horiz-adv-x="1157" 
d="M532 -20q-209 0 -333.5 113.5t-147.5 326.5h256q14 -104 75.5 -159.5t149.5 -55.5q104 0 165 72.5t61 214.5v942h256v-942q0 -244 -128.5 -378t-353.5 -134zM522 1567l277 307h153l277 -307h-205l-143 174h-11l-143 -174h-205z" />
    <glyph glyph-name="jcircumflex" unicode="&#x135;" horiz-adv-x="501" 
d="M-143 -410v205h163q47 0 80 31t33 82v1177h236v-1198q0 -145 -82 -221t-236 -76h-194zM-102 1239l276 307h154l276 -307h-205l-143 174h-10l-144 -174h-204z" />
    <glyph glyph-name="uni0136" unicode="&#x136;" horiz-adv-x="1259" 
d="M154 0v1434h256v-656l563 656h297l-604 -707l634 -727h-296l-594 676v-676h-256zM492 -512l92 338h215l-154 -338h-153z" />
    <glyph glyph-name="uni0137" unicode="&#x137;" horiz-adv-x="1095" 
d="M143 0v1434h236v-840l440 491h287l-481 -532l512 -553h-287l-471 512v-512h-236zM399 -512l93 338h215l-154 -338h-154z" />
    <glyph glyph-name="Lacute" unicode="&#x139;" horiz-adv-x="1136" 
d="M154 0v1434h256v-1209h686v-225h-942zM195 1567l184 297h235l-235 -297h-184z" />
    <glyph glyph-name="lacute" unicode="&#x13a;" horiz-adv-x="522" 
d="M143 0v1434h236v-1434h-236zM164 1567l184 297h236l-236 -297h-184z" />
    <glyph glyph-name="uni013B" unicode="&#x13b;" horiz-adv-x="1136" 
d="M154 0v1434h256v-1209h686v-225h-942zM430 -512l92 338h215l-153 -338h-154z" />
    <glyph glyph-name="uni013C" unicode="&#x13c;" horiz-adv-x="522" 
d="M143 0v1434h236v-1434h-236zM61 -512l93 338h215l-154 -338h-154z" />
    <glyph glyph-name="Lcaron" unicode="&#x13d;" horiz-adv-x="1136" 
d="M154 0v1434h256v-1209h686v-225h-942zM543 1096l92 338h205l-144 -338h-153z" />
    <glyph glyph-name="lcaron" unicode="&#x13e;" horiz-adv-x="706" 
d="M143 0v1434h236v-1434h-236zM481 1096l92 338h205l-143 -338h-154z" />
    <glyph glyph-name="Ldot" unicode="&#x13f;" horiz-adv-x="1136" 
d="M839.5 666q-61.5 0 -102.5 41t-41 102t41 102t102.5 41t102.5 -41t41 -102t-41 -102t-102.5 -41zM154 0v1434h256v-1209h686v-225h-942z" />
    <glyph glyph-name="ldot" unicode="&#x140;" horiz-adv-x="788" 
d="M655.5 594q-61.5 0 -102.5 41t-41 102.5t41 102.5t102.5 41t102.5 -41t41 -102.5t-41 -102.5t-102.5 -41zM143 0v1434h236v-1434h-236z" />
    <glyph glyph-name="Lslash" unicode="&#x141;" horiz-adv-x="1167" 
d="M184 0v563l-174 -61v246l174 61v625h256v-533l318 113v-246l-318 -113v-430h686v-225h-942z" />
    <glyph glyph-name="lslash" unicode="&#x142;" horiz-adv-x="604" 
d="M184 0v557l-153 -65v235l153 66v641h236v-537l153 66v-236l-153 -68v-659h-236z" />
    <glyph glyph-name="Nacute" unicode="&#x143;" horiz-adv-x="1525" 
d="M154 0v1434h338l614 -1076h10v1076h256v-1434h-338l-614 1075h-10v-1075h-256zM676 1567l184 297h236l-236 -297h-184z" />
    <glyph glyph-name="nacute" unicode="&#x144;" horiz-adv-x="1187" 
d="M133 0v1085h195l30 -133h11q92 154 297 154q178 0 288.5 -121t110.5 -319v-666h-236v645q0 115 -62 180.5t-163 65.5q-104 0 -169.5 -71.5t-65.5 -178.5v-641h-236zM512 1239l184 297h236l-236 -297h-184z" />
    <glyph glyph-name="uni0145" unicode="&#x145;" horiz-adv-x="1525" 
d="M154 0v1434h338l614 -1076h10v1076h256v-1434h-338l-614 1075h-10v-1075h-256zM573 -512l93 338h215l-154 -338h-154z" />
    <glyph glyph-name="uni0146" unicode="&#x146;" horiz-adv-x="1187" 
d="M133 0v1085h195l30 -133h11q92 154 297 154q178 0 288.5 -121t110.5 -319v-666h-236v645q0 115 -62 180.5t-163 65.5q-104 0 -169.5 -71.5t-65.5 -178.5v-641h-236zM399 -512l93 338h215l-154 -338h-154z" />
    <glyph glyph-name="Ncaron" unicode="&#x147;" horiz-adv-x="1525" 
d="M154 0v1434h338l614 -1076h10v1076h256v-1434h-338l-614 1075h-10v-1075h-256zM686 1567l-276 307h204l144 -174h10l143 174h205l-276 -307h-154z" />
    <glyph glyph-name="ncaron" unicode="&#x148;" horiz-adv-x="1187" 
d="M133 0v1085h195l30 -133h11q92 154 297 154q178 0 288.5 -121t110.5 -319v-666h-236v645q0 115 -62 180.5t-163 65.5q-104 0 -169.5 -71.5t-65.5 -178.5v-641h-236zM522 1229l-276 307h205l143 -174h10l144 174h204l-276 -307h-154z" />
    <glyph glyph-name="napostrophe" unicode="&#x149;" horiz-adv-x="1290" 
d="M236 0v1085h194l31 -133h10q92 154 297 154q178 0 288.5 -121t110.5 -319v-666h-235v645q0 115 -62.5 180.5t-162.5 65.5q-104 0 -170 -71.5t-66 -178.5v-641h-235zM10 1137l92 338h205l-143 -338h-154z" />
    <glyph glyph-name="Eng" unicode="&#x14a;" horiz-adv-x="1525" 
d="M809 -461v236h92q215 0 215 215v10h-82l-614 1075h-10v-1075h-256v1434h338l614 -1076h10v1076h256v-1414q0 -481 -461 -481h-102z" />
    <glyph glyph-name="eng" unicode="&#x14b;" horiz-adv-x="1187" 
d="M553 -410v205h164q47 0 79.5 31t32.5 82v737q0 115 -62 180.5t-163 65.5q-104 0 -169.5 -71.5t-65.5 -178.5v-641h-236v1085h195l30 -133h11q92 154 297 154q178 0 288.5 -121t110.5 -319v-779q0 -145 -82 -221t-235 -76h-195z" />
    <glyph glyph-name="Omacron" unicode="&#x14c;" horiz-adv-x="1515" 
d="M758 -20q-305 0 -485.5 194.5t-180.5 542.5t180.5 542.5t485.5 194.5t485 -194.5t180 -542.5t-180 -542.5t-485 -194.5zM757.5 205q188.5 0 299 132t110.5 380t-110.5 380t-299 132t-299 -132t-110.5 -380t110.5 -380t299 -132zM451 1628v174h604v-174h-604z" />
    <glyph glyph-name="omacron" unicode="&#x14d;" horiz-adv-x="1187" 
d="M593.5 -20q-233.5 0 -372.5 149.5t-139 413.5t139 413.5t372.5 149.5t373 -149.5t139.5 -413.5t-139.5 -413.5t-373 -149.5zM594 195q121 0 198.5 89t77.5 259t-77.5 259t-198.5 89t-199 -89t-78 -259t78 -259t199 -89zM297 1290v174h604v-174h-604z" />
    <glyph glyph-name="Obreve" unicode="&#x14e;" horiz-adv-x="1515" 
d="M758 -20q-305 0 -485.5 194.5t-180.5 542.5t180.5 542.5t485.5 194.5t485 -194.5t180 -542.5t-180 -542.5t-485 -194.5zM757.5 205q188.5 0 299 132t110.5 380t-110.5 380t-299 132t-299 -132t-110.5 -380t110.5 -380t299 -132zM758 1577q-137 0 -230.5 74.5
t-107.5 222.5h184q14 -133 153.5 -133t153.5 133h185q-14 -147 -107.5 -222t-230.5 -75z" />
    <glyph glyph-name="obreve" unicode="&#x14f;" horiz-adv-x="1187" 
d="M593.5 -20q-233.5 0 -372.5 149.5t-139 413.5t139 413.5t372.5 149.5t373 -149.5t139.5 -413.5t-139.5 -413.5t-373 -149.5zM594 195q121 0 198.5 89t77.5 259t-77.5 259t-198.5 89t-199 -89t-78 -259t78 -259t199 -89zM594 1239q-137 0 -230.5 75t-107.5 222h184
q14 -133 153.5 -133t154.5 133h184q-14 -147 -107.5 -222t-230.5 -75z" />
    <glyph glyph-name="Ohungarumlaut" unicode="&#x150;" horiz-adv-x="1515" 
d="M758 -20q-305 0 -485.5 194.5t-180.5 542.5t180.5 542.5t485.5 194.5t485 -194.5t180 -542.5t-180 -542.5t-485 -194.5zM757.5 205q188.5 0 299 132t110.5 380t-110.5 380t-299 132t-299 -132t-110.5 -380t110.5 -380t299 -132zM492 1567l184 297h235l-235 -297h-184z
M840 1567l184 297h236l-236 -297h-184z" />
    <glyph glyph-name="ohungarumlaut" unicode="&#x151;" horiz-adv-x="1187" 
d="M593.5 -20q-233.5 0 -372.5 149.5t-139 413.5t139 413.5t372.5 149.5t373 -149.5t139.5 -413.5t-139.5 -413.5t-373 -149.5zM594 195q121 0 198.5 89t77.5 259t-77.5 259t-198.5 89t-199 -89t-78 -259t78 -259t199 -89zM328 1239l184 297h236l-236 -297h-184zM676 1239
l184 297h236l-236 -297h-184z" />
    <glyph glyph-name="OE" unicode="&#x152;" horiz-adv-x="2181" 
d="M737 205q166 0 277.5 132t111.5 380t-111.5 380t-277.5 132t-277.5 -132t-111.5 -380t111.5 -380t277.5 -132zM727 -20q-276 0 -455.5 196.5t-179.5 540.5t179.5 540.5t455.5 196.5q139 0 244.5 -50t154.5 -124v154h932v-226h-676v-379h635v-215h-635v-389h697v-225h-953
v154q-49 -74 -154.5 -124t-244.5 -50z" />
    <glyph glyph-name="oe" unicode="&#x153;" horiz-adv-x="1935" 
d="M584 195q121 0 193.5 89t72.5 259q0 166 -74 257t-192.5 91t-192.5 -92t-74 -256q0 -170 73 -259t194 -89zM573 -20q-219 0 -355 149.5t-136 413.5t136 413.5t355 149.5q270 0 390 -205q119 205 389 205q223 0 362 -154.5t139 -373.5l-10 -107h-758q16 -131 84 -203.5
t183 -72.5q137 0 225 122h256q-47 -152 -170 -244.5t-301 -92.5q-272 0 -399 204q-128 -204 -390 -204zM1085 655h523q-47 236 -267 236q-100 0 -166.5 -60.5t-89.5 -175.5z" />
    <glyph glyph-name="Racute" unicode="&#x154;" horiz-adv-x="1331" 
d="M154 0v1434h594q209 0 340 -123t131 -328q0 -104 -34 -188t-90.5 -133.5t-108.5 -77t-105 -41.5l379 -543h-287l-369 532h-194v-532h-256zM410 758h319q106 0 170 59.5t64 166t-63.5 165.5t-172.5 59h-317v-450zM563 1567l185 297h235l-235 -297h-185z" />
    <glyph glyph-name="racute" unicode="&#x155;" horiz-adv-x="798" 
d="M133 0v1085h195l30 -133h11q88 133 266 133h133v-225h-113q-131 0 -208.5 -71.5t-77.5 -194.5v-594h-236zM348 1239l184 297h236l-236 -297h-184z" />
    <glyph glyph-name="uni0156" unicode="&#x156;" horiz-adv-x="1331" 
d="M154 0v1434h594q209 0 340 -123t131 -328q0 -104 -34 -188t-90.5 -133.5t-108.5 -77t-105 -41.5l379 -543h-287l-369 532h-194v-532h-256zM410 758h319q106 0 170 59.5t64 166t-63.5 165.5t-172.5 59h-317v-450zM471 -512l92 338h215l-153 -338h-154z" />
    <glyph glyph-name="uni0157" unicode="&#x157;" horiz-adv-x="798" 
d="M133 0v1085h195l30 -133h11q88 133 266 133h133v-225h-113q-131 0 -208.5 -71.5t-77.5 -194.5v-594h-236zM51 -512l92 338h215l-153 -338h-154z" />
    <glyph glyph-name="Rcaron" unicode="&#x158;" horiz-adv-x="1331" 
d="M154 0v1434h594q209 0 340 -123t131 -328q0 -104 -34 -188t-90.5 -133.5t-108.5 -77t-105 -41.5l379 -543h-287l-369 532h-194v-532h-256zM410 758h319q106 0 170 59.5t64 166t-63.5 165.5t-172.5 59h-317v-450zM584 1567l-277 307h205l143 -174h11l143 174h205
l-277 -307h-153z" />
    <glyph glyph-name="rcaron" unicode="&#x159;" horiz-adv-x="798" 
d="M133 0v1085h195l30 -133h11q88 133 266 133h133v-225h-113q-131 0 -208.5 -71.5t-77.5 -194.5v-594h-236zM369 1229l-277 307h205l143 -174h11l143 174h205l-277 -307h-153z" />
    <glyph glyph-name="Sacute" unicode="&#x15a;" horiz-adv-x="1259" 
d="M625 -20q-233 0 -383 112.5t-181 317.5h256q25 -96 106 -150.5t202 -54.5q150 0 223.5 54t73.5 151q0 63 -45.5 104t-116 62.5t-156.5 39t-173 44t-157.5 67.5t-115.5 122t-45 195q0 190 139 300t373 110q231 0 366 -103.5t166 -285.5h-256q-49 164 -276 164
q-125 0 -190.5 -51.5t-65.5 -133.5q0 -90 84 -139t204.5 -74.5t241.5 -60.5t205 -124t84 -236q0 -184 -151.5 -307t-411.5 -123zM543 1567l184 297h236l-236 -297h-184z" />
    <glyph glyph-name="sacute" unicode="&#x15b;" horiz-adv-x="1024" 
d="M512 -20q-193 0 -310.5 92t-150.5 245h256q16 -55 69.5 -88.5t135.5 -33.5q205 0 205 112q0 55 -64.5 84t-155.5 46.5t-183.5 45t-157 104.5t-64.5 201q0 137 108.5 227.5t301 90.5t305.5 -86t145 -232h-256q-41 102 -194 103q-164 0 -164 -103q0 -47 46 -76.5t115.5 -41
t150.5 -35t150.5 -54t116 -101t46.5 -173.5q0 -145 -115 -236t-336 -91zM410 1239l184 297h235l-235 -297h-184z" />
    <glyph glyph-name="Scircumflex" unicode="&#x15c;" horiz-adv-x="1259" 
d="M625 -20q-233 0 -383 112.5t-181 317.5h256q25 -96 106 -150.5t202 -54.5q150 0 223.5 54t73.5 151q0 63 -45.5 104t-116 62.5t-156.5 39t-173 44t-157.5 67.5t-115.5 122t-45 195q0 190 139 300t373 110q231 0 366 -103.5t166 -285.5h-256q-49 164 -276 164
q-125 0 -190.5 -51.5t-65.5 -133.5q0 -90 84 -139t204.5 -74.5t241.5 -60.5t205 -124t84 -236q0 -184 -151.5 -307t-411.5 -123zM276 1567l277 307h154l276 -307h-205l-143 174h-10l-144 -174h-205z" />
    <glyph glyph-name="scircumflex" unicode="&#x15d;" horiz-adv-x="1024" 
d="M512 -20q-193 0 -310.5 92t-150.5 245h256q16 -55 69.5 -88.5t135.5 -33.5q205 0 205 112q0 55 -64.5 84t-155.5 46.5t-183.5 45t-157 104.5t-64.5 201q0 137 108.5 227.5t301 90.5t305.5 -86t145 -232h-256q-41 102 -194 103q-164 0 -164 -103q0 -47 46 -76.5t115.5 -41
t150.5 -35t150.5 -54t116 -101t46.5 -173.5q0 -145 -115 -236t-336 -91zM154 1239l276 307h154l276 -307h-205l-143 174h-10l-144 -174h-204z" />
    <glyph glyph-name="Scedilla" unicode="&#x15e;" horiz-adv-x="1259" 
d="M471 -451v144h113q61 0 61 55q0 57 -61 57h-92v103l32 78q-193 23 -314.5 132t-148.5 292h256q25 -96 106 -150.5t202 -54.5q150 0 223.5 54t73.5 151q0 63 -45.5 104t-116 62.5t-156.5 39t-173 44t-157.5 67.5t-115.5 122t-45 195q0 190 139 300t373 110
q231 0 366 -103.5t166 -285.5h-256q-49 164 -276 164q-125 0 -190.5 -51.5t-65.5 -133.5q0 -90 84 -139t204.5 -74.5t241.5 -60.5t205 -124t84 -236q0 -174 -136.5 -294t-373.5 -134l-23 -54q72 -8 118 -54t46 -120q0 -92 -58.5 -148.5t-156.5 -56.5h-133z" />
    <glyph glyph-name="scedilla" unicode="&#x15f;" horiz-adv-x="1024" 
d="M379 -451v144h113q61 0 61 55q0 57 -61 57h-93v103l33 76q-158 18 -255 108t-126 225h256q16 -55 69.5 -88.5t135.5 -33.5q205 0 205 112q0 55 -64.5 84t-155.5 46.5t-183.5 45t-157 104.5t-64.5 201q0 137 108.5 227.5t301 90.5t305.5 -86t145 -232h-256
q-41 102 -194 103q-164 0 -164 -103q0 -47 46 -76.5t115.5 -41t150.5 -35t150.5 -54t116 -101t46.5 -173.5q0 -133 -96.5 -221t-282.5 -102l-21 -56q72 -8 118 -54t46 -120q0 -92 -58.5 -148.5t-156.5 -56.5h-133z" />
    <glyph glyph-name="Scaron" unicode="&#x160;" horiz-adv-x="1259" 
d="M625 -20q-233 0 -383 112.5t-181 317.5h256q25 -96 106 -150.5t202 -54.5q150 0 223.5 54t73.5 151q0 63 -45.5 104t-116 62.5t-156.5 39t-173 44t-157.5 67.5t-115.5 122t-45 195q0 190 139 300t373 110q231 0 366 -103.5t166 -285.5h-256q-49 164 -276 164
q-125 0 -190.5 -51.5t-65.5 -133.5q0 -90 84 -139t204.5 -74.5t241.5 -60.5t205 -124t84 -236q0 -184 -151.5 -307t-411.5 -123zM553 1567l-277 307h205l144 -174h10l143 174h205l-276 -307h-154z" />
    <glyph glyph-name="scaron" unicode="&#x161;" horiz-adv-x="1024" 
d="M512 -20q-193 0 -310.5 92t-150.5 245h256q16 -55 69.5 -88.5t135.5 -33.5q205 0 205 112q0 55 -64.5 84t-155.5 46.5t-183.5 45t-157 104.5t-64.5 201q0 137 108.5 227.5t301 90.5t305.5 -86t145 -232h-256q-41 102 -194 103q-164 0 -164 -103q0 -47 46 -76.5t115.5 -41
t150.5 -35t150.5 -54t116 -101t46.5 -173.5q0 -145 -115 -236t-336 -91zM430 1229l-276 307h204l144 -174h10l143 174h205l-276 -307h-154z" />
    <glyph glyph-name="uni0162" unicode="&#x162;" horiz-adv-x="1218" 
d="M522 -451v144h113q61 0 61 55q0 57 -61 57h-92v103l41 92h-103v1208h-440v226h1137v-226h-441v-1208l-30 -72q72 -8 117.5 -54t45.5 -120q0 -92 -58 -148.5t-157 -56.5h-133z" />
    <glyph glyph-name="uni0163" unicode="&#x163;" horiz-adv-x="798" 
d="M297 -451v144h113q61 0 61 55q0 57 -61 57h-93v103l54 121q-156 70 -156 268v573h-174v215h174l31 287h205v-287h266v-215h-266v-542q0 -47 30.5 -80t81.5 -33h154v-215h-205l-31 -72q72 -8 118 -54t46 -120q0 -92 -58.5 -148.5t-156.5 -56.5h-133z" />
    <glyph glyph-name="Tcaron" unicode="&#x164;" horiz-adv-x="1218" 
d="M481 0v1208h-440v226h1137v-226h-441v-1208h-256zM532 1567l-276 307h205l143 -174h10l144 174h205l-277 -307h-154z" />
    <glyph glyph-name="tcaron" unicode="&#x165;" horiz-adv-x="931" 
d="M522 0q-145 0 -226 79t-81 218v573h-174v215h174l31 287h205v-287h266v-215h-266v-542q0 -47 30.5 -80t81.5 -33h154v-215h-195zM707 1096l92 338h205l-144 -338h-153z" />
    <glyph glyph-name="Tbar" unicode="&#x166;" horiz-adv-x="1218" 
d="M481 0v737h-327v226h327v245h-440v226h1137v-226h-441v-245h328v-226h-328v-737h-256z" />
    <glyph glyph-name="tbar" unicode="&#x167;" horiz-adv-x="798" 
d="M522 0q-145 0 -226 79t-81 218v225h-174v205h174v143h-174v215h174l31 287h205v-287h266v-215h-266v-143h266v-205h-266v-194q0 -47 30.5 -80t81.5 -33h154v-215h-195z" />
    <glyph glyph-name="Umacron" unicode="&#x16a;" horiz-adv-x="1454" 
d="M727 -20q-272 0 -428 163.5t-156 462.5v828h256v-828q0 -190 89.5 -295.5t238.5 -105.5q147 0 237.5 105.5t90.5 295.5v828h256v-828q0 -297 -157 -461.5t-427 -164.5zM430 1628v174h604v-174h-604z" />
    <glyph glyph-name="umacron" unicode="&#x16b;" horiz-adv-x="1198" 
d="M532 -20q-178 0 -288.5 120.5t-110.5 319.5v665h236v-645q0 -115 62.5 -180t162.5 -65q104 0 169.5 71.5t65.5 177.5v641h236v-1085h-195l-30 133h-11q-92 -153 -297 -153zM297 1290v174h604v-174h-604z" />
    <glyph glyph-name="Ubreve" unicode="&#x16c;" horiz-adv-x="1454" 
d="M727 -20q-272 0 -428 163.5t-156 462.5v828h256v-828q0 -190 89.5 -295.5t238.5 -105.5q147 0 237.5 105.5t90.5 295.5v828h256v-828q0 -297 -157 -461.5t-427 -164.5zM727 1567q-137 0 -230.5 74.5t-107.5 222.5h184q14 -133 153.5 -133t154.5 133h184
q-14 -147 -107.5 -222t-230.5 -75z" />
    <glyph glyph-name="ubreve" unicode="&#x16d;" horiz-adv-x="1198" 
d="M532 -20q-178 0 -288.5 120.5t-110.5 319.5v665h236v-645q0 -115 62.5 -180t162.5 -65q104 0 169.5 71.5t65.5 177.5v641h236v-1085h-195l-30 133h-11q-92 -153 -297 -153zM604 1239q-137 0 -230 75t-108 222h185q14 -133 153 -133t154 133h184q-14 -147 -107.5 -222
t-230.5 -75z" />
    <glyph glyph-name="Uring" unicode="&#x16e;" horiz-adv-x="1454" 
d="M727 -20q-272 0 -428 163.5t-156 462.5v828h256v-828q0 -190 89.5 -295.5t238.5 -105.5q147 0 237.5 105.5t90.5 295.5v828h256v-828q0 -297 -157 -461.5t-427 -164.5zM727 1526q-94 0 -154.5 58t-60.5 156.5t60.5 157t154.5 58.5t154.5 -58.5t60.5 -157t-60.5 -156.5
t-154.5 -58zM727 1659q82 0 82 82t-82 82t-82 -82t82 -82z" />
    <glyph glyph-name="uring" unicode="&#x16f;" horiz-adv-x="1198" 
d="M532 -20q-178 0 -288.5 120.5t-110.5 319.5v665h236v-645q0 -115 62.5 -180t162.5 -65q104 0 169.5 71.5t65.5 177.5v641h236v-1085h-195l-30 133h-11q-92 -153 -297 -153zM604 1198q-94 0 -154.5 58.5t-60.5 156.5t60.5 156.5t154.5 58.5t154.5 -58.5t60.5 -156.5
t-60.5 -156.5t-154.5 -58.5zM604 1331q82 0 82 82t-82 82t-82 -82t82 -82z" />
    <glyph glyph-name="Uhungarumlaut" unicode="&#x170;" horiz-adv-x="1454" 
d="M727 -20q-272 0 -428 163.5t-156 462.5v828h256v-828q0 -190 89.5 -295.5t238.5 -105.5q147 0 237.5 105.5t90.5 295.5v828h256v-828q0 -297 -157 -461.5t-427 -164.5zM461 1567l184 297h236l-236 -297h-184zM809 1567l184 297h236l-236 -297h-184z" />
    <glyph glyph-name="uhungarumlaut" unicode="&#x171;" horiz-adv-x="1198" 
d="M532 -20q-178 0 -288.5 120.5t-110.5 319.5v665h236v-645q0 -115 62.5 -180t162.5 -65q104 0 169.5 71.5t65.5 177.5v641h236v-1085h-195l-30 133h-11q-92 -153 -297 -153zM328 1239l184 297h236l-236 -297h-184zM676 1239l184 297h236l-236 -297h-184z" />
    <glyph glyph-name="Uogonek" unicode="&#x172;" horiz-adv-x="1454" 
d="M819 -420q-127 0 -191.5 54.5t-64.5 150.5q0 131 117 197q-252 14 -394.5 177t-142.5 447v828h256v-828q0 -190 89.5 -295.5t238.5 -105.5q147 0 237.5 105.5t90.5 295.5v828h256v-828q0 -256 -118 -414.5t-327 -197.5q-129 -76 -129 -178q0 -82 113 -82h51v-154h-82z
" />
    <glyph glyph-name="uogonek" unicode="&#x173;" horiz-adv-x="1198" 
d="M1004 -420q-127 0 -191.5 54.5t-64.5 150.5q0 150 153 215h-31l-30 133h-11q-92 -154 -297 -153q-178 0 -288.5 120.5t-110.5 319.5v665h236v-645q0 -115 62.5 -180t162.5 -65q104 0 169.5 71.5t65.5 177.5v641h236v-1085q-143 -80 -143 -184q0 -82 112 -82h51v-154h-81z
" />
    <glyph glyph-name="Wcircumflex" unicode="&#x174;" horiz-adv-x="1914" 
d="M389 0l-369 1434h267l245 -1086h11l266 1086h297l266 -1086h10l246 1086h266l-368 -1434h-307l-256 1075h-11l-256 -1075h-307zM604 1567l277 307h153l277 -307h-205l-143 174h-11l-143 -174h-205z" />
    <glyph glyph-name="wcircumflex" unicode="&#x175;" horiz-adv-x="1607" 
d="M307 0l-297 1085h246l205 -788h10l205 788h256l205 -788h10l205 788h245l-297 -1085h-286l-205 748h-10l-205 -748h-287zM440 1239l277 307h153l277 -307h-205l-143 174h-11l-143 -174h-205z" />
    <glyph glyph-name="Ycircumflex" unicode="&#x176;" horiz-adv-x="1198" 
d="M471 0v512l-502 922h267l358 -666h10l359 666h266l-502 -922v-512h-256zM246 1567l276 307h154l276 -307h-204l-144 174h-10l-143 -174h-205z" />
    <glyph glyph-name="ycircumflex" unicode="&#x177;" horiz-adv-x="1116" 
d="M276 -410l164 410l-440 1085h256l297 -768h10l297 768h256l-594 -1495h-246zM205 1239l276 307h154l276 -307h-204l-144 174h-10l-143 -174h-205z" />
    <glyph glyph-name="Ydieresis" unicode="&#x178;" horiz-adv-x="1198" 
d="M471 0v512l-502 922h267l358 -666h10l359 666h266l-502 -922v-512h-256zM399.5 1587q-59.5 0 -96.5 39t-37 94.5t37 94t96.5 38.5t96 -38.5t36.5 -94t-36.5 -94.5t-96 -39zM788.5 1587q-59.5 0 -96.5 39t-37 94.5t37 94t96.5 38.5t96.5 -38.5t37 -94t-37 -94.5t-96.5 -39
z" />
    <glyph glyph-name="Zacute" unicode="&#x179;" horiz-adv-x="1208" 
d="M72 0v195l737 1013h-717v226h1034v-195l-737 -1014h748v-225h-1065zM512 1567l184 297h236l-236 -297h-184z" />
    <glyph glyph-name="zacute" unicode="&#x17a;" horiz-adv-x="972" 
d="M61 0v184l543 686h-522v215h819v-184l-543 -686h553v-215h-850zM389 1239l184 297h236l-236 -297h-184z" />
    <glyph glyph-name="Zdotaccent" unicode="&#x17b;" horiz-adv-x="1208" 
d="M72 0v195l737 1013h-717v226h1034v-195l-737 -1014h748v-225h-1065zM614.5 1587q-59.5 0 -96.5 39t-37 94.5t37 94t96.5 38.5t96.5 -38.5t37 -94t-37 -94.5t-96.5 -39z" />
    <glyph glyph-name="zdotaccent" unicode="&#x17c;" horiz-adv-x="972" 
d="M61 0v184l543 686h-522v215h819v-184l-543 -686h553v-215h-850zM491.5 1260q-59.5 0 -96.5 38.5t-37 94t37 94.5t96.5 39t96.5 -39t37 -94.5t-37 -94t-96.5 -38.5z" />
    <glyph glyph-name="Zcaron" unicode="&#x17d;" horiz-adv-x="1208" 
d="M72 0v195l737 1013h-717v226h1034v-195l-737 -1014h748v-225h-1065zM532 1567l-276 307h205l143 -174h10l144 174h205l-277 -307h-154z" />
    <glyph glyph-name="zcaron" unicode="&#x17e;" horiz-adv-x="972" 
d="M61 0v184l543 686h-522v215h819v-184l-543 -686h553v-215h-850zM399 1229l-276 307h205l143 -174h10l144 174h204l-276 -307h-154z" />
    <glyph glyph-name="uni018F" unicode="&#x18f;" horiz-adv-x="1495" 
d="M737 205q168 0 276.5 105.5t125.5 283.5h-789q20 -199 122.5 -294t264.5 -95zM739 -20q-295 0 -471 191t-176 556v72h1051q-12 203 -123 316.5t-283 113.5q-236 0 -338 -205h-266q63 201 215 315.5t389 114.5q305 0 485.5 -191.5t180.5 -545.5q0 -350 -180.5 -543.5
t-483.5 -193.5z" />
    <glyph glyph-name="florin" unicode="&#x192;" horiz-adv-x="880" 
d="M-143 -369l51 226h112q113 0 134 102l157 737h-198l51 226h196l60 276q29 133 106.5 194.5t221.5 61.5h184l-51 -225h-113q-104 0 -123 -92l-47 -215h231l-51 -226h-227l-172 -798q-29 -139 -107.5 -203t-230.5 -64h-184z" />
    <glyph glyph-name="Aringacute" unicode="&#x1fa;" horiz-adv-x="1341" 
d="M666 1638q82 0 82 82t-82 82t-82 -82t82 -82zM665.5 1505q-94.5 0 -154.5 58.5t-60 156.5q0 90 52 147.5t136 65.5l47 115h195l-101 -141q100 -57 101 -187q0 -98 -60.5 -156.5t-155 -58.5zM-10 0l522 1434h317l523 -1434h-267l-110 307h-608l-111 -307h-266zM446 532
h449l-219 615h-10z" />
    <glyph glyph-name="aringacute" unicode="&#x1fb;" horiz-adv-x="1116" 
d="M563 1311q82 0 82 82t-82 82t-82 -82t82 -82zM563 1178q-94 0 -154.5 58t-60.5 157q0 90 51.5 147t135.5 66l49 125h194l-100 -152q100 -57 100 -186q0 -98 -60.5 -156.5t-154.5 -58.5zM492 184q123 0 194.5 63.5t71.5 172.5v51h-266q-184 0 -185 -143q0 -63 47.5 -103.5
t137.5 -40.5zM440 -20q-166 0 -267 95t-101 242q0 145 108.5 241.5t300.5 96.5h277v52q0 92 -57.5 143t-157.5 51q-78 0 -128 -36t-67 -87h-242q37 145 152 236.5t285 91.5q213 0 331.5 -106.5t118.5 -292.5v-707h-205l-20 133h-10q-35 -61 -120 -107t-198 -46z" />
    <glyph glyph-name="AEacute" unicode="&#x1fc;" horiz-adv-x="1945" 
d="M481 530h400v658h-82zM-61 0l706 1434h1178v-226h-686v-379h645v-215h-645v-389h706v-225h-962v303h-510l-156 -303h-276zM932 1567l184 297h236l-236 -297h-184z" />
    <glyph glyph-name="aeacute" unicode="&#x1fd;" horiz-adv-x="1843" 
d="M492 184q123 0 194.5 63.5t71.5 172.5v41h-266q-94 0 -139.5 -37t-45.5 -96q0 -63 47.5 -103.5t137.5 -40.5zM440 -20q-166 0 -267 95t-101 242q0 143 108.5 235.5t300.5 92.5h277v62q0 92 -57.5 143t-157.5 51q-78 0 -128 -36t-67 -87h-242q37 145 152 236.5t285 91.5
q125 0 216 -51t132 -133q152 184 369 184q236 0 368.5 -152.5t132.5 -380.5l-10 -112h-758q8 -123 81 -194.5t196 -71.5q78 0 124 30.5t91 91.5h256q-49 -150 -168 -243.5t-305 -93.5q-260 0 -398 204q-131 -204 -430 -204zM993 645h529q-12 115 -83 180.5t-179 65.5
q-115 0 -183 -64.5t-84 -181.5zM829 1239l185 297h235l-235 -297h-185z" />
    <glyph glyph-name="Oslashacute" unicode="&#x1fe;" horiz-adv-x="1515" 
d="M436 365l484 833q-74 31 -162 31q-188 0 -299 -132t-111 -380q0 -221 88 -352zM195 -51l110 190q-213 197 -213 578q0 348 180.5 542.5t485.5 194.5q156 0 280 -53l49 84h234l-113 -193q215 -199 215 -575q0 -348 -180 -542.5t-485 -194.5q-150 0 -281 51l-47 -82h-235z
M758 205q188 0 298.5 132t110.5 380q0 219 -90 350l-481 -831q72 -31 162 -31zM666 1567l184 297h235l-235 -297h-184z" />
    <glyph glyph-name="oslashacute" unicode="&#x1ff;" horiz-adv-x="1187" 
d="M356 342l340 528q-55 20 -102 21q-121 0 -199 -89t-78 -259q0 -119 39 -201zM113 -41l108 170q-139 152 -139 414q0 264 139 413.5t373 149.5q119 0 225 -45l41 65h215l-108 -170q139 -152 139 -413q0 -264 -139.5 -413.5t-372.5 -149.5q-119 0 -225 43l-41 -64h-215z
M594 195q121 0 198.5 89t77.5 259q0 123 -41 200l-340 -530q50 -18 105 -18zM502 1239l184 297h236l-236 -297h-184z" />
    <glyph glyph-name="uni0218" unicode="&#x218;" horiz-adv-x="1259" 
d="M625 -20q-233 0 -383 112.5t-181 317.5h256q25 -96 106 -150.5t202 -54.5q150 0 223.5 54t73.5 151q0 63 -45.5 104t-116 62.5t-156.5 39t-173 44t-157.5 67.5t-115.5 122t-45 195q0 190 139 300t373 110q231 0 366 -103.5t166 -285.5h-256q-49 164 -276 164
q-125 0 -190.5 -51.5t-65.5 -133.5q0 -90 84 -139t204.5 -74.5t241.5 -60.5t205 -124t84 -236q0 -184 -151.5 -307t-411.5 -123zM440 -512l92 338h216l-154 -338h-154z" />
    <glyph glyph-name="uni0219" unicode="&#x219;" horiz-adv-x="1024" 
d="M512 -20q-193 0 -310.5 92t-150.5 245h256q16 -55 69.5 -88.5t135.5 -33.5q205 0 205 112q0 55 -64.5 84t-155.5 46.5t-183.5 45t-157 104.5t-64.5 201q0 137 108.5 227.5t301 90.5t305.5 -86t145 -232h-256q-41 102 -194 103q-164 0 -164 -103q0 -47 46 -76.5t115.5 -41
t150.5 -35t150.5 -54t116 -101t46.5 -173.5q0 -145 -115 -236t-336 -91zM317 -512l93 338h215l-154 -338h-154z" />
    <glyph glyph-name="uni021A" unicode="&#x21a;" horiz-adv-x="1218" 
d="M481 0v1208h-440v226h1137v-226h-441v-1208h-256zM410 -512l92 338h215l-154 -338h-153z" />
    <glyph glyph-name="uni021B" unicode="&#x21b;" horiz-adv-x="798" 
d="M522 0q-145 0 -226 79t-81 218v573h-174v215h174l31 287h205v-287h266v-215h-266v-542q0 -47 30.5 -80t81.5 -33h154v-215h-195zM264 -512l92 338h215l-153 -338h-154z" />
    <glyph glyph-name="uni0232" unicode="&#x232;" horiz-adv-x="1198" 
d="M471 0v512l-502 922h267l358 -666h10l359 666h266l-502 -922v-512h-256zM297 1628v174h604v-174h-604z" />
    <glyph glyph-name="uni0233" unicode="&#x233;" horiz-adv-x="1116" 
d="M276 -410l164 410l-440 1085h256l297 -768h10l297 768h256l-594 -1495h-246zM256 1290v174h604v-174h-604z" />
    <glyph glyph-name="uni0244" unicode="&#x244;" horiz-adv-x="1495" 
d="M747.5 205q149.5 0 238.5 102.5t89 296.5v266h-655v-266q0 -195 89 -297t238.5 -102zM747.5 -20q-272.5 0 -428 163.5t-155.5 460.5v266h-144v205h144v359h256v-359h655v359h256v-359h144v-205h-144v-266q0 -297 -155.5 -460.5t-428 -163.5z" />
    <glyph glyph-name="uni0259" unicode="&#x259;" horiz-adv-x="1187" 
d="M594 195q104 0 173 62t93 173h-532q16 -104 85.5 -169.5t180.5 -65.5zM594 -20q-238 0 -375 153.5t-137 378.5l10 102h768q-8 125 -81.5 201t-194.5 76q-137 0 -226 -123h-256q49 150 171 244t313 94q240 0 380 -148.5t140 -414.5q0 -264 -139.5 -413.5t-372.5 -149.5z
" />
    <glyph glyph-name="uni0289" unicode="&#x289;" horiz-adv-x="1280" 
d="M635 195q104 0 169.5 71.5t65.5 177.5v273h-460v-277q0 -115 62.5 -180t162.5 -65zM573 -20q-178 0 -288.5 120.5t-110.5 319.5v297h-133v194h133v174h236v-174h460v174h236v-174h133v-194h-133v-717h-195l-30 133h-11q-92 -153 -297 -153z" />
    <glyph glyph-name="uni02BC" unicode="&#x2bc;" horiz-adv-x="419" 
d="M61 1096l93 338h204l-143 -338h-154z" />
    <glyph glyph-name="circumflex" unicode="&#x2c6;" horiz-adv-x="829" 
d="M61 1239l277 307h154l276 -307h-205l-143 174h-10l-144 -174h-205z" />
    <glyph glyph-name="caron" unicode="&#x2c7;" horiz-adv-x="829" 
d="M338 1229l-277 307h205l144 -174h10l143 174h205l-276 -307h-154z" />
    <glyph glyph-name="breve" unicode="&#x2d8;" horiz-adv-x="798" 
d="M399.5 1239q-137.5 0 -230.5 75t-108 222h185q14 -133 153.5 -133t153.5 133h184q-14 -147 -107 -222t-230.5 -75z" />
    <glyph glyph-name="dotaccent" unicode="&#x2d9;" horiz-adv-x="389" 
d="M194.5 1260q-59.5 0 -96.5 38.5t-37 94t37 94.5t96.5 39t96.5 -39t37 -94.5t-37 -94t-96.5 -38.5z" />
    <glyph glyph-name="ring" unicode="&#x2da;" horiz-adv-x="552" 
d="M276.5 1198q-94.5 0 -155 58.5t-60.5 156.5t60.5 156.5t155 58.5t155 -58.5t60.5 -156.5t-60.5 -156.5t-155 -58.5zM276.5 1331q81.5 0 81.5 82t-81.5 82t-81.5 -82t81.5 -82z" />
    <glyph glyph-name="ogonek" unicode="&#x2db;" horiz-adv-x="460" 
d="M317 -420q-127 0 -191.5 54.5t-64.5 150.5q0 150 154 215v20h164v-20q-143 -80 -143 -184q0 -82 112 -82h51v-154h-82z" />
    <glyph glyph-name="tilde" unicode="&#x2dc;" horiz-adv-x="788" 
d="M532 1260q-63 0 -136.5 46t-98.5 46q-61 0 -61 -82h-175q0 113 54.5 179.5t140.5 66.5q63 0 137 -46.5t99 -46.5q61 0 61 82h174q0 -113 -54.5 -179t-140.5 -66z" />
    <glyph glyph-name="hungarumlaut" unicode="&#x2dd;" horiz-adv-x="890" 
d="M61 1239l185 297h235l-235 -297h-185zM410 1239l184 297h235l-235 -297h-184z" />
    <glyph glyph-name="acutecomb" unicode="&#x301;" horiz-adv-x="0" 
d="M-829 1567l184 297h235l-235 -297h-184z" />
    <glyph glyph-name="uni0302" unicode="&#x302;" horiz-adv-x="0" 
d="M-1085 1567l276 307h154l276 -307h-205l-143 174h-10l-144 -174h-204z" />
    <glyph glyph-name="uni0304" unicode="&#x304;" horiz-adv-x="0" 
d="M-1034 1628v174h604v-174h-604z" />
    <glyph glyph-name="uni0306" unicode="&#x306;" horiz-adv-x="0" 
d="M-727 1577q-137 0 -230.5 74.5t-107.5 222.5h184q14 -133 153.5 -133t154.5 133h184q-14 -147 -107.5 -222t-230.5 -75z" />
    <glyph glyph-name="uni0307" unicode="&#x307;" horiz-adv-x="0" 
d="M-727 1597q-59 0 -96 39t-37 94.5t37 94.5t96 39t96 -39t37 -94.5t-37 -94.5t-96 -39z" />
    <glyph glyph-name="uni0308" unicode="&#x308;" horiz-adv-x="0" 
d="M-921.5 1597q-59.5 0 -96.5 39t-37 94.5t37 94.5t96.5 39t96.5 -39t37 -94.5t-37 -94.5t-96.5 -39zM-532.5 1597q-59.5 0 -96.5 39t-37 94.5t37 94.5t96.5 39t96.5 -39t37 -94.5t-37 -94.5t-96.5 -39z" />
    <glyph glyph-name="uni030A" unicode="&#x30a;" horiz-adv-x="0" 
d="M-727 1536q-94 0 -154.5 58.5t-60.5 156.5t60.5 156.5t154.5 58.5t154.5 -58.5t60.5 -156.5t-60.5 -156.5t-154.5 -58.5zM-727 1669q82 0 82 82t-82 82t-82 -82t82 -82z" />
    <glyph glyph-name="uni030C" unicode="&#x30c;" horiz-adv-x="0" 
d="M-809 1556l-276 308h204l144 -174h10l143 174h205l-276 -308h-154z" />
    <glyph glyph-name="uni0326" unicode="&#x326;" horiz-adv-x="430" 
d="M61 -512l93 338h215l-154 -338h-154z" />
    <glyph glyph-name="uni0400" unicode="&#x400;" horiz-adv-x="1218" 
d="M154 0v1434h942v-226h-686v-379h645v-215h-645v-389h706v-225h-962zM553 1567l-236 297h236l184 -297h-184z" />
    <glyph glyph-name="uni0401" unicode="&#x401;" horiz-adv-x="1218" 
d="M154 0v1434h942v-226h-686v-379h645v-215h-645v-389h706v-225h-962zM440.5 1587q-59.5 0 -96.5 39t-37 94.5t37 94t96.5 38.5t96 -38.5t36.5 -94t-36.5 -94.5t-96 -39zM829.5 1587q-59.5 0 -96.5 39t-37 94.5t37 94t96.5 38.5t96.5 -38.5t37 -94t-37 -94.5t-96.5 -39z
" />
    <glyph glyph-name="uni0402" unicode="&#x402;" horiz-adv-x="1464" 
d="M348 0v1208h-358v226h962v-226h-348v-338q119 51 277 52q231 0 366 -123t135 -338q0 -209 -132 -335t-359 -126h-123v225h92q125 0 195.5 61.5t70.5 174.5q0 236 -266 235q-127 0 -256 -51v-645h-256z" />
    <glyph glyph-name="uni0403" unicode="&#x403;" horiz-adv-x="1064" 
d="M154 0v1434h860v-226h-604v-1208h-256zM494 1569l184 297h235l-235 -297h-184z" />
    <glyph glyph-name="uni0404" unicode="&#x404;" horiz-adv-x="1433" 
d="M758 -20q-305 0 -485.5 191t-180.5 545.5t180.5 546t485.5 191.5q238 0 389 -116.5t215 -323.5h-266q-98 215 -338 215q-168 0 -274.5 -105.5t-129.5 -304.5h527v-205h-527q23 -199 129.5 -304t274.5 -105q240 0 338 215h266q-63 -207 -214.5 -323.5t-389.5 -116.5z" />
    <glyph glyph-name="uni0405" unicode="&#x405;" horiz-adv-x="1259" 
d="M625 -20q-233 0 -383 112.5t-181 317.5h256q25 -96 106 -150.5t202 -54.5q150 0 223.5 54t73.5 151q0 63 -45.5 104t-116 62.5t-156.5 39t-173 44t-157.5 67.5t-115.5 122t-45 195q0 190 139 300t373 110q231 0 366 -103.5t166 -285.5h-256q-49 164 -276 164
q-125 0 -190.5 -51.5t-65.5 -133.5q0 -90 84 -139t204.5 -74.5t241.5 -60.5t205 -124t84 -236q0 -184 -151.5 -307t-411.5 -123z" />
    <glyph glyph-name="uni0406" unicode="&#x406;" horiz-adv-x="563" 
d="M154 0v1434h256v-1434h-256z" />
    <glyph glyph-name="uni0407" unicode="&#x407;" horiz-adv-x="563" 
d="M154 0v1434h256v-1434h-256zM92.5 1587q-59.5 0 -96.5 39t-37 94.5t37 94t96.5 38.5t96 -38.5t36.5 -94t-36.5 -94.5t-96 -39zM481.5 1587q-59.5 0 -96.5 39t-37 94.5t37 94t96.5 38.5t96 -38.5t36.5 -94t-36.5 -94.5t-96 -39z" />
    <glyph glyph-name="uni0408" unicode="&#x408;" horiz-adv-x="1157" 
d="M532 -20q-209 0 -333.5 113.5t-147.5 326.5h256q14 -104 75.5 -159.5t149.5 -55.5q104 0 165 72.5t61 214.5v942h256v-942q0 -244 -128.5 -378t-353.5 -134z" />
    <glyph glyph-name="uni0409" unicode="&#x409;" horiz-adv-x="2068" 
d="M20 -20v251h21q86 0 132 50.5t69.5 184.5t23.5 386v582h942v-512h299q219 0 354.5 -130t135.5 -331q0 -203 -135.5 -332t-356.5 -129h-553v1208h-430v-379q0 -459 -100 -654t-381 -195h-21zM1208 225h277q113 0 184.5 67.5t71.5 168t-72 168t-184 67.5h-277v-471z" />
    <glyph glyph-name="uni040A" unicode="&#x40a;" horiz-adv-x="2119" 
d="M154 0v1434h256v-553h604v553h256v-553h317q213 0 337 -120t124 -320.5t-124 -320.5t-337 -120h-573v655h-604v-655h-256zM1270 225h307q100 0 157.5 57.5t57.5 158t-57.5 157.5t-157.5 57h-307v-430z" />
    <glyph glyph-name="uni040B" unicode="&#x40b;" horiz-adv-x="1484" 
d="M348 0v1208h-358v226h962v-226h-348v-338q119 51 277 52q471 0 471 -492v-430h-256v430q0 141 -58.5 203.5t-177.5 62.5q-127 0 -256 -51v-645h-256z" />
    <glyph glyph-name="uni040C" unicode="&#x40c;" horiz-adv-x="1259" 
d="M154 0v1434h256v-656l561 656h299l-604 -707l634 -727h-296l-594 676v-676h-256zM584 1567l184 297h236l-236 -297h-184z" />
    <glyph glyph-name="uni040D" unicode="&#x40d;" horiz-adv-x="1525" 
d="M154 0v1434h256v-1086h10l614 1086h338v-1434h-256v1085h-10l-614 -1085h-338zM676 1567l-236 297h236l184 -297h-184z" />
    <glyph glyph-name="uni040E" unicode="&#x40e;" horiz-adv-x="1187" 
d="M297 0l174 389l-491 1045h276l338 -738h10l328 738h266l-635 -1434h-266zM594 1567q-137 0 -230.5 74.5t-107.5 222.5h184q14 -133 153.5 -133t154.5 133h184q-14 -147 -107.5 -222t-230.5 -75z" />
    <glyph glyph-name="uni040F" unicode="&#x40f;" horiz-adv-x="1443" 
d="M604 -297v297h-450v1434h256v-1209h624v1209h256v-1434h-450v-297h-236z" />
    <glyph glyph-name="uni0410" unicode="&#x410;" horiz-adv-x="1341" 
d="M-10 0l522 1434h317l523 -1434h-267l-110 307h-608l-111 -307h-266zM446 532h449l-219 615h-10z" />
    <glyph glyph-name="uni0411" unicode="&#x411;" horiz-adv-x="1300" 
d="M410 225h307q119 0 182.5 61.5t63.5 164.5q0 100 -66 162.5t-180 62.5h-307v-451zM154 0v1434h962v-226h-706v-307h338q213 0 342 -125t129 -325.5t-129 -325.5t-342 -125h-594z" />
    <glyph glyph-name="uni0412" unicode="&#x412;" horiz-adv-x="1351" 
d="M410 225h389q96 0 150.5 51.5t54.5 143.5q0 90 -54.5 142t-150.5 52h-389v-389zM154 0v1434h655q205 0 317.5 -106.5t112.5 -293.5q0 -102 -52 -184t-132 -123q90 -41 147.5 -126t57.5 -202q0 -186 -113 -292.5t-318 -106.5h-675zM410 819h368q94 0 149.5 52.5
t55.5 142.5t-55.5 142t-149.5 52h-368v-389z" />
    <glyph glyph-name="uni0413" unicode="&#x413;" horiz-adv-x="1064" 
d="M154 0v1434h860v-226h-604v-1208h-256z" />
    <glyph glyph-name="uni0414" unicode="&#x414;" horiz-adv-x="1454" 
d="M10 -297v522h123q72 115 97.5 267.5t25.5 388.5v553h973v-1209h174v-522h-236v297h-921v-297h-236zM389 225h584v983h-461v-327q0 -449 -123 -656z" />
    <glyph glyph-name="uni0415" unicode="&#x415;" horiz-adv-x="1218" 
d="M154 0v1434h942v-226h-686v-379h645v-215h-645v-389h706v-225h-962z" />
    <glyph glyph-name="uni0416" unicode="&#x416;" horiz-adv-x="1792" 
d="M-41 0l563 727l-532 707h286l492 -656v656h256v-656l492 656h286l-532 -707l563 -727h-287l-522 676v-676h-256v676l-522 -676h-287z" />
    <glyph glyph-name="uni0417" unicode="&#x417;" horiz-adv-x="1259" 
d="M614 -20q-242 0 -390 112.5t-163 317.5h256q14 -102 97.5 -153.5t199.5 -51.5q150 0 223.5 54t73.5 151q0 195 -297 194h-133v225h133q139 0 208 52.5t69 142.5q0 94 -74 149.5t-203 55.5q-111 0 -186.5 -53.5t-89.5 -151.5h-256q23 207 162 318.5t370 111.5
q258 0 395.5 -112.5t137.5 -297.5q0 -119 -59.5 -201.5t-155.5 -115.5q106 -41 170.5 -127t64.5 -211q0 -178 -143.5 -293.5t-409.5 -115.5z" />
    <glyph glyph-name="uni0418" unicode="&#x418;" horiz-adv-x="1525" 
d="M154 0v1434h256v-1086h10l614 1086h338v-1434h-256v1085h-10l-614 -1085h-338z" />
    <glyph glyph-name="uni0419" unicode="&#x419;" horiz-adv-x="1525" 
d="M154 0v1434h256v-1086h10l614 1086h338v-1434h-256v1085h-10l-614 -1085h-338zM768 1567q-137 0 -230.5 74.5t-107.5 222.5h184q14 -133 153.5 -133t154.5 133h184q-14 -147 -107.5 -222t-230.5 -75z" />
    <glyph glyph-name="uni041A" unicode="&#x41a;" horiz-adv-x="1259" 
d="M154 0v1434h256v-656l561 656h299l-604 -707l634 -727h-296l-594 676v-676h-256z" />
    <glyph glyph-name="uni041B" unicode="&#x41b;" horiz-adv-x="1402" 
d="M20 -20v251h21q86 0 132 50.5t69.5 184.5t23.5 386v582h983v-1434h-256v1208h-471v-379q0 -459 -100 -654t-381 -195h-21z" />
    <glyph glyph-name="uni041C" unicode="&#x41c;" horiz-adv-x="1832" 
d="M154 0v1434h378l379 -1065h11l378 1065h379v-1434h-256v1096h-10l-389 -1096h-215l-389 1096h-10v-1096h-256z" />
    <glyph glyph-name="uni041D" unicode="&#x41d;" horiz-adv-x="1464" 
d="M154 0v1434h256v-594h645v594h256v-1434h-256v614h-645v-614h-256z" />
    <glyph glyph-name="uni041E" unicode="&#x41e;" horiz-adv-x="1515" 
d="M758 -20q-305 0 -485.5 194.5t-180.5 542.5t180.5 542.5t485.5 194.5t485 -194.5t180 -542.5t-180 -542.5t-485 -194.5zM757.5 205q188.5 0 299 132t110.5 380t-110.5 380t-299 132t-299 -132t-110.5 -380t110.5 -380t299 -132z" />
    <glyph glyph-name="uni041F" unicode="&#x41f;" horiz-adv-x="1443" 
d="M154 0v1434h1136v-1434h-256v1208h-624v-1208h-256z" />
    <glyph glyph-name="uni0420" unicode="&#x420;" horiz-adv-x="1310" 
d="M154 0v1434h575q213 0 351.5 -132.5t138.5 -339t-138.5 -338.5t-351.5 -132h-319v-492h-256zM410 717h297q123 0 189.5 64.5t66.5 181t-67 181t-189 64.5h-297v-491z" />
    <glyph glyph-name="uni0421" unicode="&#x421;" horiz-adv-x="1433" 
d="M758 -20q-305 0 -485.5 191t-180.5 545.5t180.5 546t485.5 191.5q238 0 389 -116.5t215 -323.5h-266q-98 215 -338 215q-188 0 -299 -132t-111 -380t110.5 -380t299.5 -132q240 0 338 215h266q-63 -207 -214.5 -323.5t-389.5 -116.5z" />
    <glyph glyph-name="uni0422" unicode="&#x422;" horiz-adv-x="1218" 
d="M481 0v1208h-440v226h1137v-226h-441v-1208h-256z" />
    <glyph glyph-name="uni0423" unicode="&#x423;" horiz-adv-x="1187" 
d="M297 0l174 389l-491 1045h276l338 -738h10l328 738h266l-635 -1434h-266z" />
    <glyph glyph-name="uni0424" unicode="&#x424;" horiz-adv-x="1710" 
d="M727 369v716q-195 0 -297 -96t-102 -262t102 -262t297 -96zM727 -20v163q-301 0 -478 163t-177 421t177 421t478 163v143h256v-143q301 0 478 -163t177 -421t-177 -421t-478 -163v-163h-256zM983 369q195 0 297 96t102 262t-102 262t-297 96v-716z" />
    <glyph glyph-name="uni0425" unicode="&#x425;" horiz-adv-x="1249" 
d="M-20 0l481 737l-461 697h287l338 -523l338 523h286l-461 -697l482 -737h-287l-358 563l-359 -563h-286z" />
    <glyph glyph-name="uni0426" unicode="&#x426;" horiz-adv-x="1515" 
d="M1229 -297v297h-1075v1434h256v-1209h624v1209h256v-1209h174v-522h-235z" />
    <glyph glyph-name="uni0427" unicode="&#x427;" horiz-adv-x="1392" 
d="M983 0v512q-143 -72 -317 -72q-258 0 -395.5 135.5t-137.5 378.5v480h256v-473q0 -143 79 -219t218 -76q154 0 297 61v707h256v-1434h-256z" />
    <glyph glyph-name="uni0428" unicode="&#x428;" horiz-adv-x="1976" 
d="M154 0v1434h256v-1209h450v1209h256v-1209h451v1209h256v-1434h-1669z" />
    <glyph glyph-name="uni0429" unicode="&#x429;" 
d="M1761 -297v297h-1607v1434h256v-1209h450v1209h256v-1209h451v1209h256v-1209h174v-522h-236z" />
    <glyph glyph-name="uni042A" unicode="&#x42a;" horiz-adv-x="1464" 
d="M584 225h297q113 0 184.5 67.5t71.5 168t-72 168t-184 67.5h-297v-471zM328 0v1208h-328v226h584v-512h319q219 0 354.5 -130t135.5 -331q0 -203 -135.5 -332t-356.5 -129h-573z" />
    <glyph glyph-name="uni042B" unicode="&#x42b;" horiz-adv-x="1761" 
d="M410 225h276q113 0 184.5 67.5t71.5 168t-71.5 168t-184.5 67.5h-276v-471zM154 0v1434h256v-512h299q219 0 354 -130t135 -331q0 -203 -135 -332t-356 -129h-553zM1352 0v1434h256v-1434h-256z" />
    <glyph glyph-name="uni042C" unicode="&#x42c;" horiz-adv-x="1290" 
d="M410 225h297q113 0 184.5 67.5t71.5 168t-72 168t-184 67.5h-297v-471zM154 0v1434h256v-512h319q219 0 354.5 -130t135.5 -331q0 -203 -135.5 -332t-356.5 -129h-573z" />
    <glyph glyph-name="uni042D" unicode="&#x42d;" horiz-adv-x="1423" 
d="M666 -20q-238 0 -389.5 116.5t-215.5 323.5h267q98 -215 338 -215q168 0 274.5 105.5t128.5 303.5h-526v205h526q-23 199 -129 304.5t-274 105.5q-240 0 -338 -215h-267q63 207 215 323.5t390 116.5q305 0 485 -191.5t180 -546t-180 -545.5t-485 -191z" />
    <glyph glyph-name="uni042E" unicode="&#x42e;" horiz-adv-x="1976" 
d="M1249 -20q-262 0 -432 161.5t-199 462.5h-208v-604h-256v1434h256v-605h208q29 299 200 462t431 163q285 0 460 -192.5t175 -544.5t-175 -544.5t-460 -192.5zM1249 205q170 0 274.5 130t104.5 382t-104.5 382t-274.5 130t-274.5 -130t-104.5 -382t104.5 -382t274.5 -130z
" />
    <glyph glyph-name="uni042F" unicode="&#x42f;" horiz-adv-x="1320" 
d="M61 0l410 543q-31 4 -71 16t-94 46t-98 80t-75 124t-31 174q0 201 133.5 326t348.5 125h583v-1434h-256v532h-153l-389 -532h-308zM594 758h317v450h-317q-109 0 -172.5 -59t-63.5 -165.5t63.5 -166t172.5 -59.5z" />
    <glyph glyph-name="uni0430" unicode="&#x430;" horiz-adv-x="1116" 
d="M492 184q123 0 194.5 63.5t71.5 172.5v51h-266q-184 0 -185 -143q0 -63 47.5 -103.5t137.5 -40.5zM440 -20q-166 0 -267 95t-101 242q0 145 108.5 241.5t300.5 96.5h277v52q0 92 -57.5 143t-157.5 51q-78 0 -128 -36t-67 -87h-242q37 145 152 236.5t285 91.5
q213 0 331.5 -106.5t118.5 -292.5v-707h-205l-20 133h-10q-35 -61 -120 -107t-198 -46z" />
    <glyph glyph-name="uni0431" unicode="&#x431;" horiz-adv-x="1198" 
d="M604 195q131 0 204 80.5t73 226t-73 226.5t-204 81q-129 0 -202.5 -84t-73.5 -223q0 -145 72.5 -226t203.5 -81zM604 -20q-238 0 -375 154.5t-137 459.5q0 829 553 829q256 0 399 72v-225q-106 -61 -368 -62q-166 0 -250 -80.5t-109 -246.5h11q100 133 327 133
q203 0 332 -139.5t129 -372.5q0 -244 -139.5 -383t-372.5 -139z" />
    <glyph glyph-name="uni0432" unicode="&#x432;" horiz-adv-x="1085" 
d="M369 205h266q143 0 143 123t-143 123h-266v-246zM133 0v1085h535q150 0 237.5 -81.5t87.5 -215.5q0 -164 -143 -235q164 -74 164 -236q0 -154 -89 -235.5t-257 -81.5h-535zM369 655h256q61 0 97 30t36 83t-36 83t-97 30h-256v-226z" />
    <glyph glyph-name="uni0433" unicode="&#x433;" horiz-adv-x="880" 
d="M133 0v1085h707v-215h-471v-870h-236z" />
    <glyph glyph-name="uni0434" unicode="&#x434;" horiz-adv-x="1187" 
d="M10 -246v461h105q90 156 90 430v440h809v-870h133v-461h-225v246h-686v-246h-226zM348 215h430v655h-338v-225q0 -270 -92 -430z" />
    <glyph glyph-name="uni0435" unicode="&#x435;" horiz-adv-x="1187" 
d="M602 -20q-240 0 -380 148t-140 415q0 264 139 413.5t373 149.5q238 0 375 -153.5t137 -379.5l-10 -102h-768q8 -125 81.5 -200.5t194.5 -75.5q137 0 225 122h256q-49 -150 -171 -243.5t-312 -93.5zM328 655h532q-16 104 -85.5 170t-180.5 66q-104 0 -172.5 -62.5
t-93.5 -173.5z" />
    <glyph glyph-name="uni0436" unicode="&#x436;" horiz-adv-x="1546" 
d="M-41 0l453 553l-422 532h286l379 -481v481h236v-481l379 481h286l-421 -532l452 -553h-287l-409 502v-502h-236v502l-409 -502h-287z" />
    <glyph glyph-name="uni0437" unicode="&#x437;" horiz-adv-x="1034" 
d="M514 -20q-414 0 -463 337h246q31 -123 215 -122q98 0 151.5 33.5t53.5 88.5q0 123 -195 123h-112v205h104q182 0 182 133q0 49 -45 81t-139 32q-82 0 -134 -34t-61 -89h-245q25 158 135 248t305 90q201 0 315.5 -91t114.5 -227q0 -86 -48 -148t-120 -91q188 -84 189 -252
q0 -143 -114 -230t-335 -87z" />
    <glyph glyph-name="uni0438" unicode="&#x438;" horiz-adv-x="1228" 
d="M133 0v1085h236v-745h10l440 745h277v-1085h-236v748h-10l-440 -748h-277z" />
    <glyph glyph-name="uni0439" unicode="&#x439;" horiz-adv-x="1228" 
d="M133 0v1085h236v-745h10l440 745h277v-1085h-236v748h-10l-440 -748h-277zM614 1239q-131 0 -217 71.5t-100 225.5h184q14 -133 133 -133t134 133h184q-14 -154 -100.5 -225.5t-217.5 -71.5z" />
    <glyph glyph-name="uni043A" unicode="&#x43a;" horiz-adv-x="1085" 
d="M133 0v1085h236v-491l440 491h287l-482 -532l512 -553h-286l-471 512v-512h-236z" />
    <glyph glyph-name="uni043B" unicode="&#x43b;" horiz-adv-x="1157" 
d="M20 -20v235h31q92 0 128 97.5t36 342.5v430h809v-1085h-236v870h-337v-235q0 -160 -16.5 -272.5t-57.5 -202.5t-117 -135t-188 -45h-52z" />
    <glyph glyph-name="uni043C" unicode="&#x43c;" horiz-adv-x="1484" 
d="M133 0v1085h338l266 -737h11l266 737h338v-1085h-236v748h-10l-277 -748h-174l-276 748h-10v-748h-236z" />
    <glyph glyph-name="uni043D" unicode="&#x43d;" horiz-adv-x="1187" 
d="M133 0v1085h236v-430h450v430h236v-1085h-236v430h-450v-430h-236z" />
    <glyph glyph-name="uni043E" unicode="&#x43e;" horiz-adv-x="1187" 
d="M593.5 -20q-233.5 0 -372.5 149.5t-139 413.5t139 413.5t372.5 149.5t373 -149.5t139.5 -413.5t-139.5 -413.5t-373 -149.5zM594 195q121 0 198.5 89t77.5 259t-77.5 259t-198.5 89t-199 -89t-78 -259t78 -259t199 -89z" />
    <glyph glyph-name="uni043F" unicode="&#x43f;" horiz-adv-x="1187" 
d="M133 0v1085h922v-1085h-236v870h-450v-870h-236z" />
    <glyph glyph-name="uni0440" unicode="&#x440;" horiz-adv-x="1239" 
d="M133 -410v1495h195l30 -133h11q49 68 132 111t185 43q213 0 342 -147.5t129 -416t-129 -415.5t-342 -147q-104 0 -187 44t-120 99h-10v-533h-236zM645 195q121 0 199 89t78 259t-78 259t-199 89t-198.5 -89t-77.5 -259t77.5 -259t198.5 -89z" />
    <glyph glyph-name="uni0441" unicode="&#x441;" horiz-adv-x="1136" 
d="M594 -20q-233 0 -372.5 149.5t-139.5 413.5t139 413.5t373 149.5q190 0 315 -101.5t166 -256.5h-235q-80 143 -246 143q-125 0 -201 -91t-76 -257t76 -257t201 -91q166 0 246 143h235q-41 -156 -166 -257t-315 -101z" />
    <glyph glyph-name="uni0442" unicode="&#x442;" horiz-adv-x="972" 
d="M369 0v870h-349v215h932v-215h-348v-870h-235z" />
    <glyph glyph-name="uni0443" unicode="&#x443;" horiz-adv-x="1116" 
d="M276 -410l164 410l-440 1085h256l297 -768h10l297 768h256l-594 -1495h-246z" />
    <glyph glyph-name="uni0444" unicode="&#x444;" horiz-adv-x="1484" 
d="M625 215v655q-152 0 -235 -89t-83 -238.5t83 -238.5t235 -89zM625 -410v410q-252 0 -402.5 151.5t-150.5 391t150.5 391t402.5 151.5v390h235v-390q250 0 401.5 -151.5t151.5 -391t-151.5 -391t-401.5 -151.5v-410h-235zM860 215q152 0 235 89t83 238.5t-83 238.5
t-235 89v-655z" />
    <glyph glyph-name="uni0445" unicode="&#x445;" horiz-adv-x="1003" 
d="M-10 0l358 563l-338 522h266l226 -358l225 358h266l-338 -522l359 -563h-266l-246 399l-246 -399h-266z" />
    <glyph glyph-name="uni0446" unicode="&#x446;" horiz-adv-x="1218" 
d="M952 -246v246h-819v1085h236v-870h440v870h235v-870h134v-461h-226z" />
    <glyph glyph-name="uni0447" unicode="&#x447;" horiz-adv-x="1136" 
d="M768 0v358q-123 -41 -236 -41q-205 0 -312 105.5t-107 294.5v368h235v-368q0 -86 55.5 -135.5t159.5 -49.5q123 0 205 41v512h236v-1085h-236z" />
    <glyph glyph-name="uni0448" unicode="&#x448;" horiz-adv-x="1628" 
d="M133 0v1085h236v-870h327v870h236v-870h328v870h235v-1085h-1362z" />
    <glyph glyph-name="uni0449" unicode="&#x449;" horiz-adv-x="1669" 
d="M1403 -246v246h-1270v1085h236v-870h327v870h236v-870h328v870h235v-870h133v-461h-225z" />
    <glyph glyph-name="uni044A" unicode="&#x44a;" horiz-adv-x="1167" 
d="M492 215h225q70 0 111.5 38t41.5 105.5t-42 105.5t-113 38h-223v-287zM256 0v870h-256v215h492v-368h256q156 0 257 -99.5t101 -259t-101.5 -259t-256.5 -99.5h-492z" />
    <glyph glyph-name="uni044B" unicode="&#x44b;" horiz-adv-x="1454" 
d="M369 215h204q70 0 112 38t42 105.5t-42 105.5t-114 38h-202v-287zM133 0v1085h236v-368h235q156 0 257.5 -99.5t101.5 -259t-101.5 -259t-257.5 -99.5h-471zM1085 0v1085h236v-1085h-236z" />
    <glyph glyph-name="uni044C" unicode="&#x44c;" horiz-adv-x="1044" 
d="M369 215h225q70 0 112 38t42 105.5t-42 105.5t-114 38h-223v-287zM133 0v1085h236v-368h256q156 0 257 -99.5t101 -259t-101.5 -259t-256.5 -99.5h-492z" />
    <glyph glyph-name="uni044D" unicode="&#x44d;" horiz-adv-x="1126" 
d="M532 -20q-190 0 -315 101t-166 257h236q80 -143 245 -143q104 0 175 63.5t94 181.5h-361v205h361q-23 119 -93.5 182.5t-175.5 63.5q-166 0 -245 -143h-236q41 156 166 257t315 101q233 0 372.5 -149.5t139.5 -413.5t-139.5 -413.5t-372.5 -149.5z" />
    <glyph glyph-name="uni044E" unicode="&#x44e;" horiz-adv-x="1587" 
d="M1004 -20q-205 0 -336 119.5t-158 330.5h-141v-430h-236v1085h236v-440h139q27 215 158 338t338 123q231 0 366 -151.5t135 -411.5t-135 -411.5t-366 -151.5zM1003.5 195q120.5 0 193.5 89t73 259t-73 259t-193.5 89t-193.5 -89t-73 -259t73 -259t193.5 -89z" />
    <glyph glyph-name="uni044F" unicode="&#x44f;" horiz-adv-x="1085" 
d="M51 0l277 389q-102 25 -174 118t-72 220q0 160 103.5 259t265.5 99h501v-1085h-235v369h-131l-269 -369h-266zM471 584h246v286h-246q-74 0 -114 -39.5t-40 -103.5q0 -66 40 -104.5t114 -38.5z" />
    <glyph glyph-name="uni0450" unicode="&#x450;" horiz-adv-x="1187" 
d="M602 -20q-240 0 -380 148t-140 415q0 264 139 413.5t373 149.5q238 0 375 -153.5t137 -379.5l-10 -102h-768q8 -125 81.5 -200.5t194.5 -75.5q137 0 225 122h256q-49 -150 -171 -243.5t-312 -93.5zM328 655h532q-16 104 -85.5 170t-180.5 66q-104 0 -172.5 -62.5
t-93.5 -173.5zM502 1239l-236 297h236l184 -297h-184z" />
    <glyph glyph-name="uni0451" unicode="&#x451;" horiz-adv-x="1187" 
d="M602 -20q-240 0 -380 148t-140 415q0 264 139 413.5t373 149.5q238 0 375 -153.5t137 -379.5l-10 -102h-768q8 -125 81.5 -200.5t194.5 -75.5q137 0 225 122h256q-49 -150 -171 -243.5t-312 -93.5zM328 655h532q-16 104 -85.5 170t-180.5 66q-104 0 -172.5 -62.5
t-93.5 -173.5zM409.5 1260q-59.5 0 -96.5 38.5t-37 94t37 94.5t96.5 39t96.5 -39t37 -94.5t-37 -94t-96.5 -38.5zM798.5 1260q-59.5 0 -96 38.5t-36.5 94t36.5 94.5t96 39t96.5 -39t37 -94.5t-37 -94t-96.5 -38.5z" />
    <glyph glyph-name="uni0452" unicode="&#x452;" horiz-adv-x="1208" 
d="M573 -410v205h144q61 0 97 36t36 97v574q0 115 -62.5 180.5t-162.5 65.5q-104 0 -170 -72t-66 -178v-498h-235v1096h-154v194h154v144h235v-144h277v-194h-277v-277h10q96 143 287 144q178 0 288.5 -121t110.5 -320v-624q0 -147 -83.5 -227.5t-243.5 -80.5h-185z" />
    <glyph glyph-name="uni0453" unicode="&#x453;" horiz-adv-x="880" 
d="M133 0v1085h707v-215h-471v-870h-236zM399 1239l185 297h235l-235 -297h-185z" />
    <glyph glyph-name="uni0454" unicode="&#x454;" horiz-adv-x="1136" 
d="M594 -20q-233 0 -372.5 149.5t-139.5 413.5t139 413.5t373 149.5q190 0 315 -101.5t166 -256.5h-235q-80 143 -246 143q-104 0 -175 -63.5t-93 -182.5h360v-205h-360q23 -119 93 -182t175 -63q166 0 246 143h235q-41 -156 -166 -257t-315 -101z" />
    <glyph glyph-name="uni0455" unicode="&#x455;" horiz-adv-x="1024" 
d="M512 -20q-193 0 -310.5 92t-150.5 245h256q16 -55 69.5 -88.5t135.5 -33.5q205 0 205 112q0 55 -64.5 84t-155.5 46.5t-183.5 45t-157 104.5t-64.5 201q0 137 108.5 227.5t301 90.5t305.5 -86t145 -232h-256q-41 102 -194 103q-164 0 -164 -103q0 -47 46 -76.5t115.5 -41
t150.5 -35t150.5 -54t116 -101t46.5 -173.5q0 -145 -115 -236t-336 -91z" />
    <glyph glyph-name="uni0456" unicode="&#x456;" horiz-adv-x="501" 
d="M133 0v1085h236v-1085h-236zM250 1208q-63 0 -105.5 41t-42.5 102.5t42 102.5t106 41q66 0 107.5 -41t41.5 -102.5t-41.5 -102.5t-107.5 -41z" />
    <glyph glyph-name="uni0457" unicode="&#x457;" horiz-adv-x="501" 
d="M133 0v1085h236v-1085h-236zM61.5 1260q-59.5 0 -96.5 38.5t-37 94t37 94.5t96.5 39t96.5 -39t37 -94.5t-37 -94t-96.5 -38.5zM450.5 1260q-59.5 0 -96.5 38.5t-37 94t37 94.5t96.5 39t96.5 -39t37 -94.5t-37 -94t-96.5 -38.5z" />
    <glyph glyph-name="uni0458" unicode="&#x458;" horiz-adv-x="501" 
d="M-143 -410v205h163q47 0 80 31t33 82v1177h236v-1198q0 -145 -82 -221t-236 -76h-194zM250 1208q-63 0 -105.5 41t-42.5 102.5t42 102.5t106 41q66 0 107.5 -41t41.5 -102.5t-41.5 -102.5t-107.5 -41z" />
    <glyph glyph-name="uni0459" unicode="&#x459;" horiz-adv-x="1679" 
d="M20 -20v235h31q92 0 128 97.5t36 342.5v430h789v-368h256q156 0 257 -99.5t101 -259t-101.5 -259t-256.5 -99.5h-492v870h-317v-235q0 -160 -16.5 -272.5t-57.5 -202.5t-117 -135t-188 -45h-52zM1004 215h225q70 0 111.5 38t41.5 105.5t-42 105.5t-113 38h-223v-287z" />
    <glyph glyph-name="uni045A" unicode="&#x45a;" horiz-adv-x="1699" 
d="M133 0v1085h236v-409h430v409h235v-409h256q160 0 254 -94.5t94 -243.5q0 -154 -94 -246t-254 -92h-491v461h-430v-461h-236zM1034 215h226q66 0 104.5 32t38.5 91q0 123 -143 123h-226v-246z" />
    <glyph glyph-name="uni045B" unicode="&#x45b;" horiz-adv-x="1208" 
d="M154 0v1096h-154v194h154v144h235v-144h277v-194h-277v-277h10q96 143 287 144q178 0 288.5 -121t110.5 -320v-522h-235v502q0 115 -62.5 180.5t-162.5 65.5q-104 0 -170 -72t-66 -178v-498h-235z" />
    <glyph glyph-name="uni045C" unicode="&#x45c;" horiz-adv-x="1085" 
d="M133 0v1085h236v-491l440 491h287l-482 -532l512 -553h-286l-471 512v-512h-236zM492 1239l184 297h235l-235 -297h-184z" />
    <glyph glyph-name="uni045D" unicode="&#x45d;" horiz-adv-x="1228" 
d="M133 0v1085h236v-745h10l440 745h277v-1085h-236v748h-10l-440 -748h-277zM522 1239l-235 297h235l185 -297h-185z" />
    <glyph glyph-name="uni045E" unicode="&#x45e;" horiz-adv-x="1116" 
d="M276 -410l164 410l-440 1085h256l297 -768h10l297 768h256l-594 -1495h-246zM553 1239q-131 0 -217 71.5t-100 225.5h184q14 -133 133 -133t133 133h184q-14 -154 -100 -225.5t-217 -71.5z" />
    <glyph glyph-name="uni045F" unicode="&#x45f;" horiz-adv-x="1187" 
d="M481 -246v246h-348v1085h236v-870h450v870h236v-1085h-348v-246h-226z" />
    <glyph glyph-name="uni0490" unicode="&#x490;" horiz-adv-x="1064" 
d="M154 0v1434h614v286h246v-512h-604v-1208h-256z" />
    <glyph glyph-name="uni0491" unicode="&#x491;" horiz-adv-x="880" 
d="M133 0v1085h481v246h226v-461h-471v-870h-236z" />
    <glyph glyph-name="uni0492" unicode="&#x492;" horiz-adv-x="1187" 
d="M215 0v573h-184v226h184v635h922v-226h-666v-409h389v-226h-389v-573h-256z" />
    <glyph glyph-name="uni0493" unicode="&#x493;" horiz-adv-x="901" 
d="M164 0v399h-154v205h154v481h696v-215h-461v-266h318v-205h-318v-399h-235z" />
    <glyph glyph-name="uni0494" unicode="&#x494;" horiz-adv-x="1300" 
d="M666 -276v225q150 0 233.5 85t83.5 242q0 129 -83 218.5t-224 89.5q-78 0 -144.5 -20.5t-93.5 -41.5l-28 -20v-502h-256v1434h913v-226h-657v-471q113 72 297 72q252 0 392 -142.5t140 -390.5q0 -260 -152.5 -406t-420.5 -146z" />
    <glyph glyph-name="uni0495" unicode="&#x495;" horiz-adv-x="1064" 
d="M563 -410v215q102 0 158.5 72t56.5 215q0 287 -225 287q-49 0 -95 -15.5t-69 -31.5l-20 -15v-317h-236v1085h707v-215h-471v-327q72 51 204 51q199 0 320 -128t121 -374q0 -242 -120 -372t-331 -130z" />
    <glyph glyph-name="uni0496" unicode="&#x496;" horiz-adv-x="1812" 
d="M1618 -297v297h-72l-522 676v-676h-256v676l-522 -676h-287l563 727l-532 707h286l492 -656v656h256v-656l492 656h286l-532 -707l389 -502h194v-522h-235z" />
    <glyph glyph-name="uni0497" unicode="&#x497;" horiz-adv-x="1556" 
d="M1362 -246v246h-62l-409 502v-502h-236v502l-409 -502h-287l453 553l-422 532h286l379 -481v481h236v-481l379 481h286l-421 -532l276 -338h176v-461h-225z" />
    <glyph glyph-name="uni049A" unicode="&#x49a;" horiz-adv-x="1269" 
d="M1075 -297v297h-71l-594 676v-676h-256v1434h256v-656l561 656h299l-604 -707l438 -502h207v-522h-236z" />
    <glyph glyph-name="uni049B" unicode="&#x49b;" horiz-adv-x="1095" 
d="M901 -246v246h-61l-471 512v-512h-236v1085h236v-491l440 491h287l-482 -532l314 -338h198v-461h-225z" />
    <glyph glyph-name="uni049C" unicode="&#x49c;" horiz-adv-x="1320" 
d="M154 0v1434h256v-605h71v215h154v-215h41l368 605h287l-440 -707l461 -727h-277l-389 614h-51v-215h-154v215h-71v-614h-256z" />
    <glyph glyph-name="uni049D" unicode="&#x49d;" horiz-adv-x="1126" 
d="M133 0v1085h236v-430h51v154h143v-154h31l256 430h266l-317 -532l348 -553h-277l-276 451h-31v-154h-143v154h-51v-451h-236z" />
    <glyph glyph-name="uni04A2" unicode="&#x4a2;" horiz-adv-x="1536" 
d="M1249 -297v297h-194v614h-645v-614h-256v1434h256v-594h645v594h256v-1209h174v-522h-236z" />
    <glyph glyph-name="uni04A3" unicode="&#x4a3;" horiz-adv-x="1228" 
d="M963 -246v246h-144v430h-450v-430h-236v1085h236v-430h450v430h236v-870h133v-461h-225z" />
    <glyph glyph-name="uni04AA" unicode="&#x4aa;" horiz-adv-x="1433" 
d="M635 -297v285q-252 37 -397.5 225t-145.5 504q0 354 180.5 545.5t485.5 191.5q238 0 389 -116.5t215 -323.5h-266q-98 215 -338 215q-188 0 -299 -132t-111 -380t110.5 -380t299.5 -132q240 0 338 215h266q-117 -381 -492 -432v-285h-235z" />
    <glyph glyph-name="uni04AB" unicode="&#x4ab;" horiz-adv-x="1136" 
d="M492 -246v234q-190 31 -300 175t-110 380q0 264 139 413.5t373 149.5q190 0 315 -101.5t166 -256.5h-235q-80 143 -246 143q-125 0 -201 -91t-76 -257t76 -257t201 -91q166 0 246 143h235q-33 -129 -126 -223.5t-232 -122.5v-238h-225z" />
    <glyph glyph-name="uni04AE" unicode="&#x4ae;" horiz-adv-x="1198" 
d="M471 0v512l-502 922h267l358 -666h10l359 666h266l-502 -922v-512h-256z" />
    <glyph glyph-name="uni04AF" unicode="&#x4af;" horiz-adv-x="1095" 
d="M430 -410v410h-31l-399 1085h256l287 -829h10l287 829h256l-400 -1085h-30v-410h-236z" />
    <glyph glyph-name="uni04B0" unicode="&#x4b0;" horiz-adv-x="1198" 
d="M471 0v492h-317v225h204l-389 717h267l358 -666h10l359 666h266l-389 -717h204v-225h-317v-492h-256z" />
    <glyph glyph-name="uni04B1" unicode="&#x4b1;" horiz-adv-x="1095" 
d="M430 -410v410h-246v215h135l-319 870h256l287 -829h10l287 829h256l-322 -870h137v-215h-245v-410h-236z" />
    <glyph glyph-name="uni04B2" unicode="&#x4b2;" horiz-adv-x="1269" 
d="M1044 -297v297h-61l-358 563l-359 -563h-286l481 737l-461 697h287l338 -523l338 523h286l-461 -697l334 -512h158v-522h-236z" />
    <glyph glyph-name="uni04B3" unicode="&#x4b3;" horiz-adv-x="1034" 
d="M809 -246v246h-61l-246 399l-246 -399h-266l358 563l-338 522h266l226 -358l225 358h266l-338 -522l222 -348h157v-461h-225z" />
    <glyph glyph-name="uni04B6" unicode="&#x4b6;" horiz-adv-x="1464" 
d="M1178 -297v297h-195v512q-143 -72 -317 -72q-258 0 -395.5 135.5t-137.5 378.5v480h256v-473q0 -143 79 -219t218 -76q154 0 297 61v707h256v-1209h174v-522h-235z" />
    <glyph glyph-name="uni04B7" unicode="&#x4b7;" horiz-adv-x="1177" 
d="M911 -246v246h-143v358q-123 -41 -236 -41q-205 0 -312 105.5t-107 294.5v368h235v-368q0 -86 55.5 -135.5t159.5 -49.5q123 0 205 41v512h236v-870h133v-461h-226z" />
    <glyph glyph-name="uni04B8" unicode="&#x4b8;" horiz-adv-x="1392" 
d="M983 0v512q-90 -47 -195 -63v-203h-184v196q-229 14 -350 148.5t-121 363.5v480h256v-473q0 -244 215 -287v258h184v-260q90 10 195 55v707h256v-1434h-256z" />
    <glyph glyph-name="uni04B9" unicode="&#x4b9;" horiz-adv-x="1136" 
d="M768 0v358q-84 -27 -133 -34v-140h-143v133q-184 10 -281.5 116t-97.5 284v368h235v-368q0 -147 144 -178v137h143v-141q78 10 133 38v512h236v-1085h-236z" />
    <glyph glyph-name="uni04BA" unicode="&#x4ba;" horiz-adv-x="1392" 
d="M154 0v1434h256v-512q143 72 317 71q258 0 395.5 -135t137.5 -379v-479h-256v473q0 143 -79 219t-218 76q-154 0 -297 -61v-707h-256z" />
    <glyph glyph-name="uni04BB" unicode="&#x4bb;" horiz-adv-x="1198" 
d="M143 0v1434h236v-471h10q96 143 287 143q178 0 288.5 -121t110.5 -319v-666h-235v645q0 115 -62.5 180.5t-163.5 65.5q-104 0 -169.5 -71.5t-65.5 -178.5v-641h-236z" />
    <glyph glyph-name="uni04C1" unicode="&#x4c1;" horiz-adv-x="1792" 
d="M-41 0l563 727l-532 707h286l492 -656v656h256v-656l492 656h286l-532 -707l563 -727h-287l-522 676v-676h-256v676l-522 -676h-287zM901 1567q-137 0 -230 74.5t-108 222.5h185q14 -133 153 -133t154 133h184q-14 -147 -107.5 -222t-230.5 -75z" />
    <glyph glyph-name="uni04C2" unicode="&#x4c2;" horiz-adv-x="1546" 
d="M-41 0l453 553l-422 532h286l379 -481v481h236v-481l379 481h286l-421 -532l452 -553h-287l-409 502v-502h-236v502l-409 -502h-287zM778 1239q-131 0 -217 71.5t-100 225.5h184q14 -133 133 -133t133 133h185q-14 -154 -100.5 -225.5t-217.5 -71.5z" />
    <glyph glyph-name="uni04D2" unicode="&#x4d2;" horiz-adv-x="1341" 
d="M-10 0l522 1434h317l523 -1434h-267l-110 307h-608l-111 -307h-266zM446 532h449l-219 615h-10zM481.5 1587q-59.5 0 -96.5 39t-37 94.5t37 94t96.5 38.5t96 -38.5t36.5 -94t-36.5 -94.5t-96 -39zM870.5 1587q-59.5 0 -96.5 39t-37 94.5t37 94t96.5 38.5t96.5 -38.5
t37 -94t-37 -94.5t-96.5 -39z" />
    <glyph glyph-name="uni04D3" unicode="&#x4d3;" horiz-adv-x="1116" 
d="M492 184q123 0 194.5 63.5t71.5 172.5v51h-266q-184 0 -185 -143q0 -63 47.5 -103.5t137.5 -40.5zM440 -20q-166 0 -267 95t-101 242q0 145 108.5 241.5t300.5 96.5h277v52q0 92 -57.5 143t-157.5 51q-78 0 -128 -36t-67 -87h-242q37 145 152 236.5t285 91.5
q213 0 331.5 -106.5t118.5 -292.5v-707h-205l-20 133h-10q-35 -61 -120 -107t-198 -46zM368.5 1260q-59.5 0 -96 38.5t-36.5 94t36.5 94.5t96 39t96.5 -39t37 -94.5t-37 -94t-96.5 -38.5zM757.5 1260q-59.5 0 -96 38.5t-36.5 94t36.5 94.5t96 39t96.5 -39t37 -94.5t-37 -94
t-96.5 -38.5z" />
    <glyph glyph-name="uni04D8" unicode="&#x4d8;" horiz-adv-x="1495" 
d="M737 205q168 0 276.5 105.5t125.5 283.5h-789q20 -199 122.5 -294t264.5 -95zM739 -20q-295 0 -471 191t-176 556v72h1051q-12 203 -123 316.5t-283 113.5q-236 0 -338 -205h-266q63 201 215 315.5t389 114.5q305 0 485.5 -191.5t180.5 -545.5q0 -350 -180.5 -543.5
t-483.5 -193.5z" />
    <glyph glyph-name="uni04D9" unicode="&#x4d9;" horiz-adv-x="1187" 
d="M594 195q104 0 173 62t93 173h-532q16 -104 85.5 -169.5t180.5 -65.5zM594 -20q-238 0 -375 153.5t-137 378.5l10 102h768q-8 125 -81.5 201t-194.5 76q-137 0 -226 -123h-256q49 150 171 244t313 94q240 0 380 -148.5t140 -414.5q0 -264 -139.5 -413.5t-372.5 -149.5z
" />
    <glyph glyph-name="uni04E0" unicode="&#x4e0;" horiz-adv-x="1259" 
d="M604 -20q-240 0 -385 111.5t-168 318.5h256q14 -96 99.5 -150.5t197.5 -54.5q147 0 222 65.5t75 169.5q0 225 -297 226h-266v204l430 338h-666v226h1024v-215l-440 -349h10q213 0 337 -119.5t124 -320.5q0 -193 -139.5 -321.5t-413.5 -128.5z" />
    <glyph glyph-name="uni04E1" unicode="&#x4e1;" horiz-adv-x="1054" 
d="M522.5 -410q-225.5 0 -354.5 116t-137 304h235q8 -90 81 -147.5t175 -57.5q115 0 175.5 67t60.5 189q0 256 -266 256h-226v185l389 368h-563v215h871v-215l-390 -358q209 -14 314.5 -138t105.5 -323q0 -211 -122.5 -336t-348 -125z" />
    <glyph glyph-name="uni04E2" unicode="&#x4e2;" horiz-adv-x="1525" 
d="M154 0v1434h256v-1086h10l614 1086h338v-1434h-256v1085h-10l-614 -1085h-338zM461 1628v174h604v-174h-604z" />
    <glyph glyph-name="uni04E3" unicode="&#x4e3;" horiz-adv-x="1228" 
d="M133 0v1085h236v-745h10l440 745h277v-1085h-236v748h-10l-440 -748h-277zM307 1290v174h604v-174h-604z" />
    <glyph glyph-name="uni04E6" unicode="&#x4e6;" horiz-adv-x="1515" 
d="M758 -20q-305 0 -485.5 194.5t-180.5 542.5t180.5 542.5t485.5 194.5t485 -194.5t180 -542.5t-180 -542.5t-485 -194.5zM757.5 205q188.5 0 299 132t110.5 380t-110.5 380t-299 132t-299 -132t-110.5 -380t110.5 -380t299 -132zM563.5 1587q-59.5 0 -96.5 39t-37 94.5
t37 94t96.5 38.5t96 -38.5t36.5 -94t-36.5 -94.5t-96 -39zM952.5 1587q-59.5 0 -96.5 39t-37 94.5t37 94t96.5 38.5t96 -38.5t36.5 -94t-36.5 -94.5t-96 -39z" />
    <glyph glyph-name="uni04E7" unicode="&#x4e7;" horiz-adv-x="1187" 
d="M593.5 -20q-233.5 0 -372.5 149.5t-139 413.5t139 413.5t372.5 149.5t373 -149.5t139.5 -413.5t-139.5 -413.5t-373 -149.5zM594 195q121 0 198.5 89t77.5 259t-77.5 259t-198.5 89t-199 -89t-78 -259t78 -259t199 -89zM399.5 1260q-59.5 0 -96.5 38.5t-37 94t37 94.5
t96.5 39t96 -39t36.5 -94.5t-36.5 -94t-96 -38.5zM788.5 1260q-59.5 0 -96.5 38.5t-37 94t37 94.5t96.5 39t96.5 -39t37 -94.5t-37 -94t-96.5 -38.5z" />
    <glyph glyph-name="uni04E8" unicode="&#x4e8;" horiz-adv-x="1515" 
d="M758 205q168 0 274.5 105.5t128.5 303.5h-807q23 -199 129.5 -304t274.5 -105zM758 -20q-305 0 -485.5 194.5t-180.5 542.5t180.5 542.5t485.5 194.5t485 -194.5t180 -542.5t-180 -542.5t-485 -194.5zM354 819h807q-23 199 -129 304.5t-274 105.5t-274.5 -105.5
t-129.5 -304.5z" />
    <glyph glyph-name="uni04E9" unicode="&#x4e9;" horiz-adv-x="1187" 
d="M594 195q100 0 172 62t94 183h-534q23 -121 95.5 -183t172.5 -62zM593.5 -20q-233.5 0 -372.5 149.5t-139 413.5t139 413.5t372.5 149.5t373 -149.5t139.5 -413.5t-139.5 -413.5t-373 -149.5zM326 645h534q-23 121 -94.5 183.5t-171.5 62.5t-172.5 -62.5t-95.5 -183.5z
" />
    <glyph glyph-name="uni04EE" unicode="&#x4ee;" horiz-adv-x="1187" 
d="M297 0l174 389l-491 1045h276l338 -738h10l328 738h266l-635 -1434h-266zM287 1628v174h604v-174h-604z" />
    <glyph glyph-name="uni04EF" unicode="&#x4ef;" horiz-adv-x="1116" 
d="M276 -410l164 410l-440 1085h256l297 -768h10l297 768h256l-594 -1495h-246zM256 1290v174h604v-174h-604z" />
    <glyph glyph-name="uni04F0" unicode="&#x4f0;" horiz-adv-x="1187" 
d="M297 0l174 389l-491 1045h276l338 -738h10l328 738h266l-635 -1434h-266zM399.5 1587q-59.5 0 -96.5 39t-37 94.5t37 94t96.5 38.5t96 -38.5t36.5 -94t-36.5 -94.5t-96 -39zM788.5 1587q-59.5 0 -96.5 39t-37 94.5t37 94t96.5 38.5t96.5 -38.5t37 -94t-37 -94.5
t-96.5 -39z" />
    <glyph glyph-name="uni04F1" unicode="&#x4f1;" horiz-adv-x="1116" 
d="M276 -410l164 410l-440 1085h256l297 -768h10l297 768h256l-594 -1495h-246zM358.5 1260q-59.5 0 -96.5 38.5t-37 94t37 94.5t96.5 39t96.5 -39t37 -94.5t-37 -94t-96.5 -38.5zM747.5 1260q-59.5 0 -96.5 38.5t-37 94t37 94.5t96.5 39t96.5 -39t37 -94.5t-37 -94
t-96.5 -38.5z" />
    <glyph glyph-name="Wgrave" unicode="&#x1e80;" horiz-adv-x="1914" 
d="M389 0l-369 1434h267l245 -1086h11l266 1086h297l266 -1086h10l246 1086h266l-368 -1434h-307l-256 1075h-11l-256 -1075h-307zM870 1567l-235 297h235l185 -297h-185z" />
    <glyph glyph-name="wgrave" unicode="&#x1e81;" horiz-adv-x="1607" 
d="M307 0l-297 1085h246l205 -788h10l205 788h256l205 -788h10l205 788h245l-297 -1085h-286l-205 748h-10l-205 -748h-287zM707 1239l-236 297h236l184 -297h-184z" />
    <glyph glyph-name="Wacute" unicode="&#x1e82;" horiz-adv-x="1914" 
d="M389 0l-369 1434h267l245 -1086h11l266 1086h297l266 -1086h10l246 1086h266l-368 -1434h-307l-256 1075h-11l-256 -1075h-307zM870 1567l185 297h235l-235 -297h-185z" />
    <glyph glyph-name="wacute" unicode="&#x1e83;" horiz-adv-x="1607" 
d="M307 0l-297 1085h246l205 -788h10l205 788h256l205 -788h10l205 788h245l-297 -1085h-286l-205 748h-10l-205 -748h-287zM717 1239l184 297h236l-236 -297h-184z" />
    <glyph glyph-name="Wdieresis" unicode="&#x1e84;" horiz-adv-x="1914" 
d="M389 0l-369 1434h267l245 -1086h11l266 1086h297l266 -1086h10l246 1086h266l-368 -1434h-307l-256 1075h-11l-256 -1075h-307zM768 1587q-59 0 -96 39t-37 94.5t37 94t96 38.5t96 -38.5t37 -94t-37 -94.5t-96 -39zM1157.5 1587q-59.5 0 -96.5 39t-37 94.5t37 94
t96.5 38.5t96 -38.5t36.5 -94t-36.5 -94.5t-96 -39z" />
    <glyph glyph-name="wdieresis" unicode="&#x1e85;" horiz-adv-x="1607" 
d="M307 0l-297 1085h246l205 -788h10l205 788h256l205 -788h10l205 788h245l-297 -1085h-286l-205 748h-10l-205 -748h-287zM604.5 1260q-59.5 0 -96.5 38.5t-37 94t37 94.5t96.5 39t96 -39t36.5 -94.5t-36.5 -94t-96 -38.5zM993.5 1260q-59.5 0 -96.5 38.5t-37 94t37 94.5
t96.5 39t96 -39t36.5 -94.5t-36.5 -94t-96 -38.5z" />
    <glyph glyph-name="uni1E9E" unicode="&#x1e9e;" horiz-adv-x="1402" 
d="M143 0v993q0 207 115 324t315 117h687v-215l-318 -349v-10q166 -16 272.5 -127.5t106.5 -292.5q0 -203 -125 -321.5t-346 -118.5h-215v225h184q121 0 183.5 56.5t62.5 159t-64.5 158.5t-191.5 56h-154v215l308 338h-359q-92 0 -148.5 -60.5t-56.5 -164.5v-983h-256z" />
    <glyph glyph-name="Ygrave" unicode="&#x1ef2;" horiz-adv-x="1198" 
d="M471 0v512l-502 922h267l358 -666h10l359 666h266l-502 -922v-512h-256zM502 1567l-236 297h236l184 -297h-184z" />
    <glyph glyph-name="ygrave" unicode="&#x1ef3;" horiz-adv-x="1116" 
d="M276 -410l164 410l-440 1085h256l297 -768h10l297 768h256l-594 -1495h-246zM461 1239l-236 297h236l184 -297h-184z" />
    <glyph glyph-name="endash" unicode="&#x2013;" horiz-adv-x="1146" 
d="M61 471v215h1024v-215h-1024z" />
    <glyph glyph-name="emdash" unicode="&#x2014;" horiz-adv-x="1648" 
d="M61 471v215h1526v-215h-1526z" />
    <glyph glyph-name="quoteleft" unicode="&#x2018;" horiz-adv-x="430" 
d="M82 1014l123 420h184l-82 -420h-225z" />
    <glyph glyph-name="quoteright" unicode="&#x2019;" horiz-adv-x="430" 
d="M82 1014l82 420h225l-123 -420h-184z" />
    <glyph glyph-name="quotesinglbase" unicode="&#x201a;" horiz-adv-x="430" 
d="M41 -215l82 420h225l-123 -420h-184z" />
    <glyph glyph-name="quotedblleft" unicode="&#x201c;" horiz-adv-x="778" 
d="M82 1014l123 420h184l-82 -420h-225zM430 1014l123 420h184l-82 -420h-225z" />
    <glyph glyph-name="quotedblright" unicode="&#x201d;" horiz-adv-x="778" 
d="M82 1014l82 420h225l-123 -420h-184zM430 1014l82 420h225l-123 -420h-184z" />
    <glyph glyph-name="quotedblbase" unicode="&#x201e;" horiz-adv-x="778" 
d="M41 -215l82 420h225l-123 -420h-184zM389 -215l82 420h225l-123 -420h-184z" />
    <glyph glyph-name="dagger" unicode="&#x2020;" horiz-adv-x="983" 
d="M369 0v881h-256v225h256v328h245v-328h256v-225h-256v-881h-245z" />
    <glyph glyph-name="daggerdbl" unicode="&#x2021;" horiz-adv-x="983" 
d="M369 0v328h-256v225h256v328h-256v225h256v328h245v-328h256v-225h-256v-328h256v-225h-256v-328h-245z" />
    <glyph glyph-name="bullet" unicode="&#x2022;" horiz-adv-x="921" 
d="M461 369q-90 0 -152.5 64.5t-62.5 150.5t62.5 150.5t152.5 64.5t152.5 -64.5t62.5 -150.5t-62.5 -150.5t-152.5 -64.5z" />
    <glyph glyph-name="ellipsis" unicode="&#x2026;" horiz-adv-x="1495" 
d="M225.5 -10q-61.5 0 -102.5 41t-41 102.5t41 102t102.5 40.5t102.5 -40.5t41 -102t-41 -102.5t-102.5 -41zM747.5 -10q-61.5 0 -102.5 41t-41 102.5t41 102t102.5 40.5t102.5 -40.5t41 -102t-41 -102.5t-102.5 -41zM1269.5 -10q-61.5 0 -102.5 41t-41 102.5t41 102
t102.5 40.5t102.5 -40.5t41 -102t-41 -102.5t-102.5 -41z" />
    <glyph glyph-name="perthousand" unicode="&#x2030;" horiz-adv-x="2314" 
d="M225 0l891 1434h215l-891 -1434h-215zM1157.5 -20q-147.5 0 -238 92t-90.5 245.5t90.5 245.5t238 92t237.5 -92t90 -245.5t-90 -245.5t-237.5 -92zM1157 143q70 0 112 45t42 129t-42 129.5t-112 45.5t-111.5 -45.5t-41.5 -129.5t41.5 -129t111.5 -45zM1914.5 -20
q-147.5 0 -237.5 92t-90 245.5t90 245.5t237.5 92t238 -92t90.5 -245.5t-90.5 -245.5t-238 -92zM1915 143q70 0 111.5 45t41.5 129t-41.5 129.5t-111.5 45.5t-112 -45.5t-42 -129.5t42 -129t112 -45zM399.5 778q-147.5 0 -237.5 92.5t-90 246t90 245.5t237.5 92t237.5 -92
t90 -245.5t-90 -246t-237.5 -92.5zM399.5 942q69.5 0 111.5 45t42 129t-42 129t-111.5 45t-111.5 -45t-42 -129t42 -129t111.5 -45z" />
    <glyph glyph-name="guilsinglleft" unicode="&#x2039;" horiz-adv-x="839" 
d="M512 61l-440 492l440 491h276l-440 -485v-12l440 -486h-276z" />
    <glyph glyph-name="guilsinglright" unicode="&#x203a;" horiz-adv-x="839" 
d="M51 61l441 486v12l-441 485h277l440 -491l-440 -492h-277z" />
    <glyph glyph-name="fraction" unicode="&#x2044;" horiz-adv-x="296" 
d="M-389 0l891 1434h184l-891 -1434h-184z" />
    <glyph glyph-name="uni2070" unicode="&#x2070;" horiz-adv-x="798" 
d="M399.5 809q-149.5 0 -238.5 108.5t-89 311.5t89 311.5t238.5 108.5t238.5 -108.5t89 -311.5t-89 -311.5t-238.5 -108.5zM399.5 973q65.5 0 109.5 65.5t44 190.5t-44 190.5t-109.5 65.5t-109.5 -65.5t-44 -190.5t44 -190.5t109.5 -65.5z" />
    <glyph glyph-name="uni2074" unicode="&#x2074;" horiz-adv-x="706" 
d="M379 819v174h-369v154l328 491h215v-491h123v-154h-123v-174h-174zM184 1147h195v276h-10z" />
    <glyph glyph-name="uni2075" unicode="&#x2075;" horiz-adv-x="706" 
d="M348 809q-121 0 -206 66.5t-101 168.5h184q18 -72 123 -71q61 0 97 33.5t36 89.5q0 66 -39 99.5t-104 33.5q-68 0 -102 -51h-175l52 460h501v-153h-358l-20 -144h10q51 31 133 31q125 0 200.5 -73.5t75.5 -200.5q0 -125 -85 -207t-222 -82z" />
    <glyph glyph-name="uni2076" unicode="&#x2076;" horiz-adv-x="716" 
d="M338 973q66 0 99.5 38t33.5 95t-34 95t-99.5 38t-99 -38t-33.5 -95t32.5 -95t100.5 -38zM338 809q-141 0 -224 85t-83 212q0 139 71 246l195 286h184l-180 -266q27 10 68 10q123 0 199.5 -80.5t76.5 -205.5q0 -123 -88 -205t-219 -82z" />
    <glyph glyph-name="uni2077" unicode="&#x2077;" horiz-adv-x="614" 
d="M123 819l287 666h-349v153h533v-153l-287 -666h-184z" />
    <glyph glyph-name="uni2078" unicode="&#x2078;" horiz-adv-x="737" 
d="M368.5 963q59.5 0 91.5 31.5t32 80.5q0 41 -33 72t-90.5 31t-90 -31t-32.5 -72q0 -49 31.5 -80.5t91 -31.5zM369 809q-133 0 -215 66.5t-82 179.5q0 139 123 194q-45 23 -74 72t-29 102q0 96 75 161t202 65t201.5 -64.5t74.5 -161.5q0 -53 -28.5 -102t-73.5 -72
q123 -55 123 -194q0 -113 -82 -179.5t-215 -66.5zM368.5 1321q51.5 0 77 23.5t25.5 58.5q0 41 -25.5 66.5t-77 25.5t-77 -25.5t-25.5 -66.5q0 -35 25.5 -58.5t77 -23.5z" />
    <glyph glyph-name="uni2079" unicode="&#x2079;" horiz-adv-x="716" 
d="M236 819l180 266q-27 -10 -68 -10q-123 0 -199.5 81t-76.5 206q0 123 88 205t219 82q141 0 224 -85t83 -212q0 -139 -72 -246l-194 -287h-184zM378.5 1219q65.5 0 99.5 37.5t34 95t-33 95.5t-100 38q-66 0 -99.5 -38t-33.5 -95.5t33.5 -95t99 -37.5z" />
    <glyph glyph-name="uni2080" unicode="&#x2080;" horiz-adv-x="798" 
d="M399.5 -215q-149.5 0 -238.5 108.5t-89 311.5t89 311.5t238.5 108.5t238.5 -108.5t89 -311.5t-89 -311.5t-238.5 -108.5zM399.5 -51q65.5 0 109.5 65.5t44 190.5t-44 190.5t-109.5 65.5t-109.5 -65.5t-44 -190.5t44 -190.5t109.5 -65.5z" />
    <glyph glyph-name="uni2081" unicode="&#x2081;" horiz-adv-x="542" 
d="M246 -205v543h-185v164h134q51 0 51 51v61h174v-819h-174z" />
    <glyph glyph-name="uni2082" unicode="&#x2082;" horiz-adv-x="686" 
d="M61 -205v154l297 287q82 82 82 143q0 35 -25.5 58.5t-76.5 23.5t-76.5 -25.5t-25.5 -66.5h-185q8 115 83 185.5t214 70.5q129 0 203 -68t74 -178q0 -119 -113 -225l-215 -205h317v-154h-553z" />
    <glyph glyph-name="uni2083" unicode="&#x2083;" horiz-adv-x="696" 
d="M338 -215q-123 0 -203 59.5t-94 165.5h184q16 -61 113 -61q53 0 83 27.5t30 74.5q0 41 -26 66.5t-77 25.5h-82v154h82q92 0 92 82t-102 82q-94 0 -113 -92h-184q8 115 83 185.5t214 70.5q127 0 207 -65.5t80 -160.5q0 -63 -34 -109t-79 -65q123 -61 123 -184
q0 -109 -76 -182.5t-221 -73.5z" />
    <glyph glyph-name="uni2084" unicode="&#x2084;" horiz-adv-x="706" 
d="M379 -205v174h-369v154l328 491h215v-491h123v-154h-123v-174h-174zM184 123h195v276h-10z" />
    <glyph glyph-name="uni2085" unicode="&#x2085;" horiz-adv-x="706" 
d="M348 -215q-121 0 -206 66.5t-101 168.5h184q18 -72 123 -71q61 0 97 33.5t36 89.5q0 66 -39 99.5t-104 33.5q-68 0 -102 -51h-175l52 460h501v-153h-358l-20 -144h10q51 31 133 31q125 0 200.5 -73.5t75.5 -200.5q0 -125 -85 -207t-222 -82z" />
    <glyph glyph-name="uni2086" unicode="&#x2086;" horiz-adv-x="716" 
d="M338 -51q66 0 99.5 38t33.5 95t-34 95t-99.5 38t-99 -38t-33.5 -95t32.5 -95t100.5 -38zM338 -215q-141 0 -224 85t-83 212q0 139 71 246l195 286h184l-180 -266q27 10 68 10q123 0 199.5 -80.5t76.5 -205.5q0 -123 -88 -205t-219 -82z" />
    <glyph glyph-name="uni2087" unicode="&#x2087;" horiz-adv-x="614" 
d="M123 -205l287 666h-349v153h533v-153l-287 -666h-184z" />
    <glyph glyph-name="uni2088" unicode="&#x2088;" horiz-adv-x="737" 
d="M368.5 -61q59.5 0 91.5 31.5t32 80.5q0 41 -33 72t-90.5 31t-90 -31t-32.5 -72q0 -49 31.5 -80.5t91 -31.5zM369 -215q-133 0 -215 66.5t-82 179.5q0 139 123 194q-45 23 -74 72t-29 102q0 96 75 161t202 65t201.5 -64.5t74.5 -161.5q0 -53 -28.5 -102t-73.5 -72
q123 -55 123 -194q0 -113 -82 -179.5t-215 -66.5zM368.5 297q51.5 0 77 23.5t25.5 58.5q0 41 -25.5 66.5t-77 25.5t-77 -25.5t-25.5 -66.5q0 -35 25.5 -58.5t77 -23.5z" />
    <glyph glyph-name="uni2089" unicode="&#x2089;" horiz-adv-x="716" 
d="M236 -205l180 266q-27 -10 -68 -10q-123 0 -199.5 81t-76.5 206q0 123 88 205t219 82q141 0 224 -85t83 -212q0 -139 -72 -246l-194 -287h-184zM378.5 195q65.5 0 99.5 37.5t34 95t-33 95.5t-100 38q-66 0 -99.5 -38t-33.5 -95.5t33.5 -95t99 -37.5z" />
    <glyph glyph-name="uni20A9" unicode="&#x20a9;" horiz-adv-x="1996" 
d="M573 266h11l34 164h-73zM512 635h152l38 174h-221zM420 0l-92 430h-287v205h242l-37 174h-205v205h162l-90 420h266l70 -420h299l92 420h317l92 -420h297l72 420h266l-90 -420h162v-205h-207l-37 -174h244v-205h-287l-92 -430h-317l-95 430h-334l-94 -430h-317zM877 635
h243l-39 174h-168zM1413 266h10l27 164h-74zM958 1014h78l-32 153h-11zM1331 635h154l28 174h-219z" />
    <glyph glyph-name="Euro" unicode="&#x20ac;" horiz-adv-x="1525" 
d="M870 -20q-242 0 -407.5 122.5t-226.5 358.5h-205v184h174v143h-174v185h205q61 236 227 358.5t407 122.5q444 0 594 -399h-266q-104 174 -328 174q-289 0 -368 -256h522v-185h-563v-143h563v-184h-522q80 -256 368 -256q223 0 328 174h266q-150 -399 -594 -399z" />
    <glyph glyph-name="uni20B4" unicode="&#x20b4;" horiz-adv-x="1331" 
d="M666 -20q-215 0 -353.5 101t-138.5 236q0 98 45 164h-117v174h1127v-174h-748q-51 -51 -51 -133q0 -61 64.5 -102t171.5 -41q199 0 266 133h256q-39 -170 -174 -264t-348 -94zM102 778v174h748q51 51 51 133q0 61 -64.5 102.5t-170.5 41.5q-199 0 -267 -133h-256
q39 170 174.5 264t348.5 94q215 0 353 -101.5t138 -236.5q0 -98 -45 -164h117v-174h-1127z" />
    <glyph glyph-name="uni20B8" unicode="&#x20b8;" horiz-adv-x="1259" 
d="M502 0v840h-441v225h1137v-225h-440v-840h-256zM61 1208v226h1137v-226h-1137z" />
    <glyph glyph-name="uni20B9" unicode="&#x20b9;" horiz-adv-x="1208" 
d="M758 0l-369 492h-317v215h440q100 0 164.5 44t81.5 119h-686v195h686q-31 154 -246 154h-440v215h1075v-215h-215q61 -41 82 -154h133v-195h-133q-23 -154 -115 -243.5t-223 -114.5l379 -512h-297z" />
    <glyph glyph-name="uni20BA" unicode="&#x20ba;" horiz-adv-x="1218" 
d="M236 0v498l-185 -68v205l185 67v144l-185 -68v205l185 68v383h256v-289l307 115v-205l-307 -115v-143l307 114v-204l-307 -115v-367q236 0 328.5 60.5t101.5 226.5h245q-16 -279 -172.5 -395.5t-523.5 -116.5h-235z" />
    <glyph glyph-name="uni20BD" unicode="&#x20bd;" horiz-adv-x="1331" 
d="M205 0v225h-164v215h164v123h-164v215h164v656h583q211 0 336 -123t125 -317.5t-124 -312.5t-337 -118h-327v-123h420v-215h-420v-225h-256zM461 778h297q109 0 172 57.5t63 158t-63.5 157.5t-171.5 57h-297v-430z" />
    <glyph glyph-name="uni20BF" unicode="&#x20bf;" horiz-adv-x="1351" 
d="M410 225h389q96 0 150.5 51.5t54.5 143.5q0 90 -54.5 142t-150.5 52h-389v-389zM338 -225v225h-184v1434h184v225h215v-225h154v225h215v-236q154 -27 235.5 -129t81.5 -260q0 -102 -52 -184t-132 -123q90 -41 147.5 -126t57.5 -202q0 -164 -88.5 -267t-249.5 -126v-231
h-215v225h-154v-225h-215zM410 819h368q94 0 149.5 52.5t55.5 142.5t-55.5 142t-149.5 52h-368v-389z" />
    <glyph glyph-name="uni2113" unicode="&#x2113;" horiz-adv-x="860" 
d="M512 -20q-307 0 -307 296v175q-82 -31 -185 -31v174q45 0 91.5 10t68.5 21l25 10v530q0 137 76.5 213t210.5 76q135 0 215.5 -87t80.5 -251q0 -217 -111.5 -373.5t-287.5 -240.5v-226q0 -123 143 -122q33 0 66 7t49 15l19 8v-184q-62 -20 -154 -20zM389 707
q215 133 215 409q0 164 -112 164q-102 0 -103 -131v-442z" />
    <glyph glyph-name="uni2116" unicode="&#x2116;" horiz-adv-x="2304" 
d="M154 0v1434h338l614 -1076h10v1076h256v-1434h-338l-614 1075h-10v-1075h-256zM1556 2v203h635v-203h-635zM1873.5 328q-147.5 0 -242.5 93t-95 244.5t95 245t242.5 93.5t243 -93.5t95.5 -245t-95.5 -244.5t-243 -93zM1873.5 502q63.5 0 103.5 44t40 119.5t-40 119.5
t-103.5 44t-103 -44t-39.5 -119.5t39.5 -119.5t103 -44z" />
    <glyph glyph-name="uni2117" unicode="&#x2117;" horiz-adv-x="1699" 
d="M849.5 -20q-321.5 0 -529 206.5t-207.5 530t207.5 530.5t529 207t529.5 -207t208 -530.5t-208 -530t-529.5 -206.5zM850 143q246 0 404.5 161t158.5 413t-158.5 412.5t-404.5 160.5t-404.5 -160.5t-158.5 -412.5t158.5 -413t404.5 -161zM573 338v768h328q133 0 205 -71.5
t72 -184.5q0 -119 -72 -192.5t-205 -73.5h-153v-246h-175zM748 737h133q123 0 123 113q0 102 -123 102h-133v-215z" />
    <glyph glyph-name="trademark" unicode="&#x2122;" horiz-adv-x="1505" 
d="M225 799v481h-194v154h553v-154h-195v-481h-164zM655 799v635h236l123 -420h10l123 420h235v-635h-163v389h-11l-112 -389h-154l-113 389h-10v-389h-164z" />
    <glyph glyph-name="Omega" unicode="&#x2126;" horiz-adv-x="1679" 
d="M184 0v174h236q-12 6 -31.5 19.5t-71 63.5t-91.5 110.5t-71.5 165t-31.5 225.5q0 311 192.5 503.5t524 192.5t524 -192.5t192.5 -503.5q0 -121 -30.5 -224.5t-73.5 -167t-87 -109.5t-75 -64l-30 -19h235v-174h-522v174q16 6 41.5 19.5t93.5 63.5t119 109.5t93 162
t42 219.5q0 233 -143.5 382.5t-379 149.5t-379 -149.5t-143.5 -382.5q0 -117 40 -218.5t97.5 -164t115 -108.5t98.5 -64l39 -19v-174h-523z" />
    <glyph glyph-name="estimated" unicode="&#x212e;" horiz-adv-x="1740" 
d="M901 -41q-334 0 -556 214t-222 523.5t218 523.5t539.5 214t539.5 -214t218 -524v-10h-1177q-31 0 -31 -31v-399q0 -88 82 -139q178 -106 389 -107q100 0 192.5 29t154 68.5t107.5 80.5t66 70l23 29h112q-8 -14 -26.5 -36t-79.5 -78t-132 -99t-183.5 -79t-233.5 -36z
M461 737h839q31 0 31 31v379q0 84 -82 135q-160 100 -368 100q-201 0 -369 -100q-82 -51 -82 -135v-379q0 -31 31 -31z" />
    <glyph glyph-name="uni2150" unicode="&#x2150;" horiz-adv-x="1597" 
d="M184 0l891 1434h185l-891 -1434h-185zM246 614v543h-185v164h134q51 0 51 51v62h174v-820h-174zM1034 0l287 666h-348v153h532v-153l-286 -666h-185z" />
    <glyph glyph-name="uni2151" unicode="&#x2151;" horiz-adv-x="1617" 
d="M184 0l891 1434h185l-891 -1434h-185zM246 614v543h-185v164h134q51 0 51 51v62h174v-820h-174zM1085 0l181 266q-27 -10 -68 -10q-121 0 -198.5 81t-77.5 206q0 123 88 204.5t219 81.5q141 0 224 -85t83 -212q0 -137 -72 -245l-194 -287h-185zM1228.5 399
q65.5 0 99.5 38t34 95.5t-33 95.5t-100 38q-66 0 -99.5 -38t-33.5 -95.5t33.5 -95.5t99 -38z" />
    <glyph glyph-name="uni2152" unicode="&#x2152;" horiz-adv-x="2140" 
d="M186 0l891 1434h185l-891 -1434h-185zM246 614v543h-185v164h134q51 0 51 51v62h174v-820h-174zM1128 0v543h-184v164h133q51 0 51 51v61h175v-819h-175zM1720.5 -10q-149.5 0 -238.5 108.5t-89 311t89 311t238.5 108.5t238.5 -108.5t89 -311t-89 -311t-238.5 -108.5z
M1720.5 154q65.5 0 109.5 65.5t44 190.5t-44 190.5t-109.5 65.5t-109.5 -65.5t-44 -190.5t44 -190.5t109.5 -65.5z" />
    <glyph glyph-name="onethird" unicode="&#x2153;" horiz-adv-x="1607" 
d="M184 0l891 1434h185l-891 -1434h-185zM246 614v543h-185v164h134q51 0 51 51v62h174v-820h-174zM1219 -10q-123 0 -203 59.5t-94 165.5h184q16 -61 113 -61q53 0 82.5 27.5t29.5 74.5q0 41 -25.5 66.5t-76.5 25.5h-82v154h82q92 0 92 82t-102 82q-94 0 -113 -93h-184
q8 115 82.5 185.5t214.5 70.5q127 0 206.5 -65.5t79.5 -159.5q0 -63 -33.5 -109t-78.5 -65q123 -61 123 -184q0 -109 -76 -182.5t-221 -73.5z" />
    <glyph glyph-name="twothirds" unicode="&#x2154;" horiz-adv-x="1761" 
d="M338 0l891 1434h184l-891 -1434h-184zM82 614v154l297 287q82 82 82 143q0 35 -25.5 58.5t-77 23.5t-77 -25.5t-25.5 -66.5h-184q8 115 82.5 185.5t214.5 70.5q129 0 202.5 -67.5t73.5 -178.5q0 -119 -113 -225l-215 -205h318v-154h-553zM1372 -10q-123 0 -202.5 59.5
t-94.5 165.5h185q14 -61 112 -61q53 0 83 27.5t30 74.5q0 41 -25.5 66.5t-77.5 25.5h-82v154h82q92 0 92.5 82t-102.5 82q-94 0 -112 -93h-185q8 115 83 185.5t214 70.5q127 0 207 -65.5t80 -159.5q0 -63 -34 -109t-79 -65q123 -61 123 -184q0 -109 -76 -182.5t-221 -73.5z
" />
    <glyph glyph-name="uni2155" unicode="&#x2155;" horiz-adv-x="1638" 
d="M184 0l891 1434h185l-891 -1434h-185zM246 614v543h-185v164h134q51 0 51 51v62h174v-820h-174zM1239 -10q-121 0 -206 66.5t-101 168.5h184q18 -72 123 -71q61 0 97 33.5t36 88.5q0 66 -39 100t-104 34q-68 0 -103 -52h-174l52 461h501v-153h-358l-21 -144h11
q51 31 133 31q125 0 200.5 -73.5t75.5 -200.5q0 -125 -85 -207t-222 -82z" />
    <glyph glyph-name="uni2156" unicode="&#x2156;" horiz-adv-x="1802" 
d="M338 0l891 1434h184l-891 -1434h-184zM82 614v154l297 287q82 82 82 143q0 35 -25.5 58.5t-77 23.5t-77 -25.5t-25.5 -66.5h-184q8 115 82.5 185.5t214.5 70.5q129 0 202.5 -67.5t73.5 -178.5q0 -119 -113 -225l-215 -205h318v-154h-553zM1403 -10q-121 0 -206 66.5
t-101 168.5h184q18 -72 123 -71q61 0 97 33.5t36 88.5q0 66 -39 100t-104 34q-68 0 -103 -52h-174l51 461h502v-153h-358l-21 -144h10q51 31 134 31q125 0 200.5 -73.5t75.5 -200.5q0 -125 -85 -207t-222 -82z" />
    <glyph glyph-name="uni2157" unicode="&#x2157;" horiz-adv-x="1792" 
d="M338 0l891 1434h184l-891 -1434h-184zM358 604q-123 0 -202.5 59.5t-94.5 165.5h185q16 -61 112 -61q53 0 83 27.5t30 74.5q0 41 -25.5 67t-76.5 26h-82v153h82q92 0 92 82t-103 82q-94 0 -112 -92h-185q8 115 83 185.5t214 70.5q127 0 207 -65.5t80 -159.5
q0 -63 -33.5 -109.5t-79.5 -65.5q123 -61 123 -184q0 -109 -76 -182.5t-221 -73.5zM1393 -10q-121 0 -206 66.5t-102 168.5h185q18 -72 123 -71q61 0 97 33.5t36 88.5q0 66 -39 100t-105 34q-68 0 -102 -52h-174l51 461h502v-153h-359l-20 -144h10q51 31 133 31
q125 0 201 -73.5t76 -200.5q0 -125 -85 -207t-222 -82z" />
    <glyph glyph-name="uni2158" unicode="&#x2158;" horiz-adv-x="1822" 
d="M369 0l891 1434h184l-891 -1434h-184zM410 614v174h-369v154l328 492h215v-492h123v-154h-123v-174h-174zM215 942h195v277h-11zM1423 -10q-121 0 -205.5 66.5t-101.5 168.5h184q18 -72 123 -71q61 0 97 33.5t36 88.5q0 66 -38.5 100t-104.5 34q-68 0 -102 -52h-174
l51 461h502v-153h-359l-20 -144h10q51 31 133 31q125 0 201 -73.5t76 -200.5q0 -125 -85.5 -207t-222.5 -82z" />
    <glyph glyph-name="uni2159" unicode="&#x2159;" horiz-adv-x="1587" 
d="M184 0l891 1434h185l-891 -1434h-185zM246 614v543h-185v164h134q51 0 51 51v62h174v-820h-174zM1198 154q66 0 99.5 37.5t33.5 95t-33.5 95.5t-99 38t-99.5 -38t-34 -95.5t32.5 -95t100.5 -37.5zM1198 -10q-141 0 -224 85t-83 212q0 139 72 245l194 287h184l-180 -266
q27 10 68 10q123 0 199.5 -81t76.5 -206q0 -123 -88 -204.5t-219 -81.5z" />
    <glyph glyph-name="uni215A" unicode="&#x215a;" horiz-adv-x="1771" 
d="M379 0l891 1434h184l-891 -1434h-184zM389 604q-121 0 -206 66.5t-101 169.5h184q18 -72 123 -72q61 0 97 34t36 89q0 66 -39 99.5t-104 33.5q-68 0 -103 -51h-174l52 461h501v-154h-358l-21 -143h11q51 31 133 30q125 0 200.5 -73.5t75.5 -200.5q0 -125 -85 -207
t-222 -82zM1382 154q66 0 100 37.5t34 95t-34 95.5t-99.5 38t-99.5 -38t-34 -95.5t32.5 -95t100.5 -37.5zM1382 -10q-141 0 -224 85t-83 212q0 139 72 245l194 287h185l-180 -266q27 10 67 10q123 0 200 -81t77 -206q0 -123 -88.5 -204.5t-219.5 -81.5z" />
    <glyph glyph-name="oneeighth" unicode="&#x215b;" horiz-adv-x="1628" 
d="M184 0l891 1434h185l-891 -1434h-185zM246 614v543h-185v164h134q51 0 51 51v62h174v-820h-174zM1239 143q59 0 91 32t32 81q0 41 -33 71.5t-90 30.5t-90 -30.5t-33 -71.5q0 -49 32 -81t91 -32zM1239 -10q-133 0 -215 66.5t-82 179.5q0 139 123 194q-45 23 -73.5 72
t-28.5 102q0 96 74.5 160.5t201.5 64.5t202 -64.5t75 -160.5q0 -53 -29 -102t-74 -72q123 -55 123 -194q0 -113 -82 -179.5t-215 -66.5zM1239 502q51 0 76.5 23.5t25.5 58.5q0 41 -25.5 66.5t-76.5 25.5t-76.5 -25.5t-25.5 -66.5q0 -35 25.5 -58.5t76.5 -23.5z" />
    <glyph glyph-name="threeeighths" unicode="&#x215c;" horiz-adv-x="1781" 
d="M338 0l891 1434h184l-891 -1434h-184zM358 604q-123 0 -202.5 59.5t-94.5 165.5h185q16 -61 112 -61q53 0 83 27.5t30 74.5q0 41 -25.5 67t-76.5 26h-82v153h82q92 0 92 82t-103 82q-94 0 -112 -92h-185q8 115 83 185.5t214 70.5q127 0 207 -65.5t80 -159.5
q0 -63 -33.5 -109.5t-79.5 -65.5q123 -61 123 -184q0 -109 -76 -182.5t-221 -73.5zM1392.5 143q59.5 0 91.5 32t32 81q0 41 -33 71.5t-90.5 30.5t-90 -30.5t-32.5 -71.5q0 -49 31.5 -81t91 -32zM1393 -10q-133 0 -215 66.5t-82 179.5q0 139 123 194q-45 23 -74 72t-29 102
q0 96 75 160.5t202 64.5t201.5 -64.5t74.5 -160.5q0 -53 -28.5 -102t-73.5 -72q123 -55 123 -194q0 -113 -82 -179.5t-215 -66.5zM1392.5 502q51.5 0 77 23.5t25.5 58.5q0 41 -25.5 66.5t-77 25.5t-77 -25.5t-25.5 -66.5q0 -35 25.5 -58.5t77 -23.5z" />
    <glyph glyph-name="fiveeighths" unicode="&#x215d;" horiz-adv-x="1822" 
d="M379 0l891 1434h184l-891 -1434h-184zM389 604q-121 0 -206 66.5t-101 169.5h184q18 -72 123 -72q61 0 97 34t36 89q0 66 -39 99.5t-104 33.5q-68 0 -103 -51h-174l52 461h501v-154h-358l-21 -143h11q51 31 133 30q125 0 200.5 -73.5t75.5 -200.5q0 -125 -85 -207
t-222 -82zM1433.5 143q59.5 0 91 32t31.5 81q0 41 -32.5 71.5t-90 30.5t-90 -30.5t-32.5 -71.5q0 -49 31.5 -81t91 -32zM1433.5 -10q-133.5 0 -215 66.5t-81.5 179.5q0 139 123 194q-45 23 -74 72t-29 102q0 96 75 160.5t202 64.5t201.5 -64.5t74.5 -160.5q0 -53 -28.5 -102
t-73.5 -72q123 -55 123 -194q0 -113 -82 -179.5t-215.5 -66.5zM1433.5 502q51.5 0 77 23.5t25.5 58.5q0 41 -25.5 66.5t-77 25.5t-77 -25.5t-25.5 -66.5q0 -35 25.5 -58.5t77 -23.5z" />
    <glyph glyph-name="seveneighths" unicode="&#x215e;" horiz-adv-x="1628" 
d="M184 0l891 1434h185l-891 -1434h-185zM143 614l287 666h-348v154h532v-154l-286 -666h-185zM1228.5 143q59.5 0 91.5 32t32 81q0 41 -33 71.5t-90.5 30.5t-90 -30.5t-32.5 -71.5q0 -49 31.5 -81t91 -32zM1229 -10q-133 0 -215 66.5t-82 179.5q0 139 123 194
q-45 23 -74 72t-29 102q0 96 75 160.5t202 64.5t201.5 -64.5t74.5 -160.5q0 -53 -28.5 -102t-73.5 -72q123 -55 123 -194q0 -113 -82 -179.5t-215 -66.5zM1229 502q51 0 76.5 23.5t25.5 58.5q0 41 -25.5 66.5t-76.5 25.5t-77 -25.5t-26 -66.5q0 -35 26 -58.5t77 -23.5z" />
    <glyph glyph-name="uni215F" unicode="&#x215f;" horiz-adv-x="870" 
d="M184 0l891 1434h185l-891 -1434h-185zM246 614v543h-185v164h134q51 0 51 51v62h174v-820h-174z" />
    <glyph glyph-name="arrowleft" unicode="&#x2190;" 
d="M748 266l-441 441v10l441 440l112 -113l-246 -245h1127v-174h-1127l246 -246z" />
    <glyph glyph-name="arrowup" unicode="&#x2191;" 
d="M932 0v1126l-246 -245l-113 112l441 441h10l440 -441l-112 -112l-246 245v-1126h-174z" />
    <glyph glyph-name="arrowright" unicode="&#x2192;" 
d="M1300 266l-112 113l246 246h-1127v174h1127l-246 245l112 113l441 -440v-10z" />
    <glyph glyph-name="arrowdown" unicode="&#x2193;" 
d="M1014 0l-441 440l113 113l246 -246v1127h174v-1127l246 246l112 -113l-440 -440h-10z" />
    <glyph glyph-name="arrowboth" unicode="&#x2194;" 
d="M707 266l-441 441v10l441 440l112 -113l-246 -245h902l-246 245l112 113l441 -440v-10l-441 -441l-112 113l246 246h-902l246 -246z" />
    <glyph glyph-name="arrowupdn" unicode="&#x2195;" 
d="M1014 -41l-441 440l113 113l246 -246v901l-246 -245l-113 112l441 441h10l440 -441l-112 -112l-246 245v-901l246 246l112 -113l-440 -440h-10z" />
    <glyph glyph-name="uni2196" unicode="&#x2196;" 
d="M1526 102l-942 942v-348h-174v615l20 20h614v-174h-348l942 -942z" />
    <glyph glyph-name="uni2197" unicode="&#x2197;" 
d="M522 102l-112 113l942 942h-348v174h614l20 -20v-615h-174v348z" />
    <glyph glyph-name="uni2198" unicode="&#x2198;" 
d="M1004 102v174h348l-942 943l112 112l942 -942v348h174v-614l-20 -21h-614z" />
    <glyph glyph-name="uni2199" unicode="&#x2199;" 
d="M430 102l-20 21v614h174v-348l942 942l112 -112l-942 -943h348v-174h-614z" />
    <glyph glyph-name="uni21C5" unicode="&#x21c5;" 
d="M594 0v1126l-246 -245l-112 112l440 441h10l440 -441l-112 -112l-246 245v-1126h-174zM1362 0l-440 440l112 113l246 -246v1127h174v-1127l246 246l112 -113l-440 -440h-10z" />
    <glyph glyph-name="uni21F5" unicode="&#x21f5;" 
d="M676 0l-440 440l112 113l246 -246v1127h174v-1127l246 246l112 -113l-440 -440h-10zM1280 0v1126l-246 -245l-112 112l440 441h10l440 -441l-112 -112l-246 245v-1126h-174z" />
    <glyph glyph-name="partialdiff" unicode="&#x2202;" horiz-adv-x="1177" 
d="M563 154q143 0 225 107.5t82 322.5q-4 6 -11 18t-34.5 42t-60.5 53.5t-87 42t-114 18.5q-131 0 -209 -80t-78 -217q0 -145 78 -226t209 -81zM563 -20q-207 0 -339 128t-132 353q0 213 123 342t317 129q205 0 338 -133h11q0 219 -89.5 350t-248.5 131q-133 0 -185 -102
h-194q27 113 125 194.5t260 81.5q252 0 384 -186.5t132 -550.5q0 -737 -502 -737z" />
    <glyph glyph-name="emptyset" unicode="&#x2205;" horiz-adv-x="1679" 
d="M418 354l708 846q-125 80 -286 80q-238 0 -385.5 -157.5t-147.5 -405.5q0 -213 111 -363zM840 -20q-238 0 -410 106l-82 -96h-235l178 213q-178 201 -178 514q0 332 198.5 534.5t528.5 202.5q233 0 409 -108l82 98h236l-181 -215q180 -199 181 -512q0 -332 -198.5 -534.5
t-528.5 -202.5zM840 154q238 0 385 157.5t147 405.5q0 213 -112 360l-709 -846q129 -77 289 -77z" />
    <glyph glyph-name="Delta" unicode="&#x2206;" horiz-adv-x="1331" 
d="M287 174h757l-378 1055zM31 0l512 1434h245l512 -1434h-1269z" />
    <glyph glyph-name="product" unicode="&#x220f;" horiz-adv-x="1454" 
d="M195 -225v1659h1065v-1659h-195v1485h-676v-1485h-194z" />
    <glyph glyph-name="summation" unicode="&#x2211;" horiz-adv-x="1198" 
d="M123 -225v174l461 696l-461 615v174h973v-174h-748l461 -615l-461 -696h748v-174h-973z" />
    <glyph glyph-name="minus" unicode="&#x2212;" horiz-adv-x="1136" 
d="M82 532v195h973v-195h-973z" />
    <glyph glyph-name="radical" unicode="&#x221a;" horiz-adv-x="1300" 
d="M440 -225l-174 512h-246v174h390l163 -481h21l461 1505h194l-522 -1710h-287z" />
    <glyph glyph-name="infinity" unicode="&#x221e;" horiz-adv-x="1617" 
d="M451 532q78 0 151.5 53.5t124.5 131.5q-51 78 -125 131t-151 53q-76 0 -125.5 -53t-49.5 -131t49.5 -131.5t125.5 -53.5zM451 379q-154 0 -246 92t-92 245.5t92 246t246 92.5q186 0 358 -215q172 215 358 215q154 0 246 -92.5t92 -246t-92 -245.5t-246 -92
q-186 0 -358 215q-172 -215 -358 -215zM1167 532q76 0 125 53.5t49 131.5t-49 131t-125 53q-78 0 -151.5 -53t-124.5 -131q51 -78 124.5 -131.5t151.5 -53.5z" />
    <glyph glyph-name="integral" unicode="&#x222b;" horiz-adv-x="778" 
d="M82 -225v174h31q113 0 148.5 50t35.5 185v1065q0 221 83 315.5t275 94.5h41v-174h-30q-113 0 -149 -50.5t-36 -185.5v-1065q0 -221 -83 -315t-275 -94h-41z" />
    <glyph glyph-name="approxequal" unicode="&#x2248;" horiz-adv-x="1218" 
d="M113 246q0 143 77.5 235t219.5 92q98 0 214.5 -61t153.5 -61q47 0 80 34.5t33 87.5h215q0 -143 -78 -235t-219 -92q-96 0 -214 61.5t-155 61.5q-47 0 -79.5 -35t-32.5 -88h-215zM113 666q0 143 77.5 235t219.5 92q98 0 214.5 -61.5t153.5 -61.5q47 0 80 35t33 88h215
q0 -143 -78 -235t-219 -92q-96 0 -214 61t-155 61q-47 0 -79.5 -34.5t-32.5 -87.5h-215z" />
    <glyph glyph-name="notequal" unicode="&#x2260;" horiz-adv-x="1126" 
d="M256 143l72 164h-256v195h340l108 246h-448v194h532l72 164h194l-71 -164h256v-194h-340l-109 -246h449v-195h-533l-71 -164h-195z" />
    <glyph glyph-name="lessequal" unicode="&#x2264;" horiz-adv-x="1075" 
d="M92 0v184h891v-184h-891zM983 246l-891 379v184l891 379v-215l-655 -256l655 -256v-215z" />
    <glyph glyph-name="greaterequal" unicode="&#x2265;" horiz-adv-x="1075" 
d="M92 0v184h891v-184h-891zM92 246v215l656 256l-656 256v215l891 -379v-184z" />
    <glyph glyph-name="uni2318" unicode="&#x2318;" horiz-adv-x="1669" 
d="M409.5 154q61.5 0 102.5 43t41 110v133h-131q-70 0 -113 -41t-43 -102t41 -102t102.5 -41zM409.5 0q-137.5 0 -222.5 83t-85 214t86 209t232 78h133v266h-133q-145 0 -231.5 78t-86.5 209t85 214t222.5 83t217.5 -79t80 -229v-133h256v133q0 150 79.5 229t217 79
t222.5 -83t85 -214t-86 -209t-232 -78h-133v-266h133q145 0 231.5 -78t86.5 -209t-85 -214t-222.5 -83t-217 79t-79.5 228v133h-256v-133q0 -150 -80 -228.5t-217.5 -78.5zM707 584h256v266h-256v-266zM422 993h131v133q0 68 -41 111t-102.5 43t-102.5 -41t-41 -102.5
t43 -102.5t113 -41zM1259.5 154q61.5 0 102.5 41t41 102t-43 102t-113 41h-131v-133q0 -68 41 -110.5t102.5 -42.5zM1116 993h131q70 0 113 41t43 102.5t-41 102.5t-102.5 41t-102.5 -43t-41 -111v-133z" />
    <glyph glyph-name="uni2460" unicode="&#x2460;" 
d="M973 307v543h-185v164h134q51 0 51 51v61h174v-819h-174zM1024 -154q-367 0 -618.5 254t-251.5 616.5t251.5 616.5t618.5 254t618.5 -254t251.5 -616.5t-251.5 -616.5t-618.5 -254zM1024 -10q307 0 517 210t210 517t-210 517t-517 210t-517 -210t-210 -517t210 -517
t517 -210z" />
    <glyph glyph-name="uni2461" unicode="&#x2461;" 
d="M758 307v154l297 287q82 82 82 143q0 35 -26 58.5t-77 23.5t-76.5 -25.5t-25.5 -66.5h-184q8 115 82.5 185.5t213.5 70.5q129 0 203 -68t74 -178q0 -119 -113 -225l-215 -205h318v-154h-553zM1024 -154q-367 0 -618.5 254t-251.5 616.5t251.5 616.5t618.5 254t618.5 -254
t251.5 -616.5t-251.5 -616.5t-618.5 -254zM1024 -10q307 0 517 210t210 517t-210 517t-517 210t-517 -210t-210 -517t210 -517t517 -210z" />
    <glyph glyph-name="uni2462" unicode="&#x2462;" 
d="M1034 297q-123 0 -202.5 59.5t-94.5 165.5h185q16 -61 112 -61q53 0 83 27.5t30 74.5q0 41 -25.5 66.5t-77.5 25.5h-81v154h81q92 0 92.5 82t-102.5 82q-94 0 -112 -92h-185q8 115 83 185.5t214 70.5q127 0 207 -65.5t80 -160.5q0 -63 -34 -109t-79 -65q123 -61 123 -184
q0 -109 -76 -182.5t-221 -73.5zM1024 -154q-367 0 -618.5 254t-251.5 616.5t251.5 616.5t618.5 254t618.5 -254t251.5 -616.5t-251.5 -616.5t-618.5 -254zM1024 -10q307 0 517 210t210 517t-210 517t-517 210t-517 -210t-210 -517t210 -517t517 -210z" />
    <glyph glyph-name="uni2463" unicode="&#x2463;" 
d="M1034 307v174h-368v154l327 491h215v-491h123v-154h-123v-174h-174zM840 635h194v276h-10zM1024 -154q-367 0 -618.5 254t-251.5 616.5t251.5 616.5t618.5 254t618.5 -254t251.5 -616.5t-251.5 -616.5t-618.5 -254zM1024 -10q307 0 517 210t210 517t-210 517t-517 210
t-517 -210t-210 -517t210 -517t517 -210z" />
    <glyph glyph-name="uni2464" unicode="&#x2464;" 
d="M1034 297q-121 0 -206 66.5t-101 168.5h184q18 -72 123 -71q61 0 97 33.5t36 89.5q0 66 -38.5 99.5t-104.5 33.5q-68 0 -102 -51h-174l51 460h501v-153h-358l-20 -144h10q51 31 133 31q125 0 200.5 -73.5t75.5 -200.5q0 -125 -85 -207t-222 -82zM1024 -154
q-367 0 -618.5 254t-251.5 616.5t251.5 616.5t618.5 254t618.5 -254t251.5 -616.5t-251.5 -616.5t-618.5 -254zM1024 -10q307 0 517 210t210 517t-210 517t-517 210t-517 -210t-210 -517t210 -517t517 -210z" />
    <glyph glyph-name="uni2465" unicode="&#x2465;" 
d="M1024 461q66 0 99.5 38t33.5 95t-33.5 95t-99.5 38t-99.5 -38t-33.5 -95t32.5 -95t100.5 -38zM1024 297q-141 0 -224 85t-83 212q0 139 71 246l195 286h184l-180 -266q27 10 68 10q121 0 198.5 -80.5t77.5 -205.5q0 -123 -88 -205t-219 -82zM1024 -154q-367 0 -618.5 254
t-251.5 616.5t251.5 616.5t618.5 254t618.5 -254t251.5 -616.5t-251.5 -616.5t-618.5 -254zM1024 -10q307 0 517 210t210 517t-210 517t-517 210t-517 -210t-210 -517t210 -517t517 -210z" />
    <glyph glyph-name="uni2466" unicode="&#x2466;" 
d="M829 307l287 666h-348v153h532v-153l-286 -666h-185zM1024 -154q-367 0 -618.5 254t-251.5 616.5t251.5 616.5t618.5 254t618.5 -254t251.5 -616.5t-251.5 -616.5t-618.5 -254zM1024 -10q307 0 517 210t210 517t-210 517t-517 210t-517 -210t-210 -517t210 -517t517 -210
z" />
    <glyph glyph-name="uni2467" unicode="&#x2467;" 
d="M1024 451q59 0 91 31.5t32 80.5q0 41 -33 72t-90 31t-90 -31t-33 -72q0 -49 32 -80.5t91 -31.5zM1024 297q-133 0 -215 66.5t-82 179.5q0 139 123 194q-45 23 -73.5 72t-28.5 102q0 96 74.5 161t201.5 65t201.5 -64.5t74.5 -161.5q0 -53 -28.5 -102t-73.5 -72
q123 -55 123 -194q0 -113 -82 -179.5t-215 -66.5zM1024 809q51 0 76.5 23.5t25.5 58.5q0 41 -25.5 66.5t-76.5 25.5t-76.5 -25.5t-25.5 -66.5q0 -35 25.5 -58.5t76.5 -23.5zM1024 -154q-367 0 -618.5 254t-251.5 616.5t251.5 616.5t618.5 254t618.5 -254t251.5 -616.5
t-251.5 -616.5t-618.5 -254zM1024 -10q307 0 517 210t210 517t-210 517t-517 210t-517 -210t-210 -517t210 -517t517 -210z" />
    <glyph glyph-name="uni2468" unicode="&#x2468;" 
d="M881 307l180 266q-27 -10 -68 -10q-121 0 -198.5 81t-77.5 206q0 123 88 205t219 82q141 0 224 -85t83 -212q0 -139 -71 -246l-195 -287h-184zM1024 707q66 0 99.5 37.5t33.5 95t-32.5 95.5t-100.5 38q-66 0 -99.5 -38t-33.5 -95.5t33.5 -95t99.5 -37.5zM1024 -154
q-367 0 -618.5 254t-251.5 616.5t251.5 616.5t618.5 254t618.5 -254t251.5 -616.5t-251.5 -616.5t-618.5 -254zM1024 -10q307 0 517 210t210 517t-210 517t-517 210t-517 -210t-210 -517t210 -517t517 -210z" />
    <glyph glyph-name="uni2469" unicode="&#x2469;" 
d="M643 307v543h-184v164h133q51 0 51 51v61h174v-819h-174zM1249.5 297q-149.5 0 -238.5 108.5t-89 311.5t89 311.5t238.5 108.5t238.5 -108.5t89 -311.5t-89 -311.5t-238.5 -108.5zM1249.5 461q65.5 0 109.5 65.5t44 190.5t-44 190.5t-109.5 65.5t-109.5 -65.5t-44 -190.5
t44 -190.5t109.5 -65.5zM1024 -154q-367 0 -618.5 254t-251.5 616.5t251.5 616.5t618.5 254t618.5 -254t251.5 -616.5t-251.5 -616.5t-618.5 -254zM1024 -10q307 0 517 210t210 517t-210 517t-517 210t-517 -210t-210 -517t210 -517t517 -210z" />
    <glyph glyph-name="uni246A" unicode="&#x246a;" 
d="M737 307v543h-184v164h133q51 0 51 51v61h174v-819h-174zM1219 307v543h-185v164h133q51 0 52 51v61h174v-819h-174zM1024 -154q-367 0 -618.5 254t-251.5 616.5t251.5 616.5t618.5 254t618.5 -254t251.5 -616.5t-251.5 -616.5t-618.5 -254zM1024 -10q307 0 517 210
t210 517t-210 517t-517 210t-517 -210t-210 -517t210 -517t517 -210z" />
    <glyph glyph-name="uni246B" unicode="&#x246b;" 
d="M664 307v543h-185v164h133q51 0 52 51v61h174v-819h-174zM963 307v154l297 287q82 82 81 143q0 35 -25.5 58.5t-76.5 23.5t-76.5 -25.5t-25.5 -66.5h-185q8 115 83 185.5t214 70.5q129 0 203 -68t74 -178q0 -119 -113 -225l-215 -205h318v-154h-553zM1024 -154
q-367 0 -618.5 254t-251.5 616.5t251.5 616.5t618.5 254t618.5 -254t251.5 -616.5t-251.5 -616.5t-618.5 -254zM1024 -10q307 0 517 210t210 517t-210 517t-517 210t-517 -210t-210 -517t210 -517t517 -210z" />
    <glyph glyph-name="uni246C" unicode="&#x246c;" 
d="M655 307v543h-184v164h133q51 0 51 51v61h174v-819h-174zM1229 297q-123 0 -203 59.5t-94 165.5h184q14 -61 113 -61q53 0 82.5 27.5t29.5 74.5q0 41 -25.5 66.5t-76.5 25.5h-82v154h82q92 0 92 82t-102 82q-94 0 -113 -92h-184q8 115 83 185.5t214 70.5q127 0 207 -65.5
t80 -160.5q0 -63 -34 -109t-79 -65q123 -61 123 -184q0 -109 -76 -182.5t-221 -73.5zM1024 -154q-367 0 -618.5 254t-251.5 616.5t251.5 616.5t618.5 254t618.5 -254t251.5 -616.5t-251.5 -616.5t-618.5 -254zM1024 -10q307 0 517 210t210 517t-210 517t-517 210t-517 -210
t-210 -517t210 -517t517 -210z" />
    <glyph glyph-name="uni246D" unicode="&#x246d;" 
d="M655 307v543h-184v164h133q51 0 51 51v61h174v-819h-174zM1280 307v174h-369v154l328 491h215v-491h123v-154h-123v-174h-174zM1085 635h195v276h-10zM1024 -154q-367 0 -618.5 254t-251.5 616.5t251.5 616.5t618.5 254t618.5 -254t251.5 -616.5t-251.5 -616.5
t-618.5 -254zM1024 -10q307 0 517 210t210 517t-210 517t-517 210t-517 -210t-210 -517t210 -517t517 -210z" />
    <glyph glyph-name="uni246E" unicode="&#x246e;" 
d="M645 307v543h-184v164h133q51 0 51 51v61h174v-819h-174zM1229 297q-121 0 -206 66.5t-101 168.5h184q18 -72 123 -71q61 0 97 33.5t36 89.5q0 66 -39 99.5t-104 33.5q-68 0 -103 -51h-174l51 460h502v-153h-358l-21 -144h10q51 31 134 31q125 0 200.5 -73.5t75.5 -200.5
q0 -125 -85 -207t-222 -82zM1024 -154q-367 0 -618.5 254t-251.5 616.5t251.5 616.5t618.5 254t618.5 -254t251.5 -616.5t-251.5 -616.5t-618.5 -254zM1024 -10q307 0 517 210t210 517t-210 517t-517 210t-517 -210t-210 -517t210 -517t517 -210z" />
    <glyph glyph-name="uni246F" unicode="&#x246f;" 
d="M645 307v543h-184v164h133q51 0 51 51v61h174v-819h-174zM1239 461q66 0 99.5 38t33.5 95t-33.5 95t-99 38t-99.5 -38t-34 -95t32.5 -95t100.5 -38zM1239 297q-141 0 -224 85t-83 212q0 139 72 246l194 286h184l-180 -266q27 10 68 10q123 0 199.5 -80.5t76.5 -205.5
q0 -123 -88 -205t-219 -82zM1024 -154q-367 0 -618.5 254t-251.5 616.5t251.5 616.5t618.5 254t618.5 -254t251.5 -616.5t-251.5 -616.5t-618.5 -254zM1024 -10q307 0 517 210t210 517t-210 517t-517 210t-517 -210t-210 -517t210 -517t517 -210z" />
    <glyph glyph-name="uni2470" unicode="&#x2470;" 
d="M676 307v543h-184v164h133q51 0 51 51v61h174v-819h-174zM1034 307l287 666h-348v153h532v-153l-286 -666h-185zM1024 -154q-367 0 -618.5 254t-251.5 616.5t251.5 616.5t618.5 254t618.5 -254t251.5 -616.5t-251.5 -616.5t-618.5 -254zM1024 -10q307 0 517 210t210 517
t-210 517t-517 210t-517 -210t-210 -517t210 -517t517 -210z" />
    <glyph glyph-name="uni2471" unicode="&#x2471;" 
d="M666 307v543h-185v164h133q51 0 52 51v61h174v-819h-174zM1239 451q59 0 91 31.5t32 80.5q0 41 -33 72t-90 31t-90 -31t-33 -72q0 -49 32 -80.5t91 -31.5zM1239 297q-133 0 -215 66.5t-82 179.5q0 139 123 194q-45 23 -73.5 72t-28.5 102q0 96 74.5 161t201.5 65
t202 -64.5t75 -161.5q0 -53 -29 -102t-74 -72q123 -55 123 -194q0 -113 -82 -179.5t-215 -66.5zM1239 809q51 0 76.5 23.5t25.5 58.5q0 41 -25.5 66.5t-76.5 25.5t-76.5 -25.5t-25.5 -66.5q0 -35 25.5 -58.5t76.5 -23.5zM1024 -154q-367 0 -618.5 254t-251.5 616.5
t251.5 616.5t618.5 254t618.5 -254t251.5 -616.5t-251.5 -616.5t-618.5 -254zM1024 -10q307 0 517 210t210 517t-210 517t-517 210t-517 -210t-210 -517t210 -517t517 -210z" />
    <glyph glyph-name="uni2472" unicode="&#x2472;" 
d="M666 307v543h-185v164h133q51 0 52 51v61h174v-819h-174zM1094 307l180 266q-27 -10 -68 -10q-121 0 -198.5 81t-77.5 206q0 123 88 205t219 82q141 0 224 -85t83 -212q0 -139 -71 -246l-195 -287h-184zM1237 707q66 0 99.5 37.5t33.5 95t-32.5 95.5t-100.5 38
q-66 0 -99.5 -38t-33.5 -95.5t33.5 -95t99.5 -37.5zM1024 -154q-367 0 -618.5 254t-251.5 616.5t251.5 616.5t618.5 254t618.5 -254t251.5 -616.5t-251.5 -616.5t-618.5 -254zM1024 -10q307 0 517 210t210 517t-210 517t-517 210t-517 -210t-210 -517t210 -517t517 -210z
" />
    <glyph glyph-name="uni2473" unicode="&#x2473;" 
d="M430 307v154l297 287q82 82 82 143q0 35 -25.5 58.5t-77 23.5t-77 -25.5t-25.5 -66.5h-184q8 115 83 185.5t214 70.5q129 0 202.5 -68t73.5 -178q0 -119 -112 -225l-215 -205h317v-154h-553zM1341.5 297q-149.5 0 -238.5 108.5t-89 311.5t89 311.5t238.5 108.5
t238.5 -108.5t89 -311.5t-89 -311.5t-238.5 -108.5zM1341.5 461q65.5 0 109.5 65.5t44 190.5t-44 190.5t-109.5 65.5t-109.5 -65.5t-44 -190.5t44 -190.5t109.5 -65.5zM1024 -154q-367 0 -618.5 254t-251.5 616.5t251.5 616.5t618.5 254t618.5 -254t251.5 -616.5
t-251.5 -616.5t-618.5 -254zM1024 -10q307 0 517 210t210 517t-210 517t-517 210t-517 -210t-210 -517t210 -517t517 -210z" />
    <glyph glyph-name="uni24EA" unicode="&#x24ea;" 
d="M1024 297q-150 0 -239 108.5t-89 311.5t89 311.5t239 108.5t239 -108.5t89 -311.5t-89 -311.5t-239 -108.5zM1024 461q66 0 110 65.5t44 190.5t-44 190.5t-110 65.5t-110 -65.5t-44 -190.5t44 -190.5t110 -65.5zM1024 -154q-367 0 -618.5 254t-251.5 616.5t251.5 616.5
t618.5 254t618.5 -254t251.5 -616.5t-251.5 -616.5t-618.5 -254zM1024 -10q307 0 517 210t210 517t-210 517t-517 210t-517 -210t-210 -517t210 -517t517 -210z" />
    <glyph glyph-name="uni24EB" unicode="&#x24eb;" 
d="M737 307h174v819h-174v-61q0 -51 -51 -51h-133v-164h184v-543zM1024 -154q-367 0 -618.5 254t-251.5 616.5t251.5 616.5t618.5 254t618.5 -254t251.5 -616.5t-251.5 -616.5t-618.5 -254zM1219 307h174v819h-174v-61q0 -51 -52 -51h-133v-164h185v-543z" />
    <glyph glyph-name="uni24EC" unicode="&#x24ec;" 
d="M664 307h174v819h-174v-61q0 -51 -52 -51h-133v-164h185v-543zM1024 -154q-367 0 -618.5 254t-251.5 616.5t251.5 616.5t618.5 254t618.5 -254t251.5 -616.5t-251.5 -616.5t-618.5 -254zM963 307h553v154h-318l215 205q113 106 113 225q0 111 -74 178.5t-203 67.5
q-139 0 -213.5 -71t-83.5 -185h185q0 41 25.5 66.5t76.5 25.5t76.5 -23.5t25.5 -58.5q0 -61 -81 -143l-297 -287v-154z" />
    <glyph glyph-name="uni24ED" unicode="&#x24ed;" 
d="M655 307h174v819h-174v-61q0 -51 -51 -51h-133v-164h184v-543zM1024 -154q-367 0 -618.5 254t-251.5 616.5t251.5 616.5t618.5 254t618.5 -254t251.5 -616.5t-251.5 -616.5t-618.5 -254zM1229 297q145 0 221 73.5t76 182.5q0 123 -123 184q45 18 79 64.5t34 109.5
q0 94 -80 160t-207 66q-139 0 -214 -71t-83 -185h184q18 92 113 92q102 0 102 -82t-92 -82h-82v-154h82q51 0 76.5 -25.5t25.5 -66.5q0 -47 -29.5 -74.5t-82.5 -27.5q-98 0 -113 61h-184q14 -106 94 -165.5t203 -59.5z" />
    <glyph glyph-name="uni24EE" unicode="&#x24ee;" 
d="M655 307h174v819h-174v-61q0 -51 -51 -51h-133v-164h184v-543zM1024 -154q-367 0 -618.5 254t-251.5 616.5t251.5 616.5t618.5 254t618.5 -254t251.5 -616.5t-251.5 -616.5t-618.5 -254zM1280 307h174v174h123v154h-123v491h-215l-328 -491v-154h369v-174zM1085 635
l185 276h10v-276h-195z" />
    <glyph glyph-name="uni24EF" unicode="&#x24ef;" 
d="M645 307h174v819h-174v-61q0 -51 -51 -51h-133v-164h184v-543zM1024 -154q-367 0 -618.5 254t-251.5 616.5t251.5 616.5t618.5 254t618.5 -254t251.5 -616.5t-251.5 -616.5t-618.5 -254zM1229 297q137 0 222 82t85 207q0 127 -76 200.5t-200 73.5q-37 0 -70 -8t-47 -16
l-17 -7h-10l21 144h358v153h-502l-51 -460h174q35 51 103 51q66 0 104.5 -34t38.5 -99q0 -55 -36 -89t-97 -34q-104 0 -123 71h-184q16 -102 101 -168.5t206 -66.5z" />
    <glyph glyph-name="uni24F0" unicode="&#x24f0;" 
d="M645 307h174v819h-174v-61q0 -51 -51 -51h-133v-164h184v-543zM1024 -154q-367 0 -618.5 254t-251.5 616.5t251.5 616.5t618.5 254t618.5 -254t251.5 -616.5t-251.5 -616.5t-618.5 -254zM1239 297q131 0 219 82t88 205t-88 204.5t-219 81.5h-31l174 256h-184l-194 -286
q-72 -106 -72 -246q0 -127 83 -212t224 -85zM1239 461q-68 0 -100.5 38t-32.5 95t34 95t99.5 38t99 -38t33.5 -95t-33.5 -95t-99.5 -38z" />
    <glyph glyph-name="uni24F1" unicode="&#x24f1;" 
d="M676 307h174v819h-174v-61q0 -51 -51 -51h-133v-164h184v-543zM1024 -154q-367 0 -618.5 254t-251.5 616.5t251.5 616.5t618.5 254t618.5 -254t251.5 -616.5t-251.5 -616.5t-618.5 -254zM1034 307h185l286 666v153h-532v-153h348z" />
    <glyph glyph-name="uni24F2" unicode="&#x24f2;" 
d="M666 307h174v819h-174v-61q0 -51 -52 -51h-133v-164h185v-543zM1024 -154q-367 0 -618.5 254t-251.5 616.5t251.5 616.5t618.5 254t618.5 -254t251.5 -616.5t-251.5 -616.5t-618.5 -254zM1239 297q133 0 215 66.5t82 179.5q0 139 -123 194q45 23 74 72t29 102
q0 96 -75 161t-202 65t-201.5 -64.5t-74.5 -161.5q0 -53 28.5 -102t73.5 -72q-123 -55 -123 -194q0 -113 82 -179.5t215 -66.5zM1239 451q-59 0 -91 31.5t-32 80.5q0 41 33 72t90 31t90 -31t33 -72q0 -49 -32 -80.5t-91 -31.5zM1239 809q-51 0 -76.5 23.5t-25.5 58.5
q0 41 25.5 66.5t76.5 25.5t76.5 -25.5t25.5 -66.5q0 -35 -25.5 -58.5t-76.5 -23.5z" />
    <glyph glyph-name="uni24F3" unicode="&#x24f3;" 
d="M666 307h174v819h-174v-61q0 -51 -52 -51h-133v-164h185v-543zM1024 -154q-367 0 -618.5 254t-251.5 616.5t251.5 616.5t618.5 254t618.5 -254t251.5 -616.5t-251.5 -616.5t-618.5 -254zM1094 307h184l195 287q72 109 71 246q0 127 -83 212t-224 85q-131 0 -219 -82
t-88 -205t88 -205t219 -82h31zM1237 707q-66 0 -99.5 37.5t-33.5 95t33.5 95.5t99.5 38q68 0 100.5 -38t32.5 -95.5t-33.5 -95t-99.5 -37.5z" />
    <glyph glyph-name="uni24F4" unicode="&#x24f4;" 
d="M430 307h553v154h-317l215 205q113 106 112 225q0 111 -73.5 178.5t-202.5 67.5q-139 0 -214 -71t-83 -185h184q0 41 25.5 66.5t77 25.5t77 -23.5t25.5 -58.5q0 -61 -82 -143l-297 -287v-154zM1024 -154q-367 0 -618.5 254t-251.5 616.5t251.5 616.5t618.5 254
t618.5 -254t251.5 -616.5t-251.5 -616.5t-618.5 -254zM1341.5 297q149.5 0 238.5 108.5t89 311.5t-89 311.5t-238.5 108.5t-238.5 -108.5t-89 -311.5t89 -311.5t238.5 -108.5zM1341.5 461q-65.5 0 -109.5 65.5t-44 190.5t44 190.5t109.5 65.5t109.5 -65.5t44 -190.5
t-44 -190.5t-109.5 -65.5z" />
    <glyph glyph-name="uni24FF" unicode="&#x24ff;" 
d="M1024 -154q-367 0 -618.5 254t-251.5 616.5t251.5 616.5t618.5 254t618.5 -254t251.5 -616.5t-251.5 -616.5t-618.5 -254zM1024 297q150 0 239 108.5t89 311.5t-89 311.5t-239 108.5t-239 -108.5t-89 -311.5t89 -311.5t239 -108.5zM1024 461q-66 0 -110 65.5t-44 190.5
t44 190.5t110 65.5t110 -65.5t44 -190.5t-44 -190.5t-110 -65.5z" />
    <glyph glyph-name="lozenge" unicode="&#x25ca;" horiz-adv-x="1218" 
d="M537 0l-465 717l465 717h143l467 -717l-467 -717h-143zM608 195l334 522l-334 522l-332 -522z" />
    <glyph glyph-name="uni2776" unicode="&#x2776;" 
d="M973 307h174v819h-174v-61q0 -51 -51 -51h-134v-164h185v-543zM1024 -154q-367 0 -618.5 254t-251.5 616.5t251.5 616.5t618.5 254t618.5 -254t251.5 -616.5t-251.5 -616.5t-618.5 -254z" />
    <glyph glyph-name="uni2777" unicode="&#x2777;" 
d="M1024 -154q-367 0 -618.5 254t-251.5 616.5t251.5 616.5t618.5 254t618.5 -254t251.5 -616.5t-251.5 -616.5t-618.5 -254zM758 307h553v154h-318l215 205q113 106 113 225q0 111 -73.5 178.5t-203.5 67.5q-139 0 -213.5 -71t-82.5 -185h184q0 41 25.5 66.5t76.5 25.5
t77 -23.5t26 -58.5q0 -61 -82 -143l-297 -287v-154z" />
    <glyph glyph-name="uni2778" unicode="&#x2778;" 
d="M1024 -154q-367 0 -618.5 254t-251.5 616.5t251.5 616.5t618.5 254t618.5 -254t251.5 -616.5t-251.5 -616.5t-618.5 -254zM1034 297q145 0 221 73.5t76 182.5q0 123 -123 184q45 18 79 64.5t34 109.5q0 94 -80 160t-207 66q-139 0 -214 -71t-83 -185h185q18 92 112 92
q102 0 102.5 -82t-92.5 -82h-81v-154h81q51 0 77 -25.5t26 -66.5q0 -47 -30 -74.5t-83 -27.5q-96 0 -112 61h-185q14 -106 94 -165.5t203 -59.5z" />
    <glyph glyph-name="uni2779" unicode="&#x2779;" 
d="M840 635l184 276h10v-276h-194zM1034 307h174v174h123v154h-123v491h-215l-327 -491v-154h368v-174zM1024 -154q-367 0 -618.5 254t-251.5 616.5t251.5 616.5t618.5 254t618.5 -254t251.5 -616.5t-251.5 -616.5t-618.5 -254z" />
    <glyph glyph-name="uni277A" unicode="&#x277a;" 
d="M1024 -154q-367 0 -618.5 254t-251.5 616.5t251.5 616.5t618.5 254t618.5 -254t251.5 -616.5t-251.5 -616.5t-618.5 -254zM1034 297q137 0 222 82t85 207q0 127 -75.5 200.5t-200.5 73.5q-37 0 -69.5 -8t-49.5 -16l-14 -7h-10l20 144h358v153h-501l-51 -460h174
q35 51 102 51q66 0 104.5 -34t38.5 -99q0 -55 -35.5 -89t-97.5 -34q-104 0 -123 71h-184q16 -102 101 -168.5t206 -66.5z" />
    <glyph glyph-name="uni277B" unicode="&#x277b;" 
d="M1024 461q-68 0 -100.5 38t-32.5 95t33.5 95t99.5 38t99.5 -38t33.5 -95t-33.5 -95t-99.5 -38zM1024 297q131 0 219 82t88 205q0 125 -77.5 205.5t-198.5 80.5l-68 -10l180 266h-184l-195 -286q-72 -106 -71 -246q0 -127 83 -212t224 -85zM1024 -154q-367 0 -618.5 254
t-251.5 616.5t251.5 616.5t618.5 254t618.5 -254t251.5 -616.5t-251.5 -616.5t-618.5 -254z" />
    <glyph glyph-name="uni277C" unicode="&#x277c;" 
d="M1024 -154q-367 0 -618.5 254t-251.5 616.5t251.5 616.5t618.5 254t618.5 -254t251.5 -616.5t-251.5 -616.5t-618.5 -254zM829 307h185l286 666v153h-532v-153h348z" />
    <glyph glyph-name="uni277D" unicode="&#x277d;" 
d="M1024 -154q-367 0 -618.5 254t-251.5 616.5t251.5 616.5t618.5 254t618.5 -254t251.5 -616.5t-251.5 -616.5t-618.5 -254zM1024 297q133 0 215 66.5t82 179.5q0 139 -123 194q45 23 73.5 72t28.5 102q0 96 -74.5 161t-201.5 65t-201.5 -64.5t-74.5 -161.5
q0 -53 28.5 -102t73.5 -72q-123 -55 -123 -194q0 -113 82 -179.5t215 -66.5zM1024 451q-59 0 -91 31.5t-32 80.5q0 41 33 72t90 31t90 -31t33 -72q0 -49 -32 -80.5t-91 -31.5zM1024 809q-51 0 -76.5 23.5t-25.5 58.5q0 41 25.5 66.5t76.5 25.5t76.5 -25.5t25.5 -66.5
q0 -35 -25.5 -58.5t-76.5 -23.5z" />
    <glyph glyph-name="uni277E" unicode="&#x277e;" 
d="M1024 -154q-367 0 -618.5 254t-251.5 616.5t251.5 616.5t618.5 254t618.5 -254t251.5 -616.5t-251.5 -616.5t-618.5 -254zM881 307h184l195 287q72 106 71 246q0 127 -83 212t-224 85q-131 0 -219 -82t-88 -205q0 -125 77.5 -206t198.5 -81l68 10zM1024 707
q-66 0 -99.5 37.5t-33.5 95t33.5 95.5t99.5 38q68 0 100.5 -38t32.5 -95.5t-33.5 -95t-99.5 -37.5z" />
    <glyph glyph-name="uni277F" unicode="&#x277f;" 
d="M643 307h174v819h-174v-61q0 -51 -51 -51h-133v-164h184v-543zM1024 -154q-367 0 -618.5 254t-251.5 616.5t251.5 616.5t618.5 254t618.5 -254t251.5 -616.5t-251.5 -616.5t-618.5 -254zM1249.5 297q149.5 0 238.5 108.5t89 311.5t-89 311.5t-238.5 108.5t-238.5 -108.5
t-89 -311.5t89 -311.5t238.5 -108.5zM1249.5 461q-65.5 0 -109.5 65.5t-44 190.5t44 190.5t109.5 65.5t109.5 -65.5t44 -190.5t-44 -190.5t-109.5 -65.5z" />
    <glyph glyph-name="uni2921" unicode="&#x2921;" 
d="M1065 41v174h348l-891 891v-348h-174v614l21 21h614v-174h-348l891 -891v348h174v-615l-21 -20h-614z" />
    <glyph glyph-name="uni2922" unicode="&#x2922;" 
d="M369 41l-21 20v615h174v-348l891 891h-348v174h614l21 -21v-614h-174v348l-891 -891h348v-174h-614z" />
    <glyph glyph-name="uniE000" unicode="&#xe000;" 
d="M1044 0l-440 440v11l440 440l113 -113l-246 -246h523q51 0 76.5 26t25.5 67v542q0 41 -25.5 67t-76.5 26h-1096v174h1096q123 0 199.5 -75t76.5 -192v-544q0 -115 -77 -190t-199 -75h-523l246 -245z" />
    <glyph glyph-name="uniE001" unicode="&#xe001;" 
d="M614 0q-123 0 -199.5 75t-76.5 191v545q0 115 77 189.5t199 74.5h523l-246 246l113 113l440 -441v-10l-440 -440l-113 112l246 246h-523q-51 0 -76.5 -25.5t-25.5 -66.5v-543q0 -41 25.5 -66.5t76.5 -25.5h1096v-174h-1096z" />
    <glyph glyph-name="uniE002" unicode="&#xe002;" 
d="M1239 205l-600 518v8l600 518l102 -112l-467 -406v-8l467 -406z" />
    <glyph glyph-name="uniE003" unicode="&#xe003;" 
d="M614 410l-112 102l518 600h8l518 -600l-112 -102l-406 467h-8z" />
    <glyph glyph-name="uniE004" unicode="&#xe004;" 
d="M809 205l-102 112l467 406v8l-467 406l102 112l600 -518v-8z" />
    <glyph glyph-name="uniE005" unicode="&#xe005;" 
d="M1020 352l-518 600l112 103l406 -467h8l406 467l112 -103l-518 -600h-8z" />
    <glyph glyph-name="uniE006" unicode="&#xe006;" 
d="M1030 205l-600 518v8l600 518l103 -112l-467 -406v-8l467 -406zM1423 205l-600 518v8l600 518l103 -112l-467 -406v-8l467 -406z" />
    <glyph glyph-name="uniE007" unicode="&#xe007;" 
d="M614 215l-112 102l518 601h8l518 -601l-112 -102l-406 467h-8zM614 604l-112 103l518 600h8l518 -600l-112 -103l-406 467h-8z" />
    <glyph glyph-name="uniE008" unicode="&#xe008;" 
d="M625 205l-103 112l467 406v8l-467 406l103 112l600 -518v-8zM1018 205l-103 112l467 406v8l-467 406l103 112l600 -518v-8z" />
    <glyph glyph-name="uniE009" unicode="&#xe009;" 
d="M1020 143l-518 600l112 103l406 -467h8l406 467l112 -103l-518 -600h-8zM1020 532l-518 601l112 102l406 -467h8l406 467l112 -102l-518 -601h-8z" />
    <glyph glyph-name="uniE00A" unicode="&#xe00a;" 
d="M1147 328l-447 385v8l447 385l102 -113l-313 -272v-8l313 -273zM1024 -20q-315 0 -526 210.5t-211 526t211 526.5t526 211t526 -211t211 -526.5t-211 -526t-526 -210.5zM1024 154q238 0 400.5 162.5t162.5 400t-162.5 400.5t-400.5 163t-400.5 -163t-162.5 -400.5
t162.5 -400t400.5 -162.5z" />
    <glyph glyph-name="uniE00B" unicode="&#xe00b;" 
d="M1024 -20q-315 0 -526 210.5t-211 526t211 526.5t526 211t526 -211t211 -526.5t-211 -526t-526 -210.5zM1024 154q238 0 400.5 162.5t162.5 400t-162.5 400.5t-400.5 163t-400.5 -163t-162.5 -400.5t162.5 -400t400.5 -162.5zM748 471l-113 102l385 447h8l385 -447
l-113 -102l-272 313h-8z" />
    <glyph glyph-name="uniE00C" unicode="&#xe00c;" 
d="M1024 -20q-315 0 -526 210.5t-211 526t211 526.5t526 211t526 -211t211 -526.5t-211 -526t-526 -210.5zM1024 154q238 0 400.5 162.5t162.5 400t-162.5 400.5t-400.5 163t-400.5 -163t-162.5 -400.5t162.5 -400t400.5 -162.5zM901 328l-102 112l313 273v8l-313 272
l102 113l447 -385v-8z" />
    <glyph glyph-name="uniE00D" unicode="&#xe00d;" 
d="M1020 399l-385 447l113 102l272 -313h8l272 313l113 -102l-385 -447h-8zM1024 -20q-315 0 -526 210.5t-211 526t211 526.5t526 211t526 -211t211 -526.5t-211 -526t-526 -210.5zM1024 154q238 0 400.5 162.5t162.5 400t-162.5 400.5t-400.5 163t-400.5 -163
t-162.5 -400.5t162.5 -400t400.5 -162.5z" />
    <glyph glyph-name="uniE00E" unicode="&#xe00e;" 
d="M1024 0l-307 307l112 113l113 -113v246h174v-246l113 113l112 -113l-307 -307h-10zM338 635v174h1372v-174h-1372zM942 881v245l-113 -112l-112 112l307 308h10l307 -308l-112 -112l-113 112v-245h-174z" />
    <glyph glyph-name="uniE00F" unicode="&#xe00f;" 
d="M614 410l-307 307v10l307 307l113 -112l-113 -113h215v-174h-215l113 -113zM942 0v1434h174v-1434h-174zM1434 410l-113 112l113 113h-205v174h205l-113 113l113 112l307 -307v-10z" />
    <glyph glyph-name="uniE010" unicode="&#xe010;" 
d="M1024 0l-307 307l112 113l195 -195h10l195 195l112 -113l-307 -307h-10zM338 635v174h1372v-174h-1372zM829 1014l-112 112l307 308h10l307 -308l-112 -112l-195 194h-10z" />
    <glyph glyph-name="uniE011" unicode="&#xe011;" 
d="M614 410l-307 307v10l307 307l113 -112l-195 -195v-10l195 -195zM942 0v1434h174v-1434h-174zM1434 410l-113 112l195 195v10l-195 195l113 112l307 -307v-10z" />
    <glyph glyph-name="uniE012" unicode="&#xe012;" 
d="M328 0l-21 20v492h174v-225l430 430l-430 430v-225h-174v491l21 21h491v-174h-225l430 -431l430 431h-225v174h491l21 -21v-491h-174v225l-430 -430l430 -430v225h174v-492l-21 -20h-491v174h225l-430 430l-430 -430h225v-174h-491z" />
    <glyph glyph-name="uniE013" unicode="&#xe013;" 
d="M1024 0l-307 307l112 113l113 -113v328h-328l113 -113l-113 -112l-307 307v10l307 307l113 -112l-113 -113h328v317l-113 -112l-112 112l307 308h10l307 -308l-112 -112l-113 112v-317h318l-113 113l113 112l307 -307v-10l-307 -307l-113 112l113 113h-318v-328l113 113
l112 -113l-307 -307h-10z" />
    <glyph glyph-name="uniE014" unicode="&#xe014;" 
d="M641 399q-37 0 -62.5 26t-25.5 60q0 37 25.5 62.5t62.5 25.5h281v-174h-281zM539 625q-37 0 -62.5 25.5t-25.5 60.5q0 37 25.5 62.5t62.5 25.5h383v-174h-383zM354 850q-37 0 -62.5 25.5t-25.5 60.5q0 37 25.5 62.5t62.5 25.5h568v-174h-568zM750 174q-37 0 -62.5 25.5
t-25.5 60.5q0 37 25.5 62.5t62.5 25.5h786v563h-195l-225 164h-414q-37 0 -62.5 25.5t-25.5 60.5q0 37 26 62.5t62 25.5h496l225 -164h287v-911h-960z" />
    <glyph glyph-name="uniE015" unicode="&#xe015;" 
d="M481 0v952q0 37 25.5 62.5t60.5 25.5q37 0 62.5 -25.5t25.5 -62.5v-778h574v195l164 225v403q0 37 25.5 62.5t60.5 25.5q37 0 62.5 -25.5t25.5 -62.5v-485l-164 -225v-287h-922zM707 778v281q0 37 25.5 62.5t60.5 25.5q37 0 62.5 -25.5t25.5 -62.5v-281h-174zM932 778
v383q0 37 25.5 62.5t60.5 25.5q37 0 62.5 -25.5t25.5 -62.5v-383h-174zM1157 778v568q0 37 25.5 62.5t60.5 25.5q37 0 62.5 -26t25.5 -62v-568h-174z" />
    <glyph glyph-name="uniE016" unicode="&#xe016;" 
d="M338 174v911h287l225 164h496q37 0 62.5 -25.5t25.5 -62.5q0 -35 -26 -60.5t-62 -25.5h-414l-225 -164h-195v-563h786q37 0 62.5 -25.5t25.5 -62.5q0 -35 -25.5 -60.5t-62.5 -25.5h-960zM1126 399v174h281q37 0 62.5 -25.5t25.5 -62.5q0 -35 -25.5 -60.5t-62.5 -25.5
h-281zM1126 625v174h383q37 0 62.5 -25.5t25.5 -62.5q0 -35 -25.5 -60.5t-62.5 -25.5h-383zM1126 850v174h568q37 0 62.5 -25.5t25.5 -62.5q0 -35 -25.5 -60.5t-62.5 -25.5h-568z" />
    <glyph glyph-name="uniE017" unicode="&#xe017;" 
d="M805 0q-37 0 -62.5 25.5t-25.5 62.5v567h174v-567q0 -37 -25.5 -62.5t-60.5 -25.5zM1030 184q-37 0 -62.5 26t-25.5 62v383h174v-383q0 -37 -25.5 -62.5t-60.5 -25.5zM1255 287q-37 0 -62.5 25.5t-25.5 62.5v280h174v-280q0 -37 -25.5 -62.5t-60.5 -25.5zM569 348
q-37 0 -62.5 25.5t-25.5 62.5v486l164 225v287h922v-953q0 -37 -25.5 -62.5t-60.5 -25.5q-37 0 -62.5 25.5t-25.5 62.5v779h-574v-195l-164 -225v-404q0 -37 -25.5 -62.5t-60.5 -25.5z" />
    <glyph glyph-name="uniE018" unicode="&#xe018;" 
d="M922 266h10v891q0 51 -25.5 77t-66.5 26h-308v-984h308zM932 0q0 51 -25.5 76.5t-66.5 25.5h-482v1332h482q121 0 164 -72h30q43 72 164 72h492v-1332h-492q-41 0 -66.5 -25.5t-25.5 -76.5h-174zM1106 266h10q31 10 82 10h318v984h-318q-41 0 -66.5 -26t-25.5 -77v-891z
" />
    <glyph glyph-name="uniE019" unicode="&#xe019;" 
d="M1024 -20q-315 0 -526 210.5t-211 526t211 526.5t526 211t526 -211t211 -526.5t-211 -526t-526 -210.5zM1024 154q238 0 400.5 162.5t162.5 400t-162.5 400.5t-400.5 163t-400.5 -163t-162.5 -400.5t162.5 -400t400.5 -162.5zM932 287v348h-338v174h338v338h174v-338h348
v-174h-348v-348h-174z" />
    <glyph glyph-name="uniE01A" unicode="&#xe01a;" 
d="M573 143l-112 113l461 461l-461 461l112 112l461 -461l461 461l113 -112l-461 -461l461 -461l-113 -113l-461 461z" />
    <glyph glyph-name="uniE01B" unicode="&#xe01b;" 
d="M571 377l791 790q-152 113 -338 113q-238 0 -400.5 -163t-162.5 -400q-1 -190 110 -340zM1024 -20q-315 0 -526 210.5t-211 526t211 526.5t526 211t526 -211t211 -526.5t-211 -526t-526 -210.5zM1024 154q238 0 400.5 162.5t162.5 400.5q0 186 -112 338l-791 -791
q150 -110 340 -110z" />
    <glyph glyph-name="uniE01C" unicode="&#xe01c;" 
d="M604 410l-307 307l113 112l112 -112v452q0 115 77 190t200 75h645v-174h-645q-51 0 -77 -26t-26 -67v-450l113 112l113 -112l-308 -307h-10zM604 0v174h645q51 0 77 25.5t26 66.5v451l-113 -113l-113 113l308 307h10l307 -307l-113 -113l-112 113v-453q0 -115 -77 -189.5
t-200 -74.5h-645z" />
    <glyph glyph-name="uniE01D" unicode="&#xe01d;" 
d="M819 604q137 0 232.5 95.5t95.5 232.5t-95.5 232.5t-232.5 95.5t-232 -95.5t-95 -232.5t95 -232.5t232 -95.5zM584 932q0 100 67.5 167.5t167.5 67.5v-174q-23 0 -42 -19.5t-19 -41.5h-174zM1485 0q-84 0 -144 61l-387 388q-66 -18 -135 -19q-207 0 -354.5 147.5
t-147.5 354.5t147.5 354.5t354.5 147.5t354.5 -147.5t147.5 -354.5q0 -76 -27 -160l381 -377q61 -66 62 -143q0 -84 -62 -146l-45 -45q-61 -61 -145 -61zM1493 174q18 0 29 10l37 37q12 12 12 28.5t-12 29.5l-345 344q-45 -55 -96 -93l346 -346q11 -10 29 -10z" />
    <glyph glyph-name="uniE01E" unicode="&#xe01e;" 
d="M625 174q39 0 65.5 26.5t26.5 65.5t-26.5 65.5t-65.5 26.5t-66 -26.5t-27 -65.5t27 -65.5t66 -26.5zM624.5 0q-110.5 0 -188.5 78t-78 188.5t78 188t189 77.5q92 0 166 -57l368 197q-2 14 -2 35l4 47l-377 200q-70 -53 -159 -53q-111 0 -189 78t-78 188.5t78 188.5
t188.5 78t188.5 -78t78 -189q0 -31 -6 -55l370 -199q72 59 168 60q111 0 189 -78t78 -188.5t-78 -188.5t-189 -78q-104 0 -178 68l-358 -193q4 -33 4 -49q0 -111 -78 -188.5t-188.5 -77.5zM625 1075q39 0 65.5 26.5t26.5 65.5t-26.5 66t-65.5 27t-66 -27t-27 -66t27 -65.5
t66 -26.5zM1423 614q39 0 66 27t27 65.5t-27 65.5t-66 27t-65.5 -27t-26.5 -65.5t26.5 -65.5t65.5 -27z" />
    <glyph glyph-name="uniE01F" unicode="&#xe01f;" 
d="M1024 -20q-170 0 -315.5 66.5t-247.5 184.5v-231h-174v512h512v-174h-195q168 -184 420 -184q238 0 400.5 162.5t162.5 400.5h174q0 -315 -211 -526t-526 -211zM287 717q0 315 211 526t526 211q170 0 315.5 -66.5t247.5 -185.5v232h174v-512h-512v174h195
q-168 184 -420 184q-238 0 -400.5 -163t-162.5 -400h-174z" />
    <glyph glyph-name="uniE020" unicode="&#xe020;" 
d="M1024 -20q-315 0 -526 210.5t-211 526.5q0 348 252 563h-232v174h512v-512h-174v195q-184 -164 -184 -420q0 -238 162.5 -400.5t400.5 -162.5t400.5 162.5t162.5 400t-162.5 400.5t-400.5 163v174q315 0 526 -211t211 -526.5t-211 -526t-526 -210.5z" />
    <glyph glyph-name="uniE021" unicode="&#xe021;" 
d="M1024 -20q-170 0 -315.5 66.5t-247.5 184.5v-231h-174v512h512v-174h-195q168 -184 420 -184q188 0 338 110l-791 791q-111 -150 -110 -338h-174q0 270 157 467l-137 137l113 113l137 -138q201 158 467 158q170 0 315.5 -66.5t247.5 -185.5v232h174v-512h-512v174h195
q-168 184 -420 184q-188 0 -340 -113l791 -790q113 152 112 340h174q0 -266 -157 -467l137 -137l-113 -113l-137 137q-197 -157 -467 -157z" />
    <glyph glyph-name="uniE022" unicode="&#xe022;" 
d="M932 0v328l-113 -113l-112 113l307 307h10l307 -307l-112 -113l-113 113v-328h-174zM522 0q-123 0 -199.5 75t-76.5 191v328q0 117 76.5 191.5t199.5 74.5h21v21q0 117 76.5 191.5t199.5 74.5h21v20q0 117 76.5 192t199.5 75h92q123 0 200 -75t77 -192v-163h31
q123 0 199.5 -75t76.5 -192v-471q0 -117 -77 -191.5t-199 -74.5h-144v174h144q51 0 76.5 25.5t25.5 66.5v471q0 41 -25.5 66.5t-76.5 25.5h-205v338q0 41 -25.5 67t-77.5 26h-92q-51 0 -76.5 -26t-25.5 -67v-194h-195q-51 0 -76.5 -25.5t-25.5 -66.5v-195h-195
q-51 0 -76.5 -25.5t-25.5 -66.5v-328q0 -41 25.5 -66.5t76.5 -25.5h144v-174h-144z" />
    <glyph glyph-name="uniE023" unicode="&#xe023;" 
d="M1014 0l-307 307l112 113l113 -113v328h174v-328l113 113l112 -113l-307 -307h-10zM522 0q-123 0 -199.5 75t-76.5 191v328q0 117 76.5 191.5t199.5 74.5h21v21q0 117 76.5 191.5t199.5 74.5h21v20q0 117 76.5 192t199.5 75h92q123 0 200 -75t77 -192v-163h31
q123 0 199.5 -75t76.5 -192v-471q0 -117 -77 -191.5t-199 -74.5h-144v174h144q51 0 76.5 25.5t25.5 66.5v471q0 41 -25.5 66.5t-76.5 25.5h-205v338q0 41 -25.5 67t-77.5 26h-92q-51 0 -76.5 -26t-25.5 -67v-194h-195q-51 0 -76.5 -25.5t-25.5 -66.5v-195h-195
q-51 0 -76.5 -25.5t-25.5 -66.5v-328q0 -41 25.5 -66.5t76.5 -25.5h144v-174h-144z" />
    <glyph glyph-name="uniE024" unicode="&#xe024;" 
d="M481 0v1434h1086v-1434h-287l-246 422h-20l-246 -422h-287zM655 184h11l245 420h226l245 -420h11v1076h-738v-1076z" />
    <glyph glyph-name="uniE025" unicode="&#xe025;" 
d="M559 109l752 751l-144 144l-755 -756zM297 0v358l1075 1076l369 -369l-1065 -1065h-379zM1423 973l93 92l-144 143l-92 -92z" />
    <glyph glyph-name="uniE026" unicode="&#xe026;" 
d="M707 174h634q51 0 77 25.5t26 66.5v686h-144v-665h-174v665h-204v-665h-174v665h-144v-686q0 -41 26 -66.5t77 -25.5zM707 0q-123 0 -200 75t-77 191v686h-92v174h328v308h716v-308h328v-174h-92v-686q0 -117 -77 -191.5t-200 -74.5h-634zM840 1126h368v134h-368v-134z
" />
    <glyph glyph-name="uniE027" unicode="&#xe027;" 
d="M1024 -20q-315 0 -526 210.5t-211 526t211 526.5t526 211t526 -211t211 -526.5t-211 -526t-526 -210.5zM1024 154q238 0 400.5 162.5t162.5 400t-162.5 400.5t-400.5 163t-400.5 -163t-162.5 -400.5t162.5 -400t400.5 -162.5zM768 338l-113 113l267 266l-277 276l113 113
l276 -277l266 267l113 -113l-266 -266l256 -256l-113 -113l-256 256z" />
    <glyph glyph-name="uniE028" unicode="&#xe028;" 
d="M1024 -20q-315 0 -526 210.5t-211 526t211 526.5t526 211q190 0 348 -82l-92 -151q-119 59 -256 59q-238 0 -400.5 -163t-162.5 -400.5t162.5 -400t400.5 -162.5t400.5 162.5t162.5 400.5q0 82 -12 131l115 196q72 -154 71 -327q0 -315 -211 -526t-526 -211zM952 297
l-307 532l156 89l203 -355h40l502 881l160 -78l-610 -1069h-144z" />
    <glyph glyph-name="uniE029" unicode="&#xe029;" 
d="M328 0v1434h901v-174h-727v-1086h1044v645h174v-819h-1392zM922 297l-308 532l156 89l203 -355h41l502 881l159 -78l-610 -1069h-143z" />
    <glyph glyph-name="uniE02A" unicode="&#xe02a;" 
d="M573 174h277v502h338v-502h276v643l-440 381h-10l-441 -389v-635zM399 0v676h-102v123l717 635h10l246 -217v155h276v-401l195 -172v-123h-103v-676h-1239z" />
    <glyph glyph-name="uniE02B" unicode="&#xe02b;" 
d="M553 307v174h430v-174h-430zM553 563v174h532v-174h-532zM532 174h697q-20 31 -21 92v994h-778v-994q0 -41 25.5 -66.5t76.5 -25.5zM553 985v174h532v-174h-532zM532 0q-123 0 -199.5 75t-76.5 191v1168h1126v-349h400v-819q0 -117 -77 -191.5t-200 -74.5h-973zM1485 174
h20q51 0 77 25.5t26 66.5v645h-226v-645q0 -41 26 -66.5t77 -25.5z" />
    <glyph glyph-name="uniE02C" unicode="&#xe02c;" 
d="M932 307v594h174v-594h-174zM1024 -20q-315 0 -526 210.5t-211 526t211 526.5t526 211t526 -211t211 -526.5t-211 -526t-526 -210.5zM1024 154q238 0 400.5 162.5t162.5 400t-162.5 400.5t-400.5 163t-400.5 -163t-162.5 -400.5t162.5 -400t400.5 -162.5zM1024 973
q-45 0 -73.5 27.5t-28.5 74.5t28.5 75t73.5 28t73.5 -28t28.5 -75t-28.5 -74.5t-73.5 -27.5z" />
    <glyph glyph-name="uniE02D" unicode="&#xe02d;" 
d="M297 0v1434h809v-174h-635v-1086h1096v625h174v-799h-1444zM1055 635l-113 113l512 512h-164v174h430l21 -21v-430h-174v164z" />
    <glyph glyph-name="uniE02E" unicode="&#xe02e;" 
d="M502 174h1044v737h-1044v-737zM686 594v174h676v-174h-676zM328 0v1434h1392v-1434h-1392zM502 1085h1044v175h-1044v-175z" />
    <glyph glyph-name="uniE02F" unicode="&#xe02f;" 
d="M328 0v1434h1392v-1434h-1392zM502 174h1044v1086h-1044v-1086zM840 397l-31 23l31 225l-144 143l11 41l215 41l92 205h41l92 -205l215 -41l10 -41l-143 -143l31 -225l-31 -23l-195 107z" />
    <glyph glyph-name="uniE030" unicode="&#xe030;" 
d="M645 174h758q51 0 76.5 25.5t25.5 66.5v338h-266v-153h-430v153h-266v-338q0 -41 25.5 -66.5t76.5 -25.5zM645 0q-123 0 -199.5 75t-76.5 191v860h286v41q0 117 77 192t200 75h184q123 0 200 -75t77 -192v-41h286v-860q0 -117 -76.5 -191.5t-199.5 -74.5h-758zM543 778
h962v174h-962v-174zM829 1126h390v41q0 41 -26 67t-77 26h-184q-51 0 -77 -26t-26 -67v-41z" />
    <glyph glyph-name="uniE031" unicode="&#xe031;" 
d="M338 113v174h1372v-174h-1372zM338 635v174h1372v-174h-1372zM338 1147v174h1372v-174h-1372z" />
    <glyph glyph-name="uniE032" unicode="&#xe032;" 
d="M676 0v266h-72q-123 0 -199.5 75t-76.5 191v635q0 117 76.5 192t199.5 75h840q123 0 199.5 -75t76.5 -192v-635q0 -117 -76.5 -191.5t-199.5 -74.5h-225l-195 -266h-348zM850 174h72l194 266h328q51 0 76.5 26t25.5 66v635q0 41 -25.5 67t-76.5 26h-840q-51 0 -76.5 -26
t-25.5 -67v-635q0 -41 25.5 -66.5t76.5 -25.5h246v-266zM932 522v410h174v-410h-174zM1024 1004q-45 0 -73.5 28.5t-28.5 73.5t28.5 73.5t73.5 28.5t73.5 -28.5t28.5 -73.5t-28.5 -73.5t-73.5 -28.5z" />
    <glyph glyph-name="uniE033" unicode="&#xe033;" 
d="M461 0v461q0 117 76.5 191.5t199.5 74.5h574q123 0 199.5 -74.5t76.5 -191.5v-461h-1126zM635 174h778v287q0 41 -25.5 66.5t-76.5 25.5h-123l-154 -156h-20l-154 156h-123q-51 0 -76.5 -25.5t-25.5 -66.5v-287zM983 850q-123 0 -199.5 74.5t-76.5 191.5v318h634v-318
q0 -117 -76.5 -191.5t-199.5 -74.5h-82zM983 1024h82q51 0 76.5 25.5t25.5 66.5v144h-286v-144q0 -41 25.5 -66.5t76.5 -25.5z" />
    <glyph glyph-name="uniE034" unicode="&#xe034;" 
d="M451 0v1434h757l389 -390v-1044h-1146zM625 174h798v778h-327v308h-471v-1086z" />
    <glyph glyph-name="uniE035" unicode="&#xe035;" 
d="M727 246v174h451v-174h-451zM727 502v174h594v-174h-594zM451 0v1434h757l389 -390v-1044h-1146zM625 174h798v778h-327v308h-471v-1086z" />
    <glyph glyph-name="uniE036" unicode="&#xe036;" 
d="M727 307v21l266 266l133 -133l31 31l164 -164v-21h-594zM451 0v1434h757l389 -390v-1044h-1146zM625 174h798v778h-327v308h-471v-1086zM1167 614q-39 0 -65.5 27t-26.5 65.5t26.5 65.5t65.5 27t66 -27t27 -65.5t-27 -65.5t-66 -27z" />
    <glyph glyph-name="uniE037" unicode="&#xe037;" 
d="M502 348v10l471 471l194 -194l52 51l327 -328v-10h-205l-122 123l-123 -123h-195v10l158 160l-86 86l-256 -256h-215zM225 0v1434h1598v-1434h-1598zM399 174h1250v1086h-1250v-1086zM1229 881q-39 0 -65.5 26.5t-26.5 65.5t26.5 65.5t65.5 26.5t65.5 -26.5t26.5 -65.5
t-26.5 -65.5t-65.5 -26.5z" />
    <glyph glyph-name="uniE038" unicode="&#xe038;" 
d="M502 174h1044v553h-1044v-553zM328 0v1434h460l82 -185h850v-1249h-1392zM502 901h1044v174h-1044v-174z" />
    <glyph glyph-name="uniE039" unicode="&#xe039;" 
d="M502 174h78l116 737h850v164h-1044v-901zM754 174h819l84 563h-815zM328 0v1434h460l82 -185h850v-338h113v-163l-113 -748h-1392z" />
    <glyph glyph-name="uniE03A" unicode="&#xe03a;" 
d="M868 299q59 59 155.5 59t156.5 -59l18 10q0 72 70 154q82 70 153 69l9 19q-57 61 -57.5 155.5t57.5 155.5l-9 19q-76 0 -153 69q-70 78 -70 154l-18 6q-61 -55 -155.5 -55t-156.5 55l-18 -6q0 -76 -70 -154q-78 -70 -153 -69l-11 -19q59 -59 59.5 -155.5t-59.5 -155.5
l11 -19q72 0 153 -69q70 -82 70 -154zM1024 594q-51 0 -87 36t-36 87t36 87t87 36t87 -36t36 -87t-36 -87t-87 -36zM819 0q-162 61 -164 61q39 68 46.5 122.5t-7 87t-49.5 67.5q-106 106 -276 10l-62 164q111 29 148 80t37 125q0 160 -185 205l62 163q170 -96 276 11
q35 35 49.5 67.5t7 87t-46.5 121.5l164 62q29 -111 80 -148t125 -37q160 0 205 185l164 -62q-39 -68 -46.5 -122t7 -87t49.5 -67q106 -106 276 -11l62 -163q-184 -45 -185 -205q0 -74 37 -125t148 -80l-62 -164q-170 96 -276 -10q-35 -35 -49.5 -67.5t-7 -87t46.5 -122.5
q-160 -61 -164 -61q-45 184 -205 184q-74 0 -125 -36.5t-80 -147.5z" />
    <glyph glyph-name="uniE03B" unicode="&#xe03b;" 
d="M553 553l-164 72l51 102l-51 51l-113 -30l-71 153l102 51v103l-102 51l71 154l103 -31l61 61l-41 92l144 72l51 -102h133l51 102l144 -72l-41 -92l61 -61l102 31l72 -154l-102 -51v-103l102 -51l-72 -153l-112 30l-51 -51l51 -102l-164 -72l-51 102h-113zM655.5 778
q92.5 0 159 66.5t66.5 159t-66.5 159t-159 66.5t-159 -66.5t-66.5 -159t66.5 -159t159 -66.5zM655 901q-45 0 -73.5 28.5t-28.5 74t28.5 74t73.5 28.5t74 -28.5t29 -74t-29 -74t-74 -28.5zM1280 -20l-164 71l51 103l-51 51l-112 -31l-72 154l102 51v102l-102 51l72 154
l102 -31l61 62l-41 92l144 72l51 -103h133l51 103l144 -72l-41 -92l61 -62l103 31l71 -154l-102 -51v-102l102 -51l-71 -154l-113 31l-51 -51l51 -103l-164 -71l-51 102h-113zM1382.5 205q92.5 0 159 66.5t66.5 158.5t-66.5 158.5t-159 66.5t-159 -66.5t-66.5 -158.5
t66.5 -158.5t159 -66.5zM1382.5 328q-47.5 0 -75 28.5t-27.5 73.5t27.5 73.5t75 28.5t75 -28.5t27.5 -73.5t-27.5 -73.5t-75 -28.5z" />
    </font>
</defs>
</svg>
